<svg width="87" height="73" viewBox="0 0 87 73" fill="none" xmlns="http://www.w3.org/2000/svg">
<path d="M-3.67079e-06 19.1099C-4.58965e-06 29.6204 6.67763 36.6911 18.3158 36.6911C20.796 36.6911 23.2763 36.3089 25.375 35.3534C22.8947 45.8639 13.7368 51.4057 -6.71136e-06 53.89L7.44078 73C17.171 69.9424 24.9934 64.0183 30.9079 55.4188C36.8224 46.8194 39.6842 37.2644 39.6842 26.5628C39.6842 8.21728 30.9079 3.89368e-07 18.6974 -6.7811e-07C8.20394 -1.59547e-06 -2.68511e-06 7.83508 -3.67079e-06 19.1099ZM47.3158 19.1099C47.3158 29.6204 53.9934 36.6911 65.6316 36.6911C68.1118 36.6911 70.5921 36.3089 72.6908 35.3534C70.2105 45.8639 61.0526 51.4058 47.3158 53.89L54.7566 73C64.4868 69.9424 72.3092 64.0183 78.2237 55.4188C84.1382 46.8194 87 37.2644 87 26.5628C87 8.21728 78.2237 4.52585e-06 66.0132 3.45837e-06C55.5197 2.541e-06 47.3158 7.83508 47.3158 19.1099Z" fill="#F8F8F7"/>
</svg>
