<svg width="81" height="190" viewBox="0 0 81 190" fill="none" xmlns="http://www.w3.org/2000/svg">
<path d="M34.7803 0.691517C35.599 1.68749 35.3634 2.49051 34.5261 3.22434C31.0935 6.25974 28.5222 10.0815 25.3931 13.4085C23.6219 15.286 22.1957 17.801 20.4874 19.8066C16.3288 24.6973 13.6093 30.4046 10.5743 35.9141C8.96824 38.8259 8.46262 42.3278 7.21474 45.4542C5.16306 50.5973 4.91278 56.0203 4.42275 61.4031C3.80974 68.1549 5.1974 74.7777 5.95089 81.4268C6.39581 85.3367 8.14902 88.9538 9.53745 92.6243C10.1189 94.1766 9.52979 96.2973 11.4023 96.9102C13.0364 100.003 14.8096 102.59 16.8645 104.77C17.9654 104.568 18.1055 103.959 18.3114 103.395C21.0764 95.8014 25.5265 89.4752 32.438 85.1695C34.606 83.8219 37.3473 83.8216 39.8406 83.35C44.858 82.4038 48.8058 85.0824 52.0887 88.2427C54.1455 90.2174 54.5353 93.5151 54.7558 96.4165C54.9441 98.9609 54.7047 101.544 54.4931 104.093C54.3225 106.187 53.5567 108.169 52.3337 109.863C50.2092 112.832 47.9541 115.833 44.4669 117.238C40.6731 118.774 36.7307 119.571 32.5523 118.436C27.8057 117.146 23.7198 114.644 19.7183 111.94C19.5869 111.849 19.3823 111.857 19.0796 111.802C16.8393 119.75 18.1596 127.562 20.14 135.52C21.2122 143.313 25.7689 149.783 28.2492 154.405C36.5213 166.784 45.9976 173.275 57.6252 176.865C58.5896 177.2 59.5509 176.589 60.1565 176.473C65.0735 177.716 68.8983 175.273 73.4296 174.402C71.1827 172.825 68.3624 173.542 66.9075 171.184C65.6801 169.186 63.2126 168.122 62.516 165.521C62.5099 164.884 62.9332 164.455 63.5963 164.179C66.7937 164.569 68.353 167.175 70.4368 168.993C73.452 170.779 77.1902 170.905 80.3338 173.203C75.8916 178.593 71.5701 183.498 68.6903 189.477C67.5627 184.6 71.4202 181.722 73.1814 177.798C71.7776 178.285 70.5119 178.594 69.3497 179.141C66.542 180.454 63.5469 180.94 60.6376 180.102C56.4436 178.906 51.6504 179.719 48.022 176.939C45.3088 174.859 42.1053 173.831 39.2651 172.051C35.4134 169.641 32.7445 166.23 29.4865 163.345C28.6269 162.579 28.1109 161.412 27.457 160.422C24.9364 156.606 21.7046 153.215 20.2277 148.792C18.9727 145.006 16.6908 141.56 16.6108 137.37C16.5837 136.159 16.0317 134.933 15.5574 133.773C15.0194 132.474 14.4544 131.218 15.1652 129.992C13.7767 126.547 13.5975 117.614 14.8069 115.541C14.7169 112.607 14.7169 112.607 15.6569 110.28C14.5465 107.757 12.2553 106.029 10.9096 103.631C9.06183 100.331 7.07695 97.1047 5.90607 93.4557C5.37839 91.8163 4.39978 90.2999 4.02394 88.6365C2.56394 82.2362 1.01412 75.8646 1.06793 69.1736C1.0888 66.6721 0.733846 64.1016 0.831588 61.5417C0.92565 58.9411 1.03081 56.3497 1.7164 53.8191C2.77308 49.9384 3.60853 45.9954 4.84477 42.1705C6.75433 36.2482 9.197 30.5453 12.8651 25.4519C13.622 24.3962 14.0903 23.099 15.3598 22.604C17.4275 16.9554 31.2494 0.588115 34.7803 0.691517ZM20.2681 107.22C23.1426 110.633 27.7472 110.918 30.4933 113.705C38.4778 115.947 45.5926 115.604 49.7976 107.243C51.9034 103.041 51.7874 98.5666 50.9985 94.0294C50.4282 90.7788 48.1296 88.9699 45.5497 87.0013C44.3769 86.747 42.746 87.7889 41.4192 86.3964C39.8993 87.6444 38.1417 86.9388 36.5259 87.3519C32.9038 88.2854 30.6887 91.0465 28.1674 93.3722C26.9919 94.4554 26.3374 96.078 25.3794 97.409C23.1975 100.424 21.5523 103.7 20.2681 107.22Z" fill="#EDBA2B"/>
</svg>
