<svg width="132" height="23" viewBox="0 0 132 23" fill="none" xmlns="http://www.w3.org/2000/svg">
<g clip-path="url(#clip0_3319_6961)">
<path d="M0.558723 10.9144C1.02432 8.45094 3.16609 6.74548 6.14595 6.74548C9.5914 6.74548 12.2919 8.26144 12.2919 12.9988V21.8103H9.31204L8.93956 19.9154C7.91524 21.2419 6.51843 22.0946 4.46978 22.0946C1.95553 22.0946 0 20.4839 0 17.5467C0 14.6095 2.60737 12.7146 6.23907 12.7146H8.6602V12.0513C8.6602 10.3459 7.44963 9.87215 6.05283 9.87215C5.0285 9.87215 4.00418 10.2511 3.53858 11.5776L0.558723 10.9144ZM5.30786 18.9679C6.98403 18.9679 8.6602 17.8309 8.6602 15.936V15.6518H6.33219C4.74914 15.557 3.81794 16.2202 3.81794 17.5467C3.81794 18.2099 4.37666 18.9679 5.30786 18.9679Z" fill="#B0AEAE"/>
<path d="M70.7697 10.9144C71.2353 8.45094 73.377 6.74548 76.3569 6.74548C79.8023 6.74548 82.5028 8.26144 82.5028 12.9988V21.8103H79.523L79.1505 19.9154C78.1262 21.2419 76.7294 22.0946 74.6807 22.0946C72.1665 22.0946 70.2109 20.4839 70.2109 17.5467C70.2109 14.6095 72.8183 12.7146 76.45 12.7146H78.8711V12.0513C78.8711 10.3459 77.6606 9.87215 76.2638 9.87215C75.2394 9.87215 74.2151 10.2511 73.7495 11.5776L70.7697 10.9144ZM75.5188 18.9679C77.195 18.9679 78.8711 17.8309 78.8711 15.936V15.6518H76.45C74.867 15.6518 73.9358 16.2202 73.9358 17.5467C74.0289 18.2099 74.5876 18.9679 75.5188 18.9679Z" fill="#B0AEAE"/>
<path d="M85.7617 21.9051V6.93498H89.3934V9.39842C90.4177 7.59821 92.0939 6.74548 93.677 6.74548C94.3288 6.74548 94.8875 6.84023 95.4462 7.02973L94.7944 10.4406C94.3288 10.1564 93.8632 9.9669 93.3045 9.9669C91.1627 9.9669 89.3934 11.7671 89.3934 16.5045V21.8103L85.7617 21.9051Z" fill="#B0AEAE"/>
<path d="M103.178 6.74493C104.668 6.74493 106.065 7.50292 106.717 8.35564V0.965332H110.348V21.9045H106.717V20.3886C106.251 21.1466 104.947 22.1888 103.178 22.1888C98.8013 22.1888 96.5664 19.0621 96.5664 14.5142C96.5664 9.96635 98.8013 6.74493 103.178 6.74493ZM103.737 18.9674C105.599 18.9674 107.089 17.3567 107.089 14.4195C107.089 11.4823 105.599 9.8716 103.737 9.8716C101.874 9.8716 100.384 11.4823 100.384 14.4195C100.384 17.3567 101.874 18.9674 103.737 18.9674Z" fill="#B0AEAE"/>
<path d="M123.382 9.11531L121.24 11.105C120.588 10.1575 119.564 9.77855 118.819 9.77855C118.074 9.77855 117.422 10.2523 117.422 11.0103C117.422 11.6735 117.981 12.1472 118.819 12.4315C120.868 13.1895 124.127 13.8527 124.127 16.9794C124.127 19.727 122.078 21.9062 118.912 21.9062C115.839 21.9062 113.791 19.727 113.139 17.9268L116.025 16.3161C116.584 17.7373 117.515 18.7796 119.005 18.7796C120.123 18.7796 120.868 18.2111 120.868 17.1689C120.868 15.9371 119.005 15.6529 117.236 14.8949C115.653 14.2317 114.256 13.1895 114.256 10.9155C114.256 8.64158 116.119 6.55713 118.912 6.55713C120.775 6.65188 122.544 7.6941 123.382 9.11531Z" fill="#B0AEAE"/>
<path d="M48.3288 6.93506L45.7215 17.2625L43.2072 6.93506H39.8549L37.4337 17.2625L35.3851 11.2934L35.1057 11.9567L33.9883 15.8413L35.8507 21.9052H39.0168L41.531 12.2409L44.0453 21.9052H47.3045L51.9605 6.93506H48.3288Z" fill="#B0AEAE"/>
<path d="M65.7442 6.93506L63.1368 17.2625L60.6226 6.93506H57.2703L54.8491 17.2625L52.8005 11.2934L52.5211 11.9567L51.3105 15.8413L53.2661 21.9052H56.4322L58.9464 12.2409L61.4607 21.9052H64.6268L69.3759 6.93506H65.7442Z" fill="#B0AEAE"/>
<path d="M34.5477 6.93506L29.8917 21.8104H26.7256L24.2114 12.2409L21.6971 21.9052H18.531L13.875 7.02981H17.5067L20.1141 17.2625L22.6283 7.02981H25.9807L28.4949 17.2625L31.1023 7.02981L34.5477 6.93506Z" fill="#B0AEAE"/>
<path d="M128.878 17.0734C130.275 17.0734 131.299 18.1156 131.299 19.5368C131.299 20.958 130.275 22.0002 128.878 22.0002C127.481 22.0002 126.457 20.958 126.457 19.5368C126.457 18.1156 127.481 17.0734 128.878 17.0734Z" fill="#B0AEAE"/>
</g>
<defs>
<clipPath id="clip0_3319_6961">
<rect width="131.3" height="21.1287" fill="white" transform="translate(0 0.96521)"/>
</clipPath>
</defs>
</svg>
