<svg width="1175" height="102" viewBox="0 0 1175 102" fill="none" xmlns="http://www.w3.org/2000/svg">
<circle cx="1.91212" cy="2.57277" r="1.91212" fill="#E8E8E8"/>
<circle cx="403.459" cy="2.57277" r="1.91212" fill="#E8E8E8"/>
<circle cx="805.006" cy="2.57277" r="1.91212" fill="#E8E8E8"/>
<circle cx="202.684" cy="2.57277" r="1.91212" fill="#E8E8E8"/>
<circle cx="604.23" cy="2.57277" r="1.91212" fill="#E8E8E8"/>
<circle cx="1005.78" cy="2.57277" r="1.91212" fill="#E8E8E8"/>
<circle cx="102.301" cy="2.57277" r="1.91212" fill="#E8E8E8"/>
<circle cx="503.846" cy="2.57277" r="1.91212" fill="#E8E8E8"/>
<circle cx="905.389" cy="2.57277" r="1.91212" fill="#E8E8E8"/>
<circle cx="303.07" cy="2.57277" r="1.91212" fill="#E8E8E8"/>
<circle cx="704.617" cy="2.57277" r="1.91212" fill="#E8E8E8"/>
<circle cx="1106.16" cy="2.57277" r="1.91212" fill="#E8E8E8"/>
<circle cx="35.375" cy="2.57277" r="1.91212" fill="#E8E8E8"/>
<circle cx="436.92" cy="2.57277" r="1.91212" fill="#E8E8E8"/>
<circle cx="838.467" cy="2.57277" r="1.91212" fill="#E8E8E8"/>
<circle cx="236.146" cy="2.57277" r="1.91212" fill="#E8E8E8"/>
<circle cx="637.693" cy="2.57277" r="1.91212" fill="#E8E8E8"/>
<circle cx="1039.24" cy="2.57277" r="1.91212" fill="#E8E8E8"/>
<circle cx="135.76" cy="2.57277" r="1.91212" fill="#E8E8E8"/>
<circle cx="537.305" cy="2.57277" r="1.91212" fill="#E8E8E8"/>
<circle cx="938.852" cy="2.57277" r="1.91212" fill="#E8E8E8"/>
<circle cx="336.533" cy="2.57277" r="1.91212" fill="#E8E8E8"/>
<circle cx="738.08" cy="2.57277" r="1.91212" fill="#E8E8E8"/>
<circle cx="1139.63" cy="2.57277" r="1.91212" fill="#E8E8E8"/>
<circle cx="68.8379" cy="2.57277" r="1.91212" fill="#E8E8E8"/>
<circle cx="470.385" cy="2.57277" r="1.91212" fill="#E8E8E8"/>
<circle cx="871.93" cy="2.57277" r="1.91212" fill="#E8E8E8"/>
<circle cx="269.611" cy="2.57277" r="1.91212" fill="#E8E8E8"/>
<circle cx="671.154" cy="2.57277" r="1.91212" fill="#E8E8E8"/>
<circle cx="1072.7" cy="2.57277" r="1.91212" fill="#E8E8E8"/>
<circle cx="169.223" cy="2.57277" r="1.91212" fill="#E8E8E8"/>
<circle cx="570.768" cy="2.57277" r="1.91212" fill="#E8E8E8"/>
<circle cx="972.314" cy="2.57277" r="1.91212" fill="#E8E8E8"/>
<circle cx="369.996" cy="2.57277" r="1.91212" fill="#E8E8E8"/>
<circle cx="771.541" cy="2.57277" r="1.91212" fill="#E8E8E8"/>
<circle cx="1173.09" cy="2.57277" r="1.91212" fill="#E8E8E8"/>
<circle cx="403.459" cy="35.0789" r="1.91212" fill="#E8E8E8"/>
<circle cx="805.006" cy="35.0789" r="1.91212" fill="#E8E8E8"/>
<circle cx="202.684" cy="35.0789" r="1.91212" fill="#E8E8E8"/>
<circle cx="604.23" cy="35.0789" r="1.91212" fill="#E8E8E8"/>
<circle cx="1005.78" cy="35.0789" r="1.91212" fill="#E8E8E8"/>
<circle cx="102.301" cy="35.0789" r="1.91212" fill="#E8E8E8"/>
<circle cx="503.846" cy="35.0789" r="1.91212" fill="#E8E8E8"/>
<circle cx="905.389" cy="35.0789" r="1.91212" fill="#E8E8E8"/>
<circle cx="303.07" cy="35.0789" r="1.91212" fill="#E8E8E8"/>
<circle cx="704.617" cy="35.0789" r="1.91212" fill="#E8E8E8"/>
<circle cx="1106.16" cy="35.0789" r="1.91212" fill="#E8E8E8"/>
<circle cx="35.375" cy="35.0789" r="1.91212" fill="#E8E8E8"/>
<circle cx="436.92" cy="35.0789" r="1.91212" fill="#E8E8E8"/>
<circle cx="838.467" cy="35.0789" r="1.91212" fill="#E8E8E8"/>
<circle cx="236.146" cy="35.0789" r="1.91212" fill="#E8E8E8"/>
<circle cx="637.693" cy="35.0789" r="1.91212" fill="#E8E8E8"/>
<circle cx="1039.24" cy="35.0789" r="1.91212" fill="#E8E8E8"/>
<circle cx="135.76" cy="35.0789" r="1.91212" fill="#E8E8E8"/>
<circle cx="537.305" cy="35.0789" r="1.91212" fill="#E8E8E8"/>
<circle cx="938.852" cy="35.0789" r="1.91212" fill="#E8E8E8"/>
<circle cx="336.533" cy="35.0789" r="1.91212" fill="#E8E8E8"/>
<circle cx="738.08" cy="35.0789" r="1.91212" fill="#E8E8E8"/>
<circle cx="1139.63" cy="35.0789" r="1.91212" fill="#E8E8E8"/>
<circle cx="68.8379" cy="35.0789" r="1.91212" fill="#E8E8E8"/>
<circle cx="470.385" cy="35.0789" r="1.91212" fill="#E8E8E8"/>
<circle cx="871.93" cy="35.0789" r="1.91212" fill="#E8E8E8"/>
<circle cx="269.611" cy="35.0789" r="1.91212" fill="#E8E8E8"/>
<circle cx="671.154" cy="35.0789" r="1.91212" fill="#E8E8E8"/>
<circle cx="1072.7" cy="35.0789" r="1.91212" fill="#E8E8E8"/>
<circle cx="169.223" cy="35.0789" r="1.91212" fill="#E8E8E8"/>
<circle cx="570.768" cy="35.0789" r="1.91212" fill="#E8E8E8"/>
<circle cx="972.314" cy="35.0789" r="1.91212" fill="#E8E8E8"/>
<circle cx="369.996" cy="35.0789" r="1.91212" fill="#E8E8E8"/>
<circle cx="771.541" cy="35.0789" r="1.91212" fill="#E8E8E8"/>
<circle cx="403.459" cy="67.585" r="1.91212" fill="#E8E8E8"/>
<circle cx="805.006" cy="67.585" r="1.91212" fill="#E8E8E8"/>
<circle cx="202.684" cy="67.585" r="1.91212" fill="#E8E8E8"/>
<circle cx="604.23" cy="67.585" r="1.91212" fill="#E8E8E8"/>
<circle cx="1005.78" cy="67.585" r="1.91212" fill="#E8E8E8"/>
<circle cx="102.301" cy="67.585" r="1.91212" fill="#E8E8E8"/>
<circle cx="503.846" cy="67.585" r="1.91212" fill="#E8E8E8"/>
<circle cx="905.389" cy="67.585" r="1.91212" fill="#E8E8E8"/>
<circle cx="303.07" cy="67.585" r="1.91212" fill="#E8E8E8"/>
<circle cx="704.617" cy="67.585" r="1.91212" fill="#E8E8E8"/>
<circle cx="1106.16" cy="67.585" r="1.91212" fill="#E8E8E8"/>
<circle cx="436.92" cy="67.585" r="1.91212" fill="#E8E8E8"/>
<circle cx="838.467" cy="67.585" r="1.91212" fill="#E8E8E8"/>
<circle cx="236.146" cy="67.585" r="1.91212" fill="#E8E8E8"/>
<circle cx="637.693" cy="67.585" r="1.91212" fill="#E8E8E8"/>
<circle cx="1039.24" cy="67.585" r="1.91212" fill="#E8E8E8"/>
<circle cx="135.76" cy="67.585" r="1.91212" fill="#E8E8E8"/>
<circle cx="537.305" cy="67.585" r="1.91212" fill="#E8E8E8"/>
<circle cx="938.852" cy="67.585" r="1.91212" fill="#E8E8E8"/>
<circle cx="336.533" cy="67.585" r="1.91212" fill="#E8E8E8"/>
<circle cx="738.08" cy="67.585" r="1.91212" fill="#E8E8E8"/>
<circle cx="68.8379" cy="67.585" r="1.91212" fill="#E8E8E8"/>
<circle cx="470.385" cy="67.585" r="1.91212" fill="#E8E8E8"/>
<circle cx="871.93" cy="67.585" r="1.91212" fill="#E8E8E8"/>
<circle cx="269.611" cy="67.585" r="1.91212" fill="#E8E8E8"/>
<circle cx="671.154" cy="67.585" r="1.91212" fill="#E8E8E8"/>
<circle cx="1072.7" cy="67.585" r="1.91212" fill="#E8E8E8"/>
<circle cx="169.223" cy="67.585" r="1.91212" fill="#E8E8E8"/>
<circle cx="570.768" cy="67.585" r="1.91212" fill="#E8E8E8"/>
<circle cx="972.314" cy="67.585" r="1.91212" fill="#E8E8E8"/>
<circle cx="369.996" cy="67.585" r="1.91212" fill="#E8E8E8"/>
<circle cx="771.541" cy="67.585" r="1.91212" fill="#E8E8E8"/>
<circle cx="403.459" cy="100.091" r="1.91212" fill="#E8E8E8"/>
<circle cx="805.006" cy="100.091" r="1.91212" fill="#E8E8E8"/>
<circle cx="202.684" cy="100.091" r="1.91212" fill="#E8E8E8"/>
<circle cx="604.23" cy="100.091" r="1.91212" fill="#E8E8E8"/>
<circle cx="1005.78" cy="100.091" r="1.91212" fill="#E8E8E8"/>
<circle cx="102.301" cy="100.091" r="1.91212" fill="#E8E8E8"/>
<circle cx="503.846" cy="100.091" r="1.91212" fill="#E8E8E8"/>
<circle cx="905.389" cy="100.091" r="1.91212" fill="#E8E8E8"/>
<circle cx="303.07" cy="100.091" r="1.91212" fill="#E8E8E8"/>
<circle cx="704.617" cy="100.091" r="1.91212" fill="#E8E8E8"/>
<circle cx="436.92" cy="100.091" r="1.91212" fill="#E8E8E8"/>
<circle cx="838.467" cy="100.091" r="1.91212" fill="#E8E8E8"/>
<circle cx="236.146" cy="100.091" r="1.91212" fill="#E8E8E8"/>
<circle cx="637.693" cy="100.091" r="1.91212" fill="#E8E8E8"/>
<circle cx="1039.24" cy="100.091" r="1.91212" fill="#E8E8E8"/>
<circle cx="135.76" cy="100.091" r="1.91212" fill="#E8E8E8"/>
<circle cx="537.305" cy="100.091" r="1.91212" fill="#E8E8E8"/>
<circle cx="938.852" cy="100.091" r="1.91212" fill="#E8E8E8"/>
<circle cx="336.533" cy="100.091" r="1.91212" fill="#E8E8E8"/>
<circle cx="738.08" cy="100.091" r="1.91212" fill="#E8E8E8"/>
<circle cx="470.385" cy="100.091" r="1.91212" fill="#E8E8E8"/>
<circle cx="871.93" cy="100.091" r="1.91212" fill="#E8E8E8"/>
<circle cx="269.611" cy="100.091" r="1.91212" fill="#E8E8E8"/>
<circle cx="671.154" cy="100.091" r="1.91212" fill="#E8E8E8"/>
<circle cx="1072.7" cy="100.091" r="1.91212" fill="#E8E8E8"/>
<circle cx="169.223" cy="100.091" r="1.91212" fill="#E8E8E8"/>
<circle cx="570.768" cy="100.091" r="1.91212" fill="#E8E8E8"/>
<circle cx="972.314" cy="100.091" r="1.91212" fill="#E8E8E8"/>
<circle cx="369.996" cy="100.091" r="1.91212" fill="#E8E8E8"/>
<circle cx="771.541" cy="100.091" r="1.91212" fill="#E8E8E8"/>
</svg>
