<svg width="57" height="71" viewBox="0 0 57 71" fill="none" xmlns="http://www.w3.org/2000/svg">
<g clip-path="url(#clip0_3766_10198)">
<path d="M34.7305 50.2545L43.1477 63.6553L45.4324 60.3295L55.3316 60.3197L46.4561 44.9307L34.7305 50.2545Z" fill="#EFD9A3"/>
<path d="M6.06641 60.3653L15.1109 44.9307L24.8151 50.9509L15.9786 68.8002L10.8405 60.3295L6.06641 60.3653Z" fill="#EFD9A3"/>
<path d="M55.019 22.5776L52.6921 21.4581C52.4115 21.3212 52.1615 21.1287 51.9572 20.8923C51.7529 20.656 51.5986 20.3806 51.5035 20.0829C51.4085 19.7851 51.3747 19.4712 51.4041 19.16C51.4336 18.8488 51.5257 18.5468 51.6749 18.2723L51.8406 17.9631L52.9001 16.0106C53.0878 15.6626 53.1833 15.2723 53.1777 14.8769C53.1722 14.4815 53.0656 14.0941 52.8682 13.7515C52.6707 13.409 52.389 13.1228 52.0499 12.9201C51.7108 12.7175 51.3255 12.6051 50.9307 12.5937L48.3535 12.5221C48.0406 12.5129 47.7329 12.4402 47.4488 12.3085C47.1648 12.1767 46.9105 11.9886 46.7011 11.7556C46.4918 11.5226 46.3319 11.2494 46.231 10.9527C46.1301 10.656 46.0904 10.3419 46.1143 10.0294L46.3093 7.45533C46.3397 7.06121 46.2687 6.66587 46.1032 6.30701C45.9376 5.94815 45.683 5.63775 45.3637 5.40541C45.0443 5.17306 44.6708 5.02653 44.2788 4.97977C43.8868 4.93302 43.4894 4.98761 43.1244 5.13834L40.739 6.1146C40.4495 6.23365 40.1389 6.29268 39.826 6.28811C39.5132 6.28354 39.2044 6.21547 38.9186 6.08801C38.6327 5.96055 38.3756 5.77636 38.1629 5.54657C37.9501 5.31677 37.7861 5.04616 37.6808 4.75109L36.8163 2.31695C36.2379 0.689856 34.0084 0.859074 32.819 2.10868L31.6133 3.47545C30.7033 4.43218 28.7468 4.32479 27.8369 3.36806L26.0397 1.49364C25.7671 1.20809 25.4261 0.997075 25.0491 0.88064C24.6721 0.764205 24.2716 0.746219 23.8857 0.828389C23.4999 0.910559 23.1414 1.09016 22.8443 1.35012C22.5473 1.61009 22.3215 1.94178 22.1885 2.3137L21.3241 4.74784C21.2188 5.0429 21.0548 5.31352 20.842 5.54331C20.6293 5.7731 20.3722 5.9573 20.0863 6.08476C19.8005 6.21222 19.4917 6.28029 19.1788 6.28486C18.866 6.28943 18.5554 6.2304 18.2659 6.11134L15.8805 5.13509C15.5155 4.98436 15.1181 4.92977 14.7261 4.97652C14.3341 5.02327 13.9606 5.16981 13.6412 5.40215C13.3219 5.6345 13.0673 5.9449 12.9017 6.30376C12.7362 6.66261 12.6652 7.05795 12.6956 7.45207L12.8906 10.0261C12.9145 10.3387 12.8748 10.6528 12.7739 10.9495C12.673 11.2462 12.5131 11.5193 12.3038 11.7524C12.0944 11.9854 11.8401 12.1735 11.5561 12.3052C11.272 12.437 10.9643 12.5096 10.6514 12.5189L8.07423 12.5904C7.67945 12.6018 7.29414 12.7142 6.955 12.9169C6.61586 13.1196 6.33417 13.4058 6.13675 13.7483C5.93933 14.0908 5.83275 14.4782 5.82715 14.8737C5.82156 15.2691 5.91714 15.6594 6.10479 16.0073L7.33 18.2853C7.47857 18.561 7.56965 18.8641 7.59773 19.1762C7.62581 19.4882 7.59031 19.8027 7.49337 20.1006C7.39643 20.3985 7.24007 20.6736 7.03378 20.9092C6.82749 21.1448 6.57557 21.336 6.29329 21.4711L3.96961 22.5906C3.61396 22.7618 3.30794 23.0212 3.08064 23.3442C2.85334 23.6672 2.71231 24.043 2.67095 24.436C2.62959 24.8289 2.68928 25.2259 2.84434 25.5893C2.9994 25.9526 3.24468 26.2702 3.55687 26.5119L5.60106 28.0869C5.84912 28.2783 6.0558 28.5182 6.20858 28.7919C6.36136 29.0656 6.45705 29.3676 6.48987 29.6794C6.52268 29.9913 6.49194 30.3066 6.39949 30.6062C6.30704 30.9058 6.15482 31.1835 5.95205 31.4225L4.2816 33.375C4.02583 33.6762 3.85129 34.0379 3.77459 34.4258C3.69789 34.8136 3.72158 35.2147 3.84341 35.5907C3.96524 35.9668 4.18115 36.3054 4.4706 36.5743C4.76006 36.8433 5.11342 37.0335 5.49706 37.1271L8.00273 37.7486C8.30665 37.8235 8.59231 37.9591 8.84252 38.1474C9.09273 38.3356 9.30232 38.5726 9.45868 38.8441C9.61504 39.1156 9.71494 39.4159 9.75236 39.7271C9.78978 40.0382 9.76395 40.3537 9.67643 40.6546L9.0037 43.6647C9.32869 45.3244 10.3037 44.5629 10.9536 46.0891C11.1706 46.1106 11.3895 46.1007 11.6036 46.0598L14.1418 45.5945C14.4497 45.538 14.766 45.5447 15.0712 45.6143C15.3765 45.6839 15.6645 45.8149 15.9176 45.9993C16.1708 46.1837 16.3839 46.4178 16.544 46.6872C16.7041 46.9566 16.8079 47.2557 16.849 47.5665L17.174 50.1243C17.2264 50.5165 17.3782 50.8887 17.615 51.2055C17.8519 51.5222 18.1657 51.773 18.5268 51.9338C18.8878 52.0947 19.284 52.1603 19.6775 52.1244C20.071 52.0884 20.4488 51.9522 20.7748 51.7286L22.9003 50.2708C23.1587 50.0938 23.4503 49.9711 23.7574 49.9103C24.0646 49.8494 24.3808 49.8516 24.6871 49.9167C24.9934 49.9819 25.2833 50.1085 25.5392 50.2891C25.7952 50.4696 26.0119 50.7003 26.1762 50.9672L27.5281 53.167C27.7354 53.5034 28.0251 53.7812 28.3699 53.9739C28.7146 54.1665 29.1028 54.2676 29.4976 54.2676C29.8924 54.2676 30.2806 54.1665 30.6253 53.9739C30.97 53.7812 31.2598 53.5034 31.467 53.167L32.819 50.9672C32.9833 50.7003 33.2 50.4696 33.4559 50.2891C33.7119 50.1085 34.0018 49.9819 34.308 49.9167C34.6143 49.8516 34.9306 49.8494 35.2377 49.9103C35.5448 49.9711 35.8364 50.0938 36.0949 50.2708L38.2203 51.7286C38.5467 51.9517 38.9248 52.0873 39.3184 52.1224C39.712 52.1574 40.1081 52.0908 40.4686 51.9289C40.8292 51.767 41.1423 51.5151 41.378 51.1975C41.6136 50.8799 41.764 50.507 41.8147 50.1146L42.1592 47.5568C42.2003 47.246 42.304 46.9468 42.4641 46.6774C42.6242 46.408 42.8373 46.174 43.0905 45.9896C43.3437 45.8051 43.6317 45.6741 43.9369 45.6045C44.2422 45.535 44.5584 45.5282 44.8664 45.5847L47.4045 46.0501C47.7926 46.1211 48.1924 46.0915 48.5658 45.964C48.9392 45.8366 49.2737 45.6155 49.5376 45.3219C49.8016 45.0283 49.986 44.6719 50.0734 44.2867C50.1608 43.9015 50.1482 43.5003 50.0369 43.1213L49.3122 40.6449C49.2237 40.344 49.1972 40.0282 49.2342 39.7168C49.2712 39.4053 49.371 39.1046 49.5274 38.8329C49.6839 38.5612 49.8939 38.3241 50.1446 38.1361C50.3953 37.948 50.6815 37.8129 50.9859 37.7389L53.4916 37.1336C53.8752 37.04 54.2286 36.8498 54.518 36.5809C54.8075 36.3119 55.0234 35.9733 55.1452 35.5972C55.2671 35.2212 55.2908 34.8201 55.2141 34.4323C55.1374 34.0444 54.9628 33.6827 54.7071 33.3815L53.0366 31.429C52.8338 31.19 52.6816 30.9123 52.5892 30.6127C52.4967 30.3131 52.466 29.9978 52.4988 29.6859C52.5316 29.3741 52.6273 29.0721 52.7801 28.7984C52.9328 28.5247 53.1395 28.2848 53.3876 28.0934L55.4285 26.5184C55.7462 26.2783 55.9966 25.96 56.1554 25.5945C56.3141 25.229 56.3759 24.8287 56.3347 24.4322C56.2935 24.0358 56.1508 23.6567 55.9202 23.3318C55.6897 23.0069 55.3793 22.7471 55.019 22.5776Z" fill="#EEBA2B"/>
<path d="M22.0763 59.337L21.959 59.4349C21.9818 59.4447 22.0209 59.4251 22.0763 59.337Z" fill="#1D1D1D"/>
<path d="M2.69387 55.6824C2.69567 55.6706 2.69567 55.6586 2.69387 55.6467C2.69058 55.6727 2.69058 55.6792 2.69387 55.6824Z" fill="#1D1D1D"/>
<path d="M21.383 56.9712C20.4081 58.5983 19.9206 58.9237 19.0529 60.6842C18.5751 61.4945 18.1396 62.3992 17.7204 63.216C17.6879 63.6976 17.1354 64.2704 17.0347 64.8073L16.8332 64.9244C16.8098 65.1168 16.7242 65.2962 16.5894 65.4354L16.5764 65.4093C16.4994 65.6314 16.4093 65.8487 16.3067 66.0602L16.2807 66.0341L16.2092 66.1773C16.1897 66.2164 16.1475 66.2977 16.154 66.2912C16.1605 66.2847 16.128 66.2912 16.1215 66.2522C16.1605 66.3726 16.0955 66.506 16.037 66.5158L16.0955 66.7012C16.011 66.7012 15.9915 66.7859 15.9525 66.9095C15.9102 66.9095 15.8355 66.8574 15.8062 66.6134V66.5711C15.738 66.6394 15.673 66.5939 15.6372 66.532C15.6198 66.5006 15.6077 66.4665 15.6015 66.4311C15.5957 66.3718 15.578 66.3142 15.5495 66.2619C15.4091 65.8242 15.1544 65.4321 14.8117 65.1262C14.919 65.2173 14.8475 65.0416 14.88 65.0318C14.594 64.6381 14.3048 64.202 14.0643 64.342C13.8823 64.0361 13.9895 64.0491 14.0643 63.9547C13.9603 64.0198 13.7393 63.7822 13.606 63.5479L13.7133 63.6325L13.2648 62.9817L13.151 63.2355C12.9886 62.8385 13.333 62.998 13.0763 62.6823L12.9171 62.7832C12.6473 62.2658 12.7156 61.8265 12.5433 61.27C12.4101 61.0292 12.2671 60.7884 12.1176 60.5508L11.3766 59.3728L10.1936 59.4086L9.46566 59.4509C9.00743 59.4769 8.55244 59.5062 8.1007 59.5225C7.23271 59.5679 6.36238 59.533 5.50078 59.4184L5.40654 59.2719C5.36429 59.0636 4.80531 59.5973 4.72081 59.3891L4.46732 59.4834C4.39582 59.4476 4.24632 59.4053 4.37307 59.3598C4.23086 59.3473 4.08819 59.3779 3.96358 59.4476L3.71334 59.3175C3.59634 59.3175 3.4826 59.298 3.38835 59.2947H3.16411C3.1025 59.3086 3.04174 59.326 2.98211 59.3468C2.82776 59.4005 2.66419 59.4227 2.50113 59.4119C2.70413 59.2694 2.85394 59.0633 2.92686 58.8261C3.29085 58.0809 3.62559 57.2869 3.86608 56.7141C4.46407 55.0024 6.20276 53.5999 6.79099 51.8328C6.81583 51.8036 6.83324 51.7688 6.84173 51.7314C6.85022 51.694 6.84954 51.6551 6.83974 51.6181L7.68147 50.1732C7.68147 50.1732 11.7016 43.1409 7.18748 47.6675L7.16798 47.6089C6.62525 48.3541 6.32301 48.8455 6.21576 49.5061C5.92327 49.4573 5.82577 50.1569 5.64053 50.2903V50.2643C5.55928 50.8566 4.92555 51.1787 4.8313 51.7417C4.80997 51.7162 4.79697 51.6847 4.79406 51.6515C4.79116 51.6184 4.79848 51.5851 4.81506 51.5562C4.65581 51.9142 4.44782 52.4121 4.29182 52.36C3.87258 53.1963 3.17061 54.3125 3.10561 54.9634L3.08611 54.9048C3.08611 55.292 2.89436 55.3051 2.78387 55.6825C2.75787 55.6825 2.73512 55.7086 2.72862 55.6988C2.69937 56.1088 2.22163 56.6751 2.14039 56.9614L2.03639 56.9256L1.69515 57.5765L1.85115 57.3487C1.95839 57.4626 1.85115 57.5602 1.70165 57.7034C1.61782 57.7793 1.54163 57.8632 1.47416 57.954C1.42518 58.0265 1.38172 58.1027 1.34416 58.1818C1.30033 58.2706 1.26444 58.3632 1.23692 58.4584C1.06685 58.7431 0.993851 59.0754 1.02892 59.4053C1.06044 59.5345 1.05974 59.6694 1.02686 59.7983C0.993991 59.9271 0.929963 60.0459 0.840427 60.144C0.879426 60.2156 0.820928 60.2059 0.74618 60.2124C0.671433 60.2189 0.590185 60.2384 0.560936 60.4011C0.300944 60.5476 0.515437 60.2775 0.255445 60.4922C0.188198 60.6289 0.102939 60.7558 0.00195312 60.8697C0.319789 60.9545 0.651562 60.9733 0.976923 60.925L0.866427 61.0455C1.29463 60.959 1.73473 60.9491 2.16639 61.0162C2.50722 61.0836 2.85856 61.077 3.1966 60.9966C3.81409 60.8958 3.60609 61.3579 4.23982 61.1203L4.48357 61.283C4.75331 61.3123 4.67856 61.0812 4.97755 61.1626C4.95805 61.2667 5.35454 61.244 5.17904 61.3448C5.85827 61.5043 6.557 61.1138 7.45397 61.3904C7.64572 61.1886 8.10395 61.309 8.24045 61.1561C8.2632 61.244 9.14067 61.1561 8.63694 61.3611C8.59469 61.3774 8.51669 61.3611 8.52319 61.3416L8.46144 61.4587C8.97168 61.6865 9.38766 61.3383 9.8914 61.3709C9.7419 61.3318 9.54366 61.3416 9.67691 61.2602L10.1124 61.2765C10.1124 61.2765 10.1124 61.3123 10.1124 61.3286L10.0636 61.3774C10.1416 61.3774 10.1221 61.3774 10.1416 61.3774H10.1709L10.2229 61.4067C10.2397 61.367 10.2517 61.3255 10.2586 61.283C10.266 61.2907 10.2716 61.2999 10.275 61.3101C10.2784 61.3202 10.2795 61.331 10.2781 61.3416C10.2619 61.4685 10.1839 61.5303 10.3171 61.4848C10.3387 61.4789 10.3586 61.4682 10.3755 61.4535C10.3923 61.4389 10.4057 61.4207 10.4146 61.4002C10.4341 61.3644 10.4439 61.3351 10.4926 61.3741C10.4997 61.422 10.5151 61.4683 10.5381 61.5108C10.5609 61.5726 10.5836 61.6345 10.6096 61.6995C10.6616 61.8297 10.7169 61.9664 10.7721 62.1096C10.8891 62.3894 11.0159 62.6823 11.1524 62.9426C11.2434 62.8222 11.3214 62.9589 11.4286 63.0826L11.3344 63.1607C11.7991 63.6032 11.2239 63.4861 11.6593 63.9514H11.5586H11.8608C12.3548 64.2996 11.7991 64.3387 12.4003 64.6934C12.2573 64.4949 12.5693 64.4558 12.6798 64.739H12.5401C12.6473 64.8691 12.7188 64.8887 12.7546 64.996C12.6506 64.944 12.5823 65.0416 12.7253 65.2369L12.5141 65.175L12.9398 65.4581C13.0146 65.8259 13.4435 66.2261 13.3785 66.4344C13.3785 66.4344 13.7035 67.1308 13.9505 67.1861C13.8628 67.1503 13.866 67.2284 13.866 67.3098C13.866 67.3911 13.9018 67.5343 13.788 67.4692C14.0083 67.6786 14.2055 67.911 14.3763 68.1624C14.5755 68.4265 14.7333 68.7195 14.8442 69.0312L14.7955 68.9759C15.1566 69.6734 15.5751 70.3396 16.0467 70.9675C16.2834 70.4465 16.5696 69.9496 16.9014 69.4836C16.8169 69.3469 17.2004 68.81 17.0282 68.7546C17.1498 68.4572 17.2988 68.1717 17.4734 67.902C17.6229 67.6645 17.7984 67.4204 17.9284 67.2512C18.1136 67.0071 18.2274 66.7989 18.0551 66.5353C18.2079 66.2099 18.3801 66.2099 18.4971 66.0699V66.161C18.6893 65.7364 18.9063 65.3235 19.1471 64.9244C19.2251 64.6739 19.0171 64.5144 19.2934 64.1467C19.3129 64.3257 19.3876 64.1467 19.4689 64.0035C19.4299 64.1076 19.4461 64.1565 19.6183 64.0035C19.6086 63.9563 19.6086 63.9076 19.6183 63.8603C19.6183 63.8603 19.6378 63.8603 19.6443 63.8603C19.7516 63.5935 19.6996 63.6228 19.6216 63.7302C19.6216 63.7302 19.5891 63.7302 19.5436 63.7302C19.8036 63.5349 19.9368 63.0045 20.1091 63.0598C20.4926 62.2918 20.6291 61.6703 20.9183 61.0162C21.0353 60.9901 21.0256 61.1756 20.9541 61.3709L21.1718 60.9153C21.2855 60.9836 21.0971 61.2049 21.0418 61.3546C21.5195 60.9316 21.4643 60.1668 21.9778 59.6461L21.9583 59.4672L21.994 59.4411C21.9453 59.4151 21.9583 59.2394 21.994 59.1418C22.1403 59.1092 22.2183 59.2752 22.384 58.966C22.6115 58.7805 22.709 58.2566 22.839 57.9084C22.7285 58.0711 22.7025 57.9833 22.709 57.8921C22.7903 57.7359 22.9397 57.7066 22.9625 57.5667L23.1055 57.6285C22.9462 57.6285 23.19 57.1534 23.1672 57.0656C23.3167 57.033 23.1217 57.3487 23.1672 57.43C23.4922 56.8117 23.333 57.1209 23.6612 56.5026C23.7425 56.1186 23.502 56.5026 23.4727 56.2683C23.5687 55.9355 23.7252 55.6233 23.9342 55.3474L23.7587 55.3864C23.8883 54.9256 24.1398 54.5085 24.4867 54.1791C25.7672 49.607 23.6352 52.5911 23.6352 52.5911C22.4588 54.0196 22.345 55.0317 21.383 56.9712Z" fill="#1D1D1D"/>
<path d="M35.9746 59.7405V59.8898C36.0135 59.8768 36.0167 59.8346 35.9746 59.7405Z" fill="#1D1D1D"/>
<path d="M52.1604 56.138L52.1309 56.1153C52.1473 56.1348 52.1539 56.138 52.1604 56.138Z" fill="#1D1D1D"/>
<path d="M36.9645 65.3637L36.9612 65.3572L36.9316 65.3345L36.9645 65.3637Z" fill="#1D1D1D"/>
<path d="M33.6159 59.1482C34.4706 60.7948 34.4836 61.3513 35.5236 62.9686C35.9558 63.7757 36.4986 64.5957 36.96 65.3572C37.35 65.6273 37.5418 66.379 37.935 66.7305V66.9583C38.0063 67.0205 38.0706 67.0904 38.1268 67.1666C38.1537 67.2048 38.1776 67.245 38.1983 67.287L38.26 67.4562H38.221C38.546 67.8206 38.7475 68.312 38.8905 68.478H38.8612L39.1505 68.9596L39.079 68.9271C39.5277 69.5433 39.9234 70.1964 40.2619 70.8796L40.2879 70.8405L40.2652 70.6453V70.6062C40.6125 70.1464 40.9161 69.6551 41.1719 69.1386C41.4132 68.6483 41.7086 68.1865 42.0526 67.7621V67.8011L42.1729 67.492C42.2119 67.3976 42.2606 67.2935 42.2736 67.2544C42.3132 67.1524 42.3621 67.0544 42.4199 66.9615C42.53 66.7882 42.655 66.6249 42.7936 66.4734C43.111 66.1572 43.3358 65.7599 43.4436 65.3247C43.4143 65.4581 43.5346 65.3247 43.5573 65.3442C43.7686 64.9179 44.0123 64.4721 43.7783 64.3224C43.9636 64.0295 43.9993 64.1271 44.1033 64.1434C43.9961 64.0816 44.1033 63.7985 44.2431 63.5642L44.2203 63.6943L44.5843 63.011H44.3081C44.5778 62.6855 44.6038 63.0695 44.7598 62.7051L44.5941 62.6107C44.9191 62.1453 45.3383 62.0087 45.7445 61.6116L45.8973 61.3773C45.9198 61.3416 45.9404 61.3046 45.959 61.2667L46.1605 61.2407L46.9177 61.1951L48.4224 61.104C49.3837 61.0317 50.3498 61.0601 51.3051 61.1886L51.3994 61.3318C51.4416 61.5401 51.9843 61.0064 52.0656 61.2146L52.3126 61.117C52.3808 61.1561 52.5271 61.1951 52.4036 61.2439C52.5429 61.2541 52.6821 61.2223 52.8033 61.1528L53.0503 61.283C53.6997 61.3218 54.3508 61.3218 55.0002 61.283C55.6145 61.2472 56.1735 61.1984 56.8202 61.1886C56.7227 61.0194 56.6284 60.8632 56.5407 60.6777C56.3593 60.1804 56.1454 59.6955 55.9005 59.2263C55.7445 58.9334 55.5755 58.6276 55.3935 58.3151L55.1205 57.8433L54.9547 57.5797C54.5095 56.8735 54.0123 56.1837 53.6548 55.6793C52.5336 54.3157 52.2736 52.1419 51.0971 50.7654C51.0971 50.7003 50.9639 50.6027 50.9411 50.6157L50.1741 49.1806C50.1741 49.1806 46.3945 42.2492 47.8082 48.3313H47.7497C48.0747 49.1644 48.3379 49.6655 48.8384 50.0885C48.6402 50.3098 49.1634 50.7394 49.1927 50.9672H49.1634C49.6152 51.3382 49.5534 52.0346 49.9759 52.3958C49.9433 52.4011 49.9098 52.3962 49.8801 52.3816C49.8503 52.367 49.8259 52.3435 49.8102 52.3144C50.0279 52.6398 50.3366 53.0564 50.2099 53.1605C50.6909 53.935 51.2434 55.0837 51.7568 55.4645H51.6983C52.0233 55.6695 51.9323 55.8289 52.1923 56.1153C52.1923 56.1413 52.1923 56.1706 52.1923 56.1706C52.5173 56.4017 52.7318 57.0818 52.9398 57.2998L52.8521 57.3714L53.229 57.9897L53.1153 57.7424C53.424 57.6773 53.2193 58.3119 53.6418 58.6731C53.655 58.7087 53.6788 58.7394 53.71 58.761C53.7446 58.7863 53.7816 58.8081 53.8205 58.8261C53.905 58.8684 54.022 58.9237 54.1455 58.9985C54.3893 59.1417 54.6753 59.3923 54.6818 59.5517C54.8312 59.6787 54.7273 59.6103 54.6265 59.5517C54.5258 59.4932 54.425 59.4476 54.568 59.594C54.3438 59.5094 54.3698 59.4411 54.2203 59.4281C54.3828 59.6038 54.2593 59.6266 54.295 59.7242C54.2365 59.7242 54.1975 59.7242 54.178 59.747L53.9895 59.6266C54.0155 59.7372 53.7945 59.6982 53.6645 59.6559C53.5345 59.6136 53.411 59.5745 53.359 59.6787C53.3356 59.688 53.3105 59.6926 53.2853 59.6921C53.2601 59.6916 53.2352 59.686 53.2122 59.6757C53.1891 59.6653 53.1684 59.6505 53.1512 59.632C53.134 59.6135 53.1207 59.5918 53.1121 59.568C53.0081 59.4932 52.9041 59.4378 52.5986 59.568L52.3581 59.402C52.0948 59.376 52.1696 59.6038 51.8771 59.5257C51.8966 59.4216 51.5098 59.4444 51.6788 59.3435C51.0289 59.184 50.3399 59.5745 49.4689 59.3044C49.2804 59.5029 48.8417 59.3858 48.7019 59.5355C48.6792 59.4476 47.8245 59.5355 48.3152 59.3337C48.3574 59.3337 48.4322 59.3337 48.4289 59.3532L48.4874 59.2328C47.9902 59.0083 47.584 59.3597 47.0932 59.324C47.2395 59.363 47.4182 59.3532 47.3045 59.4346H46.8495L46.9437 59.3337L46.2645 59.2751L46.3588 59.3988C46.3192 59.3913 46.2802 59.3816 46.2418 59.3695L46.0695 59.3305C45.9558 59.3044 45.8453 59.2784 45.7445 59.2589C45.4881 59.2109 45.2239 59.2254 44.9743 59.3012C44.8476 59.35 45.0166 59.3923 45.127 59.4281C45.2375 59.4639 45.3058 59.4867 45.023 59.5062H45.0003L44.6331 59.9748C44.4998 60.1505 44.3568 60.336 44.2138 60.528C44.0221 60.7525 43.8303 60.9934 43.6678 61.2211C43.8141 61.2504 43.7328 61.3773 43.6678 61.527L43.5541 61.4782C43.3851 62.0835 43.2129 61.5303 43.0179 62.1095L42.9724 62.0217L43.1056 62.2885C43.0309 62.8743 42.7416 62.4057 42.7091 63.089C42.8164 62.8775 42.9951 63.1346 42.8001 63.3559L42.7384 63.2322C42.6766 63.3819 42.6896 63.4535 42.6116 63.5349C42.6116 63.4177 42.4946 63.4015 42.3874 63.6162L42.3451 63.4015L42.2964 63.8993C42.0104 64.1304 41.8576 64.6804 41.6464 64.7161C41.6464 64.7161 41.1914 65.3117 41.2564 65.5525C41.2402 65.367 40.9899 65.6957 40.9314 65.5264C40.9214 65.6959 40.8783 65.8617 40.8047 66.0146C40.7666 66.1026 40.7198 66.1865 40.6649 66.2651C40.6431 66.2979 40.6169 66.3275 40.5869 66.353H40.5479V66.3367C40.4634 66.3367 40.4894 66.3921 40.4732 66.4994C40.4569 66.6068 40.4179 66.75 40.3887 66.6426C40.3887 66.929 40.3464 66.7012 40.3367 67.0462C40.2522 67.0754 40.2002 66.7988 40.1839 66.6849C40.1677 66.571 40.1482 66.5385 39.9045 66.6849C39.8102 66.5808 39.872 66.3595 39.8167 66.2066L39.8817 66.2684C39.6255 65.894 39.3911 65.505 39.1797 65.1034C39.0107 64.9147 38.767 65.009 38.6012 64.5925C38.7605 64.6673 38.6565 64.5176 38.572 64.3745C38.6402 64.4591 38.689 64.4688 38.6402 64.2443C38.5957 64.2293 38.5555 64.2036 38.5232 64.1694C38.5232 64.1694 38.5232 64.1694 38.5427 64.1694C38.3738 63.9449 38.3705 64.0035 38.4193 64.1239C38.4193 64.1239 38.39 64.1434 38.3868 64.1922C38.3608 63.8668 37.9838 63.4991 38.1203 63.3819C37.6718 62.6758 37.22 62.2495 36.8203 61.68C36.8626 61.5661 37.012 61.68 37.1453 61.8264L36.8723 61.4131C36.9893 61.3513 37.077 61.6214 37.1745 61.7386C37.0705 61.1235 36.3978 60.7916 36.2256 60.1115L36.0663 60.0399V59.9943C36.0208 60.0236 35.8811 59.926 35.8161 59.8446C35.8648 59.7047 36.0468 59.721 35.8713 59.4281C35.8356 59.1417 35.4488 58.7772 35.2214 58.5169C35.2961 58.6894 35.2214 58.6699 35.1369 58.6178C35.0491 58.4714 35.1011 58.3282 34.9939 58.2403L35.1206 58.1492C35.0264 58.2794 34.7631 57.8238 34.6786 57.8238C34.7306 57.6838 34.8931 58.0027 35.0036 57.9995C34.6526 57.4137 34.8281 57.7066 34.4804 57.1209C34.1976 56.8605 34.3861 57.2478 34.1814 57.1632C33.9533 56.9151 33.7727 56.6272 33.6484 56.3138L33.5866 56.483C33.2693 56.1423 33.0503 55.7216 32.9529 55.266C29.7713 51.9011 31.1655 55.1911 31.1655 55.1911C31.6887 56.7694 32.5012 57.3682 33.6159 59.1482Z" fill="#1D1D1D"/>
<path d="M7.72656 38.3442C7.80452 39.3274 7.93907 40.3053 8.12955 41.273L8.31804 40.6221C8.43234 40.2242 8.43775 39.8028 8.3337 39.4021C8.22964 39.0013 8.01995 38.636 7.72656 38.3442Z" fill="white"/>
<path d="M6.66966 26.5054L8.99334 25.3827C9.27574 25.2472 9.52772 25.0557 9.73404 24.8198C9.94036 24.5839 10.0967 24.3085 10.1936 24.0104C10.2906 23.7122 10.326 23.3975 10.2979 23.0852C10.2698 22.7729 10.1787 22.4695 10.0301 22.1936L8.8016 19.9156C8.61471 19.5677 8.51974 19.1778 8.52572 18.7828C8.5317 18.3879 8.63842 18.001 8.83576 17.6589C9.03309 17.3169 9.31448 17.031 9.6532 16.8286C9.99192 16.6261 10.3767 16.5136 10.771 16.502L13.3482 16.4271C13.6612 16.42 13.9694 16.3493 14.2542 16.2193C14.5391 16.0892 14.7945 15.9026 15.0052 15.6707C15.2158 15.4388 15.3771 15.1665 15.4795 14.8703C15.5818 14.574 15.6229 14.2601 15.6004 13.9474L15.3924 11.3896C15.3627 10.9954 15.4342 10.6001 15.6002 10.2413C15.7661 9.88256 16.021 9.5723 16.3406 9.34006C16.6601 9.10782 17.0337 8.96133 17.4258 8.91452C17.8179 8.86771 18.2154 8.92215 18.5805 9.07265L20.9627 10.0489C21.2521 10.1684 21.5628 10.2278 21.8758 10.2235C22.1889 10.2192 22.4977 10.1512 22.7837 10.0237C23.0697 9.89614 23.3269 9.71176 23.5395 9.48172C23.7522 9.25167 23.916 8.98075 24.0209 8.6854L24.8886 6.25451C25.0209 5.88197 25.2462 5.54958 25.5432 5.28906C25.8402 5.02853 26.199 4.84856 26.5852 4.76632C26.9714 4.68408 27.3722 4.70231 27.7494 4.81928C28.1266 4.93624 28.4675 5.14804 28.7397 5.43446L30.5207 7.30236C30.7367 7.52899 30.9965 7.70938 31.2841 7.83263C31.5718 7.95588 31.8815 8.01943 32.1944 8.01943C32.5073 8.01943 32.8169 7.95588 33.1046 7.83263C33.3923 7.70938 33.652 7.52899 33.8681 7.30236L35.6458 5.43446C36.0625 4.99199 36.6376 4.73331 37.2447 4.71528L36.6662 3.08818C36.5322 2.71829 36.3061 2.38875 36.0093 2.13072C35.7126 1.8727 35.3551 1.69471 34.9705 1.6136C34.586 1.53248 34.1871 1.55091 33.8117 1.66715C33.4362 1.78339 33.0966 1.99359 32.8249 2.27789L31.0342 4.13278C30.8181 4.35941 30.5584 4.5398 30.2707 4.66305C29.983 4.7863 29.6734 4.84984 29.3605 4.84984C29.0476 4.84984 28.7379 4.7863 28.4502 4.66305C28.1626 4.5398 27.9028 4.35941 27.6868 4.13278L25.9091 2.27789C25.6374 1.9913 25.2971 1.77902 24.9205 1.66124C24.5438 1.54346 24.1433 1.52409 23.7571 1.60496C23.3708 1.68583 23.0117 1.86427 22.7137 2.1233C22.4157 2.38233 22.1889 2.71336 22.0547 3.08493L21.1902 5.53208C21.0853 5.82743 20.9215 6.09835 20.7089 6.3284C20.4962 6.55845 20.2391 6.74283 19.9531 6.87034C19.6671 6.99785 19.3582 7.06584 19.0452 7.07018C18.7321 7.07452 18.4215 7.01513 18.1321 6.89559L15.7466 5.91933C15.3817 5.76861 14.9843 5.71401 14.5923 5.76077C14.2003 5.80752 13.8268 5.95406 13.5074 6.1864C13.188 6.41874 12.9334 6.72915 12.7679 7.088C12.6023 7.44686 12.5314 7.8422 12.5617 8.23632L12.7567 10.8136C12.7806 11.126 12.7409 11.4399 12.64 11.7365C12.5391 12.033 12.3791 12.3059 12.1697 12.5387C11.9604 12.7715 11.706 12.9593 11.422 13.0906C11.138 13.222 10.8303 13.2943 10.5175 13.3031L7.94037 13.3421C7.54569 13.3529 7.16034 13.4648 6.8211 13.6671C6.48186 13.8694 6.20005 14.1553 6.00254 14.4976C5.80504 14.84 5.69843 15.2273 5.6929 15.6226C5.68737 16.0179 5.78309 16.4081 5.97094 16.7558L7.19615 19.0337C7.34638 19.309 7.43921 19.612 7.46903 19.9243C7.49884 20.2366 7.46502 20.5516 7.3696 20.8504C7.27418 21.1492 7.11916 21.4255 6.91393 21.6626C6.70871 21.8996 6.45755 22.0924 6.17568 22.2294L3.83575 23.3455C3.47962 23.5164 3.17316 23.7758 2.94562 24.0989C2.71807 24.4221 2.57704 24.7983 2.53597 25.1915C2.4949 25.5848 2.55517 25.9821 2.71103 26.3454C2.86689 26.7087 3.11313 27.0259 3.42626 27.2668L5.3762 28.767C5.33812 28.3033 5.44134 27.8389 5.67227 27.4351C5.90319 27.0313 6.25095 26.7072 6.66966 26.5054Z" fill="white"/>
<path d="M50.248 11.8551L50.7713 11.9267C50.7615 11.9007 50.6315 11.8746 50.248 11.8551Z" fill="#1D1D1D"/>
<path d="M6.85533 19.623C6.85533 19.5937 6.85533 19.561 6.85533 19.5382C6.85207 19.5969 6.84881 19.6165 6.85533 19.623Z" fill="#1D1D1D"/>
<path d="M53.625 26.382H53.6446L53.7456 26.2874L53.625 26.382Z" fill="#1D1D1D"/>
<path d="M45.1103 9.20937C45.0908 9.4274 45.0713 9.63892 45.055 9.86021C45.055 9.94156 45.055 10.1336 45.0355 10.2702C45.0382 10.4182 45.049 10.566 45.068 10.7128C45.1829 11.4984 45.5664 12.2198 46.1531 12.7539C46.7399 13.288 47.4935 13.6017 48.2854 13.6416L50.1054 13.7425L50.5376 13.7685H50.7489C50.8061 13.7624 50.8639 13.7624 50.9211 13.7685C51.0544 13.7847 51.184 13.8232 51.3046 13.8824C51.4175 13.9475 51.5204 14.0286 51.6101 14.1232C51.6938 14.2282 51.7627 14.3443 51.8148 14.4681C51.8632 14.5963 51.8856 14.7328 51.8806 14.8697C51.8755 15.0067 51.8433 15.1412 51.7856 15.2654L51.7336 15.3826L51.6101 15.6039C51.5321 15.7536 51.4476 15.9032 51.3631 16.0594L50.8431 17.0357L50.5701 17.5726C50.5311 17.6377 50.4531 17.8037 50.3914 17.9404C50.329 18.0881 50.2748 18.2391 50.2289 18.3927C50.0503 19.0493 50.0605 19.743 50.2581 20.394C50.4476 21.0511 50.8235 21.639 51.3403 22.0862C51.593 22.3076 51.8752 22.4927 52.1788 22.6362L52.7768 22.9225L53.9858 23.4953L54.288 23.6352L54.4375 23.7068C54.4992 23.7361 54.4928 23.7393 54.5252 23.7556C54.573 23.7749 54.617 23.8025 54.6552 23.837C54.6984 23.8629 54.7377 23.8947 54.7722 23.9313C54.9175 24.0772 55.0187 24.2612 55.0642 24.4621C55.1096 24.6631 55.0974 24.8728 55.029 25.0671C55.029 25.1159 54.9835 25.1582 54.9672 25.207C54.951 25.2558 54.9152 25.2916 54.886 25.3339C54.8567 25.3762 54.8242 25.4153 54.7852 25.4511L54.7267 25.5031C54.7013 25.5288 54.6742 25.5527 54.6455 25.5747L53.625 26.359C53.482 26.5022 53.3195 26.6518 53.1408 26.808L52.8646 27.0456L52.7183 27.166L52.5136 27.345C51.9007 27.9021 51.5076 28.6606 51.4053 29.483C51.2978 30.3361 51.5211 31.198 52.0293 31.8911L52.2146 32.1254L52.3511 32.2784L52.6241 32.5777C52.8028 32.7697 52.9783 32.952 53.1505 33.1212L53.5373 33.772L53.716 33.951L53.807 34.0421L53.8818 34.1202L53.9793 34.2276L54.0573 34.348C54.1484 34.5088 54.1817 34.696 54.1515 34.8785L54.1158 34.8557C54.1386 34.9844 54.1355 35.1164 54.1064 35.2438C54.0774 35.3713 54.0231 35.4916 53.9468 35.5976C53.8309 35.7532 53.6891 35.8875 53.5275 35.9946V35.9556C53.4788 35.9751 53.4333 36.0011 53.3878 36.0239L53.2318 36.076L52.6566 36.2257L52.8451 36.1281C52.4356 36.2517 52.0196 36.3721 51.6036 36.486L50.9829 36.6552L50.8269 36.6943L50.6481 36.7464C50.4987 36.7876 50.3521 36.8387 50.2094 36.8993C49.6606 37.1376 49.1835 37.515 48.825 37.9944C48.4665 38.4738 48.2391 39.0385 48.1652 39.6328C48.2164 39.5746 48.2718 39.5202 48.3309 39.4701C48.2737 39.7461 48.2562 40.0288 48.2789 40.3097C48.2871 40.4433 48.3056 40.576 48.3342 40.7067C48.3342 40.7718 48.3602 40.8336 48.3764 40.8955L48.4122 41.0354C48.5064 41.3803 48.5974 41.6862 48.6852 42.0116C48.7729 42.3371 48.8672 42.5941 48.9517 42.8708C49.0362 43.1474 49.1369 43.45 49.1629 43.5639C49.1992 43.7219 49.2047 43.8854 49.1792 44.0455C49.1567 44.2155 49.0956 44.3781 49.0004 44.5206C48.8977 44.69 48.7552 44.8317 48.5852 44.9332C48.4153 45.0348 48.2231 45.0931 48.0254 45.1031L48.0417 45.0641C47.9807 45.0908 47.9161 45.1084 47.85 45.1161L47.7492 45.1324H47.538L47.3722 45.1129L47.0472 45.0706C46.6215 45.012 46.2153 44.9437 45.822 44.8721L45.2403 44.7582L45.0973 44.7289L44.9315 44.6996C44.7996 44.6746 44.666 44.6594 44.5318 44.654C43.9934 44.6225 43.4555 44.7249 42.9661 44.952C42.4768 45.1791 42.0511 45.5239 41.7271 45.9557C41.5599 46.1835 41.4223 46.4318 41.3177 46.6944C41.2675 46.8288 41.2241 46.9657 41.1877 47.1045L41.1454 47.3192L41.1259 47.4266V47.5015C41.0707 47.905 41.0187 48.3248 40.9797 48.7641C40.9602 48.9854 40.9439 49.2099 40.9244 49.441C40.9049 49.672 40.8984 49.8705 40.8854 50.0918C40.8854 50.017 40.8854 49.9909 40.8854 49.9779C40.8854 49.9649 40.8627 50.0072 40.8497 50.0332C40.8367 50.0593 40.7879 50.1829 40.7717 50.1667C40.7051 50.3988 40.5806 50.6101 40.4101 50.7809C40.2396 50.9516 40.0285 51.0762 39.7967 51.1429C39.3905 51.2698 39.072 51.2112 39.0102 51.3479C38.9169 51.3144 38.8276 51.2708 38.7437 51.2178C38.6765 51.1766 38.6114 51.1321 38.5487 51.0843C38.4608 51.0196 38.3791 50.9466 38.305 50.8663C38.2205 50.7687 38.2627 50.7394 38.2237 50.645C38.1912 50.7003 37.9345 50.5734 37.5738 50.3652C37.395 50.261 37.1903 50.1341 36.9823 50.0007L36.6573 49.7924L36.4948 49.685L36.2868 49.5581C36.4883 49.659 36.6118 49.7306 36.7515 49.8054L36.5988 49.7046C36.5426 49.6641 36.484 49.6272 36.4233 49.5939C36.2888 49.5057 36.1463 49.4305 35.9976 49.3694C35.7001 49.245 35.3857 49.166 35.0648 49.1351C34.4228 49.0837 33.7811 49.2375 33.2319 49.5744C33.4761 49.5125 33.7277 49.4852 33.9794 49.493C33.6902 49.5746 33.4095 49.6836 33.1409 49.8185C33.0532 49.8672 32.9591 49.9033 32.8614 49.9258C32.77 49.952 32.6864 50 32.6177 50.0658C32.5358 50.1446 32.4587 50.2283 32.3869 50.3163L32.2439 50.5246C32.1854 50.6125 32.1594 50.6678 32.1107 50.7524L32.2829 50.837C31.9904 51.2894 31.7174 51.6864 31.451 52.0573L31.0545 52.5878C30.9958 52.6721 30.9317 52.7525 30.8627 52.8286C30.8127 52.8868 30.7584 52.9412 30.7002 52.9913C30.4783 53.1728 30.2084 53.2859 29.9235 53.3167C29.6313 53.3602 29.3327 53.3161 29.0655 53.1898C28.9921 53.1642 28.9205 53.1337 28.851 53.0987C28.7849 53.0591 28.7219 53.0145 28.6625 52.9653C28.5343 52.8657 28.4243 52.7446 28.3376 52.6073L27.4731 51.2112L27.0376 50.5083L26.9823 50.4205L26.9011 50.3001C26.8426 50.222 26.7906 50.1374 26.7256 50.0658C26.6032 49.9209 26.4695 49.786 26.3259 49.6623C25.7173 49.1573 24.9484 48.8872 24.1582 48.9008C23.5695 48.9141 22.9955 49.0873 22.4975 49.4019L22.3772 49.48L22.2895 49.5419L22.1172 49.659L20.762 50.6353L20.437 50.8761L20.2713 50.9932L20.1608 51.0616C20.087 51.1064 20.0098 51.1456 19.9301 51.1787C19.8492 51.2047 19.7667 51.2253 19.6831 51.2405C19.3372 51.3006 18.9813 51.2323 18.6821 51.0485C18.5316 50.9579 18.3984 50.8411 18.2889 50.7036C18.1812 50.5651 18.0987 50.4087 18.0451 50.2415C18.0289 50.1992 18.0256 50.1536 18.0126 50.1113C17.9996 50.069 17.9931 50.0397 17.9834 49.9584L17.9249 49.5516L17.8046 48.7413C17.7689 48.4712 17.7299 48.2011 17.6909 47.931L17.6259 47.5112C17.6259 47.4527 17.5999 47.3518 17.5836 47.2672C17.5685 47.1767 17.5468 47.0876 17.5186 47.0003C17.3174 46.3044 16.881 45.7 16.2841 45.2905C15.6872 44.881 14.9668 44.6917 14.246 44.7549L13.9827 44.7875L13.7877 44.8233L13.3978 44.8884L12.6243 45.0185L11.8573 45.1422L11.4738 45.2008C11.3633 45.2008 11.3016 45.217 11.2138 45.2203C10.8967 45.2157 10.591 45.1006 10.3494 44.8949C10.3183 44.8163 10.2964 44.7344 10.2844 44.6508C10.3201 44.5564 10.0666 44.4002 9.90087 44.1041C9.73512 43.808 9.73187 43.4175 9.85537 43.3296L10.0276 42.4021C10.1381 42.1613 10.3331 41.6407 10.2454 42.0995C10.3721 41.6862 10.4274 41.4714 10.4664 41.2827C10.4859 41.1883 10.5021 41.1005 10.5184 40.9996C10.5346 40.8987 10.5671 40.7393 10.5931 40.5277C10.7138 40.105 10.7459 39.6618 10.6873 39.2261C10.5601 38.6407 10.2741 38.1019 9.86062 37.669C9.44718 37.2361 8.92243 36.9258 8.34417 36.7724L8.24017 36.7431L8.16542 36.7268L8.01918 36.691L7.72669 36.626L7.13845 36.4958L5.96524 36.242L5.81899 36.2094C5.77605 36.203 5.73367 36.1932 5.69225 36.1801C5.637 36.1606 5.57525 36.1541 5.52 36.1313C5.40597 36.0907 5.29694 36.0372 5.19501 35.9719C4.99446 35.8275 4.83622 35.632 4.73678 35.4056C4.63369 35.1671 4.59881 34.9046 4.63603 34.6474C4.63603 34.5823 4.66853 34.5205 4.67828 34.4554L4.75303 34.2699C4.78878 34.2146 4.81478 34.1528 4.85702 34.0974L4.91877 34.0161C4.94385 33.9809 4.97098 33.9472 5.00002 33.9152C5.37701 33.5247 5.78325 33.0821 6.21548 32.6135L6.54047 32.2458L6.70947 32.0506C6.78421 31.9562 6.86221 31.8651 6.93371 31.7609C7.38362 31.0982 7.57731 30.2942 7.47864 29.499C7.37996 28.7038 6.99567 27.9717 6.39748 27.4394L6.24148 27.3059L6.11799 27.2083L5.89699 27.0098L5.43226 26.6844L4.48654 25.9555C4.23845 25.8076 4.0184 25.617 3.83656 25.3925C3.70264 25.2 3.62191 24.9754 3.60256 24.7416C3.57806 24.5134 3.61068 24.2826 3.69749 24.0701C3.78429 23.8577 3.92255 23.6702 4.0998 23.5246C4.14139 23.4845 4.18844 23.4505 4.23954 23.4237C4.296 23.3839 4.35581 23.349 4.41829 23.3196L4.89927 23.069L5.85149 22.6069L6.29673 22.3758L6.51447 22.2652C6.58597 22.2261 6.64772 22.1969 6.75172 22.135C7.11305 21.9362 7.43035 21.6661 7.68444 21.341C8.02394 20.8992 8.24015 20.3751 8.31096 19.8222C8.38176 19.2693 8.30462 18.7075 8.08743 18.1942C7.96068 17.9176 7.86318 17.7581 7.76244 17.5661C7.66169 17.3741 7.56094 17.1854 7.45694 16.9967L6.84921 15.8382C6.80142 15.7531 6.75909 15.665 6.72247 15.5746C6.6884 15.5073 6.66222 15.4363 6.64447 15.363C6.60244 15.2206 6.58378 15.0722 6.58922 14.9237C6.59303 14.6261 6.6871 14.3367 6.85896 14.0939C7.01959 13.8561 7.24525 13.6697 7.50894 13.557L7.71044 13.4919C7.77868 13.4919 7.84693 13.4626 7.91843 13.4593H8.02568C8.06893 13.4556 8.11242 13.4556 8.15567 13.4593H8.48066H9.82612H10.6646H10.9018C11.0617 13.4448 11.2203 13.4187 11.3763 13.3812C12.0801 13.2144 12.7098 12.821 13.1688 12.2614C13.6279 11.7018 13.891 11.0069 13.9177 10.2833V9.9318V9.84719L13.869 9.19635L13.7618 7.89467L13.7325 7.56926L13.7163 7.4098C13.7163 7.35122 13.7163 7.33821 13.7163 7.30241C13.7081 7.24194 13.7081 7.18065 13.7163 7.12018C13.7155 7.05975 13.7232 6.99951 13.739 6.9412C13.7887 6.69955 13.9007 6.47516 14.064 6.29036C14.1417 6.23588 14.2155 6.17607 14.285 6.11138C14.3597 6.03328 14.4345 5.99097 14.428 5.97795C14.7166 5.84753 15.0408 5.81886 15.3477 5.8966L15.5914 5.98121L15.9489 6.1309L16.6607 6.42703L17.3724 6.72642L17.7266 6.87286L17.9054 6.9477C17.9671 6.97374 18.0646 7.00953 18.1459 7.03557C18.8309 7.26913 19.5752 7.26109 20.2551 7.01279L20.3655 6.97048C20.4713 6.92921 20.5744 6.88139 20.6743 6.8273C21.0495 6.627 21.3809 6.35374 21.6493 6.02351C21.8363 5.79205 21.9885 5.53441 22.101 5.25878C22.1302 5.18719 22.1595 5.11234 22.192 5.04075L22.2505 4.86827C22.2927 4.75112 22.335 4.63397 22.3772 4.51031L22.9395 2.88322C23.0031 2.65524 23.096 2.43648 23.2157 2.23238C23.3338 2.07951 23.4806 1.95127 23.6479 1.85489C23.8293 1.74403 24.0326 1.67433 24.2438 1.65072C24.4549 1.6271 24.6686 1.65014 24.8699 1.71821C25.0743 1.78348 25.2611 1.89481 25.4159 2.04363L26.1081 2.72701L26.7841 3.39738L27.1091 3.7228L27.2683 3.879L27.4828 4.06774C28.0189 4.51115 28.6953 4.74881 29.3905 4.73811C29.8994 4.73177 30.3962 4.58175 30.8237 4.3053C31.0644 4.15385 31.266 3.94756 31.412 3.70327C31.4867 3.56334 31.4542 3.51453 31.347 3.54382C31.2397 3.57311 31.022 3.71629 30.6515 3.83995C30.1663 4.01352 29.6389 4.03059 29.1435 3.88876C28.815 3.78798 28.5168 3.60679 28.2758 3.36158C28.2077 3.29496 28.1437 3.22433 28.0841 3.15006L27.8761 2.88322L27.4081 2.30072L26.9011 1.66615L26.6314 1.34073C26.5302 1.21097 26.4217 1.08711 26.3064 0.96975C26.0131 0.660185 25.6557 0.418535 25.2594 0.261707C24.8631 0.104879 24.4373 0.0366624 24.0119 0.0618297C24.0764 0.0363371 24.1427 0.0156704 24.2102 0C23.6818 0.0101829 23.165 0.156579 22.7095 0.425058C22.2541 0.693537 21.8755 1.07503 21.6103 1.53273C21.5468 1.63629 21.4924 1.74517 21.4478 1.85814L21.3763 2.02085L21.3308 2.14451C21.269 2.30722 21.2105 2.46993 21.1553 2.61963C21.0448 2.94505 20.9343 3.23141 20.8303 3.52429C20.7263 3.81717 20.6353 4.10679 20.5378 4.38991C20.515 4.47126 20.4988 4.50706 20.4825 4.55262C20.4689 4.59789 20.4504 4.64153 20.4273 4.68279C20.389 4.76761 20.3422 4.8483 20.2875 4.9236C20.061 5.24329 19.7299 5.47353 19.3516 5.57443C19.225 5.5117 19.0888 5.47099 18.9486 5.45403C18.8469 5.43364 18.7469 5.40535 18.6496 5.36942L18.5684 5.34339L18.4449 5.29457L18.2011 5.20671C17.5056 4.93661 16.7517 4.66977 16.4039 4.47777H16.4819L16.0822 4.35737C15.9173 4.30015 15.7476 4.25768 15.5752 4.23045C15.2297 4.1751 14.8775 4.1751 14.532 4.23045C13.8276 4.33104 13.1757 4.66029 12.6763 5.16766C12.1714 5.68418 11.8662 6.36346 11.8151 7.08438V7.34797C11.8151 7.43583 11.8151 7.5302 11.8151 7.58553L11.8508 7.96627C11.8768 8.21684 11.9126 8.46741 11.9548 8.71473C11.858 8.53772 11.8129 8.33696 11.8248 8.13548L11.9386 9.28096C11.9581 9.47296 11.9743 9.66821 11.9938 9.85695V9.99688C11.996 10.0348 11.996 10.0728 11.9938 10.1108C11.9971 10.1661 11.9971 10.2215 11.9938 10.2767C11.9646 10.7128 11.7306 10.9731 11.6526 10.9276C11.5075 11.1454 11.3003 11.3144 11.0578 11.4125C10.9318 11.4656 10.7978 11.4975 10.6613 11.5068H10.5216H10.3396H9.97562L8.50991 11.5524C8.25642 11.5524 8.06143 11.5524 7.67794 11.6012C7.5089 11.6257 7.34169 11.6616 7.17745 11.7086C7.01432 11.7624 6.85476 11.8266 6.69972 11.9006C6.10632 12.1939 5.61651 12.6617 5.29576 13.2413C5.00565 13.7747 4.87267 14.3795 4.91227 14.9856C4.91854 15.126 4.93813 15.2654 4.97077 15.4021C4.99573 15.5339 5.0316 15.6635 5.07802 15.7893C5.11624 15.9127 5.16744 16.0316 5.23076 16.1441C5.27843 16.2435 5.33159 16.3402 5.39001 16.4337C5.57525 16.7298 5.75075 16.9967 5.90999 17.2244L5.7995 17.1138C6.09088 17.5081 6.3506 17.9248 6.57622 18.3602C6.67742 18.5337 6.76124 18.7168 6.82646 18.9069C6.88392 19.1079 6.91237 19.3161 6.91096 19.5252C6.88821 19.5805 6.85896 19.6423 6.85571 19.6326C6.85461 19.9252 6.75628 20.2091 6.57622 20.4396C6.4716 20.5679 6.34639 20.6779 6.20573 20.765C6.16974 20.7909 6.1317 20.8137 6.09199 20.8333C6.05299 20.8529 6.02049 20.8757 5.95874 20.9017L5.63375 21.0579L4.37929 21.6502C4.02527 21.8073 3.68313 21.99 3.35557 22.1969L3.21907 22.1611C2.72802 22.5115 2.35232 23.0004 2.1399 23.5655C1.92747 24.1306 1.88795 24.7462 2.02636 25.3339C1.92881 24.9 1.92881 24.4498 2.02636 24.016C2.13361 24.2633 1.93536 24.9011 2.22461 25.7992C2.39487 26.302 2.70492 26.7457 3.11833 27.0781C3.48411 27.3806 3.86834 27.6599 4.26879 27.9145C4.45079 28.0577 4.63928 28.1976 4.83103 28.3278L5.12677 28.523L5.36726 28.676C5.6758 28.8928 5.91329 29.1962 6.04974 29.5481C6.20091 29.943 6.20781 30.3787 6.06924 30.7782C5.9962 30.9861 5.88608 31.1791 5.74425 31.3477C5.59353 31.5371 5.43298 31.7185 5.26326 31.8911C4.77578 32.6819 5.6175 31.1264 4.80828 32.2426C4.65878 32.1775 5.14952 31.6893 4.82453 31.8813C4.61978 32.1482 4.42154 32.3825 4.22004 32.6038L3.92105 32.9292L3.84631 33.0105L3.75856 33.1147C3.70006 33.183 3.64156 33.2546 3.58631 33.3295C3.35846 33.6569 3.20433 34.0299 3.13458 34.4229C3.05578 34.8931 3.1075 35.3761 3.28407 35.8189L3.19958 35.9393C3.48732 36.5655 3.95896 37.0888 4.55153 37.4395C4.69453 37.5209 4.84402 37.5859 4.98702 37.651L5.21451 37.7291C5.28926 37.7552 5.36726 37.7779 5.41926 37.791L6.10824 37.9895C6.55672 38.1196 6.98571 38.2433 7.3887 38.3442L7.93468 38.4711C8.06344 38.5006 8.1904 38.5376 8.31492 38.5817C8.57605 38.7126 8.7814 38.9332 8.8934 39.2033C8.94937 39.3505 8.97158 39.5084 8.9584 39.6654C8.9584 39.7988 8.92915 39.9257 8.90965 40.1047C8.90965 40.1502 8.90965 40.2023 8.8869 40.2544L8.87065 40.339C8.87065 40.3683 8.87065 40.3976 8.8479 40.4561C8.79915 40.6579 8.74716 40.8955 8.69191 41.1851L8.27917 42.0084C8.18 42.2845 8.12409 42.5743 8.11342 42.8675C8.05717 43.299 8.03543 43.7342 8.04843 44.1692C7.98993 44.1269 8.04843 44.6183 8.16867 44.986C8.28892 45.3537 8.44816 45.6108 8.16867 45.2268C8.352 45.6447 8.62236 46.0186 8.96165 46.3235C9.31469 46.6308 9.72903 46.8593 10.1771 46.9938C10.634 47.1323 11.1164 47.1646 11.5876 47.0882L11.7631 47.0589L11.8866 47.0329L12.1336 46.9808L12.6308 46.8734L13.6545 46.6554L14.1842 46.5512C14.2915 46.5285 14.3337 46.5285 14.389 46.5187C14.442 46.5138 14.4953 46.5138 14.5482 46.5187C14.7714 46.522 14.989 46.5889 15.1755 46.7117C15.362 46.8345 15.5097 47.008 15.6012 47.2118C15.7115 47.293 15.7933 47.4068 15.8352 47.5373C15.901 47.7741 15.9488 48.0156 15.9782 48.2597C16.03 48.7217 16.1235 49.1781 16.2577 49.6232C16.2475 49.8006 16.2573 49.9785 16.2869 50.1536C16.2964 50.2465 16.3105 50.3388 16.3292 50.4302C16.3449 50.5403 16.3688 50.6491 16.4007 50.7557C16.4364 50.8631 16.4722 50.9704 16.5047 51.0811C16.5372 51.1917 16.5989 51.2763 16.6412 51.3707C16.7257 51.5249 16.8179 51.6748 16.9174 51.8198C16.9771 51.8886 17.0304 51.9626 17.0766 52.0411C17.0766 52.0704 17.0539 52.0411 16.9564 51.9662C16.79 51.8025 16.6457 51.6176 16.5274 51.4163C16.4575 51.3001 16.3977 51.1782 16.3487 51.0518C16.3064 50.9281 16.2869 50.8338 16.3064 50.8435C16.232 50.7553 16.1656 50.6606 16.1082 50.5604C16.2009 51.2482 16.5281 51.8828 17.0344 52.3567C17.5114 52.8056 18.111 53.1024 18.7568 53.2093C19.391 53.3167 20.0425 53.2411 20.6353 52.9913C20.7824 52.9282 20.9256 52.8565 21.0643 52.7765L21.2658 52.6496L21.3665 52.5845L21.4315 52.5357C21.6135 52.4034 21.802 52.2732 21.997 52.1452L21.3178 52.5617C21.0773 52.6919 20.9928 52.7179 21.269 52.5064L22.712 51.5302L22.4747 51.8165L23.5342 51.1299C23.7296 51.0105 23.9554 50.9506 24.1842 50.9574C24.1201 50.915 24.0514 50.8801 23.9794 50.8533C24.2611 50.8361 24.5388 50.9268 24.7562 51.1071C24.8512 51.1803 24.9424 51.2585 25.0292 51.3414C25.0747 51.387 25.1267 51.4325 25.1786 51.4944L25.2209 51.5367L25.2924 51.631L25.4516 51.8361C25.8709 52.3307 24.9674 50.7296 25.6986 51.8361C25.9001 52.207 26.1309 52.6236 26.3746 53.0694L26.5631 53.3948L26.6574 53.5673C26.6964 53.6414 26.7398 53.7131 26.7873 53.7821C26.9935 54.1235 27.26 54.4246 27.5738 54.6705C27.9043 54.9117 28.2736 55.0945 28.6658 55.2107C29.4717 55.433 30.3312 55.3507 31.0805 54.9796C31.4479 54.7952 31.7783 54.5448 32.0554 54.2409C31.8994 54.2995 31.9872 54.1823 32.1334 53.9513C32.2797 53.7202 32.4324 53.4534 32.5787 53.1898H32.7184C33.2481 52.1712 33.4139 52.0281 33.5829 51.8881C33.6922 51.7994 33.7904 51.6978 33.8754 51.5855C33.9861 51.4507 34.109 51.3265 34.2426 51.2145L34.2134 51.3349C34.2388 51.2083 34.2885 51.0879 34.3596 50.9802C34.5308 50.8633 34.7394 50.8146 34.9446 50.8435C35.0454 50.8602 35.1398 50.9041 35.2176 50.9704C35.2997 51.035 35.3854 51.0948 35.4743 51.1494C35.8129 51.3615 36.1634 51.5538 36.524 51.7254C35.7701 51.234 36.3258 51.2633 37.2098 51.9337L36.9108 51.8718C37.1708 52.0346 37.3495 52.1354 37.5023 52.2266L37.7233 52.36L38.0255 52.552C37.798 52.4544 37.7005 52.4511 37.8273 52.552C37.9247 52.6415 38.0341 52.717 38.1522 52.7765C38.24 52.8188 38.344 52.8676 38.461 52.9132C38.5988 52.9571 38.7387 52.9941 38.8802 53.0238C38.7372 53.0238 38.591 53.0011 38.4415 52.9815C38.292 52.962 38.1523 52.9164 38.006 52.8807C38.3964 53.0295 38.8102 53.1078 39.228 53.1117C39.6324 53.11 40.0332 53.035 40.4109 52.8904C40.911 52.7756 41.3725 52.5322 41.7499 52.1843C42.1597 51.8106 42.4626 51.3343 42.6274 50.8045C42.6698 50.6817 42.7013 50.5554 42.7216 50.427C42.7216 50.3652 42.7476 50.3033 42.7574 50.2448L42.7769 50.1113C42.8029 49.9421 42.8256 49.7859 42.8484 49.6362C42.8766 49.4139 42.93 49.1956 43.0076 48.9854C43.0076 48.9854 43.1083 48.3345 43.2188 47.5828C43.2626 47.3747 43.3501 47.1784 43.4756 47.0068C43.5893 46.8441 43.7193 46.727 43.7811 46.6391C43.6641 46.7758 43.8103 46.7237 43.9566 46.7042C44.1028 46.6847 44.2426 46.7042 44.1581 46.7953C44.2641 46.7201 44.3891 46.6761 44.5188 46.6684C44.5611 46.6684 44.6033 46.6684 44.6488 46.6684L44.8958 46.6944L45.4385 46.7693C45.8058 46.8246 46.173 46.8864 46.5012 46.9548C46.667 46.9906 46.8262 47.0231 46.9595 47.0589L47.1577 47.1142C47.194 47.1251 47.2309 47.1338 47.2682 47.1403L47.3885 47.1695L47.1642 47.1533C47.6912 47.2666 48.2377 47.2522 48.758 47.1112C49.2783 46.9703 49.7574 46.7069 50.1555 46.343C50.5536 45.9791 50.8591 45.5252 51.0465 45.0192C51.234 44.5131 51.2979 43.9695 51.2331 43.4337C51.2242 43.3116 51.2035 43.1906 51.1714 43.0725L51.1259 42.8968C51.1156 42.8448 51.1015 42.7937 51.0836 42.7438L50.9309 42.272C50.8334 41.9466 50.7326 41.6407 50.6351 41.3218C50.5376 41.0028 50.4434 40.6709 50.3556 40.3455C50.3037 40.1614 50.3037 39.9666 50.3556 39.7825C50.2809 39.8086 50.2874 39.6166 50.3556 39.4571C50.4239 39.2976 50.4954 39.1317 50.3556 39.1772C50.4657 38.9746 50.63 38.8066 50.8301 38.6924C50.8769 38.6626 50.9271 38.6386 50.9796 38.6208C51.0298 38.5975 51.082 38.579 51.1356 38.5655L51.3501 38.5134L51.5938 38.4613C52.2438 38.3214 52.8515 38.2075 53.4008 38.0968L53.6023 38.0578C53.6705 38.0578 53.729 38.0318 53.8265 38.0025C54.0014 37.961 54.1713 37.901 54.3335 37.8235C54.6326 37.6912 54.9048 37.5048 55.1362 37.2735C55.5008 36.9361 55.7179 36.4685 55.7407 35.9719C55.8704 35.6355 55.9461 35.2808 55.965 34.9208C55.9763 34.7876 55.9763 34.6537 55.965 34.5205C55.9643 34.4115 55.9557 34.3027 55.939 34.1951C55.8984 33.7854 55.7602 33.3914 55.536 33.0463C55.6296 33.1601 55.7144 33.2808 55.7895 33.4076C55.7342 33.3132 55.6855 33.2188 55.627 33.1309L55.445 32.8901C55.3767 32.8023 55.3345 32.7567 55.289 32.7046L55.1557 32.5517L54.6682 31.9952L53.8753 31.0808L53.6965 30.8758L53.586 30.7326C53.5208 30.6363 53.4674 30.5325 53.4268 30.4235C53.3328 30.1743 53.3103 29.9038 53.3618 29.6425C53.3708 29.3889 53.4202 29.1385 53.508 28.9005C53.5758 28.7487 53.6769 28.6141 53.8038 28.5067C54.0585 28.2883 54.3243 28.083 54.6 27.8917C54.2328 28.305 54.7657 27.8689 55.25 27.4849C54.9412 27.742 54.8665 27.8494 55.575 27.3971C55.676 27.2815 55.7846 27.1728 55.9 27.0716C55.9 27.0716 55.9487 27.0489 55.939 27.0716C56.2086 26.8657 56.4248 26.5978 56.5694 26.2906C56.5694 26.2516 56.4622 26.4468 56.2444 26.6714C56.2444 26.6356 56.2087 26.6714 56.0495 26.782C56.3628 26.528 56.6103 26.202 56.7709 25.8318C56.9417 25.4324 57.0217 25 57.0049 24.5659C57.0049 23.7263 56.5889 23.1373 56.6247 23.0169C56.3468 22.5879 55.9628 22.2381 55.51 22.0016L55.3475 21.917L55.224 21.8617L54.977 21.751L54.4927 21.5363L53.5535 21.1295L53.0985 20.9342L52.988 20.8854L52.9068 20.8496C52.8521 20.8266 52.7999 20.7983 52.7508 20.765C52.4423 20.578 52.2004 20.2985 52.0593 19.9662C51.9181 19.6339 51.8849 19.2656 51.9643 18.9134C51.9928 18.7911 52.0342 18.6722 52.0878 18.5587C52.1463 18.4285 52.2276 18.2723 52.2991 18.1291C52.3706 17.9859 52.4096 18.1096 52.3413 18.3146C52.3218 18.3634 52.2991 18.422 52.2763 18.4871L52.2341 18.588L52.2081 18.6693C52.1659 18.7886 52.1354 18.9118 52.1171 19.037C52.1716 18.7942 52.2661 18.5622 52.3966 18.3504L52.8223 17.5206C52.8775 17.5596 52.7671 17.8037 52.6111 18.1031L52.3543 18.5489C52.3202 18.6072 52.2909 18.6681 52.2666 18.7311C52.244 18.7791 52.2266 18.8292 52.2146 18.8808C52.2536 18.7962 52.3056 18.7149 52.3511 18.6368L52.5688 18.2756C52.7118 18.0315 52.8483 17.7809 52.9815 17.5271C53.1148 17.2733 53.2448 17.0129 53.3748 16.7493L53.5665 16.3523C53.6512 16.1752 53.7208 15.9912 53.7745 15.8024C53.9821 15.0046 53.8747 14.1573 53.4746 13.4368C53.0746 12.7162 52.4126 12.1777 51.6263 11.9331C51.393 11.9087 51.1577 11.9087 50.9244 11.9331L50.7716 11.9136C50.4551 12.0053 50.1258 12.0448 49.7966 12.0308C49.4294 11.9071 49.8291 11.7704 48.5389 11.7411L48.3439 11.7184C48.2958 11.7071 48.2469 11.6994 48.1977 11.6956C48.1002 11.6728 47.9994 11.6468 47.8922 11.6142C47.6649 11.5357 47.4559 11.4117 47.278 11.2497C47.082 11.0716 46.9325 10.8481 46.8425 10.5989C46.7991 10.4746 46.7697 10.3458 46.7547 10.2149C46.7547 10.1466 46.7547 10.0978 46.7547 10.0132C46.7547 9.92855 46.7547 9.84068 46.7547 9.75607C46.7125 10.1336 46.7027 10.1759 46.6767 10.1824C46.6507 10.1889 46.6215 10.0945 46.6182 9.92529C46.6637 9.27445 46.8067 8.91975 46.7937 8.4186L46.953 8.36653C46.8717 8.48694 46.8652 8.06389 46.8717 7.58227C46.8717 7.47488 46.8717 7.2959 46.8717 7.15272C46.8592 7.01065 46.8386 6.8694 46.81 6.72967C46.7731 6.55189 46.7096 6.38073 46.6215 6.22202C46.5792 5.99097 46.7515 6.25782 46.8587 6.64832C46.9061 6.84593 46.9355 7.04743 46.9465 7.25034C46.9465 7.34146 46.9465 7.42607 46.9465 7.49115C46.9468 7.52992 46.9534 7.56838 46.966 7.60505V7.4879V7.08763C46.9522 6.93026 46.9294 6.7738 46.8977 6.61903C46.847 6.39452 46.7718 6.17627 46.6735 5.96819C46.5536 5.73532 46.4075 5.51695 46.238 5.31735L46.0073 5.0798C45.8944 4.98009 45.7761 4.88666 45.653 4.79994C45.1741 4.47048 44.609 4.2894 44.0281 4.27926C43.7887 4.28016 43.552 4.33 43.3326 4.4257C43.2708 4.45825 43.3326 4.46475 43.4398 4.46475C43.5293 4.45872 43.6192 4.4664 43.7063 4.48753C43.7551 4.51357 43.7291 4.52984 43.5406 4.59492L43.2806 4.6535L43.0303 4.74461C42.8614 4.80644 42.7476 4.87153 42.6014 4.93336L41.7629 5.31735C41.4769 5.44752 41.1844 5.57118 40.8822 5.69484C40.6081 5.83007 40.3097 5.90865 40.0047 5.92589C40.1374 5.96085 40.2737 5.98051 40.4109 5.98446C39.9574 6.14931 39.4605 6.14931 39.007 5.98446C38.6262 5.82732 38.3037 5.55553 38.084 5.20671C37.9764 5.05409 37.8921 4.88629 37.8338 4.70882C37.772 4.52984 37.7135 4.34109 37.6583 4.15886C37.551 3.79439 37.4503 3.43317 37.3528 3.05569C37.2455 2.81162 37.1448 2.57407 37.0278 2.34302C36.9823 2.22912 36.914 2.10221 36.8555 1.98831C36.797 1.87442 36.7093 1.76703 36.641 1.66289C36.3439 1.29354 35.945 1.01971 35.4938 0.875378C35.1466 0.760788 34.7766 0.733205 34.4163 0.795044C34.0559 0.856884 33.7162 1.00626 33.4269 1.23009C33.2098 1.41144 33.0184 1.62165 32.8582 1.85489L32.4259 2.45366C32.1562 2.81488 31.9449 3.1045 31.7759 3.35182C31.126 4.30855 31.3015 4.35411 31.8149 4.00266C32.0717 3.82042 32.4129 3.53731 32.7899 3.21514L33.3554 2.70424L33.6381 2.4439L33.7779 2.31373L33.8624 2.25516C34.0276 2.13026 34.2248 2.05468 34.4311 2.03713C34.5154 2.0284 34.6003 2.0284 34.6846 2.03713C34.8585 2.06193 35.0235 2.13004 35.1643 2.23522C35.3051 2.3404 35.4173 2.47929 35.4906 2.63915C35.7148 3.28999 35.9293 3.9148 36.1406 4.52008L36.3128 5.0082L36.3583 5.13186L36.4103 5.27505C36.4656 5.39871 36.5111 5.52562 36.576 5.64277C36.9429 6.35718 37.5368 6.92892 38.2642 7.26775C38.9916 7.60658 39.8109 7.6932 40.5929 7.51393C40.7221 7.48482 40.8492 7.44676 40.9732 7.40004C41.0934 7.35773 41.2364 7.30241 41.2982 7.27312L41.7694 7.06485L42.7249 6.63205L43.2156 6.41076L43.4658 6.30012L43.5796 6.24805L43.6446 6.22202C43.8153 6.15195 44.0006 6.12512 44.1841 6.14392C44.3932 6.17088 44.5915 6.25243 44.7592 6.38037C44.9269 6.50831 45.0581 6.67815 45.1395 6.87286C45.159 6.92493 45.1688 6.9835 45.1915 7.03557C45.2143 7.08763 45.211 7.15272 45.2175 7.21129V7.30567C45.2209 7.34464 45.2209 7.38384 45.2175 7.42282L45.198 7.76776C45.1753 8.2266 45.1395 8.70822 45.1103 9.20937Z" fill="#1D1D1D"/>
<path d="M19.8256 33.2319V33.1603C19.8172 33.1703 19.8125 33.183 19.8125 33.1961C19.8125 33.2092 19.8172 33.2219 19.8256 33.2319Z" fill="#1D1D1D"/>
<path d="M21.4517 32.3663C21.0779 31.8912 21.1559 31.6015 20.6457 31.2403C20.4388 31.0266 20.2125 30.8327 19.9697 30.6611C19.7292 30.7131 19.7032 30.4007 19.4692 30.4105L19.5082 30.2836C19.427 30.2836 19.3522 30.2836 19.3587 30.1827L19.3847 30.1632C19.2645 30.1632 19.2352 30.0623 19.1735 30.0656L19.2027 30.0428L19.1215 29.9842L19.167 29.9614C19.0968 29.9462 19.0311 29.9151 18.9748 29.8706C18.9184 29.826 18.873 29.7692 18.842 29.7043L18.7477 29.8117C18.6633 29.5026 18.3838 29.6393 18.3383 29.3269L18.3643 29.3041C17.8768 29.3431 18.1888 28.7704 17.7143 28.7867C17.776 28.7867 17.7533 28.7248 17.7793 28.7021L17.659 28.637C17.6168 28.6109 17.62 28.637 17.5908 28.637C17.5085 28.6707 17.4318 28.7168 17.3633 28.7736C17.3275 28.7346 17.4055 28.6923 17.4933 28.6305C17.3893 28.6988 17.3145 28.6955 17.2788 28.6695H17.334L17.2268 28.6142C17.152 28.6467 17.0773 28.6793 17.0058 28.7183C17.0058 28.6337 17.2885 28.6044 17.1845 28.5784L16.9733 28.637C16.9311 28.5393 17.243 28.445 17.4055 28.4092C17.4868 28.3506 17.4348 28.266 17.4803 28.1293C17.4905 28.0957 17.5035 28.0631 17.5193 28.0317C17.5744 27.9657 17.633 27.9027 17.6948 27.8429C17.8201 27.7226 17.9697 27.6305 18.1335 27.5729L18.257 27.6542C18.413 27.7909 18.1693 27.3028 18.322 27.4199V27.2962C18.3643 27.2962 18.4228 27.2962 18.4293 27.3646C18.4878 27.319 18.465 27.293 18.4553 27.2116L18.6048 27.2474C18.8777 27.1173 18.8712 26.7658 19.1215 26.5966C19.5667 26.5283 19.8755 25.8709 20.0542 25.4934C20.2232 24.8816 21.2664 25.0151 21.4127 24.361C21.4452 24.361 21.4322 24.2894 21.4127 24.2731L21.7767 23.9021C21.7767 23.9021 23.6096 22.1839 21.0357 22.3076L21.0129 22.2653C20.7334 22.3889 20.5904 22.4963 20.6132 22.7989C20.3954 22.62 20.4279 22.9421 20.3174 22.9259V22.9031C20.3467 23.1797 19.9372 23.03 19.9567 23.2838C19.9567 23.2643 19.8917 23.2057 19.9177 23.1764C19.856 23.2871 19.7845 23.4498 19.661 23.3391C19.4855 23.5734 19.1475 23.8077 19.1995 24.1234L19.1767 24.0811C19.2255 24.2796 19.0987 24.195 19.0792 24.3414C19.0597 24.3414 19.0435 24.3414 19.0402 24.3219C19.0825 24.5269 18.8192 24.579 18.8062 24.6994L18.725 24.6245L18.582 24.8068L18.66 24.7612C18.8485 24.9955 18.4033 24.7612 18.4228 25.0085C18.2863 25.0899 18.6373 25.6594 18.4228 25.6822C18.4683 25.8351 18.3123 25.4739 18.3058 25.6301C18.192 25.5227 18.2733 25.5227 18.166 25.4576C18.1368 25.5878 17.9223 25.4739 17.8963 25.6496L17.8085 25.5683C17.8345 25.8514 17.451 25.6984 17.516 25.9327C17.4543 26.1378 17.1715 25.7668 17.191 26.0727L17.0221 26.0108C16.9441 26.0531 17.1195 26.1963 16.9993 26.2061C16.9311 26.128 16.8596 26.2321 16.8271 26.1215C16.5638 26.1573 16.6873 26.5868 16.2973 26.5901C16.3158 26.6175 16.3256 26.6498 16.3256 26.6828C16.3256 26.7159 16.3158 26.7482 16.2973 26.7756C16.2713 26.8244 16.2063 26.8992 16.2421 26.9708C16.1673 26.9188 15.9171 27.2962 15.9333 26.9903C15.9333 26.9643 15.9691 26.935 15.9951 26.9578L15.9236 26.8602C15.8477 26.8691 15.7763 26.9005 15.7184 26.9504C15.6605 27.0003 15.6188 27.0663 15.5986 27.14C15.5737 27.2629 15.5139 27.3759 15.4263 27.4655C15.5238 27.4232 15.5888 27.3451 15.6181 27.4297L15.4263 27.5989L15.3581 27.524L15.0169 27.7844H15.1989C14.9974 27.895 14.6789 27.9145 14.7471 28.1098C14.8089 28.1846 15.0721 28.0089 15.0006 28.1488C14.8836 28.2139 14.7341 28.2985 14.5781 28.3994C14.6355 28.5496 14.7155 28.6901 14.8154 28.816C14.9681 28.7704 15.0234 28.8355 15.1176 28.8875L14.9779 28.9233C15.4166 29.1218 14.7634 29.0861 15.1729 29.3041H15.0591C15.1729 29.3041 15.2834 29.3041 15.3841 29.278C15.6148 29.3399 15.5758 29.3919 15.5596 29.4473C15.5433 29.5026 15.5596 29.5644 15.8098 29.597C15.6993 29.5156 16.0113 29.4212 16.0666 29.5481L15.9366 29.5872C16.0178 29.6328 16.0796 29.623 16.0958 29.6783C16.0113 29.6783 15.9366 29.7597 16.0471 29.841L15.8651 29.8671C15.9853 29.8671 16.1023 29.8996 16.2096 29.9061C16.2256 29.9858 16.2708 30.0566 16.3363 30.1046C16.3818 30.1469 16.4208 30.186 16.3786 30.2608C16.3786 30.2608 16.4891 30.4886 16.6548 30.3975C16.5411 30.4431 16.6028 30.5667 16.4826 30.6318C16.6158 30.5862 16.8076 30.6318 16.7751 30.788H16.7556C16.8466 31.0744 17.2138 30.9767 17.2658 31.2664C17.3568 31.159 17.3925 31.3054 17.4965 31.1557C17.7988 31.2045 17.5583 31.735 18.0165 31.4063C18.1173 31.4649 18.0165 31.5918 18.0393 31.6536H18.0003C18.1251 31.7245 18.2353 31.8183 18.3253 31.9302C18.4195 31.9497 18.6113 31.774 18.6697 31.9302C18.5625 31.9693 18.6178 31.9953 18.6535 32.0344C18.621 32.0344 18.5853 32.0344 18.5853 32.1385C18.608 32.1255 18.6338 32.1188 18.66 32.119C18.6567 32.127 18.651 32.1338 18.6438 32.1385C18.7315 32.1743 18.7445 32.1385 18.725 32.1027C18.7424 32.0885 18.7549 32.0691 18.7607 32.0474C18.7315 32.2068 18.946 32.2198 18.829 32.3533C19.0497 32.4631 19.279 32.5545 19.5147 32.6266C19.4934 32.6616 19.4612 32.6886 19.423 32.7034C19.3847 32.7181 19.3427 32.7197 19.3035 32.708L19.4367 32.7958C19.3457 32.8869 19.323 32.7958 19.2677 32.7698C19.2677 33.0497 19.6902 32.8902 19.7065 33.1831L19.8137 33.1408V33.1636C19.8352 33.1445 19.8606 33.1306 19.8882 33.1227C19.9157 33.1148 19.9447 33.1132 19.973 33.118C19.9145 33.2189 19.7877 33.3002 19.869 33.3718C19.8495 33.5118 20.077 33.5052 20.194 33.541C20.1647 33.4857 20.2232 33.4532 20.272 33.4434C20.3207 33.4337 20.2525 33.5833 20.3174 33.5768L20.2135 33.6907C20.2979 33.5736 20.4214 33.6907 20.4799 33.6484C20.4214 33.7526 20.3532 33.6484 20.2817 33.7103L20.5287 33.925C20.6912 33.925 20.6164 33.8079 20.7497 33.7526C20.8439 33.8014 20.9902 33.7981 21.0064 33.9446L21.0779 33.8242C21.2859 33.8827 21.3574 33.9771 21.3509 34.1496C23.1481 34.3741 22.6509 33.2872 22.6509 33.2872C22.4819 32.6884 21.9944 32.7633 21.4517 32.3663Z" fill="#1D1D1D"/>
<path d="M39.1641 23.5538V23.6254C39.1725 23.6154 39.1772 23.6027 39.1772 23.5896C39.1772 23.5765 39.1725 23.5638 39.1641 23.5538Z" fill="#1D1D1D"/>
<path d="M37.5448 24.4064C37.912 24.8718 37.834 25.1712 38.341 25.5259C38.5498 25.7378 38.7771 25.9306 39.0202 26.1019C39.2607 26.0531 39.2867 26.3655 39.5207 26.3557L39.4817 26.4826C39.563 26.4826 39.6377 26.4826 39.6312 26.5802L39.6052 26.603C39.7255 26.603 39.7547 26.7007 39.8132 26.7007L39.7872 26.7202L39.8685 26.782L39.823 26.8048C39.8934 26.8193 39.9595 26.8501 40.0159 26.8948C40.0723 26.9394 40.1175 26.9966 40.148 27.0619L40.2422 26.9545C40.3267 27.2636 40.6062 27.127 40.6517 27.4394L40.6257 27.4589C41.1132 27.4198 40.8012 27.9958 41.2757 27.9763C41.2139 27.9763 41.2367 28.0414 41.2107 28.0642C41.2432 28.0845 41.2768 28.103 41.3114 28.1195C41.3537 28.1455 41.3504 28.1195 41.3797 28.1195C41.462 28.0857 41.5387 28.0396 41.6072 27.9828C41.6429 28.0219 41.5649 28.0609 41.4772 28.126C41.5812 28.0577 41.6559 28.0609 41.6917 28.0869H41.6364L41.7567 28.1488L41.9777 28.0446C41.9777 28.126 41.6949 28.1585 41.7989 28.1846L42.0102 28.126C42.0524 28.2204 41.7404 28.3147 41.5747 28.3505V28.3701C41.4934 28.4286 41.5454 28.5132 41.4999 28.6499C41.4906 28.6833 41.4763 28.7151 41.4577 28.7443C41.4046 28.8121 41.3471 28.8762 41.2854 28.9363C41.1601 29.0567 41.0105 29.1488 40.8467 29.2064L40.7232 29.125C40.5672 28.9851 40.8109 29.4765 40.6582 29.3593V29.4797C40.616 29.4797 40.5542 29.4797 40.551 29.4146C40.4925 29.4602 40.5152 29.4862 40.525 29.5676L40.3755 29.5285C40.1025 29.662 40.109 30.0134 39.8587 30.1794C39.4135 30.2477 39.1047 30.9051 38.926 31.2826C38.757 31.8943 37.7138 31.7609 37.5675 32.415C37.5318 32.415 37.548 32.4866 37.5675 32.5029L37.2166 32.8673C37.2166 32.8673 35.3836 34.5888 37.9575 34.4652L37.9803 34.5075C38.2598 34.3838 38.4028 34.2764 38.38 33.9738C38.5978 34.1528 38.5653 33.8306 38.6758 33.8469V33.8696C38.6465 33.593 39.056 33.7427 39.0365 33.4889C39.0365 33.5084 39.0982 33.567 39.0755 33.5963C39.1372 33.4856 39.2087 33.3229 39.3322 33.4336C39.5077 33.196 39.8457 32.965 39.7937 32.6493L39.8165 32.6884C39.7677 32.4899 39.8945 32.5745 39.914 32.4248C39.9335 32.4248 39.9465 32.4248 39.953 32.4476C39.9107 32.2425 40.1707 32.1872 40.187 32.0701L40.2682 32.1417L40.4112 31.9627L40.3332 32.005C40.1447 31.7739 40.59 32.005 40.5705 31.7609C40.7069 31.6763 40.356 31.1101 40.5705 31.0873C40.525 30.9344 40.681 31.2956 40.6875 31.1394C40.8012 31.2468 40.7199 31.2468 40.8272 31.3118C40.8564 31.1784 41.0709 31.2923 41.0969 31.1198L41.1847 31.2012C41.1587 30.9148 41.5422 31.071 41.4772 30.8367C41.5389 30.6317 41.8217 31.0027 41.8022 30.6935L41.9712 30.7586C42.0492 30.7163 41.8704 30.5731 41.9939 30.5634C42.0622 30.6415 42.1337 30.5373 42.1662 30.6447C42.4294 30.6122 42.3059 30.1826 42.6926 30.1794C42.6746 30.1518 42.665 30.1196 42.665 30.0866C42.665 30.0537 42.6746 30.0215 42.6926 29.9939C42.7186 29.9451 42.7836 29.8702 42.7479 29.7986C42.8226 29.8507 43.0891 29.4732 43.0566 29.7791C43.0566 29.8052 43.0209 29.8344 42.9949 29.8117L43.0664 29.9093C43.1421 29.8999 43.2133 29.8684 43.2711 29.8186C43.329 29.7688 43.3708 29.703 43.3914 29.6294C43.4163 29.5066 43.4761 29.3936 43.5636 29.304C43.4661 29.3496 43.4011 29.4277 43.3686 29.3431L43.5636 29.1738L43.6319 29.2454L43.9731 28.9884H43.7911C43.9926 28.8777 44.3111 28.8582 44.2428 28.6629C44.1811 28.5848 43.9179 28.7638 43.9894 28.6239C44.1063 28.5588 44.2558 28.4709 44.4118 28.3733C44.354 28.2224 44.2741 28.0809 44.1746 27.9535C44.0218 27.9991 43.9666 27.9535 43.8724 27.8819L44.0121 27.8494C43.5734 27.6509 44.2266 27.6867 43.8171 27.4686H43.9308L43.6059 27.4914C43.3751 27.4296 43.4141 27.3808 43.4304 27.3255C43.4466 27.2701 43.4466 27.2083 43.1801 27.1725C43.2906 27.2571 42.9786 27.3515 42.9234 27.2246L43.0534 27.1855C42.9721 27.14 42.9104 27.1465 42.8909 27.0944C42.9786 27.0944 43.0534 27.0131 42.9429 26.9317L43.1249 26.9057C43.0046 26.8861 42.8876 26.8731 42.7804 26.8666C42.7625 26.7877 42.7176 26.7175 42.6536 26.6681C42.6081 26.6258 42.5691 26.5835 42.6114 26.5087C42.6114 26.5087 42.5009 26.2841 42.3351 26.3752C42.4489 26.3297 42.3871 26.206 42.5074 26.1377C42.3741 26.1865 42.1824 26.1377 42.2149 25.9847H42.2344C42.1434 25.6984 41.7762 25.796 41.7242 25.5064C41.6332 25.6137 41.5974 25.4673 41.4934 25.617C41.1912 25.5682 41.4317 25.0378 40.9734 25.3664C40.8727 25.3079 40.9734 25.1809 40.9474 25.1191H40.9897C40.8655 25.046 40.7555 24.9512 40.6647 24.8393C40.5705 24.8393 40.382 24.9955 40.3397 24.8393C40.447 24.8002 40.3917 24.7709 40.3397 24.7351C40.3722 24.7351 40.408 24.7351 40.408 24.631C40.3841 24.6409 40.3589 24.6475 40.3332 24.6505C40.3317 24.6441 40.3317 24.6374 40.3332 24.631C40.2455 24.5952 40.2325 24.631 40.252 24.6668C40.2346 24.681 40.222 24.7004 40.2162 24.7221C40.2455 24.5626 40.0277 24.5464 40.1447 24.4162C39.926 24.3045 39.6976 24.213 39.4622 24.1429C39.4846 24.1157 39.5141 24.0955 39.5475 24.0846C39.5809 24.0736 39.6167 24.0724 39.6507 24.081L39.5142 23.9932C39.6085 23.902 39.6312 23.9932 39.6865 24.0192C39.6865 23.7393 39.264 23.8988 39.2477 23.6059L39.1405 23.645V23.6254C39.1186 23.6437 39.0931 23.6572 39.0657 23.6651C39.0383 23.6729 39.0095 23.6749 38.9813 23.671C39.0398 23.5701 39.1665 23.4888 39.0852 23.4172C39.1047 23.2772 38.8773 23.2837 38.7603 23.248C38.7895 23.3033 38.731 23.3358 38.6823 23.3456C38.6335 23.3553 38.7018 23.2056 38.6368 23.2122L38.7408 23.0983C38.653 23.2154 38.5328 23.0983 38.4743 23.1406C38.5328 23.0364 38.601 23.1406 38.6725 23.0787L38.4255 22.864C38.263 22.864 38.3378 22.9811 38.2045 23.0364C38.1103 22.9876 37.964 22.9909 37.9478 22.8444L37.8763 22.9648C37.6683 22.903 37.5968 22.8119 37.6033 22.6394C35.8061 22.4116 36.3033 23.4985 36.3033 23.4985C36.5081 24.081 36.9956 24.0192 37.5448 24.4064Z" fill="#1D1D1D"/>
<path d="M31.8768 23.0852L31.8086 23.1077C31.8209 23.112 31.8343 23.1121 31.8466 23.108C31.859 23.1039 31.8696 23.0959 31.8768 23.0852Z" fill="#1D1D1D"/>
<path d="M30.3684 22.0472C30.1247 22.5646 29.8257 22.6264 29.7477 23.2187C29.6541 23.4902 29.5877 23.7704 29.5494 24.055C29.7022 24.2405 29.4389 24.3804 29.5494 24.5985L29.4194 24.618C29.4584 24.6863 29.4779 24.7579 29.3999 24.7905L29.3707 24.7742C29.4292 24.8783 29.3512 24.9467 29.3707 24.9987H29.3382V25.0931L29.2992 25.0573C29.3198 25.1255 29.3241 25.1975 29.3117 25.2676C29.2993 25.3378 29.2705 25.4039 29.2277 25.4608L29.3642 25.4934C29.1302 25.7016 29.3804 25.8839 29.1269 26.0563H29.0944C29.3544 26.4631 28.7012 26.4371 28.9417 26.8471C28.9092 26.7983 28.867 26.8471 28.8345 26.8276C28.8345 26.9773 28.7987 27.1335 29.0619 27.2213C29.0262 27.3222 28.9515 27.2767 28.8475 27.2571C28.892 27.2714 28.9292 27.3025 28.951 27.3439C28.9729 27.3853 28.9777 27.4335 28.9645 27.4784L28.932 27.4264L28.8962 27.6639L29.1302 27.6932C29.0262 27.7908 28.854 27.6346 28.867 27.768L29.0489 27.8266C28.9612 27.9796 28.6557 27.9861 28.4672 28.1032C28.1747 28.7541 28.4022 29.6067 27.879 30.1241L27.736 30.1046C27.5312 30.0525 27.9732 30.3714 27.7815 30.3356L27.8497 30.4365C27.8075 30.4365 27.7555 30.4755 27.723 30.4365C27.6937 30.4983 27.723 30.5113 27.7685 30.5797L27.6255 30.5894C27.4435 30.8205 27.6255 31.1231 27.4695 31.3835C27.1088 31.634 27.1445 32.3337 27.1445 32.7372C27.2745 33.3425 26.2898 33.6712 26.462 34.2992C26.4263 34.2992 26.462 34.3741 26.4978 34.3806L26.3255 34.8362C26.3255 34.8362 25.4968 37.1141 27.7132 35.9035L27.7555 35.9296C27.944 35.7018 28.022 35.5488 27.8627 35.2983C28.139 35.3568 27.9602 35.0932 28.0642 35.0607H28.0837C27.931 34.8329 28.3632 34.7906 28.2267 34.5758C28.2462 34.5758 28.321 34.6181 28.3112 34.6539C28.3112 34.5303 28.3112 34.361 28.464 34.4034C28.5095 34.1235 28.7045 33.7753 28.5095 33.5247L28.5485 33.5508C28.4152 33.3978 28.5485 33.4173 28.516 33.2807C28.5311 33.279 28.5463 33.279 28.5615 33.2807C28.4282 33.1212 28.6362 32.9552 28.594 32.8576L28.698 32.8836L28.7435 32.6656L28.6947 32.7372C28.4185 32.6168 28.9255 32.6363 28.7922 32.4118C28.8735 32.2784 28.295 31.9269 28.4672 31.826C28.3567 31.7121 28.6622 31.9595 28.594 31.826C28.7435 31.8716 28.672 31.9041 28.7987 31.9171C28.763 31.7902 29.0067 31.7967 28.9482 31.634L29.0652 31.6666C28.9092 31.4323 29.3187 31.403 29.1529 31.2273C29.1139 31.0222 29.5332 31.2273 29.3674 30.9702L29.5462 30.9507C29.5949 30.8823 29.3739 30.8335 29.4779 30.7717C29.5722 30.8107 29.5884 30.6903 29.6664 30.7717C29.8842 30.6285 29.5754 30.3096 29.9199 30.1404C29.7477 30.0232 29.9004 29.9321 29.7704 29.8442C29.8582 29.8637 29.8679 29.5937 30.0012 29.7954C30.0012 29.7954 30.0012 29.8345 29.9719 29.8214L30.0792 29.8768C30.3392 29.8019 30.0467 29.5741 30.1279 29.4407C30.0759 29.4732 30.0662 29.5318 30.0012 29.4667L30.0597 29.3398L30.1474 29.3984L30.2677 29.2194H30.1409C30.2319 29.1446 30.4464 29.1771 30.3132 29.0112C30.2352 28.9298 30.1247 29.0502 30.1214 28.9363C30.2734 28.8204 30.4071 28.6821 30.5179 28.5263C30.3782 28.497 30.3977 28.4547 30.3879 28.3994L30.5049 28.4319C30.4009 28.2041 30.7779 28.4514 30.7096 28.2334L30.7844 28.2757L30.5569 28.152C30.3814 27.9177 30.8234 28.152 30.5569 27.8689C30.5569 27.9438 30.2904 27.8169 30.3684 27.7485L30.4757 27.8071C30.4757 27.7518 30.4237 27.7192 30.4757 27.6965C30.5244 27.7453 30.6317 27.7648 30.6349 27.6965L30.7584 27.7876L30.5959 27.5891C30.7486 27.5272 30.6511 27.319 30.8234 27.3287C30.8234 27.3287 30.9696 27.1367 30.8234 27.0326C30.9176 27.1107 30.9956 27.0033 31.1126 27.0782C31.0086 26.9838 30.9631 26.7853 31.1126 26.7527V26.7723C31.3239 26.5672 31.0704 26.2906 31.3011 26.1214C31.1646 26.0889 31.2751 25.9945 31.0964 25.9685C31.0021 25.6854 31.5806 25.6658 31.0769 25.4088C31.0769 25.2981 31.2426 25.3274 31.2881 25.2818L31.3076 25.3176C31.312 25.1765 31.3429 25.0374 31.3986 24.9076C31.3726 24.8197 31.1289 24.7286 31.2329 24.618C31.3141 24.6928 31.3141 24.618 31.3304 24.5854C31.3304 24.6212 31.3694 24.6408 31.4539 24.6017C31.433 24.5856 31.4154 24.5657 31.4019 24.5431H31.4279C31.4279 24.452 31.3824 24.4553 31.3596 24.4878C31.3372 24.482 31.3138 24.482 31.2914 24.4878C31.4474 24.4455 31.3596 24.2503 31.5319 24.2958C31.528 24.0576 31.503 23.8202 31.4571 23.5864C31.4974 23.5891 31.5357 23.6048 31.5662 23.6312C31.5967 23.6577 31.6177 23.6933 31.6261 23.7328L31.6424 23.5799C31.7659 23.6222 31.6846 23.6873 31.6976 23.7394C31.9544 23.632 31.6099 23.3196 31.8601 23.1796L31.7886 23.1048H31.8081C31.7818 23.0938 31.7581 23.0773 31.7385 23.0566C31.719 23.0359 31.7039 23.0113 31.6944 22.9844C31.8114 22.9844 31.9414 23.069 31.9674 22.9844C32.0974 22.9388 31.9901 22.7436 31.9674 22.6199C31.9316 22.672 31.8764 22.6199 31.8471 22.5971C31.8179 22.5744 31.9771 22.5516 31.9414 22.4995L32.0909 22.5418C31.9479 22.5158 31.9836 22.3661 31.9316 22.327C32.0486 22.327 31.9999 22.4344 32.0779 22.4735C32.1266 22.2717 32.1006 22.3726 32.1526 22.1676C32.0779 22.0277 32.0096 22.1415 31.8991 22.0504C31.8991 21.9463 31.8276 21.8226 31.9511 21.7445H31.8114C31.7659 21.5363 31.8114 21.4191 31.9869 21.3605C31.3596 19.7042 30.6349 20.6121 30.6349 20.6121C30.1767 21.0091 30.4659 21.3996 30.3684 22.0472Z" fill="#1D1D1D"/>
</g>
<defs>
<clipPath id="clip0_3766_10198">
<rect width="57" height="71" fill="white"/>
</clipPath>
</defs>
</svg>
