<svg width="98" height="39" viewBox="0 0 98 39" fill="none" xmlns="http://www.w3.org/2000/svg">
<g clip-path="url(#clip0_3319_6959)">
<path d="M31.094 31.4504H30.0315C29.9672 31.4504 29.9028 31.4829 29.8545 31.5317L27.9549 34.7518C27.8744 34.8656 27.7939 34.8656 27.7134 34.7518L25.8782 31.5317C25.83 31.4829 25.7656 31.4342 25.7012 31.4342H24.6709C24.5582 31.4342 24.4455 31.5317 24.4455 31.6618V38.1344C24.4455 38.2646 24.5421 38.3621 24.6709 38.3621H25.7012C25.8139 38.3621 25.9265 38.2646 25.9265 38.1344V34.8168C25.9265 34.6054 26.1197 34.5078 26.2485 34.6867L27.6651 37.0448C27.7456 37.1587 27.9227 37.1587 28.0193 37.0448L29.4842 34.6705C29.613 34.5078 29.8062 34.5891 29.8062 34.8006V38.1344C29.8062 38.2646 29.9028 38.3621 30.0315 38.3621H31.0779C31.1906 38.3621 31.3033 38.2646 31.3033 38.1344V31.6618C31.3194 31.548 31.2228 31.4504 31.094 31.4504ZM38.4669 35.6462H37.0825C36.9376 35.6462 36.841 35.4836 36.8893 35.3372L37.5815 33.4833C37.6459 33.3044 37.9035 33.3044 37.9679 33.4833L38.6601 35.3372C38.7245 35.4999 38.6118 35.6462 38.4669 35.6462ZM38.4991 31.5805C38.4669 31.4992 38.3864 31.4504 38.306 31.4504H37.2274C37.1469 31.4504 37.0664 31.4992 37.0342 31.5805L34.378 38.0531C34.3136 38.1995 34.4102 38.3621 34.5712 38.3621H35.6498C35.7303 38.3621 35.8108 38.3133 35.8429 38.2158L36.2454 37.1262C36.2776 37.0448 36.3581 36.9798 36.4386 36.9798H39.1592C39.2396 36.9798 39.3201 37.0286 39.3523 37.1262L39.7548 38.2158C39.787 38.2971 39.8675 38.3621 39.948 38.3621H41.0104C41.1553 38.3621 41.268 38.1995 41.2036 38.0531C41.1875 38.0531 38.4991 31.5805 38.4991 31.5805ZM56.9475 34.7192C56.8992 34.6379 56.8992 34.5404 56.9475 34.459L58.8954 32.0034C59.0081 31.8733 58.9115 31.6618 58.7344 31.6618H57.6558C57.5914 31.6618 57.527 31.6944 57.4948 31.7431L55.3055 34.5891C55.1928 34.7518 54.9353 34.6542 54.9353 34.459V31.8732C54.9353 31.7594 54.8387 31.6618 54.726 31.6618H53.7601C53.6474 31.6618 53.5508 31.7594 53.5508 31.8732V38.1507C53.5508 38.2646 53.6474 38.3621 53.7601 38.3621H54.726C54.8387 38.3621 54.9353 38.2646 54.9353 38.1507V37.0611C54.9353 37.0123 54.9513 36.9635 54.9835 36.931L55.8045 35.8902C55.885 35.7763 56.046 35.7926 56.1265 35.9064L57.7202 38.2808C57.7524 38.3296 57.8168 38.3784 57.8812 38.3784H59.0885C59.2495 38.3784 59.3461 38.1832 59.2495 38.0369C59.2656 38.0206 56.9475 34.7192 56.9475 34.7192ZM68.2644 37.0611H65.077C64.9482 37.0611 64.8356 36.9473 64.8356 36.8172V35.8414C64.8356 35.7113 64.9482 35.5974 65.077 35.5974H67.2181C67.3469 35.5974 67.4595 35.4836 67.4595 35.3535V34.6217C67.4595 34.4916 67.3469 34.3777 67.2181 34.3777H65.077C64.9482 34.3777 64.8356 34.2639 64.8356 34.1338V33.1905C64.8356 33.0604 64.9482 32.9466 65.077 32.9466H68.0391C68.1679 32.9466 68.2805 32.8328 68.2805 32.7027V31.8895C68.2805 31.7594 68.1679 31.6456 68.0391 31.6456H63.6282C63.4994 31.6456 63.3867 31.7594 63.3867 31.8895V38.1019C63.3867 38.232 63.4994 38.3459 63.6282 38.3459H68.2644C68.3932 38.3459 68.5059 38.232 68.5059 38.1019V37.2888C68.5059 37.1749 68.3932 37.0611 68.2644 37.0611ZM75.9915 31.4504H71.0655C70.9528 31.4504 70.8723 31.548 70.8723 31.6781V32.5726C70.8723 32.6864 70.9528 32.8002 71.0655 32.8002H72.6753C72.788 32.8002 72.8685 32.8978 72.8685 33.0116V38.1507C72.8685 38.2646 72.949 38.3621 73.0617 38.3621H73.9954C74.108 38.3621 74.1885 38.2646 74.1885 38.1507V33.0116C74.1885 32.8978 74.269 32.8002 74.3817 32.8002H75.9915C76.1042 32.8002 76.1847 32.7027 76.1847 32.5726V31.6781C76.1847 31.548 76.1042 31.4504 75.9915 31.4504ZM47.4336 35.2397C47.176 35.2559 46.9023 35.2559 46.6287 35.2559C46.516 35.2559 46.4194 35.1583 46.4194 35.0282V32.9791C46.4194 32.8653 46.516 32.7514 46.6287 32.7677C46.8701 32.7677 47.0955 32.7677 47.3692 32.784C48.2385 32.8165 48.8985 33.2393 48.8985 34.0037C48.8985 34.6705 48.4477 35.1583 47.4336 35.2397ZM50.3312 34.0362C50.3312 32.5238 49.2365 31.4504 47.3048 31.4504C46.6125 31.4504 45.9364 31.4667 45.212 31.4829C45.0993 31.4829 45.0027 31.5805 45.0027 31.6944V38.1507C45.0027 38.2646 45.0993 38.3621 45.212 38.3621H46.2101C46.3228 38.3621 46.4194 38.2646 46.4194 38.1507V36.7684C46.4194 36.5895 46.4516 36.557 46.6287 36.557C46.8379 36.557 47.176 36.557 47.4175 36.557C47.4657 36.557 47.514 36.557 47.5623 36.557C47.8038 36.557 47.8682 36.5407 47.9326 36.6708L48.6892 38.2483C48.7214 38.3296 48.8019 38.3621 48.8824 38.3621H50.0253C50.1863 38.3621 50.2829 38.1832 50.2185 38.0369L49.3331 36.2317C49.2848 36.1341 49.317 36.0203 49.3975 35.9552C49.9609 35.5487 50.3312 34.9307 50.3312 34.0362ZM90.7212 12.3253C92.4598 12.3253 91.4618 19.4484 88.4192 19.92C88.2743 19.3346 88.1938 18.7654 88.1938 18.31C88.2099 15.9844 89.0792 12.3253 90.7212 12.3253ZM47.5623 23.2539C44.4071 23.2539 46.6125 12.309 49.156 12.309C50.8463 12.309 50.5727 23.2539 47.5623 23.2539ZM36.5996 12.2765C38.4025 12.2765 37.3401 19.1882 34.3619 20.3266C34.1366 19.5948 34.0239 18.8792 34.0239 18.3263C34.0239 15.9844 34.9415 12.2765 36.5996 12.2765ZM96.3073 18.5702C96.2107 18.6515 95.4058 23.628 91.8803 23.628C90.512 23.628 89.5461 22.5872 88.9505 21.3512C93.2647 20.3917 94.7136 16.9765 94.7136 14.6346C94.7136 11.9025 92.7818 10.9267 91.1398 10.9267C88.4514 10.9267 84.9581 13.4312 84.9581 18.3263C84.9581 18.7654 84.9903 19.1882 85.0386 19.5948C84.1049 19.3183 83.3 18.8142 82.7527 17.9685C83.5576 14.3581 83.4127 10.8942 81.7546 10.8942C80.8209 10.8942 80.016 12.1301 80.016 14.8298C80.016 15.8869 80.2897 17.074 80.8531 18.1637C80.5151 19.8062 79.3399 23.8069 77.8428 23.8069C75.7822 23.8069 76.4101 13.9678 76.4101 12.5042C76.4101 11.317 73.5607 10.081 72.9329 10.699C72.6592 10.9755 72.6109 12.5692 72.6109 14.6509C72.6109 16.3585 72.7397 18.3588 73.11 20.229C72.9168 21.2373 72.0636 23.8394 70.4699 23.8394C68.0069 23.8394 69.2625 14.5208 69.2625 13.0246C69.2625 11.9512 66.5098 10.9429 65.8497 11.626C65.5922 11.8862 65.399 13.7727 65.399 16.7163C65.399 17.936 65.4634 19.237 65.6405 20.4567C65.3829 21.7577 64.3526 23.8557 62.7106 23.8557C60.0705 23.8557 61.2457 13.6426 61.9379 7.34885C62.3726 7.26754 62.8072 7.20248 63.2579 7.15369C64.417 7.02359 65.8175 6.79591 65.8175 7.51148C65.8175 9.17029 66.9122 9.67444 67.7332 9.67444C68.6186 9.67444 69.4235 8.97514 69.4235 7.62532C69.4235 6.29176 68.2805 5.03952 66.22 5.03952C64.8517 5.03952 63.4994 5.20215 62.1472 5.41357C62.2599 4.35648 62.3243 3.52708 62.3243 3.02293C62.3243 1.62432 59.4588 0.274505 58.8793 0.843705C58.7666 0.957545 58.3802 3.15303 58.0583 6.19419C56.0621 6.60076 54.082 6.94228 52.1342 6.94228C51.4581 6.94228 51.5386 8.9914 53.8567 8.9914C55.1928 8.9914 56.4807 8.69867 57.849 8.34089C57.6719 10.4713 57.527 12.8294 57.527 15.1062C57.527 17.1391 57.6558 18.928 57.8973 20.4242C57.6397 21.5626 56.8187 23.8394 55.3377 23.8394C52.4401 23.8394 53.8245 13.8052 53.8245 12.309C53.8245 11.5935 51.2005 10.0647 50.6532 10.6014C50.5727 10.6827 50.5244 11.1056 50.5244 11.1056C50.5244 11.1056 50.1702 10.8454 49.2043 10.8454C45.5179 10.8454 42.5558 15.4152 42.5558 19.5948C42.5558 19.7899 42.5719 19.9851 42.5719 20.1802C41.9924 21.5301 40.5597 23.8394 37.9357 23.8394C36.6318 23.8394 35.682 22.9612 35.038 21.8553C39.0787 20.7007 40.6885 17.1391 40.6885 14.8623C40.6885 12.1952 38.4347 10.8779 36.7927 10.8779C33.9434 10.8779 30.8043 13.7402 30.8043 18.5865C30.8043 20.0014 31.0779 21.2211 31.5287 22.2456C31.0296 23.0588 30.2247 23.8719 29.1623 23.8719C26.2002 23.8719 28.1803 13.9028 28.1803 12.8457C28.1803 12.5855 28.1803 12.0813 27.7134 11.7561C27.1017 11.317 23.5279 10.8454 22.3206 10.6014C22.3367 10.3412 22.3367 10.0973 22.3367 9.86959C22.3367 7.95058 21.1293 7.49522 20.3566 7.49522C19.0527 7.49522 18.779 8.97513 18.779 9.33292C18.779 9.6907 18.8756 10.9429 20.1795 11.7073C20.1795 15.3014 17.8936 23.7906 11.7602 23.7906C7.14011 23.7906 5.43371 19.0093 5.43371 15.4478C5.43371 9.44676 8.94309 4.81184 11.2129 4.81184C14.0623 4.81184 11.551 10.325 14.4003 10.325C16.4126 10.325 16.6863 8.37341 16.6863 7.47895C16.6863 5.80388 14.9316 2.66515 11.229 2.66515C5.30493 2.66515 0.910156 9.90212 0.910156 16.1145C0.910156 22.083 4.98297 26.8806 10.7139 26.8806C19.5517 26.8806 21.7571 17.4644 22.224 12.1952C22.7874 12.3578 24.188 12.6018 24.3328 12.7319C24.5582 12.9595 23.8821 16.1633 23.8821 19.237C23.8821 23.0913 25.1377 26.1812 28.1642 26.1812C30.0637 26.1812 31.5931 24.7989 32.3819 23.7418C33.6053 25.3193 35.3922 26.1325 37.1147 26.1325C40.0928 26.1325 42.0568 24.2622 43.0549 22.766C43.892 25.0266 45.5823 26.1325 47.1277 26.1325C49.2848 26.1325 50.5727 23.2377 50.6532 22.766C51.2971 24.7826 52.8264 26.1812 54.5328 26.1812C56.706 26.1812 57.9939 24.2134 58.5251 22.9775C59.2978 25.0591 60.5213 26.1812 62.276 26.1812C64.2882 26.1812 65.6244 24.3435 66.22 23.1076C66.8639 24.9127 67.9103 26.1812 69.6006 26.1812C71.8704 26.1812 73.2709 23.8719 73.7378 22.6847C74.4783 24.6688 75.6535 26.1162 77.4242 26.1162C79.4204 26.1162 81.1429 23.2539 82.1732 20.0176C83.0103 20.8145 84.1049 21.3837 85.4411 21.5789C86.4392 24.4899 88.7895 26.1162 91.2686 26.1162C95.599 26.1162 97.2571 21.6602 97.4341 20.6031C97.6434 19.5135 96.6453 18.2287 96.3073 18.5702Z" fill="#B0AEAE"/>
</g>
<defs>
<clipPath id="clip0_3319_6959">
<rect width="96.5884" height="37.7298" fill="white" transform="translate(0.894531 0.664551)"/>
</clipPath>
</defs>
</svg>
