<svg width="79" height="68" viewBox="0 0 79 68" fill="none" xmlns="http://www.w3.org/2000/svg">
<g clip-path="url(#clip0_3766_10300)">
<path d="M59.4286 5.63843H13.3809V49.5096H59.4286V5.63843Z" fill="#C0E3E4"/>
<path d="M28.1275 51.2654L27.6426 51.2292C27.6516 51.2534 27.7751 51.2685 28.1275 51.2654Z" fill="#1D1D1D"/>
<path d="M60.1523 13.9137C60.1523 13.95 60.1523 13.9954 60.1523 14.0286C60.1562 13.9904 60.1562 13.9519 60.1523 13.9137Z" fill="#1D1D1D"/>
<path d="M11.7227 46.891V46.9091L11.774 46.9969L11.7227 46.891Z" fill="#1D1D1D"/>
<path d="M33.9492 49.4765C30.7085 49.5248 28.6575 49.5218 26.5823 49.5308C25.5463 49.5308 24.5012 49.5459 23.3025 49.567C22.1037 49.5881 20.7514 49.6213 19.11 49.6213C18.3269 49.6032 17.5378 49.5761 16.7638 49.5097C16.0111 49.4586 15.2637 49.3466 14.529 49.1748C13.8893 49.0343 13.2855 48.7632 12.7551 48.3784C12.2909 47.9921 11.9375 47.4892 11.731 46.9212C11.4118 46.3903 11.2251 45.4551 11.1287 44.4535C11.0323 43.4519 11.0263 42.3809 10.945 41.515L11.0564 40.8453C10.9947 40.2112 10.9947 39.5727 11.0564 38.9386L11.0865 38.9748C11.0293 38.0698 11.1136 37.0591 11.0865 36.6096L11.1166 36.6458L11.1437 35.5477L11.1799 35.7377C11.1528 34.1599 11.207 32.5308 11.2913 31.0978L11.1588 31.2125C11.3967 28.1443 11.1588 27.013 11.3576 24.2435L11.3877 24.2797C11.0654 20.7741 11.6377 18.7317 11.2281 15.1205C11.2793 15.57 11.2913 14.9244 11.3244 14.9606C11.2883 14.128 11.2431 13.2682 11.1799 12.6135C11.1587 12.3459 11.1205 12.0798 11.0654 11.8171C11.0654 11.7507 11.0443 11.7748 11.0353 11.7386C11.0275 11.7045 11.0164 11.6711 11.0022 11.6391C10.9781 11.5818 10.951 11.5516 10.9179 11.5456C10.954 10.3177 11.0112 10.547 11.1166 10.3871C11.0082 10.3871 10.957 9.32213 10.9179 8.37785L10.9721 8.81228C10.9389 7.90722 10.8757 7.00217 10.9148 6.16951C10.8365 6.32941 10.7522 6.49232 10.6829 6.66428C10.7311 5.97342 10.8215 5.90403 10.8787 5.83163C10.9359 5.75922 10.96 5.68983 11.0715 5.09551L10.8968 5.06534C11.0018 4.66696 11.1739 4.28946 11.4058 3.94911C11.5072 3.7913 11.62 3.64107 11.7431 3.49959C11.7841 3.44849 11.8283 3.40012 11.8756 3.35478L11.9449 3.3216L11.984 3.3035L12.0443 3.26729L12.5382 2.98069L13.0623 2.71521C13.2339 2.63074 13.4086 2.55532 13.5893 2.46783L13.8544 2.35017C13.9429 2.31046 14.0346 2.27817 14.1285 2.25363C14.2942 2.18386 14.4684 2.13619 14.6465 2.11184L14.7579 2.09072H14.8814C14.9597 2.09072 15.0591 2.09072 15.1464 2.1058C15.6722 2.20722 16.2048 2.26974 16.7397 2.29285C16.8881 2.30193 17.037 2.30193 17.1854 2.29285C17.3327 2.28654 17.4794 2.27245 17.6252 2.25061L17.839 2.21743C17.853 2.21541 17.8672 2.21541 17.8812 2.21743H18.2516H19.7816C21.8267 2.21743 23.8807 2.21743 25.9167 2.19028C29.9887 2.14804 33.9884 2.0696 37.705 2.15709L38.0363 2.2838C38.1808 2.47386 40.0783 1.95496 40.3644 2.12692L41.2258 2.01832C41.4667 2.04848 41.9818 2.07564 41.5511 2.12692C42.0164 2.13011 42.481 2.09174 42.9395 2.01228L43.7979 2.11486C45.3731 2.11486 46.8248 2.06357 48.2915 2.01228C49.8109 1.9354 51.3335 1.9485 52.8514 2.0515C53.3303 2.11787 53.8604 2.19028 54.4115 2.29285C54.9789 2.38482 55.5372 2.52614 56.0801 2.71521C56.5997 2.88629 57.0749 3.17067 57.4715 3.54786C57.8599 3.96423 58.1402 4.46979 58.2877 5.02009C58.4675 5.65994 58.5855 6.31559 58.6401 6.97803C58.7064 7.66286 58.7395 8.35372 58.7546 9.0295C58.7937 10.381 58.7847 11.6602 58.7877 12.7372C58.8299 15.7782 58.61 19.0726 58.5166 22.3912C58.4925 23.2208 58.4715 24.0504 58.4654 24.8801C58.4654 25.2964 58.4654 25.7097 58.4654 26.123C58.4654 26.5363 58.4654 26.9014 58.4654 27.2875C58.3739 28.8952 58.3739 30.5068 58.4654 32.1145C58.4524 32.3588 58.4747 32.6037 58.5317 32.8416C58.5317 34.7512 58.604 36.6519 58.6461 38.5464C58.6461 38.5464 58.6461 38.9748 58.6733 39.6838C58.7004 40.3928 58.7124 41.3823 58.7034 42.4925C58.708 43.6649 58.6315 44.8363 58.4745 45.9981C58.2968 47.1535 57.9504 48.2336 57.3752 48.8792C56.8844 49.4131 56.2422 49.7837 55.5349 49.9411C55.0139 50.0678 54.7278 50.1583 54.9085 50.2639C55.1099 50.342 55.3223 50.3878 55.5379 50.3997C56.0309 50.4289 56.5247 50.3581 56.9896 50.1915C57.3433 50.0619 57.6746 49.8776 57.9715 49.6455C58.3323 49.3452 58.6425 48.9886 58.8901 48.5896C59.0352 48.3632 59.165 48.1274 59.2786 47.8836C59.381 47.6302 59.5105 47.3647 59.5949 47.0811C59.8023 46.4844 59.9664 45.8734 60.0858 45.2529L60.1129 45.4007C60.2988 44.0565 60.3824 42.7 60.3629 41.3431C60.3507 40.2515 60.2753 39.1616 60.137 38.0788C60.387 37.7289 60.0858 35.5175 60.1551 34.7905L60.1792 34.8598C59.9292 32.9653 60.2755 30.9621 60.134 29.1459C60.2096 29.3109 60.2388 29.4935 60.2183 29.6739C60.2183 29.0132 60.2183 28.2288 60.2334 27.5983C60.2334 27.5198 60.2334 27.4444 60.2334 27.372C60.2364 27.3157 60.2364 27.2593 60.2334 27.2031V27.0975C60.2334 26.9647 60.2334 26.844 60.2334 26.7415C60.2334 26.5363 60.2635 26.4036 60.2996 26.3764C60.2364 24.7775 60.2364 22.8769 60.2153 21.118C60.1942 19.3592 60.1912 17.7422 60.0978 16.7225L60.134 16.8613C60.0015 15.6968 60.149 15.3528 60.1099 14.0556C60.131 13.9862 60.143 13.8957 60.1521 13.9108C60.0316 12.6377 60.2484 10.2061 60.1701 9.16224L60.2725 9.09587C60.2725 8.2421 60.2394 7.38229 60.149 6.51042C60.1701 6.83624 60.1882 7.16206 60.1942 7.48486C60.0466 7.32497 60.0738 6.83926 60.0497 6.14236C60.0362 5.74347 59.9929 5.34614 59.9201 4.95372C59.8235 4.47324 59.6496 4.01168 59.4051 3.58708C59.1887 3.13052 58.8715 2.72922 58.4775 2.41352C58.0919 2.10891 57.6526 1.87966 57.1824 1.73775C56.2789 1.43606 55.3753 1.38478 54.5019 1.17661C53.6345 1.17661 55.2819 1.06499 53.9929 0.998617C53.9688 0.850791 54.5953 0.980516 54.2941 0.826656C53.0231 0.745201 52.228 0.488768 50.6799 0.549105L50.5986 0.446532C48.5806 0.62151 46.8007 0.30474 45.4785 0.52497C43.4154 0.657712 44.087 0.223284 41.9426 0.485751L41.1023 0.353009C40.1988 0.353009 40.4487 0.555139 39.4277 0.503852C39.488 0.407313 38.1387 0.452566 38.735 0.349992C36.428 0.244402 34.0577 0.651678 31.0217 0.416363C30.3652 0.606425 28.8352 0.500835 28.3442 0.642628C28.2629 0.561173 25.2842 0.624527 26.998 0.449549C27.1455 0.434464 27.4076 0.449549 27.3895 0.470667L27.5943 0.359043C25.8655 0.15088 24.45 0.461616 22.7392 0.413346C23.2452 0.452566 23.9199 0.449549 23.4681 0.521953L21.8779 0.488768L22.2092 0.401279L19.8358 0.301723L20.1611 0.425414C19.5768 0.389212 19.1913 0.316807 18.7817 0.274571C18.5638 0.248388 18.3446 0.235292 18.1251 0.235352H17.7697L17.5619 0.271554C17.4505 0.292672 17.327 0.331891 17.1945 0.36206C16.9596 0.416363 17.1794 0.458599 17.3511 0.461616C17.5228 0.464633 17.6252 0.494802 17.1041 0.558156C16.7355 0.561121 16.3681 0.516507 16.0108 0.425414C15.7487 0.362452 15.4832 0.314108 15.2157 0.280605C14.879 0.241156 14.5385 0.248262 14.2037 0.301723C13.5847 0.425048 12.9917 0.654698 12.4509 0.980516C12.1919 1.11929 11.9569 1.2822 11.728 1.42098C11.4991 1.55975 11.2853 1.72266 11.0715 1.88256C11.1317 1.88256 11.1468 1.88256 11.1317 1.93083C11.1185 1.95493 11.1023 1.97724 11.0835 1.9972L11.0443 2.03642L10.9691 2.11184L10.7703 2.27475C10.7221 2.3562 10.6649 2.44068 10.6076 2.53118C10.5143 2.67901 10.448 2.7846 10.3667 2.92639H10.2402C10.1017 3.20092 9.99322 3.41512 9.91793 3.60217C9.84263 3.78921 9.77336 3.92195 9.72818 4.03659C9.66433 4.18419 9.58879 4.32644 9.5023 4.46197C9.41497 4.59722 9.34799 4.74462 9.30352 4.89942C9.2734 5.01406 9.24027 5.1649 9.20714 5.361C9.17698 5.60318 9.16189 5.84701 9.16196 6.09108L9.0957 5.8799C9.16196 6.09108 9.22521 6.30226 9.2975 6.50137C9.38142 7.00927 9.38853 7.52693 9.31858 8.03695C9.27641 8.31752 9.25533 8.64032 9.42399 9.657C9.39086 8.83943 9.67096 9.26783 9.62879 10.2755L9.52037 10.019C9.55683 10.3879 9.56891 10.7588 9.55651 11.1292C9.53242 10.9633 9.49326 10.918 9.46013 11.0176C9.43853 11.1017 9.42442 11.1875 9.41797 11.274C9.41797 11.3374 9.41797 11.4098 9.41797 11.4882C9.41797 11.5667 9.41797 11.5727 9.41797 11.618C9.41947 11.6421 9.41947 11.6663 9.41797 11.6904C9.41797 11.7386 9.41797 11.7748 9.41797 11.8261C9.40818 11.7825 9.40213 11.7381 9.3999 11.6934L9.38484 11.627L9.35472 11.4882L9.29448 11.2167L9.33364 11.5999V11.6994C9.33364 11.7447 9.33364 11.7628 9.33364 11.796C9.33222 11.8191 9.33222 11.8422 9.33364 11.8653L9.36375 12.0584L9.49025 12.8368C9.41797 14.0435 9.6047 15.9592 9.46314 16.457C9.46314 16.457 9.43001 19.0545 9.59567 19.6488C9.48724 19.1269 9.46013 20.5539 9.33364 20.1527C9.49264 21.2971 9.52093 22.4561 9.41797 23.607V23.4561C9.26738 26.3976 9.52338 28.4943 9.28545 31.131C9.41797 31.0164 9.30051 32.4102 9.48122 32.0692C9.55049 34.8116 8.95415 37.0531 9.44206 38.0637C9.44206 39.3157 9.27942 39.545 9.24328 40.1936L9.21919 39.892C9.21919 41.0685 9.23726 41.8348 9.24931 42.5257C9.26135 43.2165 9.28545 43.832 9.36978 44.734C9.43453 45.0893 9.53545 45.4371 9.67096 45.7718C9.79746 46.1097 9.89384 46.5351 10.1348 47.3376C9.8848 46.8488 10.0776 47.5035 10.3667 48.0918C10.2613 47.9108 10.2131 47.7901 10.198 47.8142C10.2332 48.0269 10.3067 48.2313 10.4149 48.4176C10.4962 48.5202 10.6167 48.665 10.7161 48.8038C10.7161 48.8038 10.7161 48.846 10.7161 48.837C10.8706 49.0668 11.0607 49.2705 11.2793 49.4403C11.2024 49.3261 11.1179 49.2173 11.0263 49.1145C11.0534 49.1145 11.0263 49.0783 10.957 48.9425C11.336 49.5125 11.8545 49.9757 12.4629 50.2881C13.0653 50.5897 13.5442 50.7527 13.5833 50.8552C14.2793 51.0578 14.9936 51.1912 15.7157 51.2535C16.3783 51.3168 17.0017 51.3349 17.6071 51.3379C18.8118 51.3379 19.9503 51.2866 21.1641 51.2444C21.4381 51.3228 20.8629 51.4103 20.1641 51.4405L21.8929 51.3952C21.8929 51.5159 20.902 51.4827 20.3659 51.5039C22.435 51.6969 24.6005 51.2293 26.9919 51.3319L27.4859 51.2203H27.6274C27.9103 51.1162 28.2086 51.0601 28.5099 51.0543C28.8532 51.1509 28.5099 51.2987 29.6815 51.2535C30.6212 51.3259 32.3439 51.1237 33.5697 51.0362C32.9071 51.0362 33.121 50.9699 33.4041 50.9276C34.0065 50.9095 34.3408 51.0061 34.7986 50.9518L34.8588 51.0905C34.6209 50.9608 36.4039 50.9156 36.6207 50.8522C36.9611 50.9518 35.7172 50.9638 35.5575 51.0453L39.1537 50.985C40.4216 50.8643 38.9217 50.8522 39.5271 50.7195C40.6918 50.6375 41.86 50.6174 43.0269 50.6591L42.6203 50.5324C44.2138 50.4284 45.8131 50.4516 47.403 50.6018C51.3184 50.3906 53.508 50.2519 54.5591 50.098C55.6102 49.9441 55.5379 49.7963 54.9747 49.6726C54.1334 49.5265 53.2849 49.4258 52.4328 49.3709C51.5292 49.2985 50.7401 49.2593 50.7401 49.2593C47.641 49.0572 45.2887 49.0632 42.7889 49.1326C40.2891 49.202 37.6477 49.3287 33.9492 49.4765Z" fill="#1D1D1D"/>
<path d="M59.4257 5.63852H10.2969C10.7456 -1.72261 22.7236 2.24757 36.4033 1.29726C49.4746 1.83728 59.2781 -0.94728 59.4257 5.63852Z" fill="white"/>
<path d="M44.7436 6.29616L44.4785 6.24487C44.4815 6.26901 44.5478 6.29013 44.7436 6.29616Z" fill="#1D1D1D"/>
<path d="M47.9546 4.66705C44.4158 4.6037 43.4761 4.36536 39.8077 4.45587C38.0578 4.43777 36.1935 4.49207 34.4798 4.52224C33.6666 4.71532 32.233 4.52224 31.2722 4.68515L30.8987 4.57654C30.5526 4.64629 30.1974 4.65751 29.8476 4.60973L29.8687 4.57956C29.3747 4.66102 28.8145 4.61275 28.5706 4.65498L28.5917 4.6218H27.9893L28.0917 4.57654C27.2499 4.65769 26.4032 4.67484 25.5588 4.62783L25.625 4.76057C23.9505 4.61275 23.336 4.88426 21.8241 4.7123L21.8452 4.67912C19.9357 5.02606 18.8334 4.4438 16.8576 4.77264C17.1016 4.7304 16.7522 4.70627 16.7703 4.67308C15.8667 4.70929 14.8969 4.7304 14.8819 4.97477C14.2193 4.97477 14.3427 4.89633 14.2584 4.79677C14.2584 4.9084 13.6862 4.95667 13.1712 4.9627L13.4091 4.92047L11.9303 4.95667L12.2315 5.17086C12.1016 5.17562 11.9717 5.1614 11.846 5.12863C11.7887 5.10148 11.7917 5.07433 11.7767 5.04717C11.7616 5.02002 11.7466 4.95968 11.5628 4.98684L11.4875 5.16181C11.1864 5.12561 10.8852 5.16181 11.1261 4.78772C11.2296 4.58653 11.3672 4.40484 11.5327 4.25072L11.6773 4.00334C11.7014 3.95809 11.7255 3.91283 11.7526 3.8706L11.852 3.74992C11.9771 3.58357 12.1184 3.42997 12.2736 3.29136C12.6319 3.00685 13.0283 2.77428 13.4512 2.6005C14.4204 2.24098 15.4334 2.01368 16.4631 1.92472C18.5742 1.72416 20.7009 1.75248 22.806 2.0092L22.9776 2.15099C23.0439 2.34708 24.1071 1.91266 24.2546 2.0997L24.7305 2.03333C24.86 2.07255 25.1401 2.12384 24.9022 2.15702C25.1619 2.18369 25.4243 2.16841 25.6792 2.11177L26.1431 2.25055C27.8688 2.41647 29.3506 2.23244 31.1788 2.28976C32.6096 2.4183 34.0489 2.4183 35.4797 2.28976L36.0821 2.23546L36.3832 2.20529H36.4224H36.57C36.9675 2.20529 37.3621 2.20529 37.7416 2.20529C38.4975 2.18719 39.2023 2.15702 39.7986 2.12685C43.1327 1.86439 47.027 2.42854 50.3822 2.06652C50.5145 2.08217 50.6485 2.06239 50.7707 2.0092C51.7947 2.0092 52.8097 2.05445 53.8006 2.15401H53.9602C54.0626 2.15401 54.2102 2.18116 54.3939 2.20529C54.8715 2.26092 55.3452 2.34555 55.8125 2.45871C56.3693 2.58594 56.9036 2.79754 57.3967 3.08622C57.8337 3.35402 58.1922 3.73289 58.4358 4.18435C58.6197 4.54755 58.769 4.92735 58.8815 5.31869C58.9779 5.62038 59.0743 5.75915 59.1827 5.6596C59.261 5.55686 59.3137 5.43688 59.3363 5.30964C59.4048 5.04271 59.4362 4.7676 59.4297 4.49207C59.4152 4.28961 59.389 4.08815 59.3514 3.8887C59.2959 3.63003 59.21 3.37888 59.0954 3.14052C58.7833 2.49217 58.304 1.93911 57.7069 1.53857H57.8063C57.1146 1.12725 56.3545 0.844169 55.5625 0.702897C54.9491 0.587066 54.3225 0.558627 53.7012 0.618425C53.6169 0.473616 53.2554 0.449481 52.8699 0.44043C52.5365 0.457701 52.2022 0.449633 51.87 0.416295L51.9092 0.395177C50.852 0.570155 49.7407 0.220199 48.7347 0.422329C48.7735 0.38297 48.8209 0.353208 48.8732 0.335403C48.9255 0.317598 48.9812 0.312241 49.0359 0.319756C48.301 0.365009 47.3041 0.455514 47.2469 0.304671C45.5 0.398194 43.0815 0.398194 41.9762 0.648593L42.0515 0.606357C41.419 0.778318 41.2323 0.64256 40.5245 0.727032C40.4883 0.705914 40.4371 0.696863 40.4462 0.687812C39.7565 0.856757 38.4343 0.687813 37.8771 0.754183L37.844 0.654627L36.4435 0.636526L36.9736 0.675745C36.9404 0.708775 36.8999 0.733605 36.8555 0.748268C36.8111 0.76293 36.7638 0.767022 36.7176 0.760217C36.6489 0.755776 36.5805 0.74772 36.5127 0.736082H36.4826H36.4375H36.3471C36.298 0.740113 36.2486 0.740113 36.1995 0.736082C35.7604 0.677829 35.3148 0.692097 34.8803 0.778318C33.9557 0.778318 33.013 1.42091 32.0372 1.28817C31.5764 1.41789 32.4438 1.07397 31.7541 1.17654C31.73 1.03173 32.0733 1.08604 31.8956 0.971397C31.218 1.0438 30.7873 0.820554 29.953 0.908043L29.9199 0.796419C28.8266 0.983465 27.8688 0.597307 27.137 0.763234C26.0075 0.814521 26.396 0.401211 25.2154 0.570155L24.7636 0.398194C24.2637 0.349924 24.3962 0.567138 23.842 0.467582C23.8812 0.374059 23.1403 0.358975 23.4716 0.283553C22.2096 0.078407 20.8965 0.377076 19.2098 0.108576C18.8424 0.289587 17.987 0.187014 17.7039 0.337857C17.6588 0.247351 15.9782 0.404228 16.9359 0.177963C17.0203 0.159862 17.1678 0.156845 17.1588 0.177963L17.2702 0.0633227C16.2763 -0.105621 15.4812 0.28657 14.4903 0.434396C14.7915 0.416295 15.18 0.340874 14.9301 0.461548C14.6289 0.512835 14.3277 0.54602 14.0084 0.624458L14.1801 0.485683C13.9482 0.533953 13.7133 0.576189 13.4784 0.630492C13.2434 0.684796 13.0085 0.7572 12.7706 0.835639C12.8487 0.84506 12.9261 0.859164 13.0025 0.877875C12.6561 0.965364 12.4001 1.01665 12.1441 1.09207C11.8251 1.20161 11.539 1.39054 11.3129 1.64114C11.0508 1.94283 11.9935 1.33945 11.361 1.84327C11.1168 1.99826 10.887 2.17496 10.6744 2.37122C10.4326 2.60739 10.2175 2.86942 10.0328 3.15259C9.80074 3.53832 9.6157 3.95055 9.48167 4.38045C9.38529 4.86315 9.27687 5.34283 9.22266 5.82552C9.30096 5.70183 9.32506 5.7682 9.32506 5.91905C9.32506 5.99447 9.32506 6.09101 9.32506 6.19961C9.32506 6.25392 9.32506 6.31124 9.32506 6.36856V6.45605C9.34614 6.45605 9.38529 6.45605 9.4124 6.45605L9.34915 6.56164C10.3671 6.56164 10.4575 6.64611 10.6322 6.70645C10.7492 6.75475 10.8733 6.7833 10.9996 6.79092C11.102 6.79092 11.2376 6.79092 11.4153 6.79092H11.7164H11.8038H11.8731H11.9755L11.8731 6.86936L12.1742 6.63404C13.2073 6.41079 12.7314 6.86634 13.8789 6.56164C13.4241 6.58275 13.6651 6.31425 14.2223 6.36252L14.0807 6.47113C14.2799 6.43944 14.4814 6.42431 14.6831 6.42588C14.4994 6.48622 14.5867 6.58577 15.0385 6.56465L14.7373 6.70041L15.5957 6.5013C16.2583 6.61896 17.3094 6.47113 17.5805 6.62499C17.5805 6.62499 19.005 6.70041 19.3333 6.53147C19.0322 6.63706 19.8303 6.67628 19.6074 6.79997C20.2272 6.64796 20.8704 6.61723 21.5018 6.70946L21.4205 6.72455C23.0349 6.85427 24.1793 6.54957 25.6371 6.70343C25.5708 6.5737 26.3358 6.64611 26.1491 6.47716C27.655 6.31124 28.8808 6.81807 29.4199 6.30219C30.1036 6.27202 30.2301 6.42286 30.5825 6.45001L30.4198 6.47716C31.6968 6.43493 32.0673 6.4289 33.016 6.44096C33.4889 6.38968 33.5642 6.13928 34.4105 6.20866C34.1364 6.30219 34.4828 6.2871 34.802 6.2871C34.6002 6.2871 34.537 6.33537 34.9526 6.39873C35.0285 6.37007 35.1073 6.34983 35.1875 6.33839C35.1875 6.33839 35.2056 6.33839 35.1875 6.35951C35.7176 6.32632 35.6243 6.29615 35.3773 6.28409C35.3773 6.269 35.3773 6.2509 35.293 6.22375C35.8441 6.34744 36.826 6.22375 36.8922 6.38063C38.4855 6.34141 39.624 6.17246 40.9492 6.10911C41.0997 6.19358 40.7895 6.269 40.404 6.30219L41.3467 6.269C41.3467 6.39269 40.8046 6.34141 40.5155 6.36554C41.6359 6.56164 42.8255 6.16945 44.1296 6.34744L44.4037 6.25392L44.482 6.269C44.482 6.21772 44.7832 6.14833 44.9669 6.13324C45.1537 6.23883 44.9669 6.37459 45.6054 6.36856C46.1174 6.47113 47.0631 6.31727 47.7378 6.25995C47.3734 6.24487 47.4908 6.18453 47.6474 6.14833C47.9007 6.18581 48.1564 6.20497 48.4124 6.20565L48.4426 6.34744C48.3161 6.21168 49.2919 6.20263 49.4124 6.14229C49.5961 6.24788 48.9064 6.23582 48.81 6.31425L50.7647 6.29314C51.4604 6.18755 50.6382 6.16039 50.9725 6.03369C51.6095 5.96235 52.2516 5.94922 52.891 5.99447L52.6681 5.86776C53.5395 5.76431 54.4208 5.77852 55.2884 5.91C63.8811 4.88125 57.0955 4.50414 57.0955 4.50414C53.7283 4.19944 51.9814 4.56749 47.9546 4.66705Z" fill="#1D1D1D"/>
<path d="M43.7586 11.8834H15.1523V21.0396H43.7586V11.8834Z" fill="white"/>
<path d="M32.9941 21.6971L32.7988 21.646C32.8018 21.6701 32.8529 21.6911 32.9941 21.6971Z" fill="#1D1D1D"/>
<path d="M35.3464 20.0681C32.7532 20.0048 32.0635 19.7665 29.374 19.857C28.0909 19.8389 26.7236 19.8932 25.4586 19.9233C24.8562 20.1164 23.8141 19.9233 23.1094 20.0862L22.8353 19.9776C22.5842 20.0474 22.3205 20.0587 22.0643 20.0108V19.9807C21.7029 20.0621 21.2933 20.0138 21.1125 20.0561V20.0229H20.6728L20.7481 19.9776C20.1321 20.0587 19.5094 20.0759 18.8898 20.0289L18.938 20.1617C18.4604 20.1124 17.979 20.1124 17.5014 20.1617C17.2996 20.1617 17.1008 20.1888 16.884 20.1888C16.7755 20.1888 16.6611 20.1888 16.5406 20.1888L16.3539 20.1707C16.3337 20.1641 16.3145 20.155 16.2966 20.1436V20.1104C16.1933 20.1921 16.0636 20.2329 15.9322 20.225C15.9503 20.086 15.9867 19.9501 16.0406 19.8208C16.082 19.3614 16.0525 18.8985 15.9533 18.4481C15.9955 18.6261 16.0196 18.3697 16.0527 18.3847C16.0165 17.718 15.9955 17.006 15.7515 16.997C15.7515 16.5113 15.8298 16.6018 15.9292 16.5384C15.8178 16.5384 15.7696 16.1191 15.7636 15.742L15.8057 15.9139L15.7696 14.8309L15.5557 15.0421C15.616 14.4658 15.8148 14.8973 15.7636 14.3452H15.5889C15.6056 13.9972 15.6653 13.6527 15.7666 13.3194L15.7997 13.2018C15.7997 13.1656 15.8238 13.1143 15.8358 13.1083C15.8564 13.079 15.8786 13.0508 15.9021 13.0238C15.9473 12.9755 15.9864 12.9393 16.0196 12.9091V12.8036C16.125 12.8036 16.2214 12.8036 16.3207 12.8036L17.4411 12.7704L19.7904 12.6738C21.296 12.5904 22.8056 12.6126 24.3081 12.7402L24.4406 12.8729C24.4978 13.066 25.2628 12.5713 25.3743 12.7643L25.7568 12.6708C25.8531 12.704 26.058 12.7402 25.8863 12.7855C26.0769 12.7971 26.2678 12.7683 26.4465 12.701L26.7898 12.8217C28.0518 12.9152 29.127 12.6829 30.4552 12.7311C32.0515 12.9755 35.0573 12.7492 36.78 12.6195C37.9275 12.5221 39.0817 12.5403 40.2255 12.6738C40.8279 12.7251 41.4122 12.7794 42.0055 12.8156L42.4453 12.8398H42.5537H42.6019C42.6698 12.8498 42.7388 12.8498 42.8067 12.8398C42.8231 12.8948 42.8463 12.9475 42.8759 12.9966C42.8488 13.0268 42.9091 13.0721 42.9332 13.0751L42.9061 15.2532C42.9061 15.2532 42.8308 26.3281 44.4361 17.9141L44.4782 17.9714C44.5806 16.7194 44.6017 15.932 44.3909 15.0722C44.6499 14.9365 44.418 14.0435 44.5023 13.7508L44.5234 13.778C44.4844 13.6251 44.4632 13.4682 44.4602 13.3104V13.0328L44.4782 12.6527C44.5114 12.1429 44.5596 11.5817 44.5535 11.0749C44.3108 11.0747 44.0683 11.0909 43.8277 11.1232C43.9584 11.0544 44.1048 11.0211 44.2523 11.0266C43.7855 11.0447 43.2494 11.0658 42.8278 11.0658H42.5266C42.4751 11.0627 42.4238 11.0567 42.373 11.0477C42.2917 11.0477 42.2374 11.0085 42.2284 10.9693C40.9514 11.0085 39.1684 10.9391 38.3522 11.1805L38.4064 11.1382C37.9396 11.3042 37.804 11.1624 37.283 11.2469C37.2529 11.2257 37.2167 11.2167 37.2228 11.2076C36.7138 11.3705 35.7409 11.2348 35.3283 11.3012L35.3012 11.2016L34.2923 11.2257L34.6687 11.2469C34.5392 11.5244 33.9037 11.0719 33.1628 11.2469C32.4791 11.2106 31.7714 11.8231 31.0546 11.6873C30.7142 11.817 31.3557 11.4761 30.8467 11.5757C30.8317 11.4309 31.0847 11.4852 30.9522 11.3705C30.4552 11.4369 30.136 11.2227 29.5185 11.3193L29.5155 11.2106C28.7114 11.4158 28.0096 11.0628 27.4645 11.2589C26.6362 11.3524 26.9103 10.924 26.0489 11.1443L25.7116 10.9934C25.3442 10.9663 25.4466 11.1775 25.04 11.1051C25.0641 11.0085 24.5219 11.0296 24.7629 10.9361C23.8352 10.7883 22.8805 11.1503 21.6607 10.8969C21.3957 11.0839 20.7843 10.9723 20.5855 11.1141C20.5523 11.0327 19.3536 11.099 20.0434 10.924C20.1036 10.909 20.209 10.924 20.2 10.9421L20.2843 10.8335C19.5886 10.6224 19.0193 10.9482 18.3326 10.915C18.5344 10.9512 18.8055 10.9421 18.6338 11.0176L17.9953 11.0025L18.1278 10.909L17.1671 10.8607L17.2966 10.9753C17.1097 10.9433 16.9247 10.901 16.7424 10.8486C16.4778 10.8033 16.2066 10.8157 15.9473 10.8848C15.7425 10.9301 15.9473 10.9693 16.0918 11.0025C16.2364 11.0357 16.3057 11.0598 15.9021 11.0779L14.2215 10.9633C14.2004 11.3524 14.1763 11.7627 14.1522 12.17C14.1281 12.5773 14.1191 12.9393 14.104 13.3043C14.2336 13.2289 14.2305 13.4431 14.2546 13.6634L14.1432 13.6905C14.2998 14.5352 13.8962 13.9922 14.0197 14.8399L13.9414 14.7645L14.1763 14.9878C14.3992 15.745 13.9444 15.395 14.2486 16.2367C14.2275 15.9049 14.4956 16.0799 14.4474 16.4902L14.339 16.3846C14.3714 16.5342 14.3866 16.687 14.3841 16.8401C14.3239 16.7044 14.2245 16.7677 14.2456 17.0996L14.1101 16.8763L14.3149 17.4978C14.1974 17.9835 14.345 18.7558 14.1914 18.9549C14.1914 18.9549 14.1733 19.2174 14.1733 19.507C14.168 19.8572 14.2055 20.2067 14.2848 20.5478C14.2305 20.3849 14.1944 20.5478 14.1583 20.7439C14.1221 20.94 14.0799 21.1542 14.0167 21.0305C14.0898 21.3652 14.1361 21.7052 14.1552 22.0472C14.6321 22.0058 15.112 22.0189 15.5859 22.0864L15.4684 22.1015C15.7364 22.1015 16.0045 22.1256 16.2635 22.1317H16.7273C16.9894 22.1317 17.2393 22.1015 17.4833 22.0804C17.9836 22.0224 18.4889 22.0224 18.9892 22.0804C18.941 21.9507 19.5012 22.0231 19.3627 21.8541C20.462 21.6882 21.3655 22.195 21.7721 21.6792C22.2721 21.649 22.3745 21.7998 22.6245 21.827L22.504 21.8541C23.4407 21.8119 23.7087 21.8059 24.4075 21.8179C24.7538 21.7666 24.808 21.5162 25.4315 21.5856C25.2297 21.6822 25.4857 21.6641 25.7327 21.6641C25.5821 21.6641 25.5369 21.7123 25.8441 21.7757C25.898 21.747 25.9558 21.7266 26.0158 21.7154C26.0158 21.7154 26.0308 21.7154 26.0158 21.7365C26.4043 21.7033 26.3381 21.6731 26.1573 21.6611C26.1573 21.6611 26.1573 21.6279 26.0971 21.6007C26.4977 21.7244 27.2205 21.6007 27.2687 21.7576C28.4373 21.7184 29.2716 21.5494 30.2414 21.4861C30.3528 21.5705 30.1239 21.646 29.8438 21.6792L30.5335 21.646C30.5335 21.7697 30.136 21.7184 29.9311 21.7425C30.7504 21.9386 31.6208 21.5464 32.5846 21.7244L32.7833 21.6309H32.8406C32.8406 21.5796 33.0544 21.5102 33.196 21.4951C33.3345 21.6007 33.196 21.7365 33.6658 21.7304C34.0423 21.833 34.735 21.6792 35.2289 21.6248C34.9639 21.6067 35.0482 21.5464 35.1627 21.5102C35.4006 21.5102 35.5392 21.6128 35.7229 21.5675L35.744 21.7093C35.6506 21.5736 36.3674 21.5645 36.4547 21.5072C36.5903 21.6128 36.0873 21.5977 36.0271 21.6761L37.4607 21.655C37.9697 21.5494 37.3673 21.5223 37.6113 21.3956C38.0767 21.3242 38.5492 21.311 39.0178 21.3563L38.8522 21.2296C39.4899 21.1262 40.1411 21.1405 40.7737 21.2719C47.0744 20.2431 42.1019 19.866 42.1019 19.866C39.581 19.6096 38.298 19.9686 35.3464 20.0681Z" fill="#1D1D1D"/>
<path d="M30.881 26.844H17.4453V44.3719H30.881V26.844Z" fill="#51A7AB"/>
<path d="M21.4006 45.0325L21.2324 44.9783C21.2324 45.0024 21.2775 45.0235 21.4006 45.0325Z" fill="#1D1D1D"/>
<path d="M31.554 30.5668C31.5523 30.5809 31.5523 30.5953 31.554 30.6095C31.5601 30.579 31.5571 30.5698 31.554 30.5668Z" fill="#1D1D1D"/>
<path d="M16.2676 43.2198V43.223L16.2807 43.2165L16.2676 43.2198Z" fill="#1D1D1D"/>
<path d="M23.4749 43.4005C21.1919 43.3371 20.5865 43.0988 18.2192 43.1923C17.7163 43.1923 17.1982 43.1923 16.6802 43.1923H16.4875H16.3911H16.364C16.3388 43.203 16.3125 43.2111 16.2857 43.2164V43.1923C16.2375 43.2134 16.2134 43.1923 16.2013 43.1742C16.1982 43.1603 16.1982 43.1459 16.2013 43.132V42.969C16.221 42.6096 16.1977 42.249 16.1321 41.895L16.2405 41.6537C16.171 41.4341 16.1595 41.2002 16.2074 40.9749H16.2375C16.1562 40.6581 16.2043 40.2961 16.1622 40.1362H16.1953V39.747L16.2405 39.8134C16.1595 39.2712 16.1424 38.7214 16.1893 38.1753L16.0568 38.2175C16.2043 37.1344 15.9333 36.7392 16.105 35.7618H16.1381C15.7917 34.5249 16.373 33.8099 16.0447 32.5367C16.0869 32.6936 16.111 32.4674 16.1441 32.4824C16.108 31.8791 16.0869 31.2757 15.8429 31.2757C15.8429 30.8473 15.9212 30.9257 16.0206 30.8714C15.9092 30.8714 15.861 30.5034 15.855 30.1685L15.8971 30.3224L15.861 29.366L15.6472 29.5561C15.7074 29.0493 15.9062 29.4264 15.855 28.9527H15.6803C15.6969 28.6442 15.7567 28.3395 15.858 28.0477C15.9181 27.942 16.0055 27.8545 16.111 27.7942V27.7007C16.2002 27.7083 16.2898 27.7083 16.379 27.7007H16.4814H16.7404L17.2555 27.6826L19.2764 27.6193C20.5993 27.5363 21.9266 27.5585 23.246 27.6856L23.3604 27.8184C23.4116 28.0115 24.0833 27.5318 24.1826 27.7098L24.4838 27.6223C24.5712 27.6555 24.7519 27.6947 24.5983 27.7369C24.767 27.7476 24.9359 27.7198 25.0922 27.6555L25.3934 27.7731C26.5048 27.8697 27.4505 27.6344 28.6191 27.6826C28.958 27.7364 29.3 27.7687 29.6431 27.7792C29.7429 27.7938 29.8444 27.7938 29.9443 27.7792C29.9443 27.8425 29.9653 27.9059 29.9804 27.9813V28.0386V28.0688V28.1744C29.9804 28.3232 29.9894 28.468 30.0075 28.6088C30.0527 29.182 30.0979 29.719 30.131 30.1625C30.4322 32.3075 29.6491 34.8024 29.9804 37.0017C29.9672 37.0904 29.9876 37.1808 30.0376 37.2551L30.0105 39.2674C30.0105 39.2674 29.9352 49.0148 31.5405 41.6084L31.5827 41.6597C31.6851 40.5586 31.7092 39.8496 31.4953 39.1075C31.7574 38.9868 31.5225 38.2024 31.6068 37.946L31.6279 37.9701C31.4291 37.2974 31.7935 36.5854 31.6279 35.9398C31.6598 35.9588 31.6857 35.9864 31.7027 36.0195C31.7198 36.0525 31.7272 36.0897 31.7242 36.1268C31.6911 35.6562 31.6339 35.0106 31.7845 34.9774C31.7453 33.8491 31.8146 32.2773 31.5737 31.5563L31.6158 31.6076C31.4532 31.1942 31.5917 31.0736 31.5074 30.615C31.5285 30.5879 31.5375 30.5577 31.5465 30.5607C31.3839 30.1142 31.5225 29.2544 31.4532 28.8924L31.5526 28.8682L31.5285 27.927V28.1442V28.3101C31.3899 28.2407 31.4351 28.1321 31.4893 27.7399C31.575 27.3096 31.5862 26.8678 31.5225 26.4336C31.527 26.3583 31.527 26.2827 31.5225 26.2074C31.0583 26.2592 30.6009 26.3604 30.1581 26.5091C29.9593 26.5694 29.7726 26.6207 29.622 26.6509C29.4802 26.6825 29.3331 26.6825 29.1913 26.6509C28.8901 26.7806 29.4533 26.4397 29.0076 26.5392C28.9925 26.3944 29.2154 26.4487 29.101 26.3341C28.6612 26.4035 28.3811 26.1863 27.839 26.2828L27.8149 26.1712C27.1101 26.3763 26.4837 26.0233 26.0078 26.2194C25.279 26.313 25.5199 25.8846 24.7609 26.1048L24.4597 25.954C24.1345 25.9298 24.2278 26.141 23.8574 26.0656C23.8815 25.969 23.4026 25.9902 23.6134 25.8997C22.7972 25.7488 21.9599 26.1108 20.8847 25.8574C20.6528 26.0445 20.1107 25.9328 19.939 26.0746C19.9089 25.9932 18.8547 26.0596 19.4631 25.8846C19.5143 25.8846 19.6047 25.8846 19.5987 25.9027L19.6709 25.7941C19.0686 25.5859 18.5596 25.9087 17.9542 25.8755C18.1349 25.9117 18.3729 25.9027 18.2132 25.9781H17.65L17.7675 25.8846L16.9272 25.8303L17.0446 25.9479C16.8823 25.9093 16.7224 25.8609 16.5658 25.8031C16.5293 25.7929 16.492 25.7858 16.4543 25.782H16.3971H16.2646C16.0855 25.789 15.9072 25.8101 15.7315 25.8454C15.5568 25.8906 15.7315 25.9298 15.87 25.963C16.0086 25.9962 16.0658 26.0203 15.7104 26.0384L14.2196 25.9238C14.1684 26.5694 14.1232 27.3628 14.1021 28.0929C14.2316 28.0265 14.2286 28.2166 14.2527 28.4097L14.1412 28.4308C14.2979 29.176 13.8943 28.7053 14.0178 29.4445L13.9395 29.3781L14.1744 29.5742C14.3973 30.2409 13.9425 29.9332 14.2467 30.6753C14.2256 30.3737 14.4936 30.5366 14.4454 30.8956L14.337 30.8051C14.3694 30.9353 14.3846 31.0691 14.3822 31.2033C14.322 31.0856 14.2226 31.1399 14.2436 31.4356L14.1081 31.2395L14.3069 31.7916C14.1894 32.22 14.337 32.8988 14.1834 33.0737C14.1834 33.0737 14.1081 33.9969 14.2768 34.2081C14.1714 34.021 14.1322 34.5309 14.0087 34.3861C14.1593 34.7764 14.1908 35.2027 14.0991 35.6109L14.084 35.5566C13.9545 36.6005 14.2587 37.3396 14.1051 38.2718C14.2346 38.2296 14.1623 38.7213 14.331 38.6006C14.4966 39.569 13.9907 40.3655 14.5057 40.7124C14.5358 41.1529 14.3852 41.2344 14.3581 41.4636L14.331 41.358C14.3732 42.1847 14.3792 42.423 14.3671 43.0354C14.3733 43.0723 14.3824 43.1086 14.3942 43.144C14.4047 43.191 14.4178 43.2373 14.4334 43.2828L14.5237 43.5272C14.6079 43.7733 14.6337 44.0356 14.599 44.2934C14.5057 44.0913 14.5207 44.4141 14.5207 44.7249C14.5057 44.5438 14.4725 44.4926 14.4093 44.9783C14.4281 45.0045 14.4415 45.0342 14.4485 45.0658L14.578 45.0446C14.578 45.0446 14.578 45.0597 14.578 45.0688C15.1412 45.0356 15.0599 45.0054 14.834 44.9934C14.8581 44.9783 14.852 44.9602 14.8038 44.933C15.1019 44.9866 15.4048 45.0078 15.7074 44.9964C16.0086 44.9964 16.2706 44.9964 16.3098 45.0869H16.5296H16.7133L17.0627 45.0567C17.2916 45.0356 17.5054 45.0084 17.7163 44.9813C18.1349 44.927 18.5325 44.8666 18.9602 44.8365C19.0565 44.921 18.8547 44.9934 18.6078 45.0265L19.2101 44.9964C19.2101 45.117 18.8638 45.0658 18.677 45.0899C19.3969 45.286 20.1649 44.8938 21.0112 45.0899L21.1889 44.9934L21.2401 45.0084C21.2401 44.9602 21.4268 44.8908 21.5413 44.8727C21.6618 44.9783 21.5413 45.117 21.9539 45.111C22.2852 45.2136 22.8966 45.0597 23.3303 45.0024C23.0954 44.9843 23.1707 44.927 23.2731 44.8878C23.4839 44.8878 23.6044 44.9903 23.764 44.9451L23.7851 45.0899C23.7038 44.9541 24.3332 44.9421 24.4115 44.8848C24.529 44.9903 24.0863 44.9753 24.0321 45.0567L25.294 45.0356C25.7428 44.927 25.2127 44.8998 25.4265 44.7761C25.8353 44.7052 26.2518 44.691 26.6644 44.7339L26.5198 44.6072C27.0812 44.506 27.6573 44.5214 28.2125 44.6525C33.7572 43.6207 29.381 43.2436 29.381 43.2436C27.2005 42.9328 26.0741 43.3039 23.4749 43.4005Z" fill="#1D1D1D"/>
<path d="M72.3891 20.231L72.1934 20.4995C72.2265 20.5145 72.2837 20.4482 72.3891 20.231Z" fill="#1D1D1D"/>
<path d="M8.5984 39.6626C8.57735 39.661 8.55621 39.661 8.53516 39.6626C8.58033 39.6717 8.59539 39.6656 8.5984 39.6626Z" fill="#1D1D1D"/>
<path d="M63.0137 25.1031C63.0287 25.085 63.0497 25.07 63.0647 25.0549L63.0137 25.1031Z" fill="#1D1D1D"/>
<path d="M69.8893 18.1463C70.0709 18.2822 70.2218 18.4549 70.3321 18.6532C70.3759 18.7559 70.3875 18.8695 70.3652 18.979C70.2822 19.294 70.1287 19.5859 69.9164 19.8328C69.6125 20.2143 69.2791 20.5713 68.9195 20.9007C68.5009 21.299 67.9919 21.7485 67.3263 22.2915C65.9423 23.301 64.5067 24.2375 63.0254 25.0972C62.4471 25.7006 61.0737 26.1259 60.3147 26.7263L59.9202 26.7534C59.6515 26.9803 59.3356 27.1441 58.9956 27.2331V27.1848C58.595 27.4865 58.0619 27.6525 57.8631 27.7882V27.755L57.327 28.0085L57.3963 27.9149C56.6773 28.3473 55.9126 28.6984 55.1163 28.9618L55.2428 29.0975C53.6255 29.532 53.1828 30.0841 51.6889 30.3827V30.3345C50.0475 31.4115 48.7524 31.0283 47.0206 32.0329C47.2374 31.9062 46.8941 31.9786 46.9001 31.9304C46.0538 32.2321 45.1352 32.5337 45.2165 32.8777C44.581 33.0587 44.6714 32.9229 44.5509 32.8203C44.5991 32.9652 44.063 33.1793 43.569 33.3272L43.7829 33.2065L42.3703 33.6439L42.7257 33.8431C41.9457 33.9667 42.4426 33.5595 41.7348 33.8159L41.8041 34.0422C40.7409 34.2684 40.0422 34.0633 38.961 34.1447C37.8797 34.4042 36.8226 34.6878 35.7473 34.9774C34.6721 35.267 33.5939 35.5596 32.5126 35.8191C30.4425 36.3666 28.3244 36.7121 26.1878 36.8509L25.986 36.7C25.8746 36.4557 24.9379 37.237 24.7512 37.0168L24.2994 37.1948C24.1639 37.1676 23.8808 37.1495 24.1067 37.0651C23.8487 37.0798 23.5965 37.1476 23.3658 37.2642L22.8839 37.1616C21.1701 37.228 19.7516 37.6714 17.9475 37.7227C16.5425 37.6549 15.1347 37.666 13.7309 37.7559C12.1618 37.8193 10.5685 37.8796 9.40597 37.8675C7.71005 37.8898 6.02932 37.5451 4.47864 36.8569C3.80609 36.588 3.1923 36.1904 2.67155 35.6864C2.53516 35.544 2.43226 35.3729 2.37036 35.1856C2.32235 34.9771 2.32235 34.7605 2.37036 34.552C2.40121 34.508 2.41609 34.4548 2.41253 34.4012C2.41253 34.3378 2.41253 34.2775 2.41253 34.2714C2.61278 33.8927 2.863 33.5426 3.15645 33.2306C3.47301 32.8791 3.81205 32.5486 4.17143 32.2411C4.17143 32.2411 4.83102 31.6528 5.78878 30.9378C6.74654 30.2228 7.9844 29.3721 8.92709 28.6903C9.86979 28.0085 10.4932 27.4564 10.18 27.2904C10.0234 27.212 9.63487 27.2301 8.93011 27.39C7.87241 27.6581 6.83801 28.0112 5.83697 28.4459L5.87311 28.3554C4.33407 29.2001 3.40041 29.8849 2.66251 30.9348C2.46975 30.8715 2.18664 31.1218 1.91558 31.4356C1.77704 31.5864 1.65054 31.7675 1.53007 31.9183C1.43108 32.0444 1.32446 32.1643 1.21081 32.2773V32.223C0.951798 32.7691 0.569297 33.2638 0.283174 33.9155C0.211351 34.0828 0.151957 34.2552 0.105477 34.4313C0.0535763 34.6159 0.0182972 34.8047 6.35086e-05 34.9955C-0.0012536 35.198 0.0179192 35.4002 0.0572881 35.5989C0.102701 35.7895 0.175761 35.9725 0.274139 36.1419C0.228962 36.0967 0.111501 36.1087 0.0211462 35.7497C0.178213 36.3051 0.469989 36.8129 0.870479 37.228C1.03011 37.409 1.17166 37.5297 1.27406 37.6594C1.37646 37.7891 1.43068 37.8464 1.41562 37.8977C1.87845 38.2276 2.37769 38.5029 2.90346 38.7183C3.40986 38.9252 3.93145 39.0926 4.46358 39.2191C5.29248 39.4541 6.15432 39.5509 7.01459 39.5057L6.92725 39.5479C7.61093 39.4273 7.77959 39.6354 8.52351 39.6053C8.55965 39.6354 8.61085 39.6535 8.59881 39.6656C9.33068 39.5268 10.6739 39.7893 11.2522 39.7139L11.2823 39.8496C11.7552 39.8496 12.225 39.8496 12.6949 39.8496L12.1678 39.8225C12.3576 39.4574 13.234 40.0759 14.255 39.8225C15.2128 39.8617 16.1585 39.0109 17.1433 39.1407C17.6041 38.9446 16.7458 39.4423 17.4445 39.2734C17.4776 39.4665 17.1253 39.4122 17.312 39.557C17.9957 39.4303 18.4565 39.6867 19.2968 39.4936L19.342 39.6415C20.4292 39.2855 21.4502 39.6415 22.164 39.3217C23.2874 39.0713 22.9772 39.6837 24.1308 39.2463L24.6157 39.3911C25.1277 39.3549 24.947 39.0894 25.5192 39.1195C25.5011 39.2523 26.242 39.1195 25.9318 39.2855C27.2359 39.3036 28.4648 38.6248 30.1875 38.664C30.4887 38.3623 31.3682 38.3472 31.6001 38.1089C31.6663 38.2054 33.2777 37.8072 32.3862 38.2115C32.3078 38.2477 32.1663 38.2718 32.1663 38.2296L32.082 38.3955C33.0849 38.483 33.7746 37.8977 34.7143 37.7378C34.4131 37.7378 34.0607 37.8404 34.2866 37.6896L35.157 37.5206L35.0034 37.6805L36.3106 37.4573L36.0967 37.3486C36.7443 37.2762 37.0274 37.4814 37.6839 37.0922C37.9851 36.8961 37.0424 37.0409 37.6839 36.8297C38.5574 36.7242 39.8103 36.5281 40.8855 36.347C40.7439 36.2053 41.0331 36.1389 41.3222 36.0454L41.3915 36.1811C42.4788 35.6954 41.8915 36.3953 42.9787 35.9458L42.9064 36.0725L43.1233 35.6894C44.0569 35.1282 43.7528 35.8463 44.7677 35.1403C44.331 35.2881 44.4666 34.8809 45.0328 34.7903L44.9334 34.9683C45.1183 34.868 45.3144 34.79 45.5177 34.736C45.3611 34.8628 45.4815 34.9653 45.9183 34.8115L45.6713 35.0739L46.4333 34.5701C47.123 34.5279 48.0838 34.0211 48.409 34.1327C48.409 34.1327 49.8216 33.7857 50.0625 33.4629C49.8306 33.6862 50.6077 33.484 50.442 33.7103C50.7432 33.4418 51.7552 32.9591 52.228 32.9651L52.1557 33.0104C53.764 32.6182 54.7128 31.8218 56.1584 31.4688C56.0319 31.33 56.7909 31.1279 56.5289 30.9921C57.8511 30.2168 59.2727 30.3194 59.4955 29.4656C60.0979 29.1428 60.3087 29.2725 60.6491 29.1639L60.5165 29.2665C61.6701 28.6631 62.0044 28.4821 62.8778 28.0597C63.2784 27.7762 63.2001 27.4564 63.9952 27.1215C63.8115 27.3659 64.1096 27.1788 64.3958 27.0219C64.2211 27.1396 64.1879 27.212 64.6036 27.0823C64.6485 27.0088 64.7055 26.9435 64.7722 26.8892C64.7722 26.8892 64.7993 26.8892 64.7993 26.9103C65.2481 26.6086 65.1457 26.6086 64.9198 26.7263C64.9198 26.7022 64.8897 26.6931 64.8054 26.6991C65.3776 26.5724 66.1517 25.8997 66.3113 26.0475C67.6847 25.1424 68.525 24.2766 69.5309 23.3323C69.7207 23.3323 69.5309 23.6099 69.2508 23.8935C69.5008 23.6793 69.7417 23.453 69.9827 23.2267C70.0821 23.3504 69.6122 23.6762 69.3803 23.8844C69.927 23.5786 70.3992 23.1551 70.7627 22.6445C71.1754 22.1226 71.5669 21.5735 72.0608 20.9611C72.0789 20.8434 72.097 20.7318 72.106 20.6141L72.1632 20.5357C72.1 20.5085 72.1632 20.1586 72.2084 19.9323C72.3108 19.8448 72.3891 19.869 72.4704 19.8177C72.5233 19.771 72.562 19.7104 72.5819 19.6427C72.6386 19.4882 72.6661 19.3246 72.6632 19.16C72.7495 18.6575 72.6418 18.1409 72.362 17.7149C72.0922 17.2865 71.7274 16.9261 71.2958 16.662C71.6211 16.9637 71.4555 16.9275 71.2808 16.8461C71.1061 16.7646 71.0368 16.6017 70.9344 16.5082C70.8439 16.4035 70.7291 16.3227 70.6001 16.2729L70.6664 16.0919C70.6844 16.2035 70.4465 16.1281 70.1905 16.0315C69.9959 15.9545 69.7941 15.8969 69.5881 15.8596C69.4556 15.6454 70.1423 15.9682 70.2718 15.9169C69.9474 15.7462 69.6135 15.5941 69.2719 15.4613C69.1032 15.401 68.9376 15.3437 68.266 15.1596C67.522 15.1144 68.3473 15.3678 67.9648 15.4402C67.3383 15.3105 66.7149 15.3256 66.0252 15.0903L66.2209 15.2954C65.3304 15.2811 64.446 15.1462 63.5916 14.8942C61.393 15.042 60.2003 15.3256 59.622 15.5428C59.0438 15.76 59.0799 15.9621 59.3901 16.116C59.8267 16.2955 60.284 16.4192 60.7515 16.484C61.2424 16.5776 61.655 16.6289 61.655 16.6289C63.2965 16.9124 64.5223 17.012 65.8083 17.1357C66.4528 17.196 67.1034 17.2714 67.8082 17.4042C68.5403 17.5259 69.245 17.7772 69.8893 18.1463Z" fill="#1D1D1D"/>
<path d="M45.8828 25.9087C47.976 34.0361 57.6981 27.3417 49.8855 34.6878C49.3825 34.6878 49.762 36.5884 50.0933 38.4045C50.6294 40.1332 49.8523 40.7094 48.5211 40.0065C42.1361 34.8024 39.4224 46.9453 40.4615 34.7421C32.3055 27.4021 42.9011 33.3151 43.9462 26.8409C44.4552 25.7096 44.6901 25.0399 45.8828 25.9087Z" fill="#EEBA2B"/>
<path d="M51.4512 29.6798L51.6134 29.7761C51.6284 29.746 51.5953 29.7129 51.4512 29.6798Z" fill="#1D1D1D"/>
<path d="M36.9154 30.2263C36.9154 30.2263 36.9154 30.2019 36.9154 30.1927C36.9154 30.1836 36.9124 30.2202 36.9154 30.2263Z" fill="#1D1D1D"/>
<path d="M49.0324 31.3421C49.2824 31.4417 49.5053 31.5231 49.7131 31.5925L50.2582 31.7796C50.3425 31.8158 50.3305 31.8339 50.3425 31.858C50.347 31.8789 50.347 31.9005 50.3425 31.9214C50.3362 31.9483 50.325 31.9739 50.3094 31.9968C50.3094 31.9968 50.3094 31.9968 50.3576 32.0149C50.3305 32.033 50.3395 32.042 50.3425 32.0692C50.3468 32.0792 50.3489 32.09 50.3489 32.1009C50.3489 32.1118 50.3468 32.1225 50.3425 32.1326C50.2961 32.194 50.2458 32.2525 50.192 32.3075L49.9811 32.5398C49.9146 32.7466 49.7902 32.9298 49.6227 33.0678L49.3577 33.3152L49.189 33.4841C49.1228 33.5535 49.0595 33.6199 49.0023 33.6862C48.9451 33.7526 48.8969 33.7979 48.8487 33.8552C48.8055 33.8964 48.7707 33.9455 48.7463 34C48.6351 34.043 48.533 34.1064 48.4451 34.187C48.3758 34.4887 48.3668 34.8266 48.2764 35.1162L48.2373 35.0891C48.2795 35.3274 48.3005 35.5657 48.3216 35.7769C48.3216 35.8976 48.3397 35.9459 48.3457 36.0032C48.3534 36.0479 48.3666 36.0914 48.3849 36.1329H48.3427L48.4029 36.4617L48.3367 36.4135C48.5021 36.8314 48.5978 37.2737 48.6198 37.7228L48.7854 37.6594C48.7759 37.8455 48.7901 38.032 48.8276 38.2145C48.8427 38.293 48.8607 38.3654 48.8818 38.4378C48.9029 38.5102 48.933 38.6097 48.9601 38.6942C48.984 38.7692 49.0122 38.8427 49.0444 38.9145C49.0658 38.9616 49.081 39.0113 49.0896 39.0623C49.1037 39.1129 49.1069 39.166 49.0991 39.2179C49.0913 39.2699 49.0727 39.3197 49.0444 39.364H49.0023C49.0283 39.3828 49.0525 39.404 49.0746 39.4273C49.0908 39.4366 49.106 39.4478 49.1197 39.4605H49.1529C49.1969 39.4718 49.2401 39.4859 49.2824 39.5027L49.3456 39.5299H49.3848L49.4601 39.5691C49.6408 39.6807 49.5324 39.6868 49.4902 39.4303C49.4874 39.4012 49.4874 39.3719 49.4902 39.3428C49.4902 39.3097 49.4902 39.2554 49.4902 39.2131C49.4857 39.17 49.4857 39.1265 49.4902 39.0834C49.4902 39.0532 49.4902 39.0593 49.4902 39.0593C49.4847 39.05 49.4776 39.0418 49.4691 39.0351C49.4538 39.0264 49.4377 39.0194 49.4209 39.014C49.3702 38.9977 49.3175 38.9885 49.2643 38.9869H49.2101C49.189 38.9869 49.195 38.9869 49.183 39.0019C49.1619 39.021 49.1358 39.0336 49.1077 39.0381C49.1679 39.014 49.1469 38.9537 49.177 38.9235C49.2071 38.8933 49.1047 38.8843 49.0535 38.8511C48.999 38.815 48.9427 38.7818 48.8848 38.7515C48.782 38.691 48.6742 38.6395 48.5626 38.5977C48.3547 38.5313 48.1891 38.5343 48.0957 38.6791C47.7735 38.4861 47.8819 38.4318 47.903 38.29C47.8307 38.4227 47.5114 38.3171 47.2283 38.2115H47.3789C47.1046 38.1057 46.8227 38.021 46.5356 37.9581C46.5657 38.0667 46.5928 38.1723 46.6169 38.2809C46.2103 38.0788 46.6169 37.9068 46.1471 37.8736L46.1079 38.1059C45.5056 37.9491 45.1291 37.578 44.4213 37.5026C43.7357 37.5898 43.076 37.82 42.4847 38.1783L42.2769 38.305L42.1745 38.3684C42.1604 38.3782 42.1473 38.3893 42.1353 38.4016C42.0902 38.4378 42.0661 38.468 42.0269 38.5042C41.9878 38.5404 41.8763 38.658 41.783 38.7425C41.6991 38.8296 41.5959 38.8957 41.4818 38.9356C41.3493 38.9537 41.2981 38.8239 41.277 38.7214C41.2399 38.4909 41.2791 38.2547 41.3884 38.0486C41.4486 38.0305 41.5089 38.0124 41.5661 38.0003C41.6233 37.9883 41.6414 37.9822 41.6203 37.9732H41.5721L41.5059 37.8797C41.4125 37.7499 41.3191 37.6081 41.4396 37.578L41.3342 37.3427C41.3824 37.2793 41.4396 37.1466 41.4908 37.2642C41.5119 37.05 41.4697 37.044 41.4005 36.8841L41.5751 36.6609C41.6179 36.4625 41.6411 36.2604 41.6444 36.0575V34.362C41.6444 34.3349 41.6444 34.3228 41.6143 34.3077L41.5601 34.2655C41.28 34.0332 41.0059 33.7979 40.7348 33.5263C40.7077 33.4871 40.6505 33.4207 40.6385 33.3996L40.5782 33.3061C40.5331 33.2458 40.4879 33.1824 40.4367 33.1191C40.3373 32.9954 40.2258 32.8656 40.1024 32.7389L39.9156 32.5459L39.7409 32.3769C39.7048 32.3407 39.6416 32.2834 39.6175 32.2653L39.5512 32.22C39.4305 32.1471 39.3138 32.0675 39.2018 31.9817C39.0723 31.8791 38.9006 31.7132 38.9338 31.5774C38.9157 31.3814 39.1597 31.3452 39.3795 31.3452C39.4898 31.3478 39.5996 31.3599 39.7078 31.3814L39.7831 31.3995C39.8151 31.4034 39.8475 31.4034 39.8795 31.3995C39.9819 31.3995 40.1054 31.3995 40.2289 31.3995C40.7556 31.4032 41.2805 31.3352 41.789 31.1973C42.3393 31.0466 42.8381 30.7482 43.2316 30.3345C43.313 30.3345 43.4124 30.1324 43.3913 30.1113C43.9296 29.6746 44.3612 29.1204 44.6532 28.4912L44.6984 28.3916C44.7225 28.3283 44.7586 28.2318 44.8038 28.1171C44.849 28.0025 44.8881 27.8577 44.9303 27.6978C44.9484 27.6193 44.9664 27.5349 44.9875 27.4474C45.0086 27.3599 44.9875 27.3599 45.0086 27.3146C45.0101 27.2925 45.0101 27.2704 45.0086 27.2483C45.0751 27.0236 45.1545 26.803 45.2465 26.5876C45.2676 26.5272 45.2797 26.5001 45.2887 26.4669L45.2706 26.4488C45.2017 26.3912 45.14 26.3253 45.0869 26.2527C45.0729 26.2318 45.0578 26.2117 45.0417 26.1924C45.0289 26.1743 45.0179 26.1551 45.0086 26.135V26.1139C45.021 26.1908 45.021 26.2693 45.0086 26.3462C44.9634 26.5182 45.0086 26.4488 45.0086 26.4428C45.0086 26.4367 45.0779 26.4428 45.114 26.4277C45.1984 26.4277 45.2827 26.4277 45.367 26.4277C45.4392 26.4358 45.512 26.4201 45.5745 26.3831C45.6369 26.3461 45.6857 26.2897 45.7134 26.2225C45.7368 26.0916 45.7297 25.9571 45.6926 25.8294C45.6555 25.7017 45.5894 25.5843 45.4995 25.4864C45.4185 25.3789 45.3159 25.2895 45.1984 25.2239C45.0058 25.1171 44.7814 25.0829 44.5659 25.1274C44.3161 25.1885 44.084 25.3073 43.8882 25.4743C43.7147 25.6174 43.5507 25.7715 43.3973 25.9359C43.3854 25.9147 43.3754 25.8925 43.3672 25.8696C43.3039 25.9721 43.2407 26.0656 43.1804 26.1712L43.1021 26.304L42.9997 26.491C42.9388 26.6144 42.8981 26.7468 42.8793 26.8832L42.8341 27.0823C42.7877 27.3208 42.7776 27.5649 42.804 27.8064C42.6323 27.7611 42.5721 27.8697 42.5028 27.9904C42.4335 28.1111 42.3974 28.2589 42.307 28.2921V28.2619C42.2889 28.4912 42.0962 28.5938 41.9064 28.6571C41.7061 28.6931 41.5254 28.8002 41.3974 28.9588C41.3974 28.9286 41.3673 28.8381 41.4426 28.7929C41.2258 28.9588 40.8403 29.164 40.765 28.9739C40.5782 29.0422 40.387 29.0976 40.1927 29.1398L39.8674 29.2062L39.512 29.2756L38.9428 29.3782C38.765 29.4099 38.5891 29.4512 38.4157 29.5018C38.1684 29.5547 37.939 29.6712 37.7501 29.8397V29.7794C37.6552 29.9016 37.5279 29.9946 37.3827 30.0479C37.234 30.1023 37.1036 30.1975 37.0062 30.3224C36.964 30.3224 36.9279 30.3224 36.9219 30.3224C36.8753 30.4366 36.8209 30.5475 36.7592 30.6543C36.6883 30.7923 36.6453 30.943 36.6327 31.0978C36.5994 31.3541 36.6524 31.6142 36.7833 31.8369H36.6418C36.7688 32.1323 36.9317 32.411 37.1267 32.6665C37.0664 32.5609 37.0122 32.4584 36.958 32.3648C37.202 32.398 37.214 32.5428 37.3014 32.7721C37.3994 33.0956 37.6141 33.3709 37.9037 33.5444C37.9539 33.6099 38.015 33.666 38.0844 33.7104C38.1523 33.7521 38.2239 33.7875 38.2983 33.816C38.4434 33.8625 38.5927 33.8948 38.744 33.9125C39.0452 33.9608 39.3253 34.0151 39.4428 34.2474C39.744 34.2836 39.0994 34.3107 39.4428 34.4555C39.3193 34.6034 39.241 34.4314 39.2018 34.6064C39.5693 34.8236 39.3554 35.0197 39.6506 35.1102L39.506 35.1826C39.5753 35.1826 39.5904 35.2097 39.6024 35.2399C39.6102 35.2706 39.6102 35.3028 39.6024 35.3334C39.5927 35.4005 39.5702 35.465 39.5361 35.5235C39.4936 35.6104 39.4681 35.7046 39.4608 35.8011C39.4462 35.9052 39.4663 36.0113 39.5181 36.1027C39.6024 36.685 39.0482 36.4587 39.3042 37.0802L39.0904 37.3065C39.0452 37.5719 39.3283 37.4965 39.2199 37.8012C39.1567 37.8012 39.1265 37.8887 39.0994 37.9672C39.0878 38.0047 39.0727 38.0411 39.0542 38.0758C39.0392 38.0969 39.0181 38.0758 38.988 38.0124C38.8973 38.5779 38.9239 39.1561 39.0663 39.7109C39.1971 40.2461 39.3765 40.7682 39.6024 41.2706C39.753 41.2525 39.9036 41.3732 40.0963 41.4577C40.17 41.5019 40.2536 41.5268 40.3395 41.53C40.4253 41.5331 40.5106 41.5145 40.5873 41.4758C40.5873 41.5301 40.8282 41.5482 41.0029 41.5361C41.1776 41.524 41.286 41.5542 40.9547 41.7292C40.8975 41.7563 40.8071 41.7563 40.8282 41.7111L40.7107 41.868C40.9668 42.0248 41.295 41.9464 41.6143 41.7352C41.9335 41.524 42.2709 41.2193 42.6293 41.0172C42.4034 41.1017 42.1323 41.2827 42.301 41.0594L42.9455 40.6763L42.8522 40.8814C43.0238 40.7849 43.1925 40.7004 43.3581 40.616C43.4455 40.5798 43.5298 40.5466 43.6141 40.5194L43.4786 40.4168C43.7557 40.3625 43.9334 40.5647 44.1021 40.266C44.1804 40.1091 43.8009 40.1574 44.0388 40.0186C44.4347 40.0066 44.8307 40.039 45.2194 40.1152C45.1893 39.9402 45.2887 39.9492 45.3971 39.9221V40.0729C45.605 39.9915 45.6351 40.0729 45.6501 40.1755C45.6652 40.2781 45.6802 40.3625 45.882 40.3294L45.8248 40.4229C45.882 40.3263 45.9453 40.2419 46.0085 40.1514C46.2344 40.0609 46.2645 40.1664 46.3097 40.2419C46.3549 40.3173 46.37 40.3897 46.6591 40.3052C46.4874 40.2449 46.7223 39.9673 46.9091 40.1333L46.7886 40.2358C46.9151 40.263 46.9814 40.2358 47.0446 40.3082C46.9362 40.3384 46.903 40.4651 47.0747 40.5436L46.8759 40.6341C47.0205 40.6129 47.1771 40.6069 47.3187 40.5979C47.3561 40.6721 47.4096 40.737 47.4753 40.7879L47.5747 40.8664L47.7012 40.9629L47.8879 41.1077C47.9512 41.1409 48.0174 41.1741 48.0777 41.2133C48.1653 41.2522 48.2366 41.3205 48.2795 41.4064L48.4331 41.4788C48.4812 41.4969 48.5355 41.524 48.6017 41.5452C48.668 41.5663 48.7493 41.5904 48.8276 41.6115C48.9143 41.6346 49.0031 41.6487 49.0926 41.6538C49.1848 41.6613 49.2775 41.6613 49.3697 41.6538C49.5276 41.6512 49.6813 41.603 49.8125 41.515C49.6528 41.6085 49.8125 41.6387 49.9872 41.6538C50.1618 41.6688 50.3998 41.6266 50.2552 41.7714C50.4356 41.66 50.605 41.5317 50.7612 41.3883C50.8651 41.299 50.9581 41.1977 51.0383 41.0866C51.1231 40.9781 51.1977 40.8619 51.2611 40.7396C51.5111 40.2539 51.5322 39.8979 51.6467 39.6898V39.7743C51.668 39.684 51.6821 39.5922 51.6888 39.4997C51.6933 39.4153 51.6933 39.3307 51.6888 39.2463C51.6835 39.1046 51.6684 38.9635 51.6437 38.8239C51.6135 38.7003 51.5804 38.5796 51.5443 38.4649L51.484 38.3081L51.4509 38.2296L51.4358 38.1934C51.4358 38.2145 51.4358 38.2115 51.4358 38.1934C51.4358 38.1723 51.4208 38.1934 51.4117 38.1753L51.3726 38.0546C51.3463 37.9744 51.3242 37.8928 51.3063 37.8103C51.2651 37.6396 51.2529 37.4631 51.2702 37.2884C51.1045 37.3517 51.1316 36.9625 50.9299 37.0953C50.8072 36.7912 50.7748 36.458 50.8365 36.1359C50.8547 36.0218 50.8412 35.9049 50.7973 35.798C50.7894 35.7766 50.7756 35.7578 50.7575 35.7439C50.7394 35.7301 50.7177 35.7216 50.6949 35.7196L50.4901 35.6713C50.4449 35.4933 50.6497 35.5084 50.6919 35.4662L50.725 35.5054C50.7192 35.4825 50.7181 35.4587 50.7217 35.4354C50.7254 35.412 50.7337 35.3897 50.7461 35.3696C50.7793 35.3696 50.7943 35.3214 50.8154 35.3003C50.8365 35.2791 50.8907 35.2218 50.9389 35.1766L51.1859 34.9503C51.3154 34.7361 51.1196 34.4797 51.487 34.2293C51.487 34.4193 51.5834 34.2775 51.7009 34.1629C51.6406 34.2504 51.6497 34.3077 51.8635 34.2172C51.86 34.1664 51.8693 34.1156 51.8906 34.0694C51.8906 34.0694 51.9087 34.0694 51.9147 34.0875C52.0774 33.8612 52.0141 33.8672 51.9147 33.9457C51.9147 33.9276 51.8786 33.9185 51.8274 33.9215C51.9599 33.9034 52.1828 33.6681 52.3424 33.5052C52.502 33.3423 52.6436 33.1885 52.7761 33.2035C53.0941 32.8374 53.3211 32.4012 53.4387 31.9304C53.4788 31.7614 53.499 31.5883 53.4989 31.4145C53.5071 31.2276 53.4645 31.042 53.3754 30.8775C53.4297 30.7508 53.6435 30.8775 53.6917 31.1219C53.6726 30.9214 53.583 30.7342 53.4387 30.594C53.514 30.5608 53.5923 30.6121 53.6525 30.7086C53.7064 30.8089 53.745 30.9167 53.767 31.0284C53.786 30.9336 53.7819 30.8356 53.7552 30.7426C53.7285 30.6497 53.6798 30.5646 53.6134 30.4944C53.4842 30.3592 53.3254 30.2559 53.1496 30.1927C52.7821 30.0479 52.3454 29.9815 51.9448 29.7854C51.8485 29.8096 51.7551 29.8367 51.6617 29.8669L51.6165 29.8367C51.5804 29.9001 51.3154 29.9514 51.1828 29.9514C51.1166 29.7975 51.3033 29.6497 50.8335 29.5682C50.7918 29.545 50.7485 29.5248 50.704 29.5079C50.6699 29.4936 50.6346 29.4825 50.5985 29.4747C50.5162 29.4593 50.4323 29.4533 50.3486 29.4566C50.1709 29.4566 49.9781 29.4566 49.8245 29.4566C49.9721 29.529 49.8998 29.5893 49.8245 29.6135C49.6799 29.5712 49.6498 29.4083 49.5233 29.4264L49.5806 29.2424C49.5655 29.4325 49.1649 29.2816 49.0836 29.3178C49.0836 29.1579 49.3366 29.3178 49.4119 29.2213C49.2826 29.1704 49.1559 29.113 49.0324 29.0493C48.9086 28.9899 48.7889 28.9224 48.674 28.8472C48.3487 28.7989 48.6198 29.0282 48.4029 29.0825C48.159 28.9528 47.8518 28.8683 47.7072 28.5515L47.662 28.7416C47.4683 28.6442 47.3018 28.5 47.1777 28.3219C47.0536 28.1439 46.9758 27.9377 46.9512 27.7219C46.5446 27.3659 46.2374 27.0341 45.9905 26.7746C45.806 26.5707 45.6045 26.383 45.3881 26.2135C45.0869 25.9812 44.9032 26.0596 44.7857 26.2436C44.6922 26.5221 44.6664 26.819 44.7104 27.1095C44.7314 27.2977 44.7656 27.4842 44.8128 27.6676C45.0136 28.5954 45.5248 29.4266 46.2615 30.0238C47.0851 30.649 48.0283 31.0978 49.0324 31.3421Z" fill="#1D1D1D"/>
<path d="M78.578 51.4917C74.491 50.3212 53.1462 40.4259 48.4267 33.7888C37.3462 28.8683 50.8753 45.1895 50.3663 46.0976C37.9335 61.4142 46.4841 64.5004 49.4266 55.7757C50.0132 54.8012 50.9094 54.0522 51.9716 53.6488C55.2575 59.2481 61.8022 62.6994 65.9736 60.5876C69.5155 63.6086 73.5513 65.9947 77.9034 67.641" fill="white"/>
<path d="M63.7265 45.4308L63.4945 45.2498C63.4885 45.2709 63.5488 45.3252 63.7265 45.4308Z" fill="#1D1D1D"/>
<path d="M57.5254 58.5663L57.5856 58.5934C57.5671 58.5813 57.5468 58.5721 57.5254 58.5663Z" fill="#1D1D1D"/>
<path d="M67.5799 45.5908C65.8812 44.6857 64.8482 44.0612 63.794 43.4277C62.7399 42.7941 61.6707 42.1606 59.9419 41.2042C58.3276 40.2298 56.5928 39.2131 55.0748 38.1874C54.2466 37.8495 53.1262 36.7936 52.2407 36.2747L52.0088 35.9398C51.85 35.8475 51.6961 35.7468 51.548 35.6381C51.4053 35.5234 51.2751 35.394 51.1594 35.252H51.1956C50.9776 35.1105 50.7756 34.9456 50.5932 34.7602C50.4605 34.6234 50.3207 34.4935 50.1746 34.3711H50.2107L49.7951 33.9306L49.8975 33.9789C49.7373 33.8336 49.5873 33.6773 49.4487 33.5113L49.2861 33.3152L49.0843 33.0678L49.0331 33.0044L48.9608 32.9743L48.8162 32.9139L48.5151 32.7932C48.0512 32.6002 47.6115 32.4252 47.1718 32.2593L47.2049 32.4101C46.7966 32.233 46.3675 32.1083 45.9279 32.039C45.723 32.0043 45.5153 31.9881 45.3075 31.9908C45.1775 31.9921 45.0478 32.0011 44.919 32.0179C44.7925 32.0451 44.666 32.0601 44.5455 32.0963C44.3019 32.1632 44.075 32.2804 43.8795 32.4404C43.6839 32.6005 43.524 32.7998 43.41 33.0255C43.2815 33.2772 43.2047 33.5521 43.1841 33.8341C43.1567 34.117 43.1567 34.4019 43.1841 34.6848L43.148 34.6607C43.3498 35.264 43.5516 35.7317 43.7233 36.1691C43.8949 36.6066 44.0576 37.0048 44.2232 37.4121C44.5585 38.2946 45.0312 39.1183 45.6237 39.8527C45.449 39.6385 45.6237 39.9854 45.5876 39.9854C46.1387 40.8271 46.7321 41.7111 46.9549 41.5844C47.3435 42.1877 47.2049 42.1244 47.1718 42.2571C47.2652 42.1938 47.6446 42.6946 47.9579 43.1622L47.7802 42.9691L48.6837 44.2995V43.9194C49.0873 44.6676 48.5843 44.2422 49.0542 44.8969L49.2018 44.7973C49.3339 45.0246 49.4487 45.2616 49.5451 45.5063C49.5892 45.6257 49.6057 45.7536 49.5933 45.8804C49.5908 45.907 49.5826 45.9327 49.5692 45.9558C49.5541 45.9799 49.518 45.992 49.4939 46.0101C49.4698 46.0282 49.3885 46.0704 49.3403 46.0946L49.271 46.1278L49.1295 46.2575C49.0301 46.348 48.9337 46.4475 48.8283 46.5592C47.2946 48.4855 45.97 50.5698 44.8768 52.7769C44.3133 53.8904 43.8458 55.0501 43.4793 56.2433C43.2939 56.8497 43.1639 57.4717 43.0908 58.1017C42.9939 58.8041 43.0736 59.5196 43.3227 60.1833C43.324 60.2925 43.3341 60.4015 43.3528 60.5091C43.3347 60.5634 43.398 60.6901 43.5576 60.844C43.7454 61.0245 43.9692 61.1633 44.2142 61.2513C44.4567 61.3397 44.7121 61.3876 44.9702 61.3931C45.1162 61.3856 45.2625 61.4009 45.4039 61.4383C45.645 61.3935 45.879 61.3164 46.0996 61.209C46.2923 61.1819 46.6658 61.0431 46.3827 61.2241C46.5678 61.1466 46.7419 61.0452 46.9007 60.9224C47.0161 60.8286 47.1257 60.7278 47.229 60.6207C47.4139 60.5299 47.5939 60.4291 47.7681 60.3191C48.5167 59.6424 49.1123 58.8134 49.515 57.8875C49.7164 57.4515 49.8953 57.0054 50.0511 56.551C50.0933 56.4364 50.1294 56.3187 50.1686 56.201C50.1766 56.157 50.1952 56.1156 50.2228 56.0804C50.3365 55.9062 50.4644 55.7417 50.6053 55.5886C50.7877 55.4206 50.9797 55.2635 51.1805 55.118C51.2317 55.0788 51.289 55.0426 51.3432 55.0064C51.3663 54.9907 51.3904 54.9766 51.4154 54.9641L51.5299 54.9159L51.6534 54.8676L51.7257 54.9883L51.816 55.118L51.9937 55.3593C52.1654 55.6007 52.3491 55.833 52.5389 56.0623C52.9154 56.5183 53.3176 56.9525 53.7436 57.3625C54.4936 58.0908 55.3115 58.7454 56.1862 59.3175C57.7945 60.301 59.5594 61.3659 61.6556 61.8637C62.7271 62.1335 63.8444 62.1655 64.9295 61.9572C65.068 61.927 65.2036 61.8878 65.3391 61.8546C65.4084 61.8365 65.4776 61.8184 65.5439 61.7943L65.6794 61.746L65.7547 61.7129C65.7788 61.7129 65.8059 61.6676 65.827 61.6948L65.8933 61.74L65.9294 61.7611L65.9957 61.8094C66.1914 61.9542 66.3872 62.093 66.598 62.2227C66.7047 62.3288 66.8362 62.4066 66.9805 62.449C67.8901 63.1589 68.8278 63.8287 69.7936 64.4582C69.7936 64.4582 70.67 65.0374 71.8717 65.6981C73.1434 66.409 74.471 67.0144 75.8413 67.5082C76.3306 67.6916 76.8343 67.8339 77.3472 67.9336C77.7086 67.997 77.8954 67.9728 77.8321 67.831C77.7689 67.6892 77.4586 67.4268 76.8262 67.0135C76.5099 66.8053 76.1244 66.5368 75.6485 66.2321C75.4106 66.0813 75.1576 65.9003 74.8775 65.7162C74.5974 65.5322 74.3023 65.3331 73.974 65.1129H74.0673C72.4982 64.1776 71.5404 63.5652 70.3658 63.0614C70.3658 62.8955 70.0466 62.6843 69.7032 62.458C69.3975 62.2835 69.1081 62.0815 68.8388 61.8546H68.884C68.3829 61.5896 67.9249 61.2498 67.5257 60.847L67.2245 60.5604L67.0709 60.4186L66.8239 60.1984L66.2938 59.7398L66.1613 59.6312L66.1282 59.6041L66.089 59.6252L66.0107 59.6644L65.7095 59.8333C65.747 59.7924 65.7873 59.7541 65.83 59.7187C65.8631 59.6946 65.9053 59.6644 65.9655 59.6282L66.0679 59.5739C66.1071 59.5558 66.1523 59.5136 66.1884 59.5739C66.1734 59.5739 66.1583 59.5377 66.1402 59.5407L66.08 59.5679L65.9625 59.6252L65.7186 59.7398L65.2216 59.9691C65.0228 60.0415 64.9927 60.0626 64.8963 60.0958L64.6494 60.1652C64.3301 60.2436 64.0801 60.2557 64.047 60.1652C63.123 60.288 62.1839 60.2296 61.2822 59.9932C60.3455 59.767 59.5022 59.4381 58.9329 59.2813H59.0233C58.3667 59.1184 58.2583 58.9042 57.5927 58.5753C57.5686 58.5391 57.5325 58.4999 57.5415 58.4969C57.1134 58.3023 56.7165 58.0451 56.3639 57.7336C55.9633 57.4108 55.6079 57.0609 55.37 56.8859L55.4121 56.7863C55.0597 56.4545 54.7134 56.1196 54.3911 55.7606C54.5056 55.8994 54.62 56.0412 54.7405 56.1739C54.4032 56.2252 54.114 55.2688 53.3671 54.5267C53.3244 54.4609 53.2781 54.3975 53.2286 54.3366L53.1503 54.2461L53.0448 54.1074C52.9033 53.9294 52.7437 53.7634 52.6111 53.6096C52.4181 53.5233 52.2318 53.4224 52.054 53.3079C51.8552 53.3773 51.6443 53.4497 51.4516 53.5432C51.2588 53.6367 51.1293 53.7664 50.9757 53.872C50.8221 53.9776 50.6745 54.0832 50.536 54.1737C50.2167 54.6142 50.7619 53.7061 50.2198 54.3004C50.0963 54.2099 50.4456 53.9987 50.2198 54.0349C49.9336 54.3366 49.6836 54.5418 49.4307 54.7982C49.2979 54.9332 49.1761 55.0784 49.0662 55.2326L48.9488 55.4016C48.9173 55.4688 48.8911 55.5384 48.8705 55.6097C48.8343 55.7274 48.8132 55.8089 48.7831 55.9114H48.6657C48.5549 56.4316 48.3386 56.9235 48.0302 57.3565C47.7562 57.7234 47.5172 58.1153 47.3164 58.527C47.1627 58.8052 46.9149 59.0191 46.6176 59.1304C46.5107 59.1677 46.4094 59.2195 46.3164 59.2843C46.208 59.3597 46.0785 59.4774 45.8858 59.6433C45.7608 59.6601 45.6342 59.6601 45.5093 59.6433C45.4155 59.6558 45.3286 59.6993 45.2623 59.767C45.2333 59.7941 45.1951 59.8092 45.1554 59.8092C45.1157 59.8092 45.0775 59.7941 45.0485 59.767C45.0695 59.7247 45.0153 59.6855 44.9912 59.6403C44.9671 59.595 44.9641 59.5648 45.0214 59.5618C44.9563 59.4341 44.8999 59.302 44.8527 59.1666C44.7794 58.9064 44.741 58.6375 44.7382 58.3672C44.7275 57.625 44.9047 56.8922 45.2533 56.2373C45.187 55.8239 45.6207 55.0577 45.6117 54.7469C45.693 54.7318 46.3947 53.1631 46.1146 54.1285C46.0906 54.2099 46.0213 54.3427 45.9972 54.3215L46.0484 54.4754C46.6507 53.682 46.7712 52.8192 47.3164 51.9805C47.1296 52.2128 46.9429 52.5567 47.0152 52.2822C47.1808 52.0197 47.3405 51.7572 47.5121 51.4978L47.488 51.712C47.7471 51.3288 48.0151 50.9547 48.2862 50.5806L48.0844 50.6742C48.5121 50.1432 48.8072 50.0708 49.1174 49.3437C49.2469 49.0089 48.6175 49.7782 49.009 49.1718C49.3102 48.8248 49.6867 48.3964 50.0872 47.9469L50.6896 47.2621L50.9426 46.9604C51.0329 46.8518 51.1263 46.7432 51.2046 46.6316C51.2829 46.52 51.307 46.4023 51.3582 46.2876C51.3582 46.164 51.4245 46.0373 51.4004 45.9136C51.3341 46.0011 51.3161 45.9136 51.2558 45.7416C51.1836 45.5057 51.0824 45.2798 50.9546 45.0688L51.0299 44.9663L50.9245 44.7913L50.8553 44.6857L50.7528 44.5318C50.7073 44.461 50.666 44.3875 50.6294 44.3116C50.5926 44.2332 50.573 44.1478 50.5721 44.0612C50.5721 43.9285 50.5721 43.7837 50.1716 43.2829L50.2981 43.3341L49.9186 43.1803C49.1204 42.3507 49.783 42.5377 48.8494 41.6719C49.1355 42.0731 48.7681 42.0007 48.4789 41.4637L48.6536 41.5361C48.5053 41.3675 48.3714 41.1869 48.253 40.9961C48.4097 41.1318 48.4428 40.9961 48.1627 40.5948L48.4639 40.8L47.8133 40.1242C47.5272 39.4575 46.8224 38.5645 46.8104 38.2357C46.8104 38.2357 46.6357 37.8978 46.4309 37.5297C46.2752 37.2121 46.0776 36.9168 45.8436 36.6518C46.0695 36.872 45.7412 36.1208 45.955 36.2777C45.7525 36.0343 45.5824 35.7656 45.449 35.4782C45.2979 35.1994 45.2114 34.8901 45.196 34.5732L45.2292 34.6396C45.196 34.4616 45.1719 34.2987 45.1599 34.1629C45.1479 34.0271 45.1599 34.0573 45.1599 34.0302C45.1574 34.0038 45.1617 33.9773 45.1722 33.953C45.1827 33.9287 45.1992 33.9075 45.2201 33.8914C45.2477 33.8695 45.2814 33.8569 45.3165 33.8552C45.4425 33.8512 45.5686 33.8593 45.693 33.8793C46.0172 33.9379 46.3322 34.0393 46.6297 34.181C46.6056 34.0271 47.3103 34.362 47.1899 34.1418C47.3742 34.1907 47.5552 34.2512 47.732 34.3228L47.8464 34.3711L47.8946 34.3922L47.9398 34.4163C47.9398 34.4163 47.9579 34.4435 47.9669 34.4555L47.988 34.4978C47.988 34.4978 47.988 34.4978 47.988 34.5189L48.0302 34.5792L48.1868 34.8115C48.2862 34.9684 48.3976 35.0951 48.488 35.2278C48.8855 35.7528 49.265 36.0907 49.6565 36.1329C50.2348 36.6307 50.2378 36.8388 50.5239 37.1164L50.3643 37.0199C50.9275 37.4633 51.2859 37.753 51.6172 38.0003C51.9485 38.2477 52.2196 38.48 52.6503 38.7938C53.081 39.1075 53.3099 38.9205 54.0387 39.5027C53.7376 39.4062 54.0568 39.6174 54.3399 39.8044C54.1472 39.6928 54.0689 39.6837 54.4122 39.9915C54.499 40.0126 54.5829 40.0439 54.6622 40.085C54.6622 40.085 54.6622 40.1091 54.6622 40.1121C55.1652 40.4138 55.0959 40.3294 54.879 40.1664C54.9001 40.1664 54.879 40.1333 54.8369 40.0639C55.2646 40.5134 56.2524 40.9689 56.2223 41.159C57.7282 42.064 58.8848 42.5558 60.1708 43.2255C60.2702 43.3794 59.9389 43.2798 59.5684 43.0928L60.472 43.5815C60.4057 43.6811 59.9238 43.3492 59.6377 43.2105C60.6045 43.9918 61.9297 44.2935 63.1103 45.1292L63.4115 45.1895L63.4778 45.2438C63.4989 45.1955 63.8151 45.2861 64.0109 45.3705C64.1404 45.5606 63.8844 45.5787 64.5169 45.9075C64.9686 46.2575 65.9595 46.6014 66.6432 46.879C66.2968 46.6829 66.4384 46.6889 66.6071 46.7341C66.9263 46.891 67.0618 47.0781 67.3269 47.1595L67.2938 47.3013C67.2275 47.1203 68.1973 47.5849 68.3328 47.603C68.4684 47.787 67.7997 47.4401 67.6853 47.4733C68.9713 48.0766 68.3268 47.775 69.6159 48.3783C70.3507 48.6106 69.5496 48.1973 69.9321 48.2426C70.5909 48.4779 71.2312 48.7623 71.8476 49.0933L71.682 48.8731C72.5892 49.178 73.4599 49.5828 74.2782 50.0798C76.531 50.7767 77.8291 51.0151 78.4586 51.0211C79.088 51.0271 79.0971 50.8703 78.7989 50.6711C78.3879 50.4084 77.9592 50.1746 77.5159 49.9712L76.6123 49.5398C74.9889 48.7283 73.718 48.1822 72.3506 47.6302C70.9832 47.0781 69.5496 46.526 67.5799 45.5908Z" fill="#1D1D1D"/>
<path d="M45.3496 60.8802C47.1567 67.6259 52.331 56.379 53.8008 56.0321C48.2349 62.1895 53.1773 70.694 56.3156 58.5934" fill="white"/>
<path d="M47.8887 61.9753H47.9732C47.9702 61.9572 47.943 61.9511 47.8887 61.9753Z" fill="#1D1D1D"/>
<path d="M53.2703 63.7437C53.2717 63.7376 53.2717 63.7312 53.2703 63.7251C53.2693 63.7312 53.2693 63.7375 53.2703 63.7437Z" fill="#1D1D1D"/>
<path d="M47.7657 63.882C48.0635 63.796 48.3528 63.6829 48.6301 63.5441C48.8499 63.4355 49.0336 63.339 49.2053 63.2424C49.6017 63.0031 49.9475 62.6885 50.2233 62.3162C50.597 61.9057 50.9345 61.4636 51.2323 60.9949C51.2323 60.6932 51.6419 60.4488 51.684 60.123L51.8346 60.0958C51.8353 60.0402 51.8504 59.9856 51.8784 59.9375C51.9064 59.8894 51.9463 59.8494 51.9943 59.8213L52.0153 59.8454C52.0364 59.6765 52.172 59.5709 52.181 59.4894L52.2021 59.5106L52.2954 59.3597L52.3135 59.411C52.3886 59.1693 52.5233 58.9504 52.705 58.7744L52.5876 58.7111C52.9882 58.4094 52.8888 58.1077 53.2713 57.8573L53.2923 57.8815C53.3405 57.2479 54.0061 57.3354 54.0393 56.8708C54.0393 56.9221 54.0935 56.9161 54.1085 56.9432V56.9191C54.1085 56.9191 54.1357 56.9492 54.0543 56.8135C54.0033 56.7359 53.9609 56.6529 53.9278 56.5661C53.8988 56.5091 53.8785 56.4481 53.8676 56.3851L53.1267 55.4408C53.0864 55.4941 53.067 55.5603 53.072 55.627C53.077 55.6936 53.1061 55.7561 53.1538 55.8028C53.0153 55.9567 52.9821 55.8783 52.8888 55.836C52.9761 55.9084 52.8888 56.0774 52.8044 56.2041V56.1196C52.7141 56.2463 52.6358 56.3821 52.5514 56.5118L52.7773 56.5661C52.5846 56.723 52.5304 56.4605 52.437 56.6807L52.5816 56.7803C52.3617 57.0307 52.0334 57.0518 51.7473 57.2751C51.3716 57.8857 51.1056 58.5576 50.9612 59.2602C50.7895 59.9571 50.6751 60.6328 50.4552 61.2754L50.3167 61.3237C50.1179 61.3237 50.5757 61.7159 50.395 61.7521L50.4823 61.912C50.4462 61.9542 50.407 62.0477 50.3649 61.9693C50.3649 62.1141 50.389 62.1201 50.4492 62.2227L50.3347 62.3856C50.314 62.6743 50.3583 62.9641 50.4643 63.2334C50.5576 63.5079 50.6751 63.7764 50.7865 64.1022C50.8014 64.2236 50.8328 64.3424 50.8799 64.4552C50.9459 64.614 51.0331 64.7632 51.1389 64.8987C51.3795 65.2144 51.7137 65.4457 52.0936 65.5594C52.472 65.6612 52.8734 65.6346 53.2351 65.4839C53.3964 65.415 53.5498 65.329 53.6929 65.2275C53.8088 65.1364 53.9166 65.0355 54.0152 64.9258C54.4067 64.425 54.8254 64.0389 55.238 63.5924C55.659 63.1992 55.943 62.681 56.0482 62.1141C56.0873 62.093 56.0482 61.9844 56.0482 61.9783C56.1807 61.6767 56.3042 61.375 56.4186 61.0944C56.4186 61.0944 56.521 60.8229 56.6204 60.4579C56.7297 60.0722 56.7953 59.6755 56.8162 59.2752C56.8162 58.9132 56.7469 58.6417 56.515 58.6447C56.2831 58.6477 55.9126 58.9253 55.2952 59.595L55.2621 59.5618C55.0211 59.9993 54.9067 60.2738 54.991 60.66C54.732 60.6208 54.8284 61.022 54.7109 61.0974L54.6928 61.0793C54.7742 61.4293 54.3134 61.5681 54.3615 61.8909C54.3615 61.8728 54.2862 61.8366 54.3073 61.7762C54.2561 61.9723 54.1869 62.2438 54.0423 62.1865C53.939 62.4174 53.8223 62.642 53.6929 62.8593C53.5733 63.0398 53.4999 63.247 53.4791 63.4626L53.461 63.4204C53.4821 63.6467 53.3466 63.5863 53.2893 63.7583C53.2683 63.7583 53.2532 63.7583 53.2472 63.7432C53.2477 63.7966 53.2284 63.8482 53.193 63.888C53.1764 63.9085 53.1583 63.9277 53.1387 63.9453L53.0906 63.9755C53.0243 64.0117 52.958 64.0238 52.9249 64.0721L52.8978 63.9755C52.8406 64.0026 52.7797 64.021 52.7171 64.0298L52.7894 64.0479C52.7894 64.1957 52.7291 64.1535 52.684 64.0902C52.6388 64.0268 52.6057 63.9453 52.5063 63.9996C52.4581 63.9514 52.3316 64.0419 52.172 64.063C52.0123 64.0841 51.8437 64.0449 51.8406 63.9001C51.669 63.8518 52.0726 63.9001 51.9039 63.7824C52.0304 63.713 52.0183 63.8096 52.1027 63.7191C51.9671 63.6014 52.1268 63.4174 51.9762 63.2635L52.0816 63.2243C52.0287 63.1823 51.9897 63.1252 51.9699 63.0606C51.95 62.996 51.9501 62.9268 51.9702 62.8623C51.9882 62.7356 52.0123 62.627 51.9069 62.5425C51.7894 62.2408 52.2081 62.3313 51.9943 62.0357L52.1509 61.921C52.175 61.7943 51.9641 61.8215 52.0455 61.6797C52.1388 61.6797 52.1358 61.5017 52.2201 61.5922C52.3918 61.2905 52.0846 60.8983 52.434 60.5242C52.2713 60.3885 52.434 60.2014 52.3225 60.0928C52.4039 60.0928 52.4701 59.6705 52.5635 59.9631C52.5635 59.9872 52.5635 60.0204 52.5273 60.0083L52.6237 60.0717C52.8918 59.9027 52.6569 59.6101 52.7803 59.3869C52.7201 59.4412 52.693 59.5347 52.6448 59.4472C52.6779 59.3778 52.7111 59.3054 52.7472 59.236L52.8135 59.3175C52.8767 59.2209 52.9339 59.1214 53.0032 59.0158H52.8767C53.0032 58.8861 53.202 58.9223 53.1418 58.6809C53.1026 58.5602 52.9309 58.7533 52.9821 58.5753C53.1568 58.4064 53.4249 58.1711 53.6116 57.9508C53.4881 57.9026 53.5333 57.8422 53.5574 57.7578L53.6568 57.8121C53.6989 57.4712 53.9218 57.8634 53.9941 57.5466L54.0393 57.613L53.8977 57.4108C53.8977 57.0548 54.1688 57.435 54.1236 57.0066C54.0604 57.1122 53.8947 56.8949 54.0302 56.8075L54.0875 56.907C54.1236 56.8256 54.1086 56.7743 54.1628 56.7471C54.1628 56.8225 54.2652 56.8708 54.3314 56.7652L54.3796 56.9161V56.6144H54.4067L58.9004 54.5297L53.6116 55.2085C53.3751 55.2396 53.1547 55.3453 52.9821 55.5102C52.8556 55.6128 52.7713 55.6882 52.6809 55.6701C52.6809 55.6701 52.2683 55.9929 52.3376 56.1799C52.3195 56.0412 52.1238 56.2101 52.0756 56.0774C52.0756 56.2463 51.9521 56.5752 51.7744 56.6053V56.5752C51.3678 56.898 51.416 57.3535 51.0395 57.613C51.157 57.6733 50.9672 57.8151 51.1359 57.8664C51.0124 58.3219 50.392 58.3219 50.7203 58.7503C50.6269 58.9283 50.4823 58.871 50.401 58.9374V58.883C50.2846 59.1061 50.1453 59.3164 49.9854 59.5106C49.9432 59.6493 50.1209 59.8122 49.9251 59.9721C49.898 59.8515 49.8529 59.942 49.7956 60.0114C49.8197 59.9571 49.7956 59.9209 49.6782 59.9782C49.6869 60.0077 49.6869 60.0391 49.6782 60.0687C49.6782 60.0687 49.6631 60.0687 49.6571 60.0687C49.5908 60.2105 49.63 60.2075 49.6842 60.1592C49.6842 60.1592 49.7113 60.1773 49.7444 60.1773C49.5517 60.2256 49.4794 60.5272 49.3378 60.4367C49.0818 60.8108 48.9975 61.1608 48.7837 61.4776C48.6933 61.4474 48.7023 61.3327 48.7505 61.2332L48.5939 61.4444C48.5096 61.3569 48.6451 61.2875 48.6843 61.2121C48.3349 61.2965 48.3831 61.8154 47.9885 61.8909V62.0085H47.9614C47.9749 62.0386 47.9803 62.0716 47.9771 62.1044C47.9739 62.1372 47.9623 62.1686 47.9434 62.1956C47.841 62.1352 47.8018 61.9964 47.6783 62.09C47.5217 62.09 47.4193 62.3072 47.3079 62.4067C47.3832 62.4067 47.3832 62.458 47.3651 62.5063C47.2958 62.5365 47.2356 62.4399 47.2025 62.5063L47.1693 62.3675C47.2205 62.4972 47.0639 62.5335 47.0398 62.5878C47.0127 62.4822 47.1241 62.4912 47.1241 62.4098C47.0344 62.4338 46.9398 62.4338 46.8501 62.4098C46.7085 62.4671 46.823 62.5455 46.7236 62.639C46.6031 62.6179 46.4224 62.6119 46.3742 62.4309C46.3536 62.471 46.3355 62.5123 46.32 62.5546C46.2049 62.504 46.1084 62.4187 46.0441 62.3105C45.9799 62.2023 45.951 62.0767 45.9616 61.9512C45.6484 61.6403 45.311 61.3548 44.9526 61.0974C44.7328 60.9737 44.5972 61.028 44.5129 61.1427C44.4338 61.3004 44.3985 61.4765 44.4105 61.6525C44.4127 61.762 44.4248 61.8711 44.4466 61.9783C44.5185 62.4778 44.7397 62.9437 45.0811 63.3147C45.4225 63.6857 45.8681 63.9445 46.3591 64.057C46.5812 64.1011 46.8083 64.1133 47.0338 64.0932C47.2868 64.0591 47.5333 63.9879 47.7657 63.882Z" fill="#1D1D1D"/>
<path d="M60.5203 46.722C61.5202 47.4974 50.3192 45.7174 49.1296 46.1639C42.0518 51.3921 63.7218 55.1753 64.4507 53.9142" fill="white"/>
<path d="M55.9809 47.2622L55.9023 47.2017C55.9023 47.2259 55.9205 47.2501 55.9809 47.2622Z" fill="#1D1D1D"/>
<path d="M57.1638 45.7446C56.0494 45.5696 55.7784 45.2921 54.5977 45.271C54.0436 45.1925 53.4412 45.1895 52.887 45.1684C52.61 45.3343 52.1642 45.105 51.8389 45.2408L51.7275 45.1231C51.6744 45.1507 51.6156 45.165 51.5558 45.165C51.4961 45.165 51.4372 45.1507 51.3841 45.1231V45.093C51.2155 45.1624 51.0348 45.093 50.9534 45.1382V45.1081H50.7517L50.7908 45.0628C50.5081 45.1278 50.2153 45.136 49.9294 45.0869L49.9505 45.2197C49.8233 45.1839 49.6908 45.1707 49.559 45.1805H49.4506L49.3331 45.1955C49.2548 45.1955 49.1795 45.2257 49.1072 45.2468C49.0355 45.2654 48.9651 45.2886 48.8964 45.3162C48.8241 45.3341 48.7564 45.367 48.6976 45.4128C48.5565 45.514 48.405 45.5999 48.2458 45.6692V45.636C48.1727 45.7936 48.0705 45.9358 47.9446 46.0554C47.8338 46.1634 47.7161 46.2642 47.5923 46.357C47.4374 46.46 47.3084 46.5975 47.2154 46.7587C47.1224 46.9199 47.0679 47.1004 47.0562 47.2862C47.0562 47.1625 46.9748 47.3043 46.9477 47.2862C46.917 47.3904 46.8918 47.4961 46.8724 47.603C46.8574 47.7028 46.8523 47.8039 46.8574 47.9047C46.8785 48.0857 46.9447 48.2064 47.0712 48.2064C47.0712 48.5081 47.005 48.4538 46.9056 48.5081C47.014 48.5081 47.0953 48.7524 47.1736 48.9606C47.1462 48.9335 47.121 48.9042 47.0983 48.8731C47.1375 48.9787 47.1796 49.0752 47.2248 49.1748C47.27 49.2743 47.3272 49.3558 47.3784 49.4433C47.4206 49.3739 47.4658 49.3045 47.514 49.2381C47.6013 49.5398 47.3212 49.4373 47.514 49.6665L47.6585 49.564C47.8603 49.9109 47.8272 50.2609 48.038 50.6319C48.631 51.1543 49.3193 51.5569 50.065 51.8176C50.7423 52.0552 51.3949 52.3583 52.0136 52.7226V52.8704C51.9714 53.0605 52.4594 52.7286 52.4443 52.9127L52.622 52.8795C52.6521 52.9278 52.7274 52.9941 52.6401 53.0092C52.7726 53.0635 52.7846 53.0334 52.9021 53.0092L53.0105 53.1721C53.5225 53.4376 54.0496 53.3562 54.6068 53.5613C55.2242 53.9957 56.5886 54.0983 57.3626 54.1194C58.4649 54.0561 59.5733 55.0245 60.7358 54.8435C60.769 54.8766 60.8684 54.8254 60.8714 54.8042C61.2087 54.8525 61.546 54.8978 61.8894 54.934C61.8894 54.934 62.1905 54.9672 62.6152 54.9672C63.0839 54.9803 63.5516 54.9182 64.0006 54.7831C64.23 54.7135 64.4375 54.5856 64.603 54.4121C64.6797 54.3289 64.7272 54.223 64.7385 54.1104C64.7385 54.038 64.6753 54.0319 64.6241 54.0108C64.5401 54.0216 64.4551 54.0216 64.3711 54.0108C64.2666 53.9872 64.1655 53.9507 64.0699 53.9022L63.1152 53.4497L63.1363 53.4074C62.6333 53.3018 62.311 53.2506 61.9315 53.4346C61.8954 53.1691 61.5008 53.3682 61.3864 53.2687V53.2475C61.043 53.4135 60.7449 53.0062 60.4136 53.142C60.4286 53.1208 60.4437 53.0514 60.516 53.0575C60.2871 53.0575 59.9708 53.0575 59.9769 52.9157C59.4317 52.8765 58.6968 52.6713 58.3053 52.8403L58.3384 52.8041C58.1095 52.9247 58.0794 52.7799 57.8445 52.8041C57.8445 52.7799 57.8234 52.7679 57.8264 52.7618C57.5795 52.8765 57.1969 52.6532 57.0102 52.6804V52.5808L56.5825 52.5054L56.7361 52.5627C56.6157 52.8222 56.456 52.3184 56.1067 52.4179C55.8326 52.3153 55.3838 52.8282 55.1188 52.617C54.9411 52.7015 55.2995 52.4481 55.0616 52.4843C55.0917 52.3425 55.182 52.4239 55.1579 52.2972C54.9321 52.2972 54.8568 52.0619 54.5797 52.083L54.6008 51.9714C54.2122 52.071 54.0225 51.6426 53.7484 51.7602C53.381 51.7421 53.6279 51.3711 53.2093 51.4586L53.128 51.2655C52.9894 51.19 52.9593 51.4042 52.8268 51.2655C52.869 51.181 52.6491 51.1176 52.7756 51.0694C52.4744 50.7948 51.9564 50.9849 51.592 50.5505C51.4143 50.6772 51.2305 50.469 51.098 50.5505C51.1161 50.472 50.6493 50.3152 50.9806 50.282C51.0077 50.282 51.0438 50.3001 51.0257 50.3272L51.1071 50.2428C50.9474 49.9411 50.5981 50.1191 50.3722 49.9411C50.4234 50.0135 50.5258 50.0557 50.4234 50.0889L50.2095 49.9471L50.3029 49.8928C50.2005 49.8174 50.1041 49.7359 50.0017 49.6545L49.9836 49.7782C49.8571 49.6303 49.9234 49.4342 49.6644 49.4554C49.5379 49.4795 49.7156 49.6786 49.5379 49.6002C49.3903 49.395 49.2006 49.0873 49.062 48.8791C48.9837 48.9847 48.9385 48.9304 48.8693 48.8942L48.9536 48.8158C48.6765 48.7132 49.0921 48.5955 48.8783 48.496L48.9536 48.4719C48.8798 48.4995 48.8043 48.5227 48.7277 48.5412C48.5831 48.5081 48.6283 48.4598 48.6675 48.4236C48.7066 48.3874 48.7307 48.3572 48.5681 48.312C48.6042 48.3723 48.3332 48.4025 48.3633 48.2878H48.4717C48.4476 48.2456 48.3994 48.2275 48.4205 48.1943C48.4868 48.2215 48.5681 48.1943 48.5621 48.143C48.6054 48.1589 48.6496 48.172 48.6946 48.1822C48.625 48.1504 48.561 48.1076 48.5048 48.0555C48.5198 48.0485 48.5331 48.0384 48.544 48.0259C48.5549 48.0135 48.5631 47.9989 48.5681 47.9831C48.5835 47.9548 48.5947 47.9243 48.6012 47.8926C48.6012 47.8293 48.6615 47.7719 48.7337 47.787C48.7337 47.787 48.9476 47.597 48.8753 47.425C48.9144 47.5427 49.056 47.425 49.1132 47.5517C49.1046 47.4646 49.1235 47.377 49.1674 47.3013C49.1884 47.2618 49.2196 47.2286 49.2578 47.2053C49.2959 47.1819 49.3396 47.1693 49.3843 47.1686V47.1927L49.4506 47.1595C49.4746 47.1444 49.4716 47.1595 49.4807 47.1595C49.492 47.1561 49.5016 47.1485 49.5078 47.1384C49.5193 47.1149 49.5294 47.0907 49.5379 47.066C49.5432 47.0548 49.5503 47.0446 49.559 47.0358C49.559 47.0358 49.559 47.0358 49.6192 47.0177C49.7213 47.0056 49.8248 47.0191 49.9204 47.0569C49.8993 46.9272 50.1252 47.0026 50.074 46.8337C50.5348 46.6798 50.8902 47.2108 51.092 46.707C51.3058 46.707 51.3359 46.8458 51.4444 46.879L51.3932 46.9031C51.6667 46.8861 51.9412 46.8973 52.2124 46.9363C52.366 46.8971 52.4112 46.6617 52.6732 46.7432C52.5768 46.8307 52.6883 46.8216 52.7907 46.8337C52.7244 46.8337 52.7003 46.8729 52.8268 46.9514C52.8479 46.9262 52.8747 46.9065 52.9051 46.894C52.9081 46.9018 52.9081 46.9104 52.9051 46.9182C53.0768 46.9001 53.0497 46.8699 52.9714 46.8488C52.9714 46.8488 52.9714 46.8156 52.9503 46.7854C53.1129 46.9272 53.4382 46.8247 53.4442 46.9906C53.9502 46.9906 54.3297 46.8729 54.7574 46.8518C54.7965 46.9423 54.6911 47.0057 54.5646 47.0238H54.8658C54.8658 47.1444 54.6881 47.0781 54.5947 47.0901C54.9291 47.3224 55.3477 46.9725 55.7453 47.1957L55.8416 47.1082L55.8657 47.1263C55.8657 47.0751 55.9711 47.0177 56.0344 47.0087C56.0826 47.1173 56.0043 47.25 56.2121 47.2651C56.3657 47.3828 56.6849 47.2651 56.9048 47.2259C56.7904 47.1957 56.8325 47.1414 56.8867 47.1082C56.9891 47.1082 57.0403 47.2259 57.1247 47.1897V47.3315C57.0945 47.1957 57.4078 47.2138 57.453 47.1595C57.5011 47.2711 57.2843 47.2349 57.2482 47.3104L57.8776 47.3496C58.1095 47.2621 57.8475 47.2108 57.965 47.0962C58.168 47.0405 58.3823 47.0405 58.5854 47.0962L58.5221 46.9634C58.662 46.9237 58.8083 46.9123 58.9526 46.9299C59.0969 46.9476 59.2362 46.9938 59.3624 47.066C59.6485 46.9838 59.9235 46.8673 60.1817 46.7191C60.2617 46.6784 60.3293 46.6169 60.3774 46.5411C60.3928 46.5099 60.4059 46.4776 60.4166 46.4445C60.4228 46.4056 60.4142 46.3658 60.3925 46.3329C60.3784 46.3037 60.3623 46.2754 60.3443 46.2484C60.3232 46.2243 60.3443 46.2002 60.3443 46.179C60.3531 46.1424 60.3531 46.1041 60.3443 46.0674C60.3343 46.0362 60.3167 46.0079 60.293 45.9853C60.2694 45.9626 60.2404 45.9462 60.2088 45.9377C60.2091 45.9201 60.2052 45.9026 60.1973 45.8869C60.1895 45.8711 60.1779 45.8575 60.1636 45.8472C60.1636 45.8472 60.1636 45.8261 60.1786 45.811C60.1967 45.9105 60.1365 45.5877 60.2208 46.0312V46.001L60.1847 45.808C60.1847 45.7899 60.1546 45.7778 60.1425 45.7657C60.0724 45.737 59.9998 45.7148 59.9257 45.6994C59.5096 45.5721 59.0718 45.5321 58.6396 45.5817C58.1513 45.6651 57.6585 45.7195 57.1638 45.7446Z" fill="#1D1D1D"/>
<path d="M54.5702 11.8834H50.0977V21.0396H54.5702V11.8834Z" fill="#51A7AB"/>
<path d="M50.1851 21.6974L50.1035 21.646C50.1065 21.6702 50.1247 21.6914 50.1851 21.6974Z" fill="#1D1D1D"/>
<path d="M55.248 14.6498V14.6683C55.248 14.6683 55.2511 14.6498 55.248 14.6498Z" fill="#1D1D1D"/>
<path d="M49.4453 19.8057L49.4584 19.8089L49.4453 19.8057Z" fill="#1D1D1D"/>
<path d="M51.1447 20.0681C50.7401 20.0378 50.3378 19.9824 49.94 19.9022L49.681 19.863C49.6448 19.863 49.5756 19.863 49.5605 19.863C49.5605 19.863 49.5605 19.863 49.5274 19.8811C49.5129 19.8788 49.4992 19.8733 49.4872 19.8649C49.4752 19.8566 49.4652 19.8456 49.4581 19.8328C49.2684 19.6247 49.4581 19.1721 49.2955 18.8916L49.4039 18.7799C49.3722 18.7371 49.3525 18.6866 49.3467 18.6336C49.3409 18.5806 49.3492 18.527 49.3708 18.4782H49.4009C49.3196 18.3304 49.3677 18.1766 49.3286 18.0891H49.3587V17.9111L49.4009 17.9412C49.3234 17.6956 49.3058 17.4349 49.3497 17.181L49.2172 17.2021C49.3647 16.7013 49.0937 16.5173 49.2653 16.0648H49.2985C48.9521 15.4946 49.5334 15.1597 49.2051 14.5563C49.2473 14.6318 49.2744 14.5262 49.3045 14.5322C49.2684 14.2607 49.2473 13.9711 49.0033 13.968C49.0033 13.7689 49.0846 13.8051 49.184 13.781C49.0696 13.781 49.0244 13.609 49.0154 13.4552L49.0605 13.5246L49.0214 13.1052C48.9468 13.1148 48.8745 13.1373 48.8075 13.1716C48.8377 13.06 48.9039 13.0841 48.9551 13.072C49.0063 13.06 49.0425 13.072 49.0154 13.0117L48.7925 12.9725C48.8256 12.7673 49.0937 12.7945 49.2232 12.8337V12.7945C49.3044 12.7992 49.3857 12.7858 49.4611 12.7553L49.5304 12.7311C49.5304 12.7311 49.5846 12.7311 49.6207 12.7311H49.7412L50.2201 12.6829C50.8318 12.6001 51.4531 12.6225 52.0573 12.7492L52.1115 12.882C52.1356 13.0751 52.4458 12.5803 52.491 12.7734L52.6326 12.6859C52.6717 12.7191 52.756 12.7553 52.6868 12.8005C52.8163 12.8005 52.8193 12.7764 52.9127 12.716L53.0542 12.8367C53.1169 12.8482 53.1803 12.8553 53.244 12.8578H53.3223H53.3433C53.3792 12.8469 53.4136 12.8318 53.4457 12.8126C53.5253 12.7616 53.6199 12.7392 53.7138 12.7492C53.6674 12.8242 53.6319 12.9055 53.6084 12.9906C53.6039 13.0175 53.6039 13.0451 53.6084 13.072V13.1113V13.1324C53.6084 13.1324 53.6084 13.1324 53.6084 13.1806C53.6506 13.6573 53.7379 14.137 53.8042 14.49C54.1053 15.4855 53.3223 16.638 53.6536 17.6577C53.6265 17.6908 53.6867 17.7753 53.7108 17.7753L53.6837 18.7045C53.6837 18.7045 53.6084 23.2298 55.2137 19.7906L55.2559 19.8117C55.3583 19.3018 55.3793 18.9821 55.1685 18.6321C55.4275 18.5748 55.1956 18.2128 55.2799 18.0921H55.301C55.0992 17.7904 55.4667 17.4525 55.301 17.1538C55.3191 17.1538 55.3914 17.1719 55.3974 17.2413C55.3643 17.0211 55.304 16.7224 55.4576 16.7074C55.4185 16.1854 55.4878 15.4584 55.2468 15.1235L55.286 15.1476C55.1233 14.9576 55.2619 14.9003 55.1806 14.6891C55.1986 14.6891 55.2107 14.6619 55.2197 14.6649C55.0571 14.4568 55.1926 14.0616 55.1233 13.8896H55.2257L55.2016 13.4763L55.1806 13.6302C55.042 13.603 55.0842 13.5246 55.1414 13.416C55.1734 13.3584 55.1968 13.2964 55.2107 13.2319C55.2184 13.1961 55.2184 13.1591 55.2107 13.1233C55.2066 13.0653 55.1934 13.0083 55.1715 12.9544C55.17 12.853 55.1462 12.7532 55.102 12.662C55.0578 12.5707 54.9941 12.4903 54.9155 12.4264C54.783 12.2937 54.6655 12.2243 54.7318 12.0041C54.6023 11.9467 54.9426 11.986 54.8432 11.811C54.9878 11.6752 54.9336 11.8623 55.048 11.6933C55.0254 11.594 55.0254 11.4909 55.048 11.3916C54.8889 11.3206 54.7102 11.3067 54.542 11.3524L54.6053 11.2408C54.374 11.3193 54.125 11.3287 53.8885 11.268C53.7005 11.2048 53.4961 11.2123 53.3132 11.2891C52.9639 11.3826 53.0843 10.9542 52.7289 11.1744L52.5934 11.0236C52.4428 10.9964 52.485 11.2076 52.3193 11.1352C52.3193 11.0387 52.1085 11.0598 52.2049 10.9663C51.8284 10.8184 51.4399 11.1805 50.9429 10.927C50.8345 11.1141 50.5845 11.0025 50.5032 11.1443C50.5032 11.0628 50.0032 11.1292 50.2833 10.9542C50.3074 10.9391 50.3496 10.9542 50.3466 10.9723L50.3797 10.8637C50.0966 10.6525 49.8647 10.9783 49.5846 10.9451C49.6689 10.9814 49.7804 10.9723 49.7051 11.0477H49.5756H49.3918L49.4822 10.9542L48.8136 10.8607L48.9461 10.9753C48.6088 10.918 48.3588 10.7219 48.0666 10.8848C47.9612 10.9753 48.4732 11.0417 48.16 11.0779C47.9552 11.0417 47.6992 11.0025 47.4071 10.9633C47.3492 11.2754 47.31 11.5907 47.2896 11.9075C47.4191 11.9075 47.4161 12.0735 47.4432 12.2394L47.3287 12.2122C47.4854 12.8759 47.0818 12.3782 47.2053 13.06L47.127 12.9966C47.1957 13.0613 47.2752 13.1134 47.3619 13.1505C47.5847 13.4522 47.13 13.3164 47.4342 13.6603C47.4161 13.5246 47.6811 13.594 47.6329 13.7629L47.5245 13.7207C47.5486 13.8112 47.5938 13.8444 47.5697 13.9047C47.5125 13.8504 47.4131 13.8745 47.4311 14.0103L47.2956 13.9198L47.4944 14.1762C47.3769 14.3753 47.5245 14.6891 47.3709 14.7796C47.3709 14.7796 47.2956 15.205 47.4643 15.3045C47.3589 15.217 47.3197 15.4523 47.1992 15.386C47.3167 15.4976 47.4131 15.8234 47.2866 15.9531L47.2715 15.929C47.145 16.4117 47.4492 16.7556 47.2926 17.187C47.4221 17.1689 47.3528 17.3982 47.5185 17.3409C47.6841 17.7874 47.1782 18.1585 47.6962 18.3184C47.7233 18.5235 47.5727 18.5627 47.5486 18.6653L47.5215 18.617C47.5577 18.8748 47.5688 19.1355 47.5546 19.3954C47.6058 19.5372 47.8558 19.5583 47.7865 19.8117C47.7414 19.7725 47.7203 19.7785 47.7143 19.8117C47.7092 19.8709 47.7092 19.9305 47.7143 19.9897C47.7143 19.9022 47.6631 19.869 47.5998 20.0742C47.6287 20.1017 47.6504 20.1359 47.6631 20.1737C47.6631 20.1737 47.648 20.1737 47.639 20.1737C47.6721 20.4151 47.7022 20.3578 47.7143 20.2461C47.7293 20.2461 47.7474 20.2461 47.7745 20.1948C47.651 20.4754 47.7745 20.8646 47.6179 20.9853C47.6285 21.2197 47.6587 21.4528 47.7082 21.6822C48.151 21.6158 48.5184 21.5373 48.8678 21.4981C48.8949 21.5826 48.7353 21.658 48.5395 21.6912L48.9762 21.658C48.934 21.7817 48.7021 21.7304 48.5576 21.7546C48.8235 21.8293 49.1048 21.8293 49.3708 21.7546L49.5786 21.7184C49.6242 21.7074 49.6705 21.6993 49.7171 21.6942C49.8198 21.6807 49.9241 21.6964 50.0183 21.7395L50.0996 21.6459H50.1207C50.1207 21.5947 50.208 21.5253 50.2683 21.5102C50.3225 21.6158 50.2683 21.7515 50.458 21.7455C50.6116 21.8481 50.8947 21.6942 51.0935 21.6399C50.9851 21.6218 51.0212 21.5615 51.0664 21.5253C51.1658 21.5253 51.22 21.6278 51.2953 21.5826V21.7244C51.2592 21.5886 51.5483 21.5796 51.5965 21.5223C51.6537 21.6278 51.4459 21.6128 51.4218 21.6912L52.0061 21.6701C52.2139 21.5645 51.97 21.5373 52.0693 21.4106C52.2501 21.3835 52.4308 21.2839 52.6416 21.3714L52.5753 21.2447C52.7009 21.1936 52.8362 21.1709 52.9716 21.1782C53.1069 21.1855 53.239 21.2227 53.3584 21.2869C55.9245 20.2582 53.8975 19.8811 53.8975 19.8811C52.8705 19.6096 52.3464 19.9686 51.1447 20.0681Z" fill="#1D1D1D"/>
<path d="M15.6309 20.6896L21.0762 16.4509L26.0789 18.5054L30.8767 14.9908L36.2919 17.181L43.7582 11.8834" fill="white"/>
<path d="M18.9746 17.2565H19.0743C19.0531 17.2263 19.0229 17.2232 18.9746 17.2565Z" fill="#1D1D1D"/>
<path d="M37.742 15.3201C37.7437 15.313 37.7437 15.3056 37.742 15.2985C37.7396 15.3055 37.7396 15.3131 37.742 15.3201Z" fill="#1D1D1D"/>
<path d="M19.1489 19.1812C19.512 18.9359 19.8891 18.7123 20.2783 18.5114C20.4491 18.4212 20.6141 18.3205 20.7723 18.2097C20.8596 18.1494 20.95 18.08 21.0464 18.0016C21.1427 17.9231 21.2873 17.8024 21.2421 17.8236C21.2421 17.8236 21.2421 17.8236 21.2602 17.8055L21.2933 17.7874C21.2933 17.7874 21.2933 17.7874 21.3174 17.7874L21.456 17.8356L21.724 17.9261C22.0252 17.8507 22.3956 18.2007 22.742 18.1705L22.8113 18.3153C22.87 18.3039 22.9305 18.307 22.9877 18.3244C23.0449 18.3417 23.0971 18.3728 23.1396 18.4149L23.1215 18.439C23.2992 18.4239 23.4468 18.5386 23.5371 18.5295L23.5191 18.5567L23.7028 18.617L23.6546 18.6472C23.9304 18.6732 24.1964 18.7631 24.4316 18.9096L24.4618 18.7799C24.6327 18.9094 24.8319 18.9963 25.043 19.0333H25.1093L25.2147 19.0695C25.2884 19.0927 25.3608 19.1199 25.4316 19.151C25.6071 19.2261 25.7754 19.3169 25.9345 19.4225V19.4527C26.0255 19.4559 26.1161 19.466 26.2056 19.4828C26.491 19.2057 26.8222 18.9801 27.1844 18.8161C27.3055 18.7769 27.4176 18.714 27.5142 18.6312C27.6109 18.5483 27.6902 18.4471 27.7476 18.3334C27.7085 18.4119 27.8139 18.3666 27.829 18.3968C28.0428 18.1946 28.2838 17.9925 28.1302 17.7934C28.3048 17.6697 28.3169 17.7572 28.3982 17.8205C28.3319 17.73 28.4524 17.5822 28.5819 17.4796L28.5458 17.5581L28.9102 17.2564L28.7084 17.1387C28.9494 17.0392 28.9132 17.3107 29.0789 17.1387L28.9704 16.9969C29.2716 16.819 29.5969 16.9125 29.9493 16.8159C30.2001 16.6496 30.4415 16.4693 30.6721 16.2759L30.8438 16.1281L30.889 16.0708L30.9944 15.941C31.0662 15.9451 31.1377 15.9541 31.2082 15.9682H31.2474L31.3227 15.9893L31.4672 16.0376L31.7684 16.1432C32.1407 16.2802 32.4947 16.4626 32.8226 16.6862V16.834C32.7744 17.0211 33.2653 16.7013 33.2442 16.8883L33.4189 16.8612C33.446 16.9095 33.5153 16.9788 33.4189 16.9909C33.5484 17.0513 33.5635 17.0211 33.6779 16.9909L33.7743 17.1599C34.2562 17.4615 34.7802 17.4163 35.3043 17.6788C35.3653 17.7296 35.432 17.7731 35.5031 17.8085C35.5904 17.8568 35.6838 17.908 35.7802 17.9563C35.9759 18.0528 36.1958 18.1524 36.4217 18.258C36.6687 18.086 36.9307 17.896 37.1837 17.6999L37.3734 17.552L37.4818 17.4585L37.6866 17.2775C37.9547 17.0301 38.1987 16.7828 38.3944 16.5897C39.1022 15.7329 40.566 15.6394 41.2677 14.7343C41.3129 14.7343 41.352 14.6317 41.34 14.6136L42.1652 14.0495C42.1652 14.0495 46.183 11.2921 42.2345 12.1217V12.0674C41.7255 12.2997 41.4303 12.4837 41.2466 12.8759C41.0448 12.6979 40.8611 13.1143 40.7075 13.1203V13.0961C40.5509 13.4552 40.0479 13.3616 39.8883 13.6995C39.8883 13.6754 39.8521 13.612 39.9094 13.5668C39.7377 13.7297 39.5058 13.965 39.4064 13.8504C38.9697 14.2094 38.289 14.6046 38.1324 15.0119V14.9636C38.0601 15.214 37.9306 15.1355 37.7921 15.3377C37.768 15.3377 37.7499 15.3377 37.7469 15.3196C37.6565 15.582 37.2289 15.7178 37.1204 15.8807L37.0542 15.8053L36.7048 16.0828L36.8524 16.0044C36.9096 16.1341 36.8132 16.1462 36.6867 16.1673C36.6175 16.1785 36.5497 16.1977 36.4849 16.2246C36.4217 16.2518 36.4187 16.2608 36.4006 16.3302C36.3374 16.3544 36.3283 16.5474 36.25 16.7646C36.2342 16.7932 36.212 16.8178 36.1852 16.8365C36.1584 16.8552 36.1277 16.8675 36.0954 16.8724C36.0631 16.8774 36.0302 16.8749 35.999 16.8651C35.9679 16.8553 35.9394 16.8385 35.9157 16.8159C35.7741 16.8974 36.0573 16.647 35.8735 16.6802C35.9127 16.5384 35.9639 16.6168 35.9579 16.4901C35.9424 16.4924 35.9267 16.4915 35.9116 16.4873C35.8966 16.4832 35.8826 16.4759 35.8705 16.466L35.7621 16.3725C35.6825 16.2901 35.5751 16.2406 35.4609 16.2337L35.491 16.1251C35.0874 16.1854 34.9278 15.7389 34.6387 15.8234C34.2652 15.7721 34.5363 15.4221 34.0996 15.4825L34.0213 15.2864C33.8797 15.2049 33.8436 15.4161 33.705 15.2864C33.7502 15.2019 33.5213 15.1295 33.6538 15.0873C33.3316 14.7856 32.8075 14.9726 32.4039 14.5352C32.2262 14.6649 32.0154 14.4628 31.8829 14.5593C31.8829 14.5382 31.8618 14.5171 31.8136 14.4869L31.5847 14.3753C31.4432 14.2999 31.3498 14.2335 31.6178 14.2456C31.663 14.2456 31.7413 14.2848 31.7263 14.3119L31.8226 14.2305C31.5089 13.9993 31.1335 13.867 30.7444 13.8504C30.6481 13.9551 30.54 14.0482 30.4221 14.1279C30.5607 14.0706 30.7233 13.9379 30.63 14.1038L30.2354 14.3723L30.2836 14.2214L29.9824 14.4205L29.8228 14.5201L29.7445 14.5714L29.6963 14.5955L29.8138 14.6528C29.609 14.7283 29.4373 14.6106 29.3469 14.8821C29.3168 15.0179 29.5969 14.8821 29.4433 15.0481C29.1079 15.1627 28.7825 15.305 28.4705 15.4734C28.5729 15.5609 28.4946 15.6122 28.4313 15.6906L28.356 15.6062C28.1482 15.9531 28.1 15.4855 27.8741 15.8053L27.8561 15.7238L27.9163 15.9712C27.7778 16.3483 27.6332 15.8867 27.5127 16.3513C27.6212 16.2518 27.7145 16.5112 27.5398 16.5806L27.5127 16.466C27.4465 16.5414 27.4465 16.5987 27.3802 16.6198C27.3802 16.5384 27.3109 16.472 27.2055 16.5746V16.4056L27.0971 16.7315C26.8562 16.7646 26.6694 17.0844 26.4947 17.012C26.4218 17.049 26.3522 17.0924 26.2869 17.1418C26.2359 17.1795 26.1894 17.223 26.1484 17.2715C26.1303 17.2942 26.1161 17.3196 26.1062 17.3469C26.1062 17.365 26.1062 17.3801 26.1062 17.4012C26.064 17.3016 26.0008 17.2986 25.9526 17.184C26.0068 17.2715 25.9737 17.4042 25.9345 17.3499C25.8954 17.2956 25.9345 17.3228 25.9345 17.3077V17.2926C25.9135 17.2504 25.9044 17.2413 25.8894 17.2443H25.8653H25.8261C25.6069 17.2152 25.3992 17.1288 25.2237 16.9939C25.1936 17.1237 24.9918 16.9638 24.9858 17.1418C24.4738 17.1116 24.2961 16.4901 23.9407 16.9034C23.7269 16.8461 23.7449 16.6922 23.6395 16.6229H23.6998C23.4222 16.5566 23.1511 16.4657 22.8896 16.3513C22.73 16.3513 22.6155 16.5535 22.3836 16.3936C22.5041 16.3393 22.3836 16.3151 22.2963 16.2759C22.3625 16.2759 22.3956 16.2608 22.2963 16.1522C22.2675 16.1681 22.2356 16.1774 22.2029 16.1794C22.2029 16.1794 22.2029 16.1643 22.2029 16.1583C22.0312 16.1221 22.0463 16.1583 22.1155 16.2035C22.1155 16.2035 22.1155 16.2367 22.1155 16.2699C22.0837 16.2254 22.0426 16.1884 21.9951 16.1613C21.9469 16.1341 21.8475 16.0949 21.7812 16.0647C21.6367 16.0044 21.5222 15.9471 21.5162 15.8566C21.3174 15.7842 21.1337 15.7299 20.9711 15.6876C20.7723 15.8837 20.6036 16.0708 20.45 16.2397L20.0645 16.6681C19.9741 16.6319 20.0073 16.5112 20.0856 16.4087L19.8657 16.6198C19.7934 16.5233 19.9591 16.4569 20.0193 16.3815C19.6127 16.4479 19.5495 16.9849 19.1158 17.1116V17.2413H19.0857C19.1188 17.2805 19.0857 17.3922 19.0465 17.4465C18.9351 17.3982 18.9019 17.2504 18.7453 17.3831C18.5526 17.4042 18.405 17.715 18.2664 17.893C18.3719 17.8356 18.3779 17.893 18.3598 17.9654C18.2785 18.0317 18.1671 17.9865 18.1309 18.0709L18.0345 17.9654C18.149 18.0468 17.908 18.2489 17.911 18.3183C17.7996 18.2701 17.9863 18.1464 17.9562 18.0679L17.4713 18.4692C17.3599 18.6924 17.5858 18.5506 17.5767 18.7166C17.4382 18.8614 17.3478 19.0575 17.1129 19.1299L17.2484 19.1842C17.1717 19.3084 17.0704 19.4155 16.9507 19.4991C16.8311 19.5826 16.6956 19.6407 16.5527 19.6699C14.9956 22.189 16.9533 21.1421 16.9533 21.1421C17.9623 20.6926 18.1821 20.056 19.1489 19.1812Z" fill="#1D1D1D"/>
</g>
<defs>
<clipPath id="clip0_3766_10300">
<rect width="79" height="68" fill="white"/>
</clipPath>
</defs>
</svg>
