<svg width="55" height="19" viewBox="0 0 55 19" fill="none" xmlns="http://www.w3.org/2000/svg">
<path d="M2.37812 10.6709V17.9743H0.189453V0.940796H10.1336V3.0343H2.37812V8.62492H9.37234V10.6709H2.37812Z" fill="#B0AEAE"/>
<path d="M10.8518 12.1458C10.8518 10.3537 11.4148 8.87075 12.5409 7.69712C13.6828 6.52348 15.1181 5.93667 16.8468 5.93667C18.5756 5.93667 20.0029 6.52348 21.129 7.69712C22.2709 8.87075 22.8419 10.3537 22.8419 12.1458C22.8419 13.9539 22.2709 15.4368 21.129 16.5945C20.0029 17.7682 18.5756 18.355 16.8468 18.355C15.1181 18.355 13.6828 17.7682 12.5409 16.5945C11.4148 15.4209 10.8518 13.938 10.8518 12.1458ZM13.0404 12.1458C13.0404 13.3988 13.4052 14.4138 14.1348 15.1909C14.8643 15.9681 15.7683 16.3566 16.8468 16.3566C17.9253 16.3566 18.8293 15.9681 19.5589 15.1909C20.2884 14.4138 20.6532 13.3988 20.6532 12.1458C20.6532 10.9088 20.2884 9.90165 19.5589 9.12451C18.8135 8.33151 17.9094 7.93502 16.8468 7.93502C15.7842 7.93502 14.8802 8.33151 14.1348 9.12451C13.4052 9.90165 13.0404 10.9088 13.0404 12.1458Z" fill="#B0AEAE"/>
<path d="M24.5977 6.31731H26.6912V7.93502H26.7863C27.1194 7.36406 27.6269 6.88826 28.3089 6.50762C29.0067 6.12699 29.7284 5.93667 30.4738 5.93667C31.9012 5.93667 32.9955 6.34903 33.7568 7.17374C34.5339 7.9826 34.9225 9.14037 34.9225 10.6471V17.9743H32.7338V10.7898C32.6862 8.88661 31.7267 7.93502 29.8552 7.93502C28.9829 7.93502 28.2534 8.29187 27.6666 9.00556C27.0798 9.7034 26.7863 10.544 26.7863 11.5273V17.9743H24.5977V6.31731Z" fill="#B0AEAE"/>
<path d="M41.5028 18.1647C40.5512 18.1647 39.7582 17.8713 39.1238 17.2844C38.5053 16.6976 38.1881 15.8808 38.1722 14.8341V8.31565H36.1263V6.31731H38.1722V2.74883H40.3609V6.31731H43.2157V8.31565H40.3609V14.1204C40.3609 14.8975 40.5116 15.4288 40.8129 15.7143C41.1142 15.9839 41.4552 16.1187 41.8359 16.1187C42.0103 16.1187 42.1768 16.1029 42.3354 16.0712C42.5099 16.0236 42.6685 15.9681 42.8112 15.9046L43.5011 17.8554C42.9302 18.0616 42.2641 18.1647 41.5028 18.1647Z" fill="#B0AEAE"/>
<path d="M54.4512 14.7389C54.4512 15.754 54.0071 16.6104 53.1189 17.3082C52.2308 18.0061 51.1127 18.355 49.7646 18.355C48.5909 18.355 47.56 18.0536 46.6719 17.451C45.7837 16.8324 45.1493 16.0236 44.7687 15.0244L46.7195 14.1918C47.0049 14.8896 47.4173 15.4368 47.9565 15.8333C48.5116 16.2139 49.1143 16.4042 49.7646 16.4042C50.4624 16.4042 51.0413 16.2535 51.5012 15.9522C51.977 15.6509 52.2149 15.294 52.2149 14.8817C52.2149 14.1362 51.644 13.5891 50.5021 13.2402L48.5037 12.7406C46.2357 12.1696 45.1018 11.0753 45.1018 9.45757C45.1018 8.39496 45.53 7.54645 46.3864 6.91205C47.2587 6.2618 48.3689 5.93667 49.717 5.93667C50.7479 5.93667 51.6757 6.1825 52.5004 6.67415C53.341 7.16581 53.9278 7.824 54.2609 8.64871L52.3101 9.45757C52.0881 8.96591 51.7233 8.58527 51.2158 8.31565C50.7241 8.03018 50.169 7.88744 49.5505 7.88744C48.9795 7.88744 48.4641 8.03018 48.0041 8.31565C47.56 8.60113 47.338 8.95005 47.338 9.36241C47.338 10.0285 47.9645 10.5043 49.2174 10.7898L50.9779 11.2418C53.2934 11.8128 54.4512 12.9785 54.4512 14.7389Z" fill="#B0AEAE"/>
</svg>
