<svg width="53" height="61" viewBox="0 0 53 61" fill="none" xmlns="http://www.w3.org/2000/svg">
<g clip-path="url(#clip0_3766_10470)">
<path d="M52.8664 33.9168C52.875 28.8401 51.428 23.8703 48.7016 19.6122C46.3897 16.9014 43.5446 14.7103 40.3488 13.1792C37.153 11.6482 33.677 10.8111 30.1435 10.7215C26.6101 10.632 23.0971 11.2919 19.8298 12.6591C16.5626 14.0263 13.6131 16.0705 11.1704 18.6608C8.72779 21.2511 6.84585 24.3302 5.64526 27.7009C4.44467 31.0716 3.95192 34.6594 4.19858 38.2344C4.44524 41.8095 5.42588 45.2928 7.07764 48.4611C8.7294 51.6295 11.0158 54.413 13.7904 56.6332C17.7348 58.9728 22.2184 60.2155 26.7882 60.2357C31.358 60.2559 35.8521 59.0529 39.8165 56.7483C43.7809 54.4436 47.0752 51.1189 49.3665 47.1101C51.6579 43.1012 52.8652 38.5502 52.8664 33.9168Z" fill="#C0E3E4"/>
<path d="M5.62109 48.4849L7.08391 46.4318L17.9644 55.9529L18.5235 58.6495C18.5235 58.6495 13.5518 57.3226 12.1584 56.2991C10.7651 55.2756 5.62109 48.4849 5.62109 48.4849Z" fill="white"/>
<path d="M44.8278 15.7725L48.9623 19.272C48.9623 19.272 51.3802 24.4171 51.7762 25.8452C52.1721 27.2732 52.5438 33.5552 52.5438 33.5552L40.4121 20.035L44.8278 15.7725Z" fill="white"/>
<path d="M49.3696 47.1152C49.3696 47.1152 52.8665 39.6963 52.0353 37.4439C51.7573 36.6901 52.6881 35.9485 52.3375 35.2376C52.0222 34.6146 51.6762 34.0081 51.3009 33.4204C47.9519 29.4435 43.2155 26.9345 38.0832 26.4185C32.9509 25.9025 27.8207 27.4195 23.7666 30.652C19.7126 33.8845 17.0491 38.5819 16.3337 43.7605C15.6184 48.9392 16.9067 54.1977 19.9288 58.4351C20.4185 59.1276 20.7902 59.287 21.3614 59.9121C21.44 59.9979 21.5126 59.7712 21.5911 59.857C22.2319 60.5342 24.2236 59.5812 24.949 60.1634C27.9713 61.9653 32.9038 59.6915 35.3821 58.8028C42.3124 56.3176 49.3696 47.1152 49.3696 47.1152Z" fill="#51A7AB"/>
<path d="M10.2117 14.5129L12.7807 17.1177H17.6346L17.562 22.9829C17.562 22.9829 11.2816 26.1638 9.64044 28.6245C8.47777 30.4373 7.42895 32.3226 6.50021 34.2691L0.951172 33.9167" fill="white"/>
<path d="M14.2773 16.4497L14.3713 16.5019C14.3683 16.4774 14.347 16.4559 14.2773 16.4497Z" fill="#1D1D1D"/>
<path d="M7.96094 32.8718C7.96094 32.8718 7.96094 32.8908 7.96094 32.8971C7.96094 32.9034 7.96406 32.875 7.96094 32.8718Z" fill="#1D1D1D"/>
<path d="M16.5062 18.2729L16.4902 18.2826L16.5062 18.2729Z" fill="#1D1D1D"/>
<path d="M13.0473 18.1044H13.2498H13.3254H13.3767L13.5823 18.1228C13.7122 18.1228 13.8301 18.1504 13.9419 18.1657L14.5464 18.2576C15.0234 18.3312 15.5074 18.3467 15.988 18.3036H16.3689H16.39C16.4175 18.2851 16.4469 18.2697 16.4777 18.2576C16.5744 18.1933 16.5744 18.2423 16.5714 18.276C16.5654 18.2929 16.5654 18.3113 16.5714 18.3281C16.5756 18.3384 16.5831 18.347 16.5925 18.3526V18.3863C16.5987 18.4094 16.6068 18.432 16.6167 18.4538L16.5079 18.5825C16.5396 18.6388 16.5585 18.7016 16.5632 18.7663C16.5679 18.831 16.5583 18.8959 16.5351 18.9563H16.5049C16.5834 19.131 16.5321 19.3271 16.5744 19.416H16.5411V19.6305L16.5562 19.6121C16.6327 19.905 16.6472 20.211 16.5986 20.51L16.7315 20.4885C16.5774 21.0799 16.8464 21.3006 16.6651 21.8338H16.6348C16.6835 21.9301 16.7171 22.0335 16.7346 22.1402C16.7359 22.1657 16.7359 22.1913 16.7346 22.2168C16.7356 22.226 16.7356 22.2353 16.7346 22.2444C16.738 22.2595 16.738 22.2753 16.7346 22.2904C16.7104 22.3486 16.653 22.3731 16.6258 22.4007C16.5986 22.4283 16.5532 22.4222 16.5562 22.5447C16.5562 22.4988 16.5079 22.4926 16.4928 22.4651L16.4686 22.4804L16.3719 22.5509C16.3111 22.5933 16.2544 22.6416 16.2026 22.6949C16.1595 22.7311 16.1289 22.7804 16.1153 22.8355C16.1017 22.8907 16.1058 22.9488 16.1271 23.0013C15.9216 23.1116 15.9216 23.0228 15.846 22.9492C15.9034 23.0504 15.7463 23.1883 15.5921 23.2863L15.6435 23.2066L15.2083 23.5131L15.4017 23.651C15.1297 23.7337 15.2113 23.4549 15.0058 23.651L15.0995 23.8042C14.7489 23.9666 14.4194 23.8471 14.0326 23.9329C13.3409 24.3372 12.69 24.8093 12.0892 25.3425C11.4962 25.8636 10.8647 26.338 10.2002 26.7614L10.0612 26.7093C9.90405 26.5867 9.94334 27.2026 9.78013 27.123L9.71666 27.3191C9.65621 27.3191 9.55648 27.3865 9.5867 27.2884C9.46278 27.4079 9.48394 27.4355 9.44465 27.5642C9.37152 27.5811 9.29978 27.6036 9.23006 27.6316C9.10429 27.755 8.99183 27.8917 8.89458 28.0392C8.81569 28.1678 8.74599 28.3019 8.68604 28.4406C8.56651 28.7246 8.42079 28.9965 8.25082 29.2527C7.62519 29.7951 7.09628 31.2017 6.82729 32.0107C6.73154 32.3538 6.57929 32.6781 6.37696 32.9698L6.2198 33.1966C6.19323 33.223 6.16496 33.2476 6.13517 33.2701C6.08838 33.304 6.03762 33.3318 5.98405 33.3529C5.91002 33.3097 5.8321 33.2738 5.75133 33.2456H5.72111H5.66973H5.57301C5.50652 33.2456 5.44003 33.2456 5.37656 33.2456C5.24546 33.2485 5.11492 33.2639 4.98668 33.2916C4.95041 33.2609 4.84463 33.3192 4.84463 33.3406L3.76262 33.2456C3.76262 33.2456 -1.49325 32.835 2.40257 34.7196L2.37234 34.7594C2.95868 34.9035 3.33345 34.9494 3.75658 34.7594C3.80494 35.026 4.24016 34.8177 4.37616 34.9096L4.36105 34.931C4.73582 34.7502 5.09548 35.1486 5.45514 34.9893C5.44003 35.0077 5.43096 35.0812 5.34936 35.0781H5.55186H5.66671H5.82689C6.02637 35.0781 6.18353 35.1272 6.21678 35.2068C6.4767 35.2068 6.76684 35.2283 7.05699 35.2406C7.2474 34.8299 7.44687 34.3978 7.61008 34.0148L7.63728 33.9443L7.65239 33.9014L7.6796 33.8187C7.69773 33.7666 7.70982 33.7114 7.72191 33.6624C7.7427 33.5689 7.75084 33.4731 7.74609 33.3774L7.77027 33.4203C7.72795 33.1476 7.87907 33.1537 7.92138 32.8932C7.94556 32.8932 7.96067 32.8932 7.96672 32.8932C7.9365 32.5868 8.26895 32.2558 8.30824 32.0505L8.40194 32.0903L8.6135 31.6552L8.50772 31.8023C8.29616 31.6123 8.83413 31.5694 8.84925 31.1894C9.03965 30.9259 8.68302 30.3191 8.97316 30.0954C8.94898 29.887 9.08197 30.3283 9.12126 30.0678C9.2482 30.1383 9.13939 30.2119 9.27238 30.2211C9.33584 29.979 9.59577 29.9667 9.6683 29.6664L9.77106 29.7185C9.78078 29.6274 9.80887 29.5393 9.85359 29.4597C9.8983 29.3801 9.95868 29.3107 10.031 29.2558C10.1519 29.1393 10.2637 29.0413 10.2516 28.9034C10.2684 28.8491 10.3039 28.8027 10.3516 28.7729C10.3994 28.7431 10.4562 28.7317 10.5115 28.741C10.5931 28.741 10.6747 28.741 10.7231 28.5173H10.9316C11.0586 28.4223 10.8712 28.2966 11.0556 28.2261C11.113 28.3027 11.2762 28.1281 11.2611 28.266C11.651 28.1066 11.7477 27.5428 12.3461 27.4049C12.3461 27.1812 12.6211 27.0984 12.6121 26.9299C12.6695 26.9851 13.0866 26.6235 12.9143 26.9299C12.9143 26.9575 12.8599 26.982 12.8448 26.9544L12.878 27.0678C13.2589 27.0678 13.283 26.6326 13.5702 26.4825C13.4704 26.5039 13.3707 26.5836 13.3979 26.4825L13.6548 26.3323V26.4457L14.0537 26.2465L13.9389 26.1822C14.1535 26.1117 14.3227 26.2404 14.4436 25.9677C14.489 25.8298 14.1867 25.9462 14.362 25.7899C14.721 25.6775 15.0723 25.5413 15.4138 25.3824C15.3171 25.2874 15.4138 25.2414 15.4803 25.1648L15.5468 25.2567C15.8097 24.9196 15.7976 25.4008 16.0727 25.0943V25.1801L16.0455 24.9196C16.2449 24.5489 16.3265 25.033 16.52 24.5672C16.393 24.6622 16.3356 24.3834 16.52 24.3313V24.4539C16.6016 24.3803 16.6107 24.3221 16.6832 24.3098C16.656 24.3926 16.7315 24.4661 16.8585 24.3742L16.8313 24.5458L16.9945 24.2393C17.0606 24.2361 17.1253 24.2195 17.1849 24.1903C17.2163 24.1775 17.2466 24.1621 17.2756 24.1444L17.4146 24.0677C17.565 23.9634 17.7404 23.902 17.9224 23.89C18.1314 23.8043 18.3353 23.706 18.5329 23.5958C18.5389 23.4181 18.5059 23.2411 18.4362 23.0779C18.5359 23.3016 18.5842 22.8175 18.7021 22.9983C18.634 22.7951 18.5913 22.584 18.5752 22.3701C18.5666 22.2886 18.5666 22.2064 18.5752 22.1249C18.5793 22.0702 18.5993 22.018 18.6326 21.9748V22.0023C18.7686 21.4324 18.4664 21.0217 18.6326 20.513C18.5026 20.5345 18.5752 20.2648 18.409 20.3292C18.2488 19.796 18.7595 19.3639 18.2457 19.1678C18.2185 18.9257 18.3697 18.8828 18.3969 18.7571L18.4241 18.8154C18.4241 18.702 18.4241 18.61 18.4029 18.5273C18.3817 18.4446 18.4029 18.4507 18.4029 18.4139C18.4029 18.3771 18.4029 18.3036 18.4029 18.2515C18.4029 18.037 18.4029 17.8501 18.4029 17.5712C18.3576 17.3138 18.1158 17.418 18.1793 16.9583C18.2729 17.0257 18.2578 16.8572 18.2609 16.6887C18.2609 16.7806 18.3092 16.7928 18.3757 16.4987C18.3515 16.4987 18.3334 16.468 18.3213 16.4404H18.2971C18.2971 16.4404 18.2971 16.4404 18.3153 16.419C17.9919 16.4527 18.013 16.4833 18.1369 16.4956C18.1325 16.4993 18.1289 16.504 18.1265 16.5093C18.124 16.5146 18.1228 16.5204 18.1228 16.5262C18.1228 16.5321 18.124 16.5379 18.1265 16.5432C18.1289 16.5485 18.1325 16.5532 18.1369 16.5569C17.9919 16.4993 17.8356 16.4772 17.6806 16.4925C17.5113 16.4925 17.3783 16.4925 17.4025 16.3975C17.1789 16.3975 16.9673 16.4251 16.7739 16.4496C16.6102 16.4642 16.4476 16.4898 16.2873 16.5262C16.0606 16.5814 15.843 16.6396 15.6133 16.6733C15.5619 16.5875 15.6677 16.5109 15.8037 16.4772L15.4742 16.5109C15.4742 16.3853 15.6647 16.4374 15.7765 16.4129C15.3866 16.2137 14.9695 16.612 14.5101 16.4312L14.4164 16.5262H14.3892C14.3892 16.5783 14.2865 16.6488 14.22 16.6641C14.1535 16.5569 14.22 16.419 13.9963 16.4251C13.8834 16.3815 13.7586 16.3815 13.6457 16.4251C13.5762 16.4251 13.5097 16.4619 13.4432 16.4833C13.3878 16.4983 13.3333 16.5168 13.28 16.5385C13.3072 16.5385 13.3374 16.5691 13.3344 16.5906C13.3314 16.612 13.3072 16.6366 13.2951 16.655C13.2226 16.655 13.2014 16.5508 13.147 16.5967L13.1742 16.4527C13.1742 16.5385 13.0957 16.5753 13.0231 16.6059C12.9506 16.6366 12.9596 16.5875 12.9415 16.6059C12.9596 16.5201 13.011 16.5477 13.0503 16.5446C13.0732 16.5332 13.0922 16.5151 13.1047 16.4925C13.0805 16.4925 13.0624 16.4925 13.0685 16.4925L12.7964 16.2413C12.5486 16.1432 12.733 16.37 12.5607 16.3761C12.3914 16.2413 12.1738 16.1616 12.059 15.9256L12.0257 16.0727C11.7446 15.9299 11.5282 15.6831 11.4213 15.3832C8.55608 13.9552 9.97356 15.9348 9.97356 15.9348C10.209 16.333 10.5166 16.6823 10.8803 16.9645C11.0525 17.0993 11.2309 17.2249 11.4273 17.3659L11.5754 17.4731C11.6026 17.4946 11.6207 17.5038 11.657 17.5344L11.793 17.6509L12.3522 18.1412L13.0473 18.1044Z" fill="#1D1D1D"/>
<path d="M3.94727 45.917L6.64925 39.3347C6.64925 39.3347 5.31941 33.068 6.5072 34.2692C7.24163 35.0108 9.29079 37.3826 9.29079 37.3826L17.9226 42.3041L16.1969 46.6463C16.1969 46.6463 14.2384 50.768 14.3835 52.2144C14.5285 53.6607 19.7784 57.0653 18.1342 57.6445" fill="white"/>
<path d="M5.74219 39.7639L5.8331 39.6778C5.82401 39.6686 5.79068 39.6901 5.74219 39.7639Z" fill="#1D1D1D"/>
<path d="M15.4386 50.3389C15.4371 50.3492 15.4371 50.3596 15.4386 50.3699C15.4417 50.3482 15.4417 50.342 15.4386 50.3389Z" fill="#1D1D1D"/>
<path d="M7.36719 37.0884L7.38314 37.1078L7.36719 37.0884Z" fill="#1D1D1D"/>
<path d="M6.7342 41.6759C6.93669 41.2376 7.11199 40.9067 7.2752 40.6156C7.3568 40.4715 7.43236 40.3336 7.51094 40.1988C7.53512 40.159 7.61068 39.9966 7.67415 39.8617L7.87362 39.4388C7.82224 39.1324 7.76784 38.826 7.70437 38.4736C7.66508 38.256 7.61068 38.0108 7.54419 37.732L7.49885 37.4562L7.47467 37.3152V37.2478C7.46899 37.2367 7.46188 37.2264 7.45352 37.2171C7.42578 37.1769 7.40246 37.1338 7.384 37.0884C7.26915 36.9475 7.26311 36.8893 7.26613 36.8525C7.26915 36.8157 7.26613 36.7973 7.19662 36.546C7.24497 36.6227 7.29031 36.7023 7.33565 36.7881C7.29333 36.6318 7.3024 36.5767 7.36285 36.733L7.38703 36.8065C7.34773 36.638 7.41725 36.7851 7.40516 36.7115L7.42027 36.7759H7.44747V36.8555C7.44747 36.7912 7.4777 36.782 7.50187 36.8004C7.53582 36.8289 7.56012 36.8675 7.57139 36.9107L7.59557 36.7391C7.64695 36.9076 7.68624 36.9076 7.75575 36.9414H7.77993C7.79497 36.9487 7.80835 36.9591 7.81922 36.972C7.86376 37.0147 7.90612 37.0597 7.94616 37.1068C8.03915 37.217 8.11833 37.3385 8.1819 37.4684H8.15168C8.39398 37.5893 8.60199 37.7707 8.75615 37.9955C8.84078 38.0476 8.92238 38.1028 9.00398 38.1579L9.09466 38.2253L9.16115 38.2836C9.25182 38.3571 9.34249 38.4368 9.43618 38.5073C9.64828 38.6744 9.901 38.7803 10.1676 38.8137C10.0558 38.8137 10.1676 38.8964 10.1495 38.921C10.5091 39.0803 10.8809 39.2703 11.0108 39.0435C11.2587 39.1876 11.174 39.2305 11.1559 39.35C11.2103 39.2488 11.4581 39.3285 11.6455 39.4327H11.5337L12.1049 39.7146V39.4634C12.3679 39.684 12.0535 39.7361 12.3588 39.8495L12.4404 39.6932C12.8303 39.9537 12.9361 40.3275 13.2655 40.6646C13.9678 41.0826 14.6923 41.4611 15.4356 41.7984C15.8073 41.9731 16.176 42.1508 16.5327 42.3378L16.6929 42.4174L16.8017 42.4787C16.8665 42.5152 16.9282 42.5572 16.986 42.6044C16.9304 42.7063 16.8601 42.7993 16.7775 42.8802C16.7302 42.8833 16.6827 42.8833 16.6354 42.8802C16.5871 42.8802 16.578 42.8802 16.5901 42.8802L16.6173 42.9047C16.6279 42.9116 16.6365 42.9211 16.6423 42.9324C16.6481 42.9437 16.651 42.9563 16.6505 42.969C16.6717 43.1131 16.6929 43.2755 16.5992 43.2601V43.4838C16.5448 43.5237 16.4662 43.6248 16.4632 43.5114C16.4113 43.6166 16.3953 43.7362 16.4178 43.8516L16.2304 43.9956C15.8678 44.6545 15.8496 45.3317 15.5172 46.0457C15.4809 46.0947 15.4446 46.1468 15.4084 46.205C15.3987 46.2231 15.3865 46.2396 15.3721 46.2541C15.3512 46.2768 15.3339 46.3027 15.3207 46.3307C15.2394 46.4626 15.1648 46.5986 15.0971 46.7382C14.9488 47.0469 14.8187 47.3641 14.7072 47.6882C14.4974 48.3279 14.3298 48.9811 14.2055 49.6433C14.1399 50.048 14.0387 50.4459 13.9032 50.8323C13.8307 51.0315 13.7702 51.2552 13.7007 51.4758L13.601 51.8252C13.5757 51.9782 13.5605 52.1328 13.5556 52.2879C13.5628 52.4476 13.5882 52.606 13.6312 52.7598C13.6506 52.8386 13.6769 52.9155 13.7098 52.9896C13.734 53.0547 13.7622 53.1182 13.7944 53.1796C13.8942 53.3954 14.0146 53.6007 14.1541 53.7925C14.3846 54.1161 14.6714 54.3944 15.0003 54.6138C15.0154 54.672 15.1484 54.7149 15.1635 54.6996C15.4809 55.0336 15.8013 55.3523 16.1156 55.671L16.7745 56.3053L17.3457 56.86C17.527 57.0377 17.6902 57.2216 17.7628 57.2951C17.7809 57.3104 17.7628 57.2951 17.7839 57.2951C17.8051 57.2951 17.7839 57.2951 17.8111 57.2951H17.8716H17.9048C17.9517 57.2859 18 57.2859 18.0469 57.2951C18.0922 57.2951 18.0862 57.2951 18.1103 57.2951H18.1345C18.127 57.2906 18.1208 57.2843 18.1164 57.2767C18.0755 57.2462 18.0424 57.2063 18.0197 57.1603C18.0232 57.2041 18.0232 57.2482 18.0197 57.2921C18.015 57.3452 18.0313 57.3981 18.065 57.4391C18.1106 57.4986 18.1763 57.539 18.2494 57.5525C18.3074 57.5606 18.3665 57.5543 18.4216 57.5341C18.459 57.5152 18.4944 57.4926 18.5274 57.4667C18.5599 57.4273 18.5892 57.3852 18.6151 57.3411C18.6925 57.097 18.6925 56.8344 18.6151 56.5903C18.5386 56.2847 18.4313 55.9879 18.2947 55.7047H18.3521C17.8988 55.0428 17.5693 54.7088 17.0555 54.5065C17.1795 54.2583 16.6415 54.0683 16.581 53.8936H16.6233C16.1639 53.7281 16.1035 53.1367 15.7166 52.9743C15.7438 52.9743 15.8013 52.9314 15.8678 52.9958C15.6441 52.8027 15.366 52.5453 15.49 52.4442C15.4304 52.374 15.3777 52.298 15.3328 52.2174C15.3125 52.1848 15.2991 52.1483 15.2935 52.1101C15.2886 52.0387 15.2886 51.9671 15.2935 51.8956C15.2935 51.8435 15.2935 51.7914 15.2935 51.7424C15.2935 51.6934 15.2935 51.6321 15.2935 51.5769C15.3131 51.3818 15.306 51.1848 15.2723 50.9916L15.3056 51.0315C15.2179 50.725 15.3721 50.7036 15.3842 50.3971C15.4084 50.3971 15.4235 50.3696 15.4325 50.3757C15.366 50.0478 15.6864 49.5636 15.7076 49.3185L15.8073 49.3399L16.0007 48.7853L15.898 48.9814C15.6683 48.8037 16.2214 48.6351 16.2244 48.1755C16.4118 47.823 16.0189 47.1887 16.3211 46.8639C16.2909 46.6218 16.4329 47.1274 16.4783 46.7903C16.6143 46.8424 16.4934 46.9742 16.6324 46.9466C16.6475 46.9007 16.6626 46.8578 16.6747 46.8149C16.687 46.7844 16.7011 46.7547 16.717 46.726C16.7515 46.6699 16.7889 46.6157 16.8289 46.5636C16.9258 46.4456 16.9877 46.3021 17.0072 46.1499L17.119 46.1805C17.1009 45.6596 17.5875 45.4022 17.521 45.0344C17.6147 44.5411 17.9532 44.8536 17.9381 44.2959L18.1527 44.1703C18.2554 43.9742 18.0348 43.9527 18.195 43.7566C18.2373 43.775 18.2766 43.7321 18.3279 43.6524C18.3793 43.5727 18.4277 43.4961 18.4277 43.6248C18.6939 43.0847 18.9036 42.5177 19.0533 41.9333C18.6474 41.741 18.2691 41.4936 17.929 41.1978C17.8259 41.197 17.7237 41.1783 17.6268 41.1426L17.4787 41.0814L17.3517 41.0231C17.2399 40.9741 17.1311 40.922 17.0495 40.9557C17.0737 40.873 16.445 40.5849 16.8682 40.6309C16.9044 40.6309 16.9558 40.6677 16.9377 40.6922L17.0344 40.6186C16.7805 40.2325 16.3332 40.3551 15.9977 40.1253C16.0823 40.2172 16.2274 40.2877 16.0974 40.303L15.7771 40.1038L15.8919 40.0578L15.4325 39.733V39.874C15.224 39.6871 15.2361 39.4634 14.8885 39.4572C14.7223 39.4572 15.0366 39.7238 14.7706 39.6104C14.4261 39.2921 14.0627 38.9954 13.6826 38.7218C13.6584 38.8597 13.5496 38.7922 13.4257 38.7524L13.468 38.6452C12.9602 38.5379 13.4317 38.3387 12.9421 38.2039L13.0177 38.1549L12.791 38.2989C12.2953 38.2774 12.6973 37.9741 12.12 37.9924C12.2983 38.0721 12.0777 38.259 11.8934 38.0966L11.9991 38.0292C11.8722 37.9832 11.8118 38.0016 11.7453 37.9403C11.842 37.9403 11.8601 37.8208 11.6818 37.7412L11.8601 37.6829H11.4853C11.2949 37.4378 10.8295 37.3428 10.8023 37.1497C10.8023 37.1497 10.3066 36.7789 10.1041 36.8433C10.2613 36.8126 9.98625 36.6104 10.1313 36.5368H10.0618C10.0376 36.5368 10.0044 36.5368 10.0044 36.5368C9.98877 36.5511 9.97017 36.5616 9.94998 36.5675C9.9391 36.5705 9.92762 36.5705 9.91674 36.5675L9.8714 36.5154C9.81995 36.4549 9.78457 36.3822 9.76864 36.304L9.80189 36.3223C9.71743 36.1804 9.6159 36.0497 9.49965 35.9332C9.44525 35.8749 9.39085 35.8228 9.33644 35.7738L9.25182 35.7003L9.06745 35.547C8.66746 35.1769 8.30591 34.7662 7.98847 34.3213C7.98847 34.5205 7.61672 34.0148 7.68624 34.3427C7.57791 34.2586 7.47681 34.1653 7.384 34.0639C7.31751 34.0057 7.25102 33.9382 7.18453 33.8708C7.12762 33.8049 7.0649 33.7444 6.99714 33.69L6.83091 33.5429C6.78563 33.5017 6.73596 33.4657 6.68282 33.4357C6.50752 33.3315 6.40476 33.3652 6.41685 33.6134C6.2204 33.546 6.14484 33.3621 5.9907 33.3437L6.0451 33.3162C5.97876 33.3175 5.91361 33.3342 5.85469 33.3652C5.80234 33.3961 5.75452 33.4342 5.71264 33.4786C5.65807 33.5398 5.61135 33.6077 5.57361 33.6808C5.498 33.8131 5.4333 33.9515 5.38018 34.0945C5.36205 34.3519 5.56152 34.6522 5.48596 35.0138C5.39832 34.7656 5.40436 34.9617 5.40134 35.1395C5.40134 35.0138 5.35298 34.9342 5.28347 35.1088C5.31059 35.1745 5.33282 35.2421 5.34996 35.3111C5.34996 35.3111 5.33485 35.3111 5.32578 35.3111C5.37414 35.6666 5.40738 35.6175 5.41041 35.495C5.41409 35.4995 5.41871 35.5031 5.42394 35.5056C5.42916 35.508 5.43486 35.5093 5.44063 35.5093C5.4464 35.5093 5.4521 35.508 5.45732 35.5056C5.46255 35.5031 5.46717 35.4995 5.47085 35.495C5.42345 35.6728 5.41622 35.8593 5.4497 36.0404C5.46783 36.2396 5.47992 36.402 5.39529 36.3928C5.43761 36.6625 5.49201 36.9168 5.54943 37.1497L5.6401 37.4868C5.65824 37.5481 5.67033 37.5787 5.68242 37.6125L5.71869 37.7166C5.82145 37.9894 5.92723 38.2437 6.02092 38.5226C5.95141 38.6053 5.85167 38.4858 5.7882 38.3234L5.89398 38.7248C5.77611 38.7463 5.78216 38.5042 5.7338 38.3847C5.71194 38.6965 5.79272 39.0069 5.9635 39.2672C5.95823 39.304 5.94591 39.3394 5.92723 39.3714C5.90607 39.4082 5.88492 39.4205 5.82447 39.5032L5.86678 39.6503L5.83958 39.6748C5.88794 39.6932 5.90305 39.8372 5.88492 39.923C5.75798 39.9567 5.66428 39.8219 5.56152 40.0854C5.3832 40.254 5.36809 40.6983 5.31067 40.9833C5.38623 40.8454 5.42249 40.9159 5.43156 40.9833C5.38018 41.1151 5.25324 41.1488 5.25324 41.2683L5.11421 41.2254C5.25929 41.2254 5.11422 41.6238 5.14444 41.6942C5.01448 41.7279 5.14444 41.4552 5.08399 41.3878C4.88149 41.9179 4.98123 41.6544 4.78176 42.1815C4.76664 42.5032 4.92683 42.1815 4.98728 42.3653C4.95136 42.6446 4.85763 42.913 4.71224 43.1529L4.86638 43.1131C4.82004 43.4995 4.65389 43.8611 4.39187 44.1458C3.93247 47.9977 5.39832 45.4236 5.39832 45.4236C6.21737 44.1887 6.16297 43.3429 6.7342 41.6759Z" fill="#1D1D1D"/>
<path d="M45.3175 16.5662C45.3175 16.5662 38.6865 16.9737 37.4776 16.9737C36.2686 16.9737 31.4117 21.2424 31.4117 21.2424C31.4117 21.2424 30.0547 19.3609 28.6281 19.3609C27.2016 19.3609 27.4857 21.2424 27.5582 22.6919C27.6307 24.1414 28.6281 23.7767 28.6281 23.7767C28.6281 23.7767 28.4135 25.8758 32.125 25.5847C35.8364 25.2936 35.4103 23.9207 36.4802 24.5152C37.5501 25.1097 38.8981 26.3968 39.835 26.4703C40.7719 26.5439 44.8309 26.7584 44.8309 26.7584L45.8344 31.7319C45.8961 32.0329 46.049 32.3069 46.2717 32.5157C46.4943 32.7244 46.7757 32.8575 47.0766 32.8964L52.5168 33.5859" fill="white"/>
<path d="M37.5372 17.6417C37.5167 17.6232 37.4944 17.6068 37.4707 17.5927C37.4767 17.6202 37.4979 17.6356 37.5372 17.6417Z" fill="#1D1D1D"/>
<path d="M45.6855 27.552C45.6855 27.552 45.6855 27.5768 45.7039 27.583C45.7222 27.5892 45.6917 27.5551 45.6855 27.552Z" fill="#1D1D1D"/>
<path d="M39.1848 15.9349C38.7193 15.9349 38.3355 15.9349 38.003 15.9104C37.8338 15.9104 37.6796 15.8889 37.5436 15.8767C37.4722 15.8706 37.4004 15.8706 37.329 15.8767C37.2566 15.8706 37.1838 15.8706 37.1114 15.8767C36.9785 15.8965 36.8472 15.9262 36.7185 15.9655C36.3407 16.0815 35.9776 16.242 35.6365 16.4436C35.253 16.6645 34.8872 16.9155 34.5424 17.1944C33.7506 17.7611 32.9927 18.3751 32.2726 19.033C32.1165 19.2725 31.9176 19.4803 31.6863 19.6459L31.6319 19.6857L31.6047 19.7164C31.5814 19.7572 31.5651 19.8018 31.5563 19.8481C31.5403 19.8109 31.5291 19.7718 31.5231 19.7317C31.5231 19.7562 31.5231 19.8022 31.4989 19.8022C31.4747 19.8022 31.4627 19.8022 31.4596 19.7347V19.701C31.4022 19.7562 31.3841 19.6673 31.3357 19.6796H31.3659C31.2753 19.5968 31.1816 19.5172 31.0818 19.4406H31.1604C30.6912 19.1224 30.2037 18.8328 29.7006 18.5733V18.7143C29.4448 18.5726 29.1629 18.486 28.8725 18.46C28.615 18.4411 28.3562 18.468 28.1078 18.5396C27.5882 18.7111 27.1477 19.0683 26.8687 19.5448L26.8505 19.511C26.7974 19.7122 26.759 19.917 26.7357 20.1239C26.7357 20.2128 26.7115 20.3139 26.7055 20.3844C26.6994 20.4549 26.7055 20.5192 26.6873 20.5867C26.6632 20.8502 26.6299 21.08 26.6027 21.3068C26.5152 21.77 26.5528 22.2486 26.7115 22.6919C26.6632 22.5693 26.645 22.7471 26.6148 22.7471C26.6436 23.0982 26.7467 23.4389 26.917 23.746C27.0984 24.0525 27.3855 24.2057 27.4671 24.1046C27.724 24.3314 27.8721 24.3773 27.9174 24.4386C27.9628 24.4999 27.9507 24.5275 27.9869 24.5888C27.9869 24.5428 28.1169 24.5367 28.2892 24.5213C28.3678 24.5213 28.4584 24.503 28.5491 24.4846L28.6912 24.4509L28.8665 24.3957L27.993 23.7031C27.993 23.7644 27.993 23.7951 27.993 23.8288C27.9913 23.8615 27.9913 23.8942 27.993 23.9269C27.9828 23.8947 27.9747 23.862 27.9688 23.8288C27.9638 23.785 27.9638 23.7408 27.9688 23.697L28.8755 24.4294L27.9688 23.694C27.9567 23.8091 27.9567 23.9251 27.9688 24.0402C27.9839 24.1365 28.0051 24.2317 28.0323 24.3252C28.0817 24.5089 28.157 24.6843 28.2559 24.8462C28.281 24.7484 28.3144 24.6531 28.3557 24.5612C28.4433 24.8186 28.4131 24.886 28.3889 24.9412C28.3647 24.9963 28.3466 25.0545 28.5491 25.2476L28.676 25.122L28.8483 25.3303C28.9027 25.3916 28.9601 25.4499 29.0145 25.5081C29.1173 25.6368 29.2261 25.7257 29.3349 25.839C29.5603 26.0647 29.8246 26.2465 30.1147 26.3753C30.7755 26.5223 31.4564 26.5534 32.1276 26.4672C32.7655 26.3939 33.3964 26.2668 34.0135 26.0873L34.485 25.9279C34.6391 25.8636 34.7872 25.8084 34.9505 25.7348C35.2519 25.5953 35.5428 25.4334 35.8209 25.2507L35.9932 25.1404L36.0536 25.1097C36.0644 25.1013 36.0767 25.095 36.0899 25.0913C36.105 25.1342 36.0597 24.9779 36.0627 24.9871C36.05 24.9614 36.0428 24.9332 36.0415 24.9044C36.0415 24.8737 36.0415 24.9258 36.0415 24.935C36.043 24.9534 36.043 24.9718 36.0415 24.9902V25.0454V25.1128C36.1981 25.2214 36.3485 25.3391 36.4919 25.4652V25.6276C36.4102 25.8023 37.1205 25.7042 37.0963 25.9065L37.3502 25.9769C37.3895 26.0474 37.4923 26.1669 37.3502 26.1302C37.4611 26.2223 37.595 26.2817 37.7371 26.3018L37.8882 26.55C38.0738 26.7112 38.2765 26.851 38.4927 26.9667C38.7448 27.1026 39.0129 27.2056 39.2906 27.2732C39.3712 27.2927 39.4529 27.307 39.5354 27.3161C39.623 27.3161 39.7318 27.3375 39.7953 27.3375H40.1277C40.3598 27.3359 40.5918 27.3461 40.8229 27.3682C41.5643 27.5315 42.3221 27.6056 43.0806 27.5888H43.8483H43.8966L44.0024 27.5674L44.1142 27.5459H44.1747C44.1958 27.5459 44.1928 27.5674 44.2049 27.5766C44.217 27.5857 44.2623 27.6807 44.2895 27.739C44.3194 27.7789 44.3428 27.8234 44.359 27.8707C44.3923 27.9811 44.4225 28.0914 44.4497 28.2048C44.5011 28.4285 44.5434 28.6614 44.5767 28.8942C44.6462 29.3662 44.6824 29.8534 44.7217 30.3406C44.761 30.8279 44.8033 31.3182 44.8789 31.7932C44.8861 31.8581 44.8972 31.9226 44.9121 31.9862C44.9309 32.0842 44.9571 32.1805 44.9907 32.2743C45.0555 32.4604 45.145 32.6367 45.2567 32.7983C45.4722 33.1134 45.7706 33.3608 46.118 33.5123C46.2129 33.5806 46.3284 33.6131 46.4445 33.6042C46.5427 33.6444 46.6437 33.6772 46.7467 33.7023C46.7984 33.7165 46.8509 33.7277 46.9039 33.736L47.0338 33.7575L47.4418 33.8157L48.2609 33.9321C48.2609 33.9321 56.2006 35.0169 50.3765 32.6298L50.4219 32.593C49.5363 32.3754 48.9742 32.2865 48.3304 32.4183C48.2639 32.1425 47.596 32.2957 47.3965 32.1854L47.4177 32.167C47.3479 32.1812 47.2772 32.1894 47.2061 32.1915C47.1671 32.1986 47.1272 32.1986 47.0882 32.1915C47.02 32.1675 46.9601 32.1239 46.916 32.0659C46.8223 31.9525 46.789 31.8453 46.656 31.7748C46.6802 31.7748 46.7407 31.7472 46.7739 31.7748C46.742 31.7441 46.7146 31.709 46.6923 31.6706C46.6644 31.6171 46.646 31.559 46.6379 31.499C46.6016 31.3151 46.5956 31.1711 46.6681 31.1405C46.4414 30.2211 46.251 28.9341 45.8944 28.3825L45.9458 28.4131C45.7161 28.1067 45.834 27.9841 45.6768 27.6256C45.6919 27.6011 45.6949 27.5735 45.704 27.5735C45.5572 27.2459 45.4555 26.8995 45.4018 26.5438L45.3473 26.2558V26.1884C45.3473 26.1884 45.305 26.1884 45.2869 26.1884H45.1569C45.0111 26.1778 44.8646 26.1778 44.7187 26.1884L44.7308 26.0474L43.7123 26.0106L43.8483 26.029L44.0145 26.0505C43.9938 26.082 43.9644 26.1065 43.9299 26.121C43.902 26.1273 43.8731 26.1273 43.8452 26.121C43.7625 26.1072 43.6815 26.0846 43.6035 26.0535C43.3842 25.9511 43.138 25.9242 42.9023 25.9769C42.4096 25.9126 41.8596 26.504 41.3548 26.3355C41.0979 26.4519 41.5845 26.1332 41.2097 26.2129C41.2097 26.0658 41.3881 26.1332 41.3034 26.0106C40.9377 26.0597 40.7231 25.8268 40.2698 25.9003V25.7839C40.1985 25.8041 40.1257 25.8184 40.0522 25.8268C39.9919 25.8335 39.9311 25.8335 39.8708 25.8268C39.7892 25.8093 39.712 25.7749 39.6442 25.7257C39.4986 25.6013 39.3217 25.5206 39.1334 25.4928C39.0533 25.4695 38.9803 25.4261 38.9212 25.3666C38.862 25.3072 38.8186 25.2336 38.7949 25.1526C38.7496 25.0392 38.6982 24.9412 38.3838 24.8462L38.275 24.5796C38.0695 24.4018 38.0121 24.6225 37.8066 24.3865C37.8761 24.316 37.5255 24.0985 37.725 24.126C37.5944 23.9891 37.4422 23.8752 37.2746 23.789C37.1854 23.7392 37.0936 23.6941 36.9996 23.6541C36.9573 23.6327 36.8817 23.602 36.8152 23.5775C36.7488 23.553 36.6913 23.5285 36.6007 23.504C36.51 23.4794 36.4133 23.458 36.3196 23.4396C36.1998 23.4319 36.0797 23.4319 35.9599 23.4396C35.8391 23.4561 35.7198 23.4827 35.6033 23.5193C35.5103 23.5524 35.4195 23.5912 35.3313 23.6357C35.1393 23.7622 34.9278 23.8554 34.7056 23.9115C34.6664 24.1597 34.2946 24.218 34.2281 24.3804C34.1888 24.3222 33.4907 24.5949 33.8533 24.3038C33.8866 24.2793 33.947 24.2639 33.9531 24.3038V24.1781C33.5088 24.0985 33.2338 24.4846 32.7713 24.5275C32.9073 24.5275 33.0736 24.506 32.9769 24.601C32.8348 24.601 32.6988 24.6378 32.5537 24.6439L32.6293 24.5397C32.4177 24.5397 32.2001 24.5397 31.9916 24.5397L32.0883 24.6531C31.786 24.601 31.6682 24.4233 31.3448 24.5796C31.1937 24.6684 31.6198 24.7512 31.3085 24.7726C30.8825 24.6875 30.4738 24.53 30.0996 24.3068C30.0693 24.4417 29.9938 24.3896 29.891 24.3681L29.9454 24.267C29.7792 24.2425 29.8064 24.172 29.8397 24.1107C29.8729 24.0494 29.9152 23.9973 29.8245 23.9698L29.8971 23.9391C29.823 23.9709 29.7461 23.9955 29.6674 24.0127C29.5525 23.9728 29.5646 23.9177 29.6009 23.8901L29.6523 23.8502C29.6523 23.8502 29.6916 23.8502 29.5435 23.8502H29.3803H29.3531H29.6553V23.8839L28.3255 22.8267H28.3557L28.5038 23.317V23.2895V23.2649L28.4887 23.2159L28.4101 23.1087L28.3889 23.0229C28.3889 23.0014 28.3889 22.98 28.3889 22.9554V22.9033V22.9432C28.3889 22.9432 28.3889 22.9953 28.3889 23.0259C28.3889 23.0566 28.3587 23.1424 28.3557 23.1148C28.3579 23.0852 28.3579 23.0555 28.3557 23.0259C28.351 23.0709 28.3408 23.1152 28.3255 23.1577C28.3431 23.1349 28.3634 23.1143 28.3859 23.0964C28.3715 23.1071 28.3583 23.1194 28.3466 23.1332C28.3383 23.1413 28.3311 23.1506 28.3255 23.1607C28.3348 23.1443 28.3471 23.1297 28.3617 23.1178C28.3617 23.1178 28.4101 23.0719 28.4433 23.0474C28.5582 22.9799 28.4766 23.0167 28.4433 23.0137C28.4796 22.9432 28.4433 22.8298 28.4433 22.6888C28.4252 22.5019 28.4191 22.2997 28.4887 22.2292C28.4957 22.0965 28.4957 21.9635 28.4887 21.8308C28.4958 21.6558 28.4505 21.4827 28.3587 21.3344C28.4645 21.4661 28.5007 21.0953 28.6247 21.2026C28.5548 21.08 28.5144 20.9425 28.5068 20.8012C28.5068 20.6265 28.5068 20.5775 28.5854 20.5836C28.6609 20.556 28.6368 20.51 28.6791 20.4488C28.7214 20.3875 28.7607 20.3446 28.9813 20.5131C29.0055 20.3721 29.2291 20.5652 29.2442 20.3813C29.5228 20.4732 29.7618 20.6593 29.9213 20.9084C29.9636 20.9574 30.0029 21.0065 30.0421 21.0463L30.1449 21.1413C30.1809 21.1776 30.2193 21.2114 30.2598 21.2424C30.3134 21.2997 30.3799 21.343 30.4535 21.3686C30.5272 21.3942 30.6059 21.4014 30.6829 21.3895C31.0516 21.7971 31.0788 22.0882 31.2874 22.3885L31.1937 22.3088L31.2843 22.4161C31.3087 22.4052 31.332 22.3918 31.3539 22.3763L31.4203 22.3119L31.5503 22.1924L31.777 21.981L32.1548 21.6377L32.4993 21.3313L32.8681 21.0249C33.0282 20.8257 32.9043 20.6112 33.2882 20.3721C33.2368 20.5407 33.3667 20.4089 33.4967 20.3017C33.4242 20.3813 33.4181 20.4304 33.6297 20.3415C33.6391 20.2957 33.6588 20.2527 33.6871 20.2159C33.6871 20.2159 33.6871 20.2159 33.7052 20.2159C33.9017 20.0136 33.8473 20.0228 33.7385 20.0933C33.7385 20.078 33.7143 20.0688 33.666 20.0749C33.9682 19.9891 34.2946 19.5631 34.4215 19.6735C35.0593 19.128 35.4371 18.6316 35.975 18.1903C36.0838 18.2179 35.9932 18.3711 35.8481 18.5121C35.975 18.4109 36.105 18.3098 36.2319 18.2056C36.2954 18.3098 36.0415 18.4171 35.9297 18.5121C36.2018 18.4221 36.4521 18.2749 36.6641 18.08C36.7751 17.9784 36.8955 17.8881 37.0238 17.8103C37.1357 17.7346 37.2671 17.6941 37.4016 17.6939C37.4115 17.6551 37.4267 17.6179 37.4469 17.5835H37.4711C37.4711 17.5314 37.5134 17.4548 37.6524 17.4395C37.7552 17.5437 37.6524 17.6908 38.0061 17.6724C38.2902 17.7674 38.7888 17.5897 39.1425 17.5131C38.949 17.5131 39.0095 17.4426 39.0911 17.3997C39.2634 17.3997 39.3661 17.4916 39.4991 17.4395L39.5233 17.5835C39.4477 17.4487 39.9676 17.4119 40.028 17.3506C40.1308 17.4518 39.7651 17.4548 39.7258 17.5376L40.7624 17.464C41.1281 17.3353 40.6899 17.3323 40.8592 17.1944C41.1899 17.1045 41.5331 17.0714 41.8747 17.0963L41.7507 16.9737C42.2042 16.8458 42.682 16.8342 43.141 16.94C47.6383 15.6254 44.0205 15.4568 44.0205 15.4568C42.2132 15.2852 41.3095 15.7173 39.1848 15.9349Z" fill="#1D1D1D"/>
<path d="M32.0631 28.7839C31.3045 28.8207 31.1926 28.1711 28.134 30.6593C25.0754 33.1476 24.8094 33.0312 24.486 34.1926C24.1626 35.354 25.1389 39.8188 25.695 39.8188C26.2511 39.8188 31.516 40.0395 31.516 40.0395L32.1205 42.1386L33.7556 43.4073C33.7556 43.4073 35.1157 49.3675 35.2245 49.8088C35.3333 50.2501 37.999 52.5116 37.999 52.5116C37.999 52.5116 41.4838 50.1949 41.4838 49.9191C41.4838 49.6433 43.2186 44.7403 43.2186 44.7403C43.2186 44.7403 47.1476 38.8352 47.1476 38.1181C47.1476 37.401 43.2186 37.1804 43.2186 37.1804C43.2186 37.1804 41.6409 31.3856 41.2057 30.9443C40.7705 30.5031 35.4904 30.6134 35.4904 30.6134C35.4904 30.6134 33.1541 28.7288 32.0631 28.7839Z" fill="white"/>
<path d="M25.0999 35.0383C25.0818 35.0933 25.0698 35.1545 25.0547 35.2125C25.0848 35.2095 25.0848 35.1636 25.0999 35.0383Z" fill="#1D1D1D"/>
<path d="M42.3118 36.4662C42.3118 36.4448 42.2937 36.4296 42.2847 36.4173C42.2756 36.4051 42.3118 36.4662 42.3118 36.4662Z" fill="#1D1D1D"/>
<path d="M24.59 32.2467C24.5175 32.308 24.448 32.3693 24.3754 32.4428C24.2994 32.5139 24.2278 32.5896 24.1609 32.6696C24.0174 32.8329 23.8936 33.0129 23.7921 33.2058C23.7089 33.3684 23.6362 33.5363 23.5745 33.7084C23.5503 33.7789 23.5231 33.8494 23.499 33.9168C23.4748 33.9842 23.4415 34.1344 23.4264 34.2232C23.3775 34.5057 23.3492 34.7915 23.3418 35.0782C23.3418 35.3264 23.3418 35.5562 23.3418 35.783C23.3603 36.2503 23.4077 36.716 23.4838 37.1773C23.5867 37.7681 23.7343 38.35 23.9251 38.9179C23.9765 39.0895 24.0248 39.2519 24.0913 39.4388C24.1888 39.7341 24.3196 40.0168 24.4812 40.2815C24.6326 40.5416 24.8524 40.7538 25.1159 40.8944C25.2519 40.9343 25.4 40.9588 25.5421 40.9894C25.6977 41.0248 25.8572 41.0392 26.0166 41.0323L28.0416 41.0568C28.6218 40.8852 29.6313 41.1151 30.3174 40.9772L30.5773 41.0997C30.6166 41.0446 30.6982 41.0078 30.7073 41.0691L30.6831 41.0997C30.7466 41.0476 30.7526 41.0997 30.7647 41.1151C30.7768 41.1304 30.7828 41.1702 30.807 41.1794H30.7768C30.7768 41.1518 30.8342 41.351 30.8765 41.4859L30.8131 41.4276C30.8856 41.59 30.9521 41.7586 31.0125 41.9241L31.0609 42.062L31.1304 42.2887L31.2664 42.7392L31.8135 43.1682L32.1157 43.4226L32.158 43.2877C32.3423 43.472 32.5381 43.644 32.7443 43.8025L32.8139 43.8546L32.8471 43.8792L32.8864 43.8975C32.9075 43.9159 32.9499 43.919 32.9619 43.9435C33.0812 44.2761 33.1485 44.6256 33.1614 44.9793H33.1282C33.775 46.2479 33.3881 47.1703 34.0349 48.4819C33.9533 48.3195 33.9835 48.5738 33.9503 48.5677C34.0292 48.8675 34.123 49.1631 34.2313 49.4533C34.3281 49.6923 34.4369 49.8486 34.5698 49.8455C34.5698 49.9283 34.6061 50.0018 34.6242 50.0662C34.6509 50.1147 34.6722 50.1661 34.6877 50.2194C34.7154 50.2739 34.7367 50.3315 34.7512 50.391C34.7512 50.4676 34.7179 50.4829 34.7058 50.5565C34.7482 50.5197 34.8993 50.6392 35.0232 50.7373C35.1471 50.8354 35.3073 50.9794 35.4463 51.1111L35.2892 51.0161C35.5612 51.2736 35.8332 51.5126 36.1082 51.7455V51.439C36.486 51.8711 36.0387 51.7455 36.48 52.0519L36.5918 51.911C36.9424 52.2634 37.3776 52.8517 37.9488 53.5075C38.1634 53.4156 38.4082 53.3053 38.6923 53.1551L39.4328 52.6648L39.9164 52.3277C40.2388 52.0989 40.5591 51.8599 40.8775 51.6106C41.0377 51.485 41.1979 51.3594 41.358 51.2245C41.5182 51.0897 41.6603 50.9886 41.9202 50.722C42.0447 50.6132 42.1474 50.481 42.2224 50.3328C42.2751 50.1882 42.3165 50.0396 42.3464 49.8885L42.4189 49.6035L42.4945 49.3246C42.706 48.5738 42.9387 47.823 43.1896 47.0998C43.3135 46.7352 43.4465 46.3797 43.5825 46.0334C43.655 45.8588 43.7246 45.6872 43.7971 45.5186L43.9059 45.2673C43.924 45.2306 43.9482 45.1693 43.9603 45.1539L43.9875 45.1141L44.0298 45.0773C44.0721 45.0773 44.1447 45.0773 44.2021 45.0589C44.3955 45.1202 44.4046 44.2193 44.6161 44.2254L44.728 43.8883C44.8096 43.8271 44.9516 43.6769 44.8942 43.8454C45.0077 43.6945 45.0862 43.5196 45.1239 43.3337L45.408 43.1161C46.1575 42.1079 46.5263 41.0875 47.2214 39.9506L47.3091 39.8372C47.3393 39.7912 47.3574 39.7729 47.4088 39.6901C47.4995 39.5492 47.5871 39.3837 47.6808 39.2366C47.8727 38.924 48.0021 38.5763 48.0616 38.2131C48.0879 38.0425 48.0734 37.8681 48.0193 37.7044C47.9552 37.5312 47.8517 37.3758 47.7171 37.2509C47.4059 36.9802 47.0329 36.7927 46.6321 36.7054C46.4175 36.6441 46.1878 36.5981 45.9853 36.5614H45.9067H45.8553H45.7495L45.544 36.5338C45.272 36.5031 45.006 36.4817 44.7431 36.4664L44.3592 36.448H44.1719C44.1467 36.4455 44.1214 36.4455 44.0963 36.448L43.8273 36.4786C43.7962 36.4282 43.7679 36.376 43.7427 36.3223C43.7018 36.2554 43.6674 36.1846 43.6399 36.1109C43.5916 35.9791 43.5402 35.8228 43.4949 35.6757C43.4012 35.3693 43.3196 35.0629 43.244 34.7564C43.0899 34.1435 42.9418 33.4878 42.8148 32.8381C42.7423 32.5133 42.6637 32.1885 42.5791 31.8606L42.437 31.3672L42.3312 31.0608C42.2866 30.9285 42.2268 30.8019 42.1529 30.6838C42.042 30.4318 41.8601 30.2185 41.6301 30.071C41.3852 29.9453 41.1201 29.8653 40.8473 29.835L40.6448 29.8074H40.5118H40.2579C40.0917 29.8074 39.9315 29.8074 39.7713 29.8074C39.669 29.7862 39.5626 29.8002 39.4691 29.8473C38.7074 29.7982 37.9579 29.7768 37.2084 29.7645H36.7066H36.1566H35.8815H35.7667L35.6972 29.7185L35.6609 29.694L35.5612 29.6266C35.4101 29.5224 35.2589 29.4182 35.0957 29.3202C34.7789 29.1202 34.4521 28.9372 34.1165 28.7716C33.5817 28.4688 32.9791 28.3106 32.3665 28.312C32.1368 28.3488 32.016 28.4162 32.028 28.4959C32.0401 28.5755 32.152 28.6491 32.3303 28.7747C33.077 29.3313 33.7656 29.9638 34.3855 30.6624H34.316L35.2227 31.4224H36.0085C36.1717 31.4224 36.3288 31.4224 36.48 31.4009C36.7857 31.3771 37.0889 31.328 37.3867 31.2538C37.5166 31.5174 38.375 31.2906 38.65 31.3886L38.6228 31.4101C38.9878 31.3409 39.3633 31.3535 39.723 31.4469C39.9043 31.4806 40.0796 31.5204 40.2488 31.5419C40.347 31.5746 40.4529 31.5746 40.5511 31.5419C40.5329 31.5603 40.4967 31.6277 40.4483 31.6246C40.5269 31.6246 40.6599 31.6246 40.6841 31.7135C40.7023 31.7461 40.7101 31.7837 40.7063 31.8211C40.7025 31.8584 40.6873 31.8936 40.6629 31.9219C40.8896 32.452 41.1102 33.1721 41.3278 33.8218C41.4922 34.3791 41.7162 34.9165 41.9958 35.4245L41.9414 35.3846C42.2255 35.7769 42.1257 35.9485 42.3464 36.4173C42.3464 36.4449 42.3464 36.4939 42.3282 36.4909C42.4211 36.6716 42.4979 36.8603 42.5579 37.0547C42.6335 37.2754 42.6969 37.5266 42.7695 37.7657L43.5402 37.8239L43.8696 37.8484H44.0117H44.0963L44.1114 37.9526C44.4288 37.9771 44.7461 38.0078 45.0604 38.0445L44.7129 37.974C44.7914 37.8423 44.9667 37.9097 45.2055 38.0016C45.3352 38.0585 45.4685 38.1066 45.6045 38.1457C45.6887 38.1767 45.7798 38.183 45.8674 38.164C45.9673 38.1825 46.0697 38.1825 46.1696 38.164C46.3259 38.1501 46.4833 38.1689 46.6321 38.2192C46.765 38.2989 46.765 38.4153 46.759 38.5256C46.7413 38.6709 46.6813 38.8074 46.5867 38.9179C46.5867 39.0619 46.5625 38.9914 46.5263 38.9393C46.49 38.8872 46.4386 38.8505 46.3993 39.0313C46.2603 38.9822 46.3993 38.8627 46.2361 38.8995C46.2275 38.9338 46.2143 38.9668 46.1968 38.9976L46.1334 39.1017C46.0729 39.1906 46.0064 39.2703 45.9399 39.353C45.7799 39.5404 45.6503 39.7525 45.5561 39.9812L45.4473 39.9445C45.2206 40.7259 44.5406 41.1243 44.4378 41.6728C44.0842 42.4082 43.8696 41.9486 43.5976 42.779L43.2954 42.969C43.0778 43.2601 43.2954 43.2908 43.0294 43.5819C42.9629 43.5084 42.6909 43.9619 42.7272 43.7137C42.6646 43.7806 42.6061 43.8512 42.5519 43.9251C42.5065 43.9833 42.4219 44.109 42.3252 44.2561L42.2436 44.4951L42.2013 44.6422C42.1741 44.7341 42.1499 44.8261 42.1227 44.9211C42.0743 45.111 42.023 45.3041 41.9686 45.5033C41.8508 45.9329 41.6781 46.3449 41.4548 46.7291C41.5424 47.0355 41.2432 47.5748 41.3127 47.8077C41.222 47.8077 40.9107 48.9661 40.9591 48.2551C40.9591 48.1938 41.0014 48.0958 41.0286 48.1142L40.95 48.0008C40.7671 48.275 40.654 48.5908 40.6206 48.9201L40.5843 49.1683C40.5843 49.2082 40.5843 49.2572 40.5843 49.2878V49.3369C40.5843 49.3767 40.5843 49.392 40.5843 49.4104C40.5813 49.4192 40.5766 49.4273 40.5703 49.4342C40.5641 49.441 40.5565 49.4465 40.5481 49.4502C40.5753 49.4486 40.6016 49.439 40.6236 49.4227C40.6387 49.4227 40.6538 49.4227 40.6841 49.4564C40.6647 49.4817 40.6412 49.5035 40.6146 49.5207L40.4725 49.631C40.4725 49.5789 40.4937 49.533 40.5027 49.4839C40.2821 49.6402 40.0282 49.8088 39.7774 49.9712L39.9466 49.9896C39.5537 50.2041 39.3119 50.1305 38.9946 50.5596C38.8586 50.7679 39.4298 50.4431 39.0611 50.7465C38.8435 50.8629 38.5775 50.9978 38.2964 51.1449C38.2513 51.1673 38.2016 51.1788 38.1513 51.1786H38.0818L38.0304 51.0989C38.0002 51.246 37.9639 51.2092 37.9065 51.1939L37.9639 51.0958C37.9511 51.0997 37.9375 51.0997 37.9247 51.0958L37.837 51.0345C37.7957 51.0034 37.7581 50.9674 37.7252 50.9273C37.6872 50.8815 37.6649 50.8246 37.6617 50.7649C37.6617 50.6668 37.6436 50.5657 37.3081 50.342H37.4139L37.1116 50.3757C36.7731 50.2133 36.7459 50.103 36.7036 49.9957C36.6613 49.8884 36.6009 49.7781 36.2442 49.6218C36.347 49.7199 36.3258 49.7904 36.2442 49.7965C36.1941 49.7971 36.1449 49.7833 36.1022 49.7567C36.073 49.7379 36.0457 49.7164 36.0206 49.6923L35.9843 49.6525L35.9662 49.6433C36.0051 49.6288 36.0457 49.6195 36.0871 49.6157C36.0566 49.5917 36.0231 49.5721 35.9873 49.5575C35.9749 49.5521 35.9642 49.5432 35.9567 49.5317C35.9492 49.5203 35.9451 49.5069 35.945 49.4931C35.9623 49.4983 35.9806 49.4987 35.9981 49.4944C36.0156 49.4901 36.0317 49.4812 36.0448 49.4686C36.0546 49.4554 36.0627 49.441 36.0689 49.4257C36.0705 49.4156 36.0705 49.4052 36.0689 49.3951V49.3736V49.3185L36.1143 49.3644H36.1505C36.1743 49.3705 36.1993 49.3705 36.2231 49.3644C36.2049 49.3644 36.1838 49.3644 36.1656 49.3399C36.1475 49.3154 36.1112 49.2511 36.084 49.2082L35.9148 48.9293C35.9148 48.4359 35.6126 47.7342 35.7153 47.5043C35.7153 47.5043 35.5582 46.487 35.3436 46.297C35.4917 46.4747 35.404 45.9109 35.5582 46.0396C35.3111 45.6471 35.1752 45.1934 35.1652 44.728L35.1924 44.7832C35.1612 44.512 35.1096 44.2436 35.0383 43.9803C34.9446 43.6401 34.8509 43.3153 34.7602 42.9935C34.7602 42.7453 34.5033 42.6657 34.3432 42.5278L33.917 42.2213C33.7152 42.0734 33.5261 41.9083 33.3518 41.7279C33.3307 41.7954 33.2249 41.7279 33.1221 41.6758L33.0466 41.6391C33.0194 41.6391 33.0254 41.6391 33.0103 41.6391C32.9854 41.6558 32.9656 41.6791 32.9529 41.7065C32.909 41.6961 32.8672 41.6785 32.829 41.6544C32.8147 41.6158 32.8045 41.5757 32.7987 41.5349V41.5012L32.7806 41.4215L32.7534 41.2683C32.7171 41.066 32.6899 40.876 32.6537 40.7075V40.6431L32.6295 40.539L32.5721 40.3459C32.5379 40.231 32.4965 40.1184 32.4481 40.0088C32.3575 39.8127 32.2547 39.6809 32.1248 39.6503C32.0976 39.5645 32.0734 39.4848 32.0552 39.4113C31.993 39.395 31.9291 39.3858 31.8648 39.3837C31.7629 39.3715 31.6619 39.3521 31.5626 39.3255C31.4041 39.2728 31.2412 39.2349 31.076 39.2121L31.2755 39.1906H30.0212C29.7552 39.1906 29.5195 39.1753 29.178 39.1569C28.8364 39.1937 28.779 39.4358 28.1745 39.353C28.371 39.2642 28.1232 39.2734 27.8965 39.2642C28.0416 39.2642 28.0869 39.2213 27.7877 39.1447C27.736 39.1736 27.6797 39.1933 27.6214 39.2029C27.6214 39.2029 27.6063 39.2029 27.6214 39.1784C27.2406 39.1967 27.3192 39.2305 27.4824 39.2519C27.4824 39.2519 27.4824 39.2856 27.5429 39.3132C27.15 39.1722 26.4458 39.2795 26.3974 39.114C26.339 39.1102 26.2805 39.1102 26.2221 39.114C26.1647 39.114 26.0921 39.1477 26.0438 39.114C25.9548 39.0411 25.8791 38.9529 25.8201 38.8535C25.7708 38.7731 25.7274 38.6891 25.6902 38.6023C25.6418 38.5011 25.5995 38.4031 25.5572 38.2958C25.4682 38.0878 25.3906 37.875 25.3245 37.6584C25.3819 37.5358 25.5028 37.732 25.6025 37.9649C25.539 37.7565 25.4756 37.5481 25.4182 37.352C25.539 37.3305 25.5693 37.7044 25.6448 37.8913C25.6185 37.4868 25.5309 37.0889 25.3849 36.7115C25.2329 36.3029 25.167 35.8666 25.1915 35.4306L25.0827 35.2559V35.2008C25.0313 35.2008 24.9527 35.0138 24.9346 34.8943C25.0434 34.7809 25.1673 34.8943 25.1854 34.5205C25.2013 34.4928 25.2155 34.4642 25.2277 34.4347C25.2277 34.4347 25.2277 34.4132 25.2277 34.401C25.2277 34.3887 25.2277 34.3581 25.2489 34.3335C25.2791 34.2293 25.3003 34.1221 25.3245 34.0271C25.3586 33.841 25.4375 33.6663 25.5542 33.5184C25.394 33.6563 25.397 33.5674 25.4363 33.4755C25.5753 33.3315 25.7385 33.3315 25.8443 33.1875L25.9501 33.2855C25.7929 33.2365 26.3188 32.8013 26.3551 32.7002C26.5243 32.7002 26.1284 33.0067 26.1345 33.0925L27.2013 32.2252C27.5278 31.8299 27.0442 32.1731 27.156 31.9188C27.4723 31.5802 27.8263 31.2799 28.2108 31.024H28.0174C28.4334 30.5448 28.9497 30.1658 29.5286 29.9147C29.9452 29.451 30.4149 29.0395 30.9279 28.6889C31.1203 28.5748 31.3311 28.496 31.5505 28.456C31.6856 28.4399 31.8178 28.4049 31.9434 28.3518C32.0764 28.266 32.2003 28.171 32.2033 28.0975C32.2064 28.0239 32.1489 27.9626 32.0371 27.9106C31.9602 27.8181 31.8528 27.7572 31.7349 27.7389C31.4401 27.6542 31.1308 27.6354 30.8282 27.6838C30.6985 27.7025 30.5703 27.7302 30.4443 27.7665C30.3502 27.7913 30.2574 27.821 30.1663 27.8554C30.0859 27.8824 30.0072 27.9141 29.9305 27.9504C29.3632 28.1888 28.8272 28.4976 28.3347 28.8697C27.9376 29.1795 27.5591 29.5131 27.2013 29.8687L26.08 30.9229L25.4151 31.5357C25.1582 31.738 24.8983 31.9525 24.59 32.2467Z" fill="#1D1D1D"/>
<path d="M43.5211 54.9876L43.1523 55.2144C43.1856 55.2297 43.2823 55.1776 43.5211 54.9876Z" fill="#1D1D1D"/>
<path d="M33.9492 7.87246H34.0523C34.0181 7.86689 33.9833 7.86689 33.9492 7.87246Z" fill="#1D1D1D"/>
<path d="M28.1074 59.0725C28.1421 59.0681 28.1764 59.062 28.2105 59.0541L28.1074 59.0725Z" fill="#1D1D1D"/>
<path d="M46.015 50.2347C44.6791 51.8045 43.1351 53.1792 41.4271 54.3195C41.0705 54.5616 40.7138 54.8068 40.327 55.0366L39.7406 55.3982L39.1059 55.7567C38.6798 56.0141 38.1992 56.2409 37.6854 56.5167C37.1716 56.7925 36.5974 57.0468 35.9506 57.3042C34.6921 57.7994 33.399 58.1989 32.082 58.4994C30.7734 58.7918 29.4448 58.9834 28.1076 59.0724C27.7517 59.1333 27.3923 59.1712 27.0316 59.1858C26.6327 59.2011 26.1975 59.1858 25.7562 59.1858C25.3149 59.1858 24.8676 59.1153 24.4385 59.0938C24.0093 59.0724 23.6013 59.0142 23.2295 59.0111C23.0452 58.956 22.8668 58.8763 22.6885 58.8089C22.4346 58.7905 22.1626 58.766 21.8906 58.7261C21.627 58.6759 21.3674 58.6063 21.1139 58.5177L21.1532 58.4932C20.7783 58.4478 20.4081 58.3688 20.047 58.2573L19.2309 58.0336L19.2702 58.0121L18.3998 57.7271H18.563C17.3266 57.3633 16.1382 56.8488 15.0238 56.1949L15.048 56.3573C13.963 55.6648 13.2104 55.2204 12.5062 54.7455C12.1418 54.5134 11.7907 54.2607 11.4544 53.9886C11.2761 53.8445 11.0917 53.6821 10.9013 53.5289C10.7109 53.3757 10.5235 53.1642 10.321 52.9558H10.3664C9.33639 52.2119 8.43554 51.2996 7.70067 50.2561C7.00855 49.3 6.3527 48.3225 5.42484 47.109C5.65756 47.4154 5.39764 46.9343 5.44599 46.9404C4.68738 45.7668 4.07082 44.397 3.82601 44.4889C3.69227 44.2468 3.59931 43.9837 3.55098 43.7105C3.55098 43.6064 3.59027 43.6033 3.61142 43.5236C3.51471 43.5696 3.12482 42.7606 2.88001 41.9914L3.03718 42.3285C2.77121 41.6084 2.55058 40.8698 2.3511 40.1252C2.31181 40.2907 2.28159 40.4562 2.25439 40.6216C2.01864 39.3959 2.43271 40.2539 2.11838 39.1201L1.94611 39.1691C1.87962 38.7493 1.8373 38.3662 1.80708 38.0077C1.77686 37.6492 1.78894 37.309 1.78592 36.9719C1.7829 36.6348 1.80406 36.3039 1.82521 35.9515C1.84637 35.5991 1.84939 35.2313 1.87961 34.8207C1.76872 31.3627 2.30507 27.9147 3.46031 24.6592C4.57893 21.4885 6.4057 18.6232 8.79778 16.2872L9.08188 16.18C9.18767 16.2014 9.44154 15.849 9.71356 15.4874C9.98557 15.1258 10.2757 14.7581 10.4268 14.7489L10.9165 14.2004C11.1008 14.0992 11.4605 13.8602 11.2187 14.1207C11.5272 13.8798 11.8181 13.6166 12.0891 13.3331L12.745 13.0267C13.8572 12.3157 14.8878 11.6661 15.9819 11.0747C17.1247 10.4587 18.3242 9.95781 19.5634 9.57923C21.6665 9.05729 23.8104 8.722 25.9708 8.57717C27.1636 8.50336 28.3597 8.50438 29.5523 8.58024C30.1235 8.64153 30.6827 8.66911 31.1995 8.75797L31.9581 8.86829L32.6562 9.00312C35.189 9.42908 37.7701 10.6273 40.064 12.1901C42.358 13.7529 44.3709 15.7111 46.1631 17.6202C46.2819 17.7877 46.4245 17.9365 46.5863 18.0615C47.5689 19.3296 48.4311 20.6891 49.1613 22.1218L49.2641 22.37C49.3366 22.5202 49.4545 22.7316 49.5663 23.0074L50.0076 23.9819C50.1557 24.3619 50.3098 24.7787 50.5002 25.2077C50.8538 26.1765 51.1564 27.1636 51.4069 28.1648C51.6789 29.1914 51.8542 30.2272 52.0114 31.1312C52.1686 32.0352 52.2502 32.8043 52.3136 33.3161C52.3771 33.8279 52.495 34.0699 52.6008 33.929C52.6868 33.7539 52.743 33.5653 52.767 33.3713C52.8505 32.9519 52.903 32.5268 52.9241 32.0995C52.9241 31.8207 52.9604 31.5081 52.9695 31.1557C52.9786 30.8033 52.9695 30.4202 52.9513 29.9943C52.9332 29.5683 52.8909 29.1087 52.8516 28.603C52.8123 28.0974 52.7277 27.555 52.6249 26.9728L52.7005 27.0831C52.5373 26.3997 52.3983 25.7777 52.2048 25.2138C52.0114 24.65 51.8391 24.1382 51.6487 23.654C51.4583 23.1699 51.2286 22.7347 51.014 22.3057C50.7994 21.8767 50.5304 21.4814 50.2675 21.0799C50.3068 20.8838 50.0287 20.3751 49.7084 19.8542C49.388 19.3332 48.989 18.7939 48.8258 18.5089L48.8772 18.5457C48.312 17.8991 47.8224 17.1759 47.2965 16.4772C46.8024 15.7774 46.2236 15.1433 45.5738 14.5895C45.7344 14.6317 45.8768 14.7265 45.9788 14.8592C45.1204 14.0165 43.845 12.993 43.8631 12.8244C42.634 11.8212 41.3191 10.931 39.9341 10.1645C38.792 9.50799 37.5737 8.99843 36.3072 8.64765H36.4402C36.0467 8.56313 35.659 8.45258 35.2797 8.3167C35.1134 8.26154 34.9472 8.19412 34.7477 8.13284C34.5482 8.07155 34.3185 8.01945 34.0375 7.95816C33.9831 7.92139 33.9045 7.88768 33.9196 7.88462C33.6415 7.83865 33.3151 7.78043 32.9313 7.70995C32.5474 7.63947 32.1727 7.53834 31.7828 7.47092C31.1258 7.33115 30.4604 7.23493 29.7911 7.18287L29.7427 7.07562C28.9992 7.01433 28.2527 6.95304 27.5062 6.9561C27.7842 6.97143 28.0623 6.98062 28.3403 7.00513C28.1892 7.13078 27.7721 7.08481 27.1828 7.00513C26.8529 6.9631 26.5208 6.94161 26.1884 6.94078C25.7994 6.93011 25.4104 6.96092 25.0278 7.03271C24.2568 7.10063 23.4984 7.2738 22.7731 7.54753C22.4044 7.68237 22.0357 7.81414 21.6639 7.92139C21.297 8.0471 20.9197 8.13939 20.5366 8.19719C19.8475 8.50363 21.1169 7.82639 20.0681 8.19719C19.9926 8.06235 20.5457 7.97042 20.2404 7.93058C19.2037 8.29831 18.4542 8.27993 17.2181 8.87442L17.1274 8.78862C15.5558 9.63746 14.0083 10.0787 13.0835 10.8693C12.6817 11.1883 12.2382 11.4492 11.7657 11.6446C11.5907 11.7199 11.4227 11.8112 11.264 11.9174C11.1643 11.9848 11.0494 12.0706 10.9165 12.1778C10.7835 12.2851 10.6414 12.4322 10.4691 12.6038L9.78911 12.9531C9.1514 13.4833 9.45666 13.4833 8.73734 14.041C8.71014 13.9276 7.84876 14.7918 8.17216 14.3474C7.77016 14.6911 7.39432 15.065 7.04784 15.466C6.70027 15.8766 6.3527 16.3056 6.01117 16.7683C5.3251 17.6876 4.65111 18.702 3.82601 19.8143C3.70317 20.2245 3.53486 20.6193 3.3243 20.9911C3.13477 21.331 2.98177 21.6906 2.86792 22.0636C2.65501 22.4111 2.46908 22.7748 2.31181 23.1515C2.24849 23.2971 2.17579 23.4384 2.0942 23.5744C2.067 23.6019 2.07305 23.4702 2.19092 23.0963C2.23323 22.9676 2.33297 22.7531 2.35412 22.7899L2.32995 22.5723C1.49275 23.939 1.34768 25.2843 0.921529 26.7767C1.08171 26.3385 1.22376 25.744 1.19959 26.1638C1.06962 26.6265 0.918507 27.0831 0.815746 27.5581L0.791568 27.2516L0.5256 28.3027C0.440975 28.6521 0.377505 29.0106 0.304969 29.363L0.468176 29.0903C0.407729 29.3477 0.347282 29.5622 0.289857 29.7583C0.232432 29.9544 0.190119 30.1107 0.147806 30.2946C0.0408593 30.7405 0.00615289 31.2011 0.0450462 31.6583C0.0934039 32.2037 0.274745 30.6746 0.226387 31.787C0.181052 32.1394 0.120605 32.5316 0.0964262 32.9545C0.0722474 33.3774 -0.000289099 33.8309 0.0148227 34.2967C-0.019881 35.2382 0.00636906 36.181 0.0934039 37.119C0.202209 36.9352 0.256611 37.4255 0.347282 37.9096L0.241499 37.9985C0.477243 38.9178 0.453064 39.1139 0.416796 39.3009C0.380527 39.4878 0.353326 39.6717 0.625338 40.591L0.510489 40.4439C0.628361 40.591 0.734143 40.7503 0.858059 40.876C1.54111 42.4603 0.858059 41.8505 1.76477 43.5512C1.48671 42.8556 1.86753 43.1375 2.15767 44.0078L1.9854 43.8209C2.19092 44.2867 2.28763 44.4337 2.40853 44.7402C2.23323 44.4858 2.19696 44.6575 2.52338 45.3531L2.19092 44.9486C2.44782 45.3561 2.69263 45.7637 2.97371 46.1529C3.08479 46.4369 3.20987 46.7151 3.34848 46.9864C3.50262 47.2714 3.67187 47.5594 3.82601 47.8322C4.08974 48.2179 4.31644 48.6284 4.50302 49.0579C4.50302 49.0579 4.57555 49.1866 4.70552 49.3644C4.83548 49.5421 5.00775 49.8087 5.19816 50.0814C5.51191 50.5349 5.88049 50.9467 6.29527 51.3072C5.90539 51.0008 6.72143 52.0304 6.38594 51.8312C7.17743 52.5205 7.92448 53.2605 8.62249 54.0468L8.51368 53.961C9.35278 54.8213 10.2856 55.582 11.2942 56.2286C12.201 56.8415 13.1409 57.3747 14.1473 58.0305C14.1141 57.862 15.1991 58.5085 14.9966 58.2113L15.8217 58.5698L16.5894 58.9284C17.0941 59.1398 17.5505 59.3788 17.9827 59.5413C18.3597 59.7032 18.7488 59.8344 19.1463 59.9335C19.4383 60.0072 19.7428 60.0146 20.0379 59.9549C20.4104 60.0382 20.7769 60.1467 21.135 60.2798C21.3644 60.3821 21.602 60.4641 21.8453 60.5249L21.5763 60.5065L22.885 60.7149L23.8763 60.8283C24.1785 60.8712 24.4626 60.8835 24.783 60.911C25.1034 60.9386 25.4147 60.9723 25.8015 60.9815C26.5753 60.9447 26.7083 60.7302 28.0683 60.7425C27.6271 60.8467 28.1892 60.8375 28.703 60.7854C28.3766 60.8252 28.2738 60.8681 28.9539 60.8835C29.0759 60.841 29.2013 60.8092 29.3286 60.7885C29.3286 60.7885 29.3649 60.7885 29.3498 60.813C30.2051 60.6965 30.051 60.6659 29.652 60.7088C29.6732 60.7088 29.652 60.6781 29.51 60.6598C30.0417 60.6554 30.5723 60.6083 31.0967 60.5188C31.6105 60.4299 32.0306 60.3625 32.1001 60.433C33.2293 60.1875 34.3355 59.8441 35.4066 59.4064C35.6514 59.3084 35.8932 59.2164 36.132 59.1L36.8331 58.7752C37.3076 58.5729 37.758 58.3155 38.2416 58.0826C38.4954 58.0611 38.0723 58.3369 37.5162 58.6281C37.9756 58.4044 38.441 58.196 38.8823 57.9416C38.9034 57.9999 38.7161 58.1163 38.4713 58.2481C38.2264 58.3798 37.9151 58.5024 37.7066 58.6127C38.1493 58.4698 38.5774 58.2841 38.9851 58.0581C39.1936 57.9478 39.4021 57.8283 39.6107 57.7087C39.8192 57.5892 40.0187 57.4452 40.2152 57.3134C41.0433 56.7802 41.8502 56.1612 42.769 55.6035C42.8718 55.4932 42.9655 55.3675 43.0713 55.2511L43.1801 55.1867C43.1438 55.1469 43.4823 54.7945 43.712 54.5739C44.0143 54.4605 43.851 54.7792 44.6459 54.0713C45.0865 53.7368 45.4917 53.3568 45.8549 52.9375C46.2629 52.4533 46.686 51.9415 47.0124 51.4972C46.6135 51.9354 46.6951 51.7485 46.8311 51.5309C47.1726 51.1264 47.4537 50.9671 47.6653 50.6116L47.8073 50.6606C47.6894 50.7035 47.8768 50.4032 48.1095 50.0753C48.2864 49.8139 48.4488 49.5428 48.5961 49.2632C48.853 49.0763 48.2032 49.9956 48.1791 50.1458C48.7835 49.2724 48.9467 49.0549 49.0858 48.8281L49.3517 48.4021C49.4726 48.203 49.654 47.9272 49.9169 47.4583C50.3824 46.4133 49.6963 47.5686 49.8565 47.0324C50.3249 46.1498 50.6513 45.2305 51.1833 44.2162C51.0986 44.3142 51.008 44.4062 50.9203 44.4981C51.558 42.7422 51.8754 41.685 52.3318 40.5144C52.5671 39.1619 52.6814 37.7906 52.6733 36.4173C52.6521 35.9055 52.6431 35.4734 52.6068 35.1149C52.5705 34.7564 52.5252 34.4652 52.4859 34.2385C52.3227 33.3192 52.1655 33.3896 52.0598 33.8891C51.954 34.3886 51.8482 35.2651 51.7213 36.0342C51.6729 36.4173 51.6064 36.7666 51.5611 37.021C51.5157 37.2753 51.4916 37.4377 51.4916 37.4377C51.2316 38.7094 50.9747 39.8157 50.6665 40.8423C50.3582 41.8688 50.062 42.828 49.6842 43.8025C48.8058 46.1305 47.5672 48.3018 46.015 50.2347Z" fill="#1D1D1D"/>
<path d="M8.71921 13.8113L8.66797 13.8632C8.69208 13.8632 8.71017 13.851 8.71921 13.8113Z" fill="#1D1D1D"/>
<path d="M7.0842 13.1493C7.02073 13.8786 6.78196 14.0686 6.87566 14.8225C6.87416 15.1946 6.89942 15.5664 6.95122 15.9349C7.14162 16.1003 6.95122 16.3945 7.11442 16.5937L7.00562 16.6703C7.06002 16.7377 7.09931 16.8174 7.03887 16.8848H7.00864C7.09025 16.986 7.04189 17.0993 7.08118 17.1514H7.05095V17.2771L7.00864 17.2556C7.08583 17.4177 7.10403 17.6022 7.06002 17.7766H7.193C7.04491 18.1228 7.31692 18.2485 7.14162 18.558H7.1114C7.45897 18.9502 6.87566 19.1709 7.20509 19.5815C7.16278 19.5325 7.13558 19.603 7.10536 19.5999C7.14163 19.7868 7.16278 19.9829 7.40759 19.986C7.40759 20.1239 7.32599 20.0994 7.22625 20.1147C7.3411 20.1147 7.38644 20.2342 7.3955 20.3384L7.35017 20.2894L7.38946 20.5958L7.60405 20.5376C7.54058 20.6969 7.3411 20.5774 7.3955 20.7337H7.5708C7.53755 20.9574 7.26856 21.0861 7.1386 21.3037C7.06304 22.1985 7.51337 23.1607 7.20207 23.9973L7.06909 24.0341C6.87566 24.0341 7.35621 24.2639 7.17789 24.2946L7.26554 24.3926C7.22927 24.4202 7.193 24.4754 7.15069 24.4294C7.15069 24.5183 7.17487 24.5213 7.2323 24.5857L7.1114 24.6807C7.01771 25.0361 7.25043 25.3365 7.20509 25.7072C6.95726 26.1546 7.18394 26.9974 7.31692 27.4815C7.61916 28.1649 6.83334 28.9586 7.1658 29.6573C7.1386 29.6787 7.19905 29.7369 7.22021 29.7369L7.20812 30.3376C7.20812 30.3376 7.13558 33.4357 8.7465 31.0822H8.78881C8.89157 30.7329 8.91272 30.5122 8.70116 30.2701C8.96108 30.2334 8.72534 29.9821 8.80996 29.9024H8.83112C8.63165 29.6879 9.00037 29.4642 8.83112 29.2589C8.85228 29.2589 8.92481 29.2589 8.92784 29.3171C8.89459 29.167 8.83717 28.9616 8.98828 28.9524C8.94899 28.5939 9.01851 28.0944 8.77672 27.8646H8.81903C8.65582 27.7328 8.79485 27.696 8.71325 27.5581C8.73138 27.5581 8.74045 27.5398 8.74952 27.5581C8.58933 27.4141 8.72534 27.1414 8.65582 27.028H8.75556L8.73441 26.7461L8.71325 26.8503C8.43519 26.8135 8.88552 26.6358 8.71325 26.4304C8.7465 26.2374 8.13598 26.0413 8.27199 25.8421C8.14202 25.7471 8.48355 25.9248 8.38079 25.7839C8.52586 25.7839 8.47448 25.8482 8.58933 25.8114C8.51982 25.6735 8.73743 25.5816 8.63769 25.41H8.75254C8.544 25.1832 8.90063 24.984 8.70418 24.8339C8.61049 24.6041 9.03664 24.6807 8.81601 24.4386L8.97015 24.3436C8.99433 24.2394 8.78276 24.27 8.8553 24.1567C8.95201 24.1567 8.93388 24.0096 9.02455 24.077C9.17567 23.8165 8.80996 23.5499 9.06686 23.2098C8.87948 23.1331 8.98828 22.9615 8.84926 22.9033C8.93086 22.9033 8.84926 22.5601 9.03966 22.7532C9.03966 22.7532 9.03966 22.7991 9.01851 22.7961L9.13033 22.8206C9.33888 22.6245 9.01548 22.4651 9.04571 22.272C9.00944 22.3303 9.02153 22.4069 8.94295 22.3548V22.1771L9.03664 22.2138L9.09104 21.9472L8.97619 21.984C9.03664 21.8522 9.23309 21.8063 9.06686 21.6592C8.97619 21.5918 8.91272 21.7817 8.87646 21.6438C8.98021 21.4347 9.05836 21.2134 9.10918 20.985C8.97922 21.0065 8.98224 20.9452 8.95504 20.8839H9.06989C8.91272 20.6479 9.31772 20.7981 9.1938 20.5774L9.27238 20.5989L9.03664 20.5345C8.81299 20.3231 9.26936 20.4211 8.9641 20.1852C8.98224 20.2802 8.71627 20.2312 8.76463 20.1147L8.87343 20.1454C8.84926 20.081 8.80392 20.0595 8.8281 20.0166C8.88552 20.0565 8.98526 20.0381 8.96713 19.9431L9.10313 20.0075L8.90366 19.8297C9.02153 19.6949 8.87343 19.4804 9.02757 19.4222C9.02757 19.4222 9.10313 19.1157 8.93388 19.0636C9.03966 19.1218 9.07895 18.9594 9.19985 19.0054C9.08198 18.9318 8.98526 18.699 9.1122 18.6162L9.12731 18.6346C9.25425 18.3036 8.94899 18.0677 9.10616 17.7704C8.97619 17.7704 9.04571 17.6264 8.87948 17.6663C8.71325 17.3598 9.22101 17.1024 8.70116 16.9921C8.67396 16.8511 8.82508 16.8266 8.84926 16.7531L8.87646 16.7868C8.84013 16.6116 8.82893 16.432 8.84321 16.2536C8.79183 16.1555 8.54097 16.1402 8.61049 15.9686C8.70418 16.0237 8.68605 15.9686 8.68605 15.8858C8.70116 15.9287 8.73743 15.941 8.8009 15.8552C8.7767 15.8447 8.75505 15.829 8.73743 15.8092C8.7452 15.8061 8.75383 15.8061 8.76161 15.8092C8.72836 15.6989 8.69814 15.7173 8.68605 15.7694C8.66441 15.7682 8.64305 15.7747 8.6256 15.7878C8.74952 15.6744 8.6256 15.4813 8.78276 15.4568C8.71078 15.1731 8.6199 14.8946 8.51075 14.6233C8.55082 14.613 8.59327 14.6192 8.6289 14.6404C8.66454 14.6616 8.6905 14.6962 8.70116 14.7367L8.67094 14.5436C8.79183 14.5436 8.74045 14.6539 8.76463 14.7152C8.96108 14.4823 8.56818 14.2402 8.76463 13.9706L8.66791 13.9154L8.68605 13.897C8.65691 13.8929 8.62914 13.8819 8.60498 13.8648C8.58083 13.8478 8.56097 13.8252 8.54702 13.799C8.6528 13.7591 8.79183 13.799 8.78579 13.6672C8.88855 13.563 8.73441 13.3608 8.67698 13.229C8.65885 13.3025 8.60142 13.278 8.56515 13.2474C8.52889 13.2167 8.66489 13.1432 8.61956 13.0911H8.76463C8.62862 13.1156 8.61956 12.9164 8.55911 12.8919C8.66489 12.8521 8.64978 12.9961 8.73138 13.0114C8.73138 12.7448 8.73138 12.8766 8.71023 12.61C8.60444 12.466 8.57422 12.6345 8.4503 12.5671C8.4231 12.4414 8.32337 12.3189 8.40799 12.1748L8.28105 12.2208C8.22006 12.1361 8.1895 12.0327 8.19445 11.9279C8.19939 11.8231 8.23955 11.7232 8.30825 11.6447C7.27461 9.8796 6.89681 11.2708 6.89681 11.2708C6.61876 11.9511 6.98749 12.3219 7.0842 13.1493Z" fill="#1D1D1D"/>
<path d="M5.72115 10.8051H6.25007C6.27831 10.8165 6.3077 10.8247 6.33771 10.8296C6.80699 10.8786 7.25473 11.0543 7.6343 11.3383C7.84889 11.5007 8.0393 11.6999 8.23878 11.8868C8.2592 11.8666 8.27837 11.8451 8.2962 11.8225C8.60997 11.4347 9.02302 11.1421 9.49003 10.9767C9.72451 10.9039 9.9626 10.8435 10.2033 10.7959H10.7322C10.7554 10.8068 10.7797 10.815 10.8048 10.8204C11.3707 10.892 11.9022 11.1351 12.3298 11.5177C12.7574 11.9004 13.0612 12.405 13.2015 12.9655C13.2377 13.1126 13.2619 13.2719 13.2952 13.4068V13.9706C13.2844 13.9941 13.2763 14.0188 13.271 14.0442C13.1938 14.6967 12.8996 15.3031 12.4368 15.7633C11.0667 17.1566 9.70059 18.5539 8.33851 19.9554L8.22366 20.0688L8.15717 20.0075C6.75178 18.5703 5.33429 17.1423 3.94401 15.6898C3.61917 15.3493 3.38234 14.9328 3.25457 14.4772C3.1268 14.0216 3.11206 13.541 3.21166 13.0782C3.31127 12.6155 3.52212 12.1848 3.82547 11.8246C4.12882 11.4644 4.51527 11.1857 4.95045 11.0135C5.20284 10.9279 5.46024 10.8583 5.72115 10.8051Z" fill="#F79F94"/>
<path d="M9.14648 8.51592H9.27006C9.26102 8.50675 9.22485 8.49452 9.14648 8.51592Z" fill="#1D1D1D"/>
<path d="M8.80074 10.7254C8.92782 10.5819 9.07316 10.4562 9.23293 10.3516C9.29098 10.3197 9.35166 10.293 9.41427 10.2719C9.52071 10.2326 9.63125 10.2059 9.74371 10.1922C9.84345 10.1922 9.9311 10.1922 10.0641 10.1677L10.2756 10.1432L10.4086 10.1217H10.5779C10.6806 10.1217 10.7925 10.1217 10.9134 10.1217L10.5567 10.0666C10.6462 10.093 10.737 10.1145 10.8287 10.1309H10.9043C11.3165 10.1958 11.7096 10.3516 12.0558 10.5875C12.1225 10.5926 12.1871 10.6136 12.2443 10.6488C12.3016 10.6839 12.3499 10.7322 12.3852 10.7898C12.4619 10.9138 12.5652 11.0185 12.6875 11.0962L12.6391 11.231C12.7207 11.277 12.8054 11.3506 12.7751 11.4547H12.7449C12.8688 11.5405 12.8598 11.6907 12.9172 11.7612H12.887L12.9383 11.9481L12.89 11.9267L12.9383 12.0217L12.9595 12.0707V12.0952C12.9595 12.0952 12.9867 12.1197 12.9867 12.132C12.9952 12.2763 12.9891 12.421 12.9686 12.5641L13.1015 12.5395C13.1015 12.5855 13.0804 12.6284 13.0743 12.6652L13.1167 12.3955C13.0874 12.4745 13.0632 12.5554 13.0441 12.6376V12.705C13.0354 12.7444 13.0293 12.7843 13.026 12.8245C13.026 12.8981 13.026 12.9655 13.026 13.036C13.0243 13.1131 13.0061 13.1889 12.9727 13.2582C12.9393 13.3275 12.8915 13.3887 12.8326 13.4374L12.8054 13.419C12.8223 13.5348 12.802 13.653 12.7476 13.7562C12.6932 13.8593 12.6075 13.9421 12.5031 13.9921L12.3308 14.0963C12.2761 14.1313 12.2255 14.1724 12.1797 14.2188C12.062 14.3345 11.9738 14.4776 11.9228 14.6356C11.9531 14.5437 11.8473 14.6141 11.8291 14.5835C11.6297 14.844 11.403 15.1044 11.5843 15.2914C11.4151 15.4569 11.3909 15.371 11.3002 15.322C11.3818 15.4017 11.27 15.5825 11.1461 15.7173L11.1824 15.6285L10.8348 16.0268L11.0584 16.1065C10.8197 16.2628 10.8227 15.9717 10.6746 16.1984L10.8015 16.3241C10.4993 16.5754 10.1578 16.5447 9.80416 16.7194C9.37119 17.138 8.96725 17.5865 8.59522 18.0616L8.29298 18.414L8.22649 18.4967L8.20231 18.5335L8.15395 18.6071C8.08393 18.7108 8.00285 18.8063 7.91217 18.892C7.79581 18.7865 7.71187 18.6493 7.67038 18.4967C7.69235 18.4556 7.71656 18.4157 7.74291 18.3772C7.77011 18.3374 7.77314 18.3313 7.75803 18.3374C7.74291 18.3435 7.75803 18.3374 7.71571 18.3374H7.62806C7.50113 18.3159 7.37419 18.2945 7.41952 18.2087L7.23818 18.1535C7.23818 18.0953 7.1868 17.9972 7.27747 18.0248C7.17471 17.9084 7.14751 17.9298 7.02964 17.89L6.99941 17.6847C6.64882 17.1607 6.11991 16.9645 5.70283 16.4712C5.33712 15.7418 4.15538 14.8593 3.47535 14.3506C3.41247 14.3113 3.35191 14.2684 3.29401 14.2219L3.16103 14.0963C3.07273 14.0086 3.00193 13.9046 2.95248 13.7898C2.84642 13.5591 2.78781 13.3088 2.78021 13.0544C2.76207 12.5426 2.89506 12.1167 2.85275 11.6447C2.88901 11.6233 2.85275 11.5314 2.82857 11.5252C2.92512 11.2618 3.06401 11.0164 3.23961 10.799C3.35442 10.6425 3.48399 10.4978 3.62647 10.3669C3.75553 10.2418 3.89396 10.127 4.04053 10.0237C4.12213 9.97463 4.20072 9.91947 4.27627 9.86431C4.34435 9.81554 4.41497 9.77053 4.48784 9.72948C4.6391 9.65109 4.78106 9.55547 4.91097 9.44449C5.01373 9.3403 5.04395 9.23611 4.9835 9.13805C4.85363 8.99544 4.68559 8.89428 4.49993 8.84693C4.32637 8.78609 4.14531 8.75 3.96195 8.73968C3.83819 8.73069 3.71396 8.73069 3.5902 8.73968C3.44347 8.74737 3.29777 8.76891 3.15498 8.80403V8.75194C2.47797 9.03999 2.09716 9.42304 1.98231 9.95625C1.70727 9.86125 1.63474 10.4527 1.49873 10.5691V10.5446C1.47787 10.7789 1.40223 11.0047 1.2781 11.2035C1.15072 11.3994 1.10206 11.6373 1.14209 11.8684C1.12396 11.85 1.05445 11.8317 1.06653 11.7305C1.06653 11.8929 1.06653 12.086 1.06653 12.2423C1.06653 12.3986 1.03933 12.512 0.966797 12.5303C0.980604 12.7472 1.00684 12.9631 1.04538 13.1769C1.06956 13.2873 1.09071 13.3976 1.12094 13.5079C1.15116 13.6182 1.1965 13.7193 1.23579 13.8143C1.35139 14.1668 1.57746 14.4714 1.87955 14.6816H1.81306C2.09111 14.8195 2.0488 14.9512 2.30268 15.132C2.30268 15.1565 2.30268 15.1811 2.30268 15.1841C2.60491 15.2577 2.82554 15.6836 3.01595 15.797L2.95248 15.8767L3.32423 16.1954L3.21241 16.0483C3.45722 15.8981 3.34841 16.4375 3.72621 16.5662C3.93475 16.8297 4.61176 16.6428 4.75683 16.986C4.96537 17.0105 4.50295 17.032 4.75683 17.1361C4.66011 17.2465 4.61176 17.1178 4.57246 17.2465C4.7931 17.3721 4.74474 17.6356 5.02582 17.7827L4.95328 17.8716C5.37339 18.0034 5.3613 18.5029 5.68469 18.5488C6.03226 18.7725 5.63331 18.9809 6.08364 19.1249V19.3486C6.19245 19.4957 6.3073 19.3088 6.38588 19.5049C6.34659 19.5325 6.38588 19.5938 6.40099 19.6398C6.4161 19.6857 6.45539 19.7501 6.3617 19.7194C6.57085 20.0061 6.82033 20.2601 7.10217 20.4733C7.40777 20.6902 7.68947 20.9399 7.94239 21.2179C8.03776 21.1489 8.13889 21.0884 8.24462 21.0371C8.37156 20.6449 8.75238 20.4242 8.8098 20.173C8.85816 20.2373 9.51401 19.4712 9.21782 20.0259C9.19062 20.0749 9.12715 20.1393 9.11204 20.1055V20.2557C9.24727 20.1888 9.37 20.0986 9.47472 19.9891C9.52006 19.9401 9.58655 19.8635 9.60771 19.8328C9.62864 19.7981 9.6478 19.7623 9.66513 19.7256C9.7174 19.5694 9.80189 19.4262 9.91296 19.3057C9.81625 19.3517 9.73162 19.4528 9.74069 19.3333L9.96737 19.1219L9.98852 19.2353L10.3512 18.9441L10.2243 18.9074C10.4237 18.7879 10.6202 18.8706 10.6837 18.5703C10.6837 18.4232 10.4207 18.6132 10.5628 18.4171C10.8995 18.2272 11.2218 18.0121 11.5269 17.7735C11.409 17.7061 11.4846 17.6356 11.5269 17.5376L11.6145 17.6111C11.7898 17.2066 11.8956 17.6816 12.0921 17.3047L12.1223 17.3844L12.0316 17.1392C12.1283 16.7163 12.3339 17.1637 12.4034 16.655C12.3036 16.7837 12.1737 16.5325 12.349 16.4252L12.3913 16.5386C12.4517 16.4436 12.4427 16.3854 12.5122 16.3486C12.5122 16.4375 12.5998 16.4865 12.6996 16.3486L12.7207 16.5233L12.7902 16.1617C13.0381 16.0759 13.1952 15.7051 13.3736 15.7449C13.454 15.6924 13.5299 15.6329 13.6002 15.5672C13.697 15.466 13.8299 15.2883 13.8058 15.1811C13.8058 15.3496 14.0566 15.1044 14.0899 15.2607C14.1409 14.9575 14.2872 14.6792 14.5069 14.467V14.5099C14.6971 14.2517 14.8169 13.9474 14.8545 13.6274C14.8757 13.4834 14.8908 13.3393 14.9059 13.1984C14.9059 13.1279 14.924 13.0574 14.9361 12.9869C14.9378 12.9566 14.9439 12.9266 14.9542 12.8981C14.9573 12.9266 14.9573 12.9554 14.9542 12.9839L14.9996 12.6774C15.0058 12.636 15.0149 12.595 15.0268 12.5549C14.8968 12.5794 14.9694 12.3036 14.8001 12.371C14.7805 12.3074 14.7693 12.2415 14.7669 12.1749C14.7669 12.1504 14.7669 12.0952 14.7669 12.0431C14.7714 11.9932 14.7714 11.9429 14.7669 11.893C14.7486 11.7477 14.7415 11.6011 14.7457 11.4547C14.7457 11.2433 14.6732 11.0288 14.3951 11.0073C14.2712 10.7499 14.3951 10.6396 14.3407 10.4895L14.3951 10.5415C14.2048 10.2111 13.9917 9.89466 13.7574 9.59465C13.5761 9.47207 13.3917 9.61303 13.1741 9.33417C13.3252 9.33417 13.2043 9.2545 13.0985 9.1687C13.1741 9.2116 13.2194 9.2024 13.1197 9.03693C13.0806 9.04289 13.0409 9.04289 13.0018 9.03693C13.0018 9.03693 13.0018 9.0216 13.0018 9.01548C12.7963 8.91129 12.8144 8.96032 12.89 9.0308C12.89 9.0308 12.8749 9.05838 12.89 9.10128C12.7751 8.85 12.3429 8.77339 12.3913 8.6171C12.1528 8.51599 11.8996 8.45492 11.6417 8.4363C11.527 8.43023 11.412 8.43023 11.2972 8.4363C11.1975 8.4363 11.0312 8.4363 11.0645 8.45469L10.9194 8.43324C10.8469 8.44856 10.7713 8.46082 10.6958 8.47001C10.6444 8.38421 10.7532 8.31066 10.8892 8.27695L10.5567 8.3076C10.5567 8.18502 10.7471 8.23712 10.859 8.2126C10.7737 8.16965 10.679 8.1496 10.5839 8.15438L10.4419 8.1697L10.2152 8.20034L10.0852 8.25244L10.0036 8.27389H9.97341C9.91919 8.29926 9.8637 8.32176 9.80718 8.34131C9.67529 8.38321 9.53728 8.40186 9.39916 8.39647L9.31454 8.52517H9.27827C9.27827 8.5742 9.19969 8.68146 9.1332 8.72742C9.02439 8.65694 9.04857 8.4884 8.79469 8.61404C8.64543 8.63682 8.50865 8.71158 8.40783 8.82548L8.31716 8.92048L8.27485 8.96951L8.25671 9.00015C8.22951 9.04612 8.22347 9.07983 8.20231 9.11354C8.26276 9.08902 8.27787 9.15337 8.2688 9.20853C8.21138 9.25756 8.14791 9.17789 8.12675 9.25756L8.08142 9.11047C8.14186 9.22998 8.00888 9.3832 7.99679 9.48126C7.96355 9.37401 8.05422 9.28821 8.04515 9.19015L7.94843 9.31272C7.94843 9.3403 7.92425 9.31272 7.9031 9.31272L7.81243 9.23611C7.69456 9.26982 7.81243 9.41078 7.73082 9.50884C7.60993 9.4353 7.46486 9.42917 7.31676 9.2024V9.35869C7.00031 9.24829 6.70857 9.07539 6.45841 8.85C6.28527 8.84609 6.11216 8.85943 5.94159 8.88984C5.78745 8.91435 5.6726 8.96338 5.54869 8.9787H5.56984C4.21885 9.6161 5.14067 9.9348 5.56984 10.039L5.26761 10.0022L5.44895 10.0604L5.52753 10.0819H5.54566H5.57891C5.81702 10.2117 6.06338 10.3254 6.31636 10.422L6.40401 10.4557L6.44632 10.4741H6.46748L6.54002 10.5232C6.70322 10.6396 6.86341 10.7714 7.02359 10.897C7.35001 11.1422 7.6734 11.3965 8.01795 11.6478C8.25067 11.3904 8.51059 11.0625 8.80074 10.7254Z" fill="#1D1D1D"/>
<path d="M31.1089 5.66907L31.0547 5.72408C31.0788 5.72408 31.0999 5.7088 31.1089 5.66907Z" fill="#1D1D1D"/>
<path d="M29.4738 5.01023C29.4103 5.73956 29.1716 5.92955 29.2653 6.68339C29.2615 7.05022 29.2837 7.41685 29.3318 7.78045C29.5222 7.94592 29.3318 8.24011 29.495 8.43929L29.3862 8.5159C29.4406 8.58332 29.4768 8.663 29.4194 8.73041H29.3892C29.4708 8.83154 29.4224 8.94492 29.4617 8.99702H29.4315V9.12266L29.3862 9.10121C29.4659 9.26244 29.4853 9.44755 29.4406 9.62215L29.5735 9.60683C29.4255 9.95004 29.6975 10.0787 29.5222 10.3883H29.4919C29.8395 10.7836 29.2562 11.0011 29.5856 11.4148C29.5433 11.3658 29.5161 11.4363 29.4859 11.4332C29.5222 11.6171 29.5433 11.8163 29.7881 11.8193C29.7881 11.9572 29.7065 11.9296 29.6068 11.948C29.7216 11.948 29.767 12.0645 29.776 12.1717L29.7307 12.1227L29.77 12.4291L29.9846 12.3709C29.9211 12.5303 29.7216 12.4108 29.776 12.564H29.9513C29.9181 12.7877 29.6491 12.9164 29.5191 13.134C29.4436 14.0288 29.8939 14.991 29.5826 15.8245L29.4496 15.8613C29.2532 15.8797 29.7519 16.0942 29.5554 16.1248L29.6461 16.2229C29.6098 16.2474 29.5735 16.3056 29.5312 16.2566C29.5312 16.3485 29.5554 16.3485 29.6128 16.4159L29.4919 16.5109C29.3983 16.8633 29.631 17.1667 29.5856 17.5375C29.3378 17.9849 29.5645 18.8276 29.6975 19.3118C29.9997 19.9952 29.2139 20.7888 29.5463 21.4875C29.5161 21.509 29.5796 21.5672 29.6008 21.5672L29.5735 22.2077C29.5735 22.2077 29.501 25.3058 31.1089 22.9523H31.1512C31.257 22.603 31.2782 22.3823 31.0636 22.1402C31.3265 22.1035 31.0908 21.8522 31.1754 21.7694H31.1966C30.9971 21.5549 31.3658 21.3312 31.1966 21.1229C31.2177 21.1229 31.2902 21.1229 31.2933 21.1841C31.26 21.034 31.2026 20.8287 31.3537 20.8195C31.3144 20.4609 31.3839 19.9614 31.1422 19.7316H31.1845C31.0213 19.5998 31.1603 19.5631 31.0757 19.4252C31.0968 19.4252 31.1059 19.4068 31.1149 19.4252C30.9548 19.2812 31.0908 19.0084 31.0213 18.895H31.121L31.0998 18.6131L31.0757 18.7173C30.8006 18.6805 31.251 18.5028 31.0757 18.2975C31.1119 18.1044 30.5014 17.9083 30.6374 17.7091C30.5075 17.6141 30.846 17.7919 30.7462 17.6509C30.8913 17.6509 30.8369 17.7152 30.9548 17.6785C30.8853 17.5406 31.1029 17.4486 31.0031 17.277H31.118C30.9094 17.0503 31.2661 16.8511 31.0696 16.7009C30.9759 16.4711 31.4021 16.5477 31.1814 16.3056L31.3356 16.2106C31.3598 16.1064 31.1482 16.1371 31.2207 16.0206C31.3174 16.0206 31.2993 15.8766 31.39 15.944C31.5411 15.6835 31.1754 15.4169 31.4293 15.0768C31.2449 15.0002 31.3537 14.8286 31.2147 14.7704C31.2963 14.7704 31.2147 14.4271 31.4051 14.6202C31.4051 14.6355 31.4051 14.6662 31.3839 14.6631L31.4958 14.6876C31.7043 14.4915 31.3809 14.3321 31.4111 14.1391C31.3749 14.1973 31.3839 14.2739 31.3084 14.2218V14.041L31.4021 14.0809L31.4565 13.8143L31.3416 13.851C31.4021 13.7193 31.5985 13.6733 31.4323 13.5262C31.3416 13.4588 31.2782 13.6488 31.2419 13.5109C31.3456 13.3017 31.4238 13.0804 31.4746 12.852C31.3416 12.8735 31.3477 12.8122 31.3205 12.7509H31.4353C31.2782 12.515 31.6832 12.662 31.5592 12.4445L31.6378 12.4659L31.4021 12.4016C31.1784 12.1901 31.6348 12.2882 31.3295 12.0522C31.3477 12.1472 31.0817 12.0982 31.1301 11.9817L31.2389 12.0124C31.2147 11.948 31.1694 11.9266 31.1935 11.8837C31.251 11.9235 31.3507 11.9051 31.3326 11.8101L31.4686 11.8745L31.2691 11.6968C31.3839 11.5619 31.2389 11.3443 31.393 11.2892C31.393 11.2892 31.4686 10.9981 31.2993 10.9307C31.4051 10.9889 31.4444 10.8265 31.5653 10.8724C31.4474 10.7989 31.3507 10.566 31.4776 10.4833V10.5016C31.6046 10.1707 31.2993 9.93472 31.4565 9.63748C31.3265 9.63748 31.396 9.49345 31.2298 9.53329C31.0636 9.22685 31.5683 8.96944 31.0515 8.85912C31.0243 8.71815 31.1724 8.69364 31.1996 8.62009L31.2268 8.6538C31.1904 8.47861 31.1792 8.29903 31.1935 8.1206C31.1422 8.02254 30.8913 8.00721 30.9578 7.83254C31.0545 7.89077 31.0364 7.83254 31.0364 7.75287C31.0364 7.79577 31.0877 7.80803 31.1512 7.72222C31.127 7.71175 31.1054 7.69607 31.0877 7.67626C31.0955 7.67318 31.1042 7.67318 31.1119 7.67626C31.0787 7.56594 31.0485 7.58433 31.0364 7.63642C31.0256 7.63508 31.0146 7.63603 31.0042 7.63919C30.9938 7.64236 30.9842 7.64767 30.9759 7.65481C31.0998 7.54142 30.9759 7.34837 31.1301 7.32385C31.0604 7.03978 30.9705 6.7612 30.8611 6.49033C30.9011 6.48005 30.9436 6.48619 30.9792 6.50741C31.0149 6.52863 31.0408 6.56323 31.0515 6.60372L31.0213 6.41066C31.1422 6.41066 31.0908 6.52098 31.1149 6.5792C31.3114 6.34937 30.9185 6.10728 31.1149 5.83762L31.0182 5.77939V5.76407C30.9899 5.75885 30.963 5.74736 30.9395 5.73041C30.9159 5.71346 30.8964 5.69148 30.8822 5.66601C30.988 5.62617 31.127 5.66601 31.121 5.53424C31.2238 5.42699 31.0696 5.2278 31.0122 5.09603C30.9941 5.16958 30.9366 5.14506 30.8973 5.11442C30.8581 5.08377 31.0001 5.01023 30.9548 4.95813H31.0968C30.9638 4.98265 30.9517 4.78346 30.8943 4.75895C31.0001 4.71911 30.985 4.86007 31.0666 4.87846C31.0666 4.61185 31.0666 4.74362 31.0454 4.47702C30.9366 4.33299 30.9094 4.50154 30.7855 4.43412C30.7583 4.30848 30.6586 4.1859 30.7432 4.03881L30.6163 4.08478C30.5668 4.00205 30.5446 3.90553 30.5527 3.80915C30.5609 3.71277 30.599 3.6215 30.6616 3.54851C29.628 1.78341 29.2502 3.17465 29.2502 3.17465C29.0144 3.8243 29.3771 4.18284 29.4738 5.01023Z" fill="#1D1D1D"/>
<path d="M28.0472 2.83447H28.567C28.5948 2.84306 28.6231 2.85022 28.6516 2.85592C29.1123 2.91033 29.5504 3.08801 29.921 3.37074C30.1326 3.53316 30.32 3.72621 30.5255 3.91314C30.5459 3.8929 30.5651 3.87141 30.5829 3.84879C30.891 3.46789 31.2968 3.18054 31.7556 3.01834C31.9852 2.94789 32.2182 2.88958 32.4538 2.84367H32.9736C32.9972 2.85263 33.0215 2.8598 33.0461 2.86512C33.5996 2.93464 34.1195 3.17146 34.5384 3.54476C34.9572 3.91805 35.2555 4.41053 35.3945 4.9581C35.4338 5.10213 35.458 5.24616 35.4852 5.39018V5.94178C35.4763 5.96677 35.4693 5.99237 35.464 6.01839C35.3894 6.65782 35.1002 7.25181 34.645 7.70074C33.303 9.06951 31.9631 10.4413 30.6252 11.8162L30.5104 11.9266L30.4469 11.8683C29.0687 10.4556 27.6784 9.05521 26.3123 7.63026C25.9915 7.29639 25.7574 6.88707 25.6308 6.43895C25.5043 5.99083 25.4893 5.5179 25.5872 5.06247C25.6852 4.60704 25.8929 4.18334 26.1919 3.82928C26.491 3.47522 26.8719 3.20186 27.3006 3.03366C27.5452 2.95187 27.7945 2.88535 28.0472 2.83447Z" fill="#F79F94"/>
<path d="M31.5352 0.376878H31.6587C31.6497 0.367709 31.6135 0.355485 31.5352 0.376878Z" fill="#1D1D1D"/>
<path d="M31.1915 2.58324C31.3186 2.43975 31.464 2.31403 31.6237 2.20939C31.6824 2.17788 31.7429 2.15024 31.8051 2.12665C31.9119 2.0894 32.0224 2.06372 32.1345 2.05004C32.2343 2.05004 32.3219 2.05004 32.4549 2.02552L32.6725 2.00407L32.8055 1.98262H32.9596H33.2951L32.9445 1.92746C33.0332 1.95198 33.1238 1.97343 33.2165 1.99181H33.2921C33.7087 2.05583 34.1062 2.21283 34.4557 2.45147C34.5917 2.45147 34.6914 2.54341 34.7821 2.65066C34.8584 2.77491 34.9618 2.87975 35.0843 2.9571L35.036 3.09193C35.1176 3.1379 35.1992 3.21144 35.172 3.31563H35.1418C35.2657 3.40144 35.2566 3.55159 35.314 3.62207H35.2838L35.3352 3.809L35.2838 3.78755C35.3027 3.81819 35.3199 3.84991 35.3352 3.88255L35.3564 3.93158V3.95609C35.3564 3.95609 35.3805 3.98061 35.3836 3.99287C35.3917 4.1403 35.3846 4.2882 35.3624 4.43414L35.4954 4.40963C35.4954 4.45559 35.4742 4.49849 35.4682 4.53527L35.5075 4.2656C35.4792 4.34468 35.4559 4.42555 35.438 4.50769L35.4198 4.5751C35.4198 4.61801 35.4198 4.65478 35.4047 4.69155C35.3896 4.72832 35.4047 4.83558 35.4047 4.90606C35.403 4.98318 35.3849 5.059 35.3515 5.12831C35.3181 5.19762 35.2702 5.25875 35.2113 5.3075L35.1841 5.28911C35.201 5.40486 35.1807 5.52306 35.1263 5.62625C35.0719 5.72943 34.9862 5.81214 34.8818 5.86215L34.7428 5.95102C34.6897 5.98701 34.6401 6.02805 34.5947 6.0736C34.477 6.18988 34.3879 6.33266 34.3348 6.49036C34.368 6.39842 34.2623 6.46891 34.2441 6.43826C34.0447 6.69874 33.818 6.95921 33.9963 7.14614C33.8301 7.31162 33.8059 7.22581 33.7152 7.17678C33.7938 7.25646 33.685 7.43726 33.5611 7.57209L33.5913 7.48016L33.2498 7.88466L33.4734 7.96433C33.2347 8.12062 33.2377 7.8295 33.0896 8.05627L33.2165 8.18191C32.9143 8.43319 32.5728 8.40254 32.2191 8.57721C31.7862 8.99591 31.3823 9.44438 31.0102 9.91942L30.708 10.2718L30.6415 10.3546L30.6173 10.3913L30.5659 10.4649C30.4978 10.5692 30.4177 10.6649 30.3272 10.7499C30.2108 10.6444 30.1269 10.5071 30.0854 10.3546C30.1073 10.3134 30.1316 10.2735 30.1579 10.2351C30.1851 10.1952 30.1881 10.1891 30.173 10.1952C30.1579 10.2013 30.173 10.1952 30.1307 10.1952L30.0431 10.1799C29.9161 10.1584 29.7892 10.137 29.8345 10.0512L29.6532 9.99603C29.6532 9.93474 29.6018 9.83975 29.6925 9.86733C29.5897 9.75088 29.5625 9.76927 29.4416 9.73249L29.4114 9.52718C29.0517 9.02155 28.5047 8.81317 28.1057 8.3198C27.74 7.59048 26.5583 6.70793 25.8783 6.19924C25.8154 6.15998 25.7548 6.117 25.6969 6.07053L25.5639 5.94489C25.4756 5.85728 25.4048 5.75324 25.3554 5.63845C25.2493 5.4077 25.1907 5.15746 25.1831 4.903C25.165 4.39124 25.298 3.96529 25.2556 3.49337C25.2919 3.47192 25.2556 3.37999 25.2284 3.37386C25.3244 3.11488 25.4601 2.87288 25.6304 2.65679C25.7463 2.50129 25.8769 2.35761 26.0203 2.22777C26.1494 2.10268 26.2878 1.98793 26.4344 1.88456C26.516 1.83553 26.5945 1.78037 26.6701 1.72521C26.7377 1.67576 26.8084 1.63072 26.8817 1.59038C27.0329 1.51198 27.1749 1.41637 27.3048 1.30539C27.4076 1.2012 27.4378 1.09701 27.3773 0.998946C27.25 0.856226 27.0838 0.754928 26.8998 0.707828C26.7236 0.65128 26.5405 0.619322 26.3558 0.612831C26.235 0.605788 26.1139 0.605788 25.9931 0.612831C25.8464 0.620519 25.7007 0.642064 25.5579 0.677184V0.622024C24.8748 0.919272 24.497 1.29619 24.3822 1.83859C24.1071 1.7436 24.0346 2.33503 23.8986 2.45147V2.42696C23.8699 2.65511 23.7892 2.87335 23.6629 3.06435C23.5355 3.26029 23.4868 3.49819 23.5269 3.72933C23.5087 3.71094 23.4392 3.69256 23.4513 3.59143C23.4332 3.75384 23.4513 3.9469 23.4513 4.10319C23.4513 4.25947 23.4241 4.37285 23.3516 4.39124C23.3699 4.60324 23.4002 4.814 23.4422 5.02251C23.4664 5.13283 23.4876 5.24314 23.5178 5.35346C23.548 5.46378 23.5934 5.56491 23.6326 5.6599C23.7482 6.0124 23.9743 6.31694 24.2764 6.52713H24.222C24.5001 6.66503 24.4577 6.79373 24.7116 6.97453C24.7116 7.00211 24.7116 7.02663 24.7116 7.02969C25.0139 7.10324 25.2345 7.52919 25.4249 7.62725L25.3614 7.70692L25.7211 8.04401L25.6093 7.89692C25.851 7.74676 25.7453 8.2861 26.1231 8.4148C26.3316 8.67834 27.0086 8.48835 27.1537 8.83462C27.3622 8.85914 26.8998 8.88059 27.1537 8.98478C27.057 9.0951 27.0086 8.96639 26.9693 9.0951C27.1869 9.22074 27.1416 9.48428 27.4227 9.6283L27.3501 9.71717C27.7702 9.85201 27.7582 10.3515 28.0785 10.3975C28.4291 10.6212 28.0302 10.8296 28.4805 10.9736V11.1973C28.5863 11.3444 28.7011 11.1574 28.7827 11.3536C28.7434 11.3811 28.7827 11.4394 28.7827 11.4884C28.7827 11.5374 28.8371 11.5987 28.7434 11.5681C28.9526 11.8547 29.2021 12.1087 29.4839 12.3219C29.7895 12.5389 30.0712 12.7885 30.3241 13.0666C30.4202 12.9977 30.5212 12.9362 30.6264 12.8827C30.7533 12.4935 31.1341 12.2698 31.1915 12.0185C31.2399 12.086 31.8958 11.3199 31.5996 11.8745C31.5724 11.9235 31.5059 11.9879 31.4938 11.9542V12.1043C31.629 12.0375 31.7517 11.9473 31.8565 11.8377C31.9018 11.7887 31.9683 11.7121 31.9894 11.6815C32.0104 11.6467 32.0295 11.6109 32.0469 11.5742C32.1006 11.4191 32.1873 11.2779 32.3008 11.1605C32.204 11.2034 32.1194 11.3076 32.1285 11.1881L32.3552 10.9766L32.3763 11.09L32.739 10.7989L32.6121 10.7621C32.8115 10.6426 33.008 10.7254 33.0684 10.425C33.0866 10.278 32.8085 10.468 32.9506 10.2688C33.2882 10.0781 33.6106 9.86091 33.9147 9.61911C33.7968 9.55169 33.8724 9.48121 33.9147 9.38315L34.0023 9.4567C34.1776 9.0522 34.2834 9.52718 34.4799 9.15026L34.5101 9.233L34.4194 8.98784C34.5161 8.56496 34.7217 9.01236 34.7912 8.50367C34.6914 8.63237 34.5615 8.38109 34.7368 8.27384L34.7761 8.38722C34.8395 8.29223 34.8305 8.234 34.9 8.19723C34.9 8.2861 34.9876 8.33513 35.0874 8.19723L35.1085 8.3719L35.178 8.0103C35.4259 7.9245 35.583 7.5537 35.7613 7.59354C35.8317 7.53775 35.8983 7.47735 35.9608 7.41274C36.0575 7.31162 36.1875 7.13082 36.1663 7.02663C36.1663 7.19517 36.4172 6.95002 36.4504 7.1063C36.5062 6.80782 36.6545 6.53516 36.8736 6.32794V6.37084C37.0655 6.11338 37.1865 5.80879 37.2242 5.4883C37.2453 5.34427 37.2604 5.20024 37.2755 5.05928L37.3027 4.84784C37.3065 4.81751 37.3136 4.7877 37.3239 4.75897C37.3284 4.78739 37.3284 4.81635 37.3239 4.84477L37.3723 4.53833C37.3784 4.49687 37.3875 4.45591 37.3995 4.41576C37.2695 4.43721 37.342 4.16447 37.1728 4.23189C37.1532 4.16829 37.142 4.10235 37.1395 4.03577C37.1395 4.01125 37.1395 3.95609 37.1395 3.904C37.1441 3.85405 37.1441 3.80379 37.1395 3.75384C37.1222 3.60845 37.1141 3.46208 37.1154 3.31563C37.1154 3.10419 37.0458 2.88968 36.7678 2.86823C36.6439 2.61082 36.7678 2.5005 36.7134 2.34728L36.7678 2.40244C36.5775 2.07197 36.3644 1.75555 36.1301 1.45554C35.9487 1.33297 35.7644 1.47393 35.5468 1.19507C35.6979 1.19507 35.577 1.11539 35.4712 1.02959C35.5468 1.07249 35.5921 1.0633 35.4924 0.897821C35.4533 0.903784 35.4136 0.903784 35.3745 0.897821C35.3745 0.897821 35.3745 0.879434 35.3745 0.873305C35.169 0.77218 35.1871 0.821211 35.2627 0.891692C35.2627 0.891692 35.2627 0.919272 35.2627 0.959109C35.1508 0.710892 34.7186 0.634282 34.764 0.477998C34.5266 0.376576 34.2744 0.315492 34.0174 0.297198C33.9027 0.29116 33.7877 0.29116 33.6729 0.297198C33.5732 0.297198 33.4069 0.297198 33.4402 0.315584L33.3012 0.275747C33.2286 0.275747 33.1531 0.306391 33.0775 0.315584C33.0231 0.229781 33.1349 0.156235 33.2709 0.122527L32.9445 0.153171C32.9445 0.0305947 33.1349 0.0826896 33.2467 0.0581743C33.1532 0.0109569 33.0486 -0.00918949 32.9445 -4.9324e-05C32.8979 0.00202148 32.8515 0.00713944 32.8055 0.0152727L32.5788 0.0459167L32.4488 0.0980116L32.3854 0.125591L32.3461 0.143978C32.2919 0.169346 32.2364 0.191848 32.1799 0.211394C32.048 0.253295 31.91 0.271951 31.7718 0.266554L31.6872 0.395259H31.6509C31.6509 0.444289 31.5724 0.551543 31.5059 0.597509C31.3971 0.527028 31.4212 0.358486 31.1674 0.484126C31.0181 0.506911 30.8813 0.581671 30.7805 0.69557L30.6898 0.790567L30.6475 0.839597L30.6294 0.870241C30.6022 0.916207 30.5931 0.949916 30.575 0.983624C30.6354 0.959109 30.6505 1.02346 30.6415 1.07862C30.5841 1.12765 30.5206 1.04798 30.4994 1.12765L30.4541 0.977495C30.5115 1.10007 30.3816 1.25023 30.3695 1.35135C30.3362 1.2441 30.4269 1.15829 30.4178 1.06023L30.3211 1.18281C30.3211 1.21039 30.2969 1.18281 30.2758 1.18281L30.1851 1.1062C30.0672 1.13991 30.1851 1.28087 30.1035 1.37893C29.9826 1.30539 29.8375 1.29926 29.6894 1.07249V1.22571C29.373 1.11531 29.0812 0.942417 28.8311 0.717021C28.6579 0.71311 28.4848 0.726453 28.3143 0.756858C28.1601 0.781373 28.0453 0.830404 27.9214 0.842661H27.9425C26.5976 1.48312 27.5043 1.80488 27.9486 1.90907L27.6463 1.8723L27.8277 1.93052L27.9032 1.95198H27.9214H27.9576C28.2001 2.09262 28.4527 2.21452 28.7132 2.31664L28.7978 2.35035L28.8432 2.36873H28.8643L28.9369 2.41776C29.1001 2.53421 29.2572 2.66598 29.4204 2.79162C29.7469 3.03677 30.0703 3.29112 30.4148 3.5424C30.6415 3.25128 30.9014 2.92339 31.1915 2.58324Z" fill="#1D1D1D"/>
</g>
<defs>
<clipPath id="clip0_3766_10470">
<rect width="53" height="61" fill="white"/>
</clipPath>
</defs>
</svg>
