<svg width="80" height="28" viewBox="0 0 80 28" fill="none" xmlns="http://www.w3.org/2000/svg">
<g clip-path="url(#clip0_3319_6938)">
<path d="M34.1164 14.6412C34.1164 18.3477 31.2188 21.0789 27.6627 21.0789C24.1066 21.0789 21.209 18.3477 21.209 14.6412C21.209 10.9086 24.1066 8.20349 27.6627 8.20349C31.2188 8.20349 34.1164 10.9086 34.1164 14.6412ZM31.2913 14.6412C31.2913 12.325 29.6119 10.7403 27.6627 10.7403C25.7135 10.7403 24.0341 12.325 24.0341 14.6412C24.0341 16.9342 25.7135 18.5422 27.6627 18.5422C29.6119 18.5422 31.2913 16.9313 31.2913 14.6412Z" fill="#B0AEAE"/>
<path d="M48.0383 14.6412C48.0383 18.3477 45.1407 21.0789 41.5846 21.0789C38.0285 21.0789 35.1309 18.3477 35.1309 14.6412C35.1309 10.9115 38.0285 8.20349 41.5846 8.20349C45.1407 8.20349 48.0383 10.9086 48.0383 14.6412ZM45.2132 14.6412C45.2132 12.325 43.5338 10.7403 41.5846 10.7403C39.6354 10.7403 37.956 12.325 37.956 14.6412C37.956 16.9342 39.6354 18.5422 41.5846 18.5422C43.5338 18.5422 45.2132 16.9313 45.2132 14.6412Z" fill="#B0AEAE"/>
<path d="M61.3761 8.59243V20.1501C61.3761 24.9044 58.5742 26.8462 55.2617 26.8462C52.1437 26.8462 50.267 24.7593 49.5593 23.0526L52.0189 22.0281C52.4569 23.0759 53.5301 24.3123 55.2589 24.3123C57.3792 24.3123 58.6931 23.0033 58.6931 20.5391V19.6132H58.5945C57.9622 20.394 56.7439 21.076 55.2066 21.076C51.9899 21.076 49.043 18.2722 49.043 14.6644C49.043 11.0305 51.9899 8.20349 55.2066 8.20349C56.741 8.20349 57.9593 8.88558 58.5945 9.64313H58.6931V8.59533H61.3761V8.59243ZM58.8932 14.6644C58.8932 12.3976 57.3821 10.7403 55.459 10.7403C53.5098 10.7403 51.8768 12.3976 51.8768 14.6644C51.8768 16.9081 53.5098 18.5422 55.459 18.5422C57.3821 18.5422 58.8932 16.9081 58.8932 14.6644Z" fill="#B0AEAE"/>
<path d="M65.8043 1.8175V20.6837H63.0488V1.8175H65.8043Z" fill="#B0AEAE"/>
<path d="M76.5418 16.7599L78.7346 18.2227C78.0268 19.2705 76.3213 21.0759 73.3744 21.0759C69.7197 21.0759 66.9902 18.2489 66.9902 14.6382C66.9902 10.8098 69.7429 8.20044 73.0582 8.20044C76.3967 8.20044 78.0297 10.8591 78.5634 12.2959L78.8564 13.0273L70.2563 16.5915C70.9147 17.8832 71.9386 18.542 73.3744 18.542C74.813 18.542 75.8108 17.8338 76.5418 16.7599ZM69.7922 14.4437L75.5411 12.0549C75.2249 11.251 74.2735 10.6908 73.1539 10.6908C71.7181 10.6908 69.7197 11.9592 69.7922 14.4437V14.4437Z" fill="#B0AEAE"/>
<path d="M10.7781 12.9663V10.235H19.9758C20.0657 10.7111 20.1121 11.2741 20.1121 11.8837C20.1121 13.9328 19.5523 16.4667 17.7481 18.272C15.9933 20.1006 13.7512 21.0758 10.781 21.0758C5.27576 21.0758 0.646484 16.5886 0.646484 11.0797C0.646484 5.57075 5.27576 1.0835 10.781 1.0835C13.8266 1.0835 15.9962 2.27932 17.6263 3.83796L15.7003 5.76521C14.5314 4.66807 12.9477 3.81474 10.7781 3.81474C6.75795 3.81474 3.61375 7.05682 3.61375 11.0797C3.61375 15.1025 6.75795 18.3446 10.7781 18.3446C13.3857 18.3446 14.8708 17.2968 15.8222 16.3448C16.5937 15.5727 17.1013 14.4698 17.3014 12.9634L10.7781 12.9663V12.9663Z" fill="#B0AEAE"/>
</g>
<defs>
<clipPath id="clip0_3319_6938">
<rect width="78.895" height="26.7029" fill="white" transform="translate(0.542969 0.947021)"/>
</clipPath>
</defs>
</svg>
