<svg width="89" height="23" viewBox="0 0 89 23" fill="none" xmlns="http://www.w3.org/2000/svg">
<path d="M39.2557 3.3055C37.7571 1.80687 35.7245 0.964966 33.6052 0.964966H21.9492V22.2742H29.9402V8.95591H32.5019C33.2084 8.95591 33.8877 9.23652 34.3872 9.73603L37.1473 12.4943C37.6469 12.9938 37.9311 13.6714 37.9311 14.3778V22.2742H45.9221V13.2745C45.9221 11.1552 45.0765 9.12271 43.578 7.62408L39.2557 3.3055Z" fill="#B0AEAE"/>
<path d="M80.5497 0.964974V8.8613C80.5497 9.56769 80.2655 10.2452 79.7659 10.7447L77.0039 13.503C76.5044 14.0026 75.8269 14.2832 75.1204 14.2832H72.5515H71.2819C72.1053 13.0042 72.5588 11.5088 72.5588 9.96454V0.964974H64.5678V8.8613C64.5678 9.56769 64.2836 10.2452 63.784 10.7447L61.022 13.503C60.5225 14.0026 59.845 14.2832 59.1385 14.2832H56.5769V0.964974H48.5859V22.2742H60.2419C62.3613 22.2742 64.3957 21.4323 65.8942 19.9336L68.5633 17.2657V22.2742H76.2238C78.3432 22.2742 80.3776 21.4323 81.8761 19.9336L86.1966 15.615C87.6951 14.1164 88.5407 12.0839 88.5407 9.96453V0.964966H80.5497V0.964974Z" fill="#B0AEAE"/>
<path d="M0.638672 8.95591H5.96598V22.2742H13.9569V8.95591H19.2842V0.964966H0.638672V8.95591Z" fill="#B0AEAE"/>
</svg>
