<svg width="102" height="15" viewBox="0 0 102 15" fill="none" xmlns="http://www.w3.org/2000/svg">
<path d="M44.8348 2.14062C44.3527 2.84579 43.7699 3.44663 43.0863 3.94314C43.0935 4.04388 43.0971 4.19499 43.0971 4.39646C43.0971 5.3319 42.9603 6.26554 42.6869 7.19739C42.4135 8.12923 41.9979 9.02329 41.4403 9.87958C40.8826 10.7359 40.2188 11.4932 39.4489 12.1516C38.6789 12.81 37.7507 13.3353 36.6641 13.7275C35.5776 14.1196 34.4155 14.3157 33.1778 14.3157C31.2278 14.3157 29.4432 13.794 27.8242 12.7507C28.0761 12.7794 28.3567 12.7938 28.6661 12.7938C30.2851 12.7938 31.7279 12.2973 32.9943 11.3043C32.2388 11.2899 31.5624 11.0579 30.9651 10.6081C30.3679 10.1584 29.9577 9.58455 29.7347 8.88657C29.9721 8.92255 30.1916 8.94054 30.3931 8.94054C30.7025 8.94054 31.0083 8.90096 31.3105 8.82181C30.5046 8.65631 29.8372 8.25515 29.3083 7.61833C28.7794 6.98151 28.515 6.24216 28.515 5.40026V5.35709C29.0043 5.63052 29.5296 5.77804 30.0909 5.79962C29.6159 5.48301 29.2382 5.06926 28.9575 4.55837C28.6769 4.04747 28.5366 3.49341 28.5366 2.89616C28.5366 2.26294 28.6949 1.67649 29.0115 1.13682C29.8822 2.20898 30.9418 3.06706 32.1902 3.71108C33.4387 4.35509 34.7753 4.71307 36.2 4.78503C36.1424 4.5116 36.1137 4.24536 36.1137 3.98631C36.1137 3.02209 36.4536 2.19998 37.1336 1.51999C37.8136 0.839996 38.6357 0.5 39.6 0.5C40.6074 0.5 41.4564 0.86698 42.1472 1.60094C42.9316 1.44983 43.6691 1.1692 44.3599 0.759045C44.0937 1.58655 43.5828 2.22696 42.8272 2.68029C43.4964 2.60834 44.1656 2.42844 44.8348 2.14062Z" fill="white"/>
<path d="M67.9488 7.40786C67.9488 6.77224 67.7239 6.22957 67.2742 5.77983C66.8244 5.3301 66.2818 5.10524 65.6461 5.10524C65.0105 5.10524 64.4678 5.3301 64.0181 5.77983C63.5684 6.22957 63.3435 6.77224 63.3435 7.40786C63.3435 8.04348 63.5684 8.58615 64.0181 9.03588C64.4678 9.48561 65.0105 9.71048 65.6461 9.71048C66.2818 9.71048 66.8244 9.48561 67.2742 9.03588C67.7239 8.58615 67.9488 8.04348 67.9488 7.40786ZM69.19 7.40786C69.19 8.39127 68.8452 9.22777 68.1556 9.91735C67.466 10.6069 66.6296 10.9517 65.6461 10.9517C64.6627 10.9517 63.8262 10.6069 63.1366 9.91735C62.4471 9.22777 62.1023 8.39127 62.1023 7.40786C62.1023 6.42445 62.4471 5.58795 63.1366 4.89836C63.8262 4.20878 64.6627 3.86398 65.6461 3.86398C66.6296 3.86398 67.466 4.20878 68.1556 4.89836C68.8452 5.58795 69.19 6.42445 69.19 7.40786ZM70.1614 3.72007C70.1614 3.94793 70.0805 4.14282 69.9186 4.30472C69.7567 4.46662 69.5618 4.54757 69.3339 4.54757C69.1061 4.54757 68.9112 4.46662 68.7493 4.30472C68.5874 4.14282 68.5064 3.94793 68.5064 3.72007C68.5064 3.49221 68.5874 3.29732 68.7493 3.13542C68.9112 2.97352 69.1061 2.89257 69.3339 2.89257C69.5618 2.89257 69.7567 2.97352 69.9186 3.13542C70.0805 3.29732 70.1614 3.49221 70.1614 3.72007ZM65.6461 1.74126C65.6042 1.74126 65.3748 1.73976 64.9581 1.73676C64.5413 1.73376 64.225 1.73376 64.0091 1.73676C63.7933 1.73976 63.5039 1.74875 63.1411 1.76374C62.7784 1.77873 62.4695 1.80872 62.2147 1.85369C61.9599 1.89866 61.7455 1.95413 61.5716 2.02009C61.2718 2.14002 61.0079 2.31391 60.7801 2.54178C60.5522 2.76964 60.3783 3.03348 60.2584 3.3333C60.1924 3.5072 60.1369 3.72157 60.092 3.97642C60.047 4.23126 60.017 4.54008 60.002 4.90286C59.987 5.26564 59.978 5.55497 59.975 5.77084C59.972 5.98671 59.972 6.30302 59.975 6.71977C59.978 7.13652 59.9795 7.36588 59.9795 7.40786C59.9795 7.44983 59.978 7.6792 59.975 8.09595C59.972 8.5127 59.972 8.82901 59.975 9.04488C59.978 9.26075 59.987 9.55007 60.002 9.91286C60.017 10.2756 60.047 10.5845 60.092 10.8393C60.1369 11.0941 60.1924 11.3085 60.2584 11.4824C60.3783 11.7822 60.5522 12.0461 60.7801 12.2739C61.0079 12.5018 61.2718 12.6757 61.5716 12.7956C61.7455 12.8616 61.9599 12.9171 62.2147 12.962C62.4695 13.007 62.7784 13.037 63.1411 13.052C63.5039 13.067 63.7933 13.076 64.0091 13.079C64.225 13.082 64.5413 13.082 64.9581 13.079C65.3748 13.076 65.6042 13.0745 65.6461 13.0745C65.6881 13.0745 65.9175 13.076 66.3342 13.079C66.751 13.082 67.0673 13.082 67.2832 13.079C67.499 13.076 67.7884 13.067 68.1511 13.052C68.5139 13.037 68.8227 13.007 69.0776 12.962C69.3324 12.9171 69.5468 12.8616 69.7207 12.7956C70.0205 12.6757 70.2844 12.5018 70.5122 12.2739C70.7401 12.0461 70.914 11.7822 71.0339 11.4824C71.0999 11.3085 71.1553 11.0941 71.2003 10.8393C71.2453 10.5845 71.2753 10.2756 71.2903 9.91286C71.3052 9.55007 71.3142 9.26075 71.3172 9.04488C71.3202 8.82901 71.3202 8.5127 71.3172 8.09595C71.3142 7.6792 71.3127 7.44983 71.3127 7.40786C71.3127 7.36588 71.3142 7.13652 71.3172 6.71977C71.3202 6.30302 71.3202 5.98671 71.3172 5.77084C71.3142 5.55497 71.3052 5.26564 71.2903 4.90286C71.2753 4.54008 71.2453 4.23126 71.2003 3.97642C71.1553 3.72157 71.0999 3.5072 71.0339 3.3333C70.914 3.03348 70.7401 2.76964 70.5122 2.54178C70.2844 2.31391 70.0205 2.14002 69.7207 2.02009C69.5468 1.95413 69.3324 1.89866 69.0776 1.85369C68.8227 1.80872 68.5139 1.77873 68.1511 1.76374C67.7884 1.74875 67.499 1.73976 67.2832 1.73676C67.0673 1.73376 66.751 1.73376 66.3342 1.73676C65.9175 1.73976 65.6881 1.74126 65.6461 1.74126ZM72.554 7.40786C72.554 8.78104 72.539 9.73147 72.509 10.2591C72.4491 11.5064 72.0773 12.4718 71.3937 13.1554C70.7101 13.839 69.7447 14.2108 68.4974 14.2707C67.9697 14.3007 67.0193 14.3157 65.6461 14.3157C64.273 14.3157 63.3225 14.3007 62.7948 14.2707C61.5476 14.2108 60.5822 13.839 59.8986 13.1554C59.215 12.4718 58.8432 11.5064 58.7833 10.2591C58.7533 9.73147 58.7383 8.78104 58.7383 7.40786C58.7383 6.03468 58.7533 5.08425 58.7833 4.55657C58.8432 3.30932 59.215 2.34389 59.8986 1.6603C60.5822 0.976714 61.5476 0.604937 62.7948 0.544973C63.3225 0.514991 64.273 0.5 65.6461 0.5C67.0193 0.5 67.9697 0.514991 68.4974 0.544973C69.7447 0.604937 70.7101 0.976714 71.3937 1.6603C72.0773 2.34389 72.4491 3.30932 72.509 4.55657C72.539 5.08425 72.554 6.03468 72.554 7.40786Z" fill="white"/>
<path d="M89.9079 14.3157V4.99428H86.7489V14.3157H89.9079ZM88.3288 3.72083C89.4304 3.72083 90.1161 3.00505 90.1161 2.11057C90.0955 1.19591 89.4304 0.5 88.3497 0.5C87.2691 0.5 86.5625 1.19592 86.5625 2.11057C86.5625 3.00509 87.248 3.72083 88.3082 3.72083H88.3287H88.3288ZM91.6563 14.3157H94.8153V9.11017C94.8153 8.83157 94.8359 8.55327 94.9193 8.35412C95.1476 7.7975 95.6674 7.22099 96.5401 7.22099C97.6832 7.22099 98.1405 8.0758 98.1405 9.32889V14.3156H101.299V8.97082C101.299 6.10764 99.7408 4.77544 97.6624 4.77544C95.9582 4.77544 95.21 5.70968 94.7943 6.34599H94.8154V4.99408H91.6564C91.6979 5.86876 91.6564 14.3155 91.6564 14.3155L91.6563 14.3157Z" fill="white"/>
<path d="M6.83863 0.5C3.07742 0.5 0 3.57742 0 7.33863C0 11.0992 3.07742 14.1766 6.83863 14.1766C10.5992 14.1766 13.6766 11.0992 13.6766 7.33863C13.6766 3.57742 10.6334 0.5 6.83863 0.5ZM9.98381 10.3811C9.84759 10.5858 9.60803 10.6549 9.402 10.5187C7.79416 9.52622 5.777 9.32088 3.38338 9.86778C3.14518 9.93759 2.93984 9.76647 2.87139 9.56044C2.80226 9.32088 2.97338 9.1169 3.1794 9.04777C5.777 8.46596 8.03441 8.70622 9.812 9.8007C10.0516 9.90268 10.0858 10.1758 9.98381 10.3811ZM10.8052 8.50087C10.6334 8.73975 10.326 8.84243 10.0858 8.67131C8.23975 7.54465 5.43681 7.20105 3.28276 7.88553C3.01034 7.95466 2.70095 7.81708 2.63319 7.54465C2.56406 7.26949 2.70164 6.96148 2.97474 6.89303C5.47035 6.14147 8.54845 6.51794 10.6676 7.81776C10.8729 7.91975 10.9756 8.2613 10.8052 8.50087V8.50087ZM10.8729 6.58502C8.68467 5.28656 5.02613 5.14966 2.93984 5.8006C2.78118 5.84632 2.61101 5.82916 2.46467 5.75268C2.31834 5.67619 2.2071 5.54628 2.15405 5.38992C2.10752 5.23107 2.12421 5.06038 2.20062 4.91355C2.27704 4.76672 2.40726 4.65512 2.56406 4.60208C4.9919 3.88406 8.99268 4.02027 11.5232 5.52681C11.8305 5.69725 11.9332 6.10793 11.7621 6.41527C11.591 6.65483 11.181 6.75614 10.8729 6.58502Z" fill="white"/>
</svg>
