<svg width="27" height="30" viewBox="0 0 27 30" fill="none" xmlns="http://www.w3.org/2000/svg">
<path d="M13.2306 29.8186C12.8313 29.8186 12.4347 29.7139 12.0846 29.5123L8.43685 27.3527C7.89202 27.048 8.15787 26.9402 8.33757 26.8781C9.064 26.6238 9.21142 26.5663 9.98681 26.126C10.0683 26.0795 10.175 26.0959 10.2584 26.1451L13.0607 27.8081C13.1619 27.8628 13.3055 27.8628 13.3993 27.8081L24.3259 21.501C24.4271 21.4436 24.4928 21.326 24.4928 21.2056V8.59698C24.4928 8.47117 24.4271 8.35903 24.3237 8.29613L13.4015 1.99454C13.3003 1.93437 13.1663 1.93437 13.0651 1.99454L2.14511 8.29613C2.03926 8.3563 1.97198 8.4739 1.97198 8.59425V21.2029C1.97198 21.3232 2.03762 21.4381 2.14155 21.4955L5.13371 23.2241C6.75834 24.0364 7.75117 23.0791 7.75117 22.1164V9.67186C7.75117 9.49408 7.89066 9.35733 8.06843 9.35733H9.45238C9.62468 9.35733 9.76691 9.49408 9.76691 9.67186V22.1219C9.76691 24.288 8.58536 25.5325 6.53133 25.5325C5.89953 25.5325 5.40175 25.5325 4.01234 24.8487L1.14599 23.1967C0.437611 22.7865 0 22.0207 0 21.2029V8.59425C0 7.77373 0.437611 7.00791 1.14599 6.60312L12.0835 0.293335C12.7755 -0.0977785 13.6945 -0.0977785 14.381 0.293335L25.3048 6.60586C26.0104 7.01338 26.4508 7.77647 26.4508 8.59698V21.2056C26.4508 22.0234 26.0104 22.7865 25.3048 23.1967L14.381 29.5065C14.0309 29.7089 13.6343 29.8129 13.2295 29.8129" fill="white"/>
<path d="M16.6056 21.1305C11.8247 21.1305 10.8223 18.9359 10.8223 17.0952C10.8223 16.9202 10.9634 16.7807 11.1387 16.7807H12.55C12.7059 16.7807 12.8372 16.8942 12.8618 17.0482C13.0751 18.4863 13.7097 19.2116 16.6006 19.2116C18.9036 19.2116 19.8827 18.6914 19.8827 17.4702C19.8827 16.7673 19.6037 16.2449 16.0263 15.8948C13.0341 15.5994 11.1852 14.9403 11.1852 12.5471C11.1852 10.3426 13.045 9.02979 16.1603 9.02979C19.6584 9.02979 21.3925 10.2442 21.6113 12.8534C21.6195 12.9437 21.5867 13.0312 21.5265 13.0968C21.4663 13.1597 21.3815 13.198 21.294 13.198H19.8745C19.7268 13.198 19.5983 13.0941 19.5682 12.9519C19.2263 11.4394 18.4003 10.9553 16.1548 10.9553C13.6413 10.9553 13.3486 11.8305 13.3486 12.4869C13.3486 13.2828 13.6933 13.5153 17.0847 13.9638C20.4434 14.4096 22.0379 15.0387 22.0379 17.3991C22.0379 19.7786 20.0523 21.1434 16.5897 21.1434L16.6056 21.1305Z" fill="white"/>
</svg>
