<svg width="124" height="123" viewBox="0 0 124 123" fill="none" xmlns="http://www.w3.org/2000/svg">
<g filter="url(#filter0_d_3319_6700)">
<path d="M38.1585 39.8005C38.3431 31.129 45.5303 24.1679 54.3922 24.0776L62 24L69.6078 24.0776C78.4697 24.1679 85.6569 31.129 85.8414 39.8005L86 47.2486L85.838 54.858C85.6548 63.4647 78.5694 70.399 69.7752 70.5783L62 70.7368L54.2248 70.5783C45.4306 70.399 38.3452 63.4647 38.162 54.858L38 47.2486L38.1585 39.8005Z" fill="#001E36"/>
</g>
<path d="M48 57.3389V37.3306C48 37.1944 48.0583 37.1167 48.1944 37.1167C48.525 37.1167 48.8361 37.1167 49.2833 37.0972C49.75 37.0778 50.2361 37.0778 50.7611 37.0583C51.2861 37.0389 51.85 37.0389 52.4528 37.0194C53.0556 37 53.6389 37 54.2222 37C55.8167 37 57.1389 37.1944 58.2278 37.6028C59.2 37.9333 60.0944 38.4778 60.8333 39.1972C61.4556 39.8194 61.9417 40.5778 62.2528 41.4139C62.5444 42.2306 62.7 43.0667 62.7 43.9417C62.7 45.6139 62.3111 46.9944 61.5333 48.0833C60.7556 49.1722 59.6667 49.9889 58.4028 50.4556C57.0806 50.9417 55.6222 51.1167 54.0278 51.1167C53.5611 51.1167 53.25 51.1167 53.0556 51.0972C52.8611 51.0778 52.5889 51.0778 52.2194 51.0778V57.3194C52.2389 57.4556 52.1417 57.5722 52.0056 57.5917C51.9861 57.5917 51.9667 57.5917 51.9278 57.5917H48.2333C48.0778 57.5917 48 57.5139 48 57.3389ZM52.2389 40.8694V47.4028C52.5111 47.4222 52.7639 47.4417 52.9972 47.4417H54.0278C54.7861 47.4417 55.5444 47.325 56.2639 47.0917C56.8861 46.9167 57.4306 46.5472 57.8583 46.0611C58.2667 45.575 58.4611 44.9139 58.4611 44.0583C58.4806 43.4556 58.325 42.8528 58.0139 42.3278C57.6833 41.8222 57.2167 41.4333 56.6528 41.2194C55.9333 40.9278 55.1556 40.8111 54.3583 40.8306C53.8528 40.8306 53.4056 40.8306 53.0361 40.85C52.6472 40.8306 52.375 40.85 52.2389 40.8694Z" fill="#31A8FF"/>
<path d="M74.8326 46.2167C74.2493 45.9056 73.627 45.6917 72.9659 45.5556C72.2465 45.4 71.527 45.3028 70.7882 45.3028C70.3993 45.2834 69.9909 45.3417 69.6215 45.4389C69.3687 45.4973 69.1548 45.6334 69.0187 45.8278C68.9215 45.9834 68.8632 46.1778 68.8632 46.3528C68.8632 46.5278 68.9409 46.7028 69.0576 46.8584C69.2326 47.0723 69.4659 47.2473 69.7187 47.3834C70.1659 47.6167 70.6326 47.8306 71.0993 48.025C72.1493 48.375 73.1604 48.8612 74.0937 49.4445C74.7354 49.8528 75.2604 50.3973 75.6298 51.0584C75.9409 51.6806 76.0965 52.3612 76.077 53.0612C76.0965 53.975 75.8243 54.8889 75.3187 55.6473C74.7743 56.425 74.0159 57.0278 73.1409 57.3778C72.1882 57.7862 71.0215 58 69.6215 58C68.727 58 67.852 57.9223 66.977 57.7473C66.2965 57.6306 65.6159 57.4167 64.9937 57.125C64.8576 57.0473 64.7604 56.9112 64.7798 56.7556V53.3723C64.7798 53.3139 64.7993 53.2362 64.8576 53.1973C64.9159 53.1584 64.9743 53.1778 65.0326 53.2167C65.7909 53.6639 66.5882 53.975 67.4437 54.1695C68.1826 54.3639 68.9604 54.4612 69.7382 54.4612C70.477 54.4612 71.002 54.3639 71.352 54.1889C71.6632 54.0528 71.877 53.7223 71.877 53.3723C71.877 53.1 71.7215 52.8473 71.4104 52.5945C71.0993 52.3417 70.4576 52.05 69.5048 51.6806C68.5132 51.3306 67.5993 50.8639 66.7437 50.2806C66.1409 49.8528 65.6354 49.2889 65.2659 48.6278C64.9548 48.0056 64.7993 47.325 64.8187 46.6445C64.8187 45.8084 65.052 45.0112 65.4798 44.2917C65.9659 43.5139 66.6854 42.8917 67.5215 42.5028C68.4354 42.0362 69.5826 41.8223 70.9632 41.8223C71.7604 41.8223 72.577 41.8806 73.3743 41.9973C73.9576 42.075 74.5215 42.2306 75.0465 42.4445C75.1243 42.4639 75.202 42.5417 75.2409 42.6195C75.2604 42.6973 75.2798 42.775 75.2798 42.8528V46.0223C75.2798 46.1 75.2409 46.1778 75.1826 46.2167C75.0076 46.2556 74.9104 46.2556 74.8326 46.2167Z" fill="#31A8FF"/>
<defs>
<filter id="filter0_d_3319_6700" x="0" y="0" width="124" height="122.737" filterUnits="userSpaceOnUse" color-interpolation-filters="sRGB">
<feFlood flood-opacity="0" result="BackgroundImageFix"/>
<feColorMatrix in="SourceAlpha" type="matrix" values="0 0 0 0 0 0 0 0 0 0 0 0 0 0 0 0 0 0 127 0" result="hardAlpha"/>
<feOffset dy="14"/>
<feGaussianBlur stdDeviation="19"/>
<feColorMatrix type="matrix" values="0 0 0 0 0 0 0 0 0 0 0 0 0 0 0 0 0 0 0.1 0"/>
<feBlend mode="normal" in2="BackgroundImageFix" result="effect1_dropShadow_3319_6700"/>
<feBlend mode="normal" in="SourceGraphic" in2="effect1_dropShadow_3319_6700" result="shape"/>
</filter>
</defs>
</svg>
