<svg width="131" height="130" viewBox="0 0 131 130" fill="none" xmlns="http://www.w3.org/2000/svg">
<g filter="url(#filter0_d_3319_7197)">
<circle cx="65.3785" cy="50.6138" r="26.0758" fill="white"/>
</g>
<path fill-rule="evenodd" clip-rule="evenodd" d="M79.6609 39.8766H51.6945C49.9247 39.8766 48.4919 41.3234 48.506 43.0793V53.7546C48.506 55.5245 49.9388 56.9572 51.7086 56.9572H64.9544L71.0084 60.3283L69.6319 56.9572H79.6609C81.4309 56.9572 82.8635 55.5244 82.8635 53.7546V43.0793C82.8635 41.3093 81.4307 39.8766 79.6609 39.8766ZM51.3421 42.3626C50.951 42.3906 50.6577 42.5302 50.4622 42.7956L50.4623 42.7956C50.2668 43.047 50.183 43.3682 50.2389 43.7313C51.0629 48.9687 51.8311 52.5022 52.5434 54.3319C52.8227 55.0022 53.144 55.3235 53.5211 55.2955C54.1077 55.2537 54.806 54.4436 55.63 52.8654C56.063 51.9716 56.7333 50.6307 57.6411 48.843C58.3953 51.4828 59.4288 53.466 60.7277 54.7928C61.0908 55.1699 61.4679 55.3375 61.831 55.3096C62.1523 55.2816 62.4037 55.114 62.5713 54.8068C62.7109 54.5414 62.7668 54.2341 62.7389 53.885C62.6551 52.614 62.7808 50.8403 63.1299 48.5637C63.493 46.2175 63.9399 44.5275 64.4846 43.5219C64.5964 43.3124 64.6383 43.1029 64.6243 42.8515C64.5964 42.5302 64.4567 42.2649 64.1913 42.0554C63.926 41.8459 63.6327 41.7481 63.3114 41.7761C62.9064 41.804 62.5992 41.9995 62.3897 42.3906C61.5237 43.9689 60.9092 46.5246 60.546 50.0722C60.0153 48.7314 59.5684 47.1533 59.2192 45.2957C59.0656 44.4717 58.6885 44.0806 58.074 44.1225C57.655 44.1504 57.3058 44.4298 57.0265 44.9605L53.9678 50.7845C53.465 48.7593 52.9901 46.2873 52.5572 43.3682C52.4594 42.642 52.0544 42.3068 51.3421 42.3626ZM78.2422 43.3681C79.2337 43.5776 79.974 44.1084 80.4768 44.9883C80.9237 45.7426 81.1611 46.6503 81.1471 47.7397C81.1471 49.1782 80.784 50.4911 80.0578 51.6922C79.2197 53.0889 78.1304 53.7872 76.7757 53.7872C76.5382 53.7872 76.2868 53.7593 76.0215 53.7034C75.0299 53.4939 74.2897 52.9631 73.7869 52.0832C73.34 51.315 73.1165 50.3933 73.1165 49.3178C73.1165 47.8794 73.4796 46.5665 74.2059 45.3793C75.0579 43.9827 76.1472 43.2843 77.488 43.2843C77.7254 43.2843 77.9768 43.3123 78.2422 43.3681ZM77.6556 50.9241C78.1723 50.4631 78.5215 49.7788 78.717 48.857L78.717 48.8571C78.7869 48.5358 78.8148 48.1867 78.8148 47.8235C78.8148 47.4185 78.731 46.9855 78.5634 46.5526C78.3539 46.0079 78.0746 45.7146 77.7394 45.6448C77.2365 45.547 76.7477 45.8263 76.2868 46.5107C75.9097 47.0414 75.6723 47.6001 75.5466 48.1727C75.4768 48.4939 75.4488 48.8431 75.4488 49.1923C75.4488 49.5973 75.5326 50.0303 75.7002 50.4632C75.9097 51.0079 76.1891 51.3012 76.5243 51.371C76.8734 51.4409 77.2505 51.2872 77.6556 50.9241ZM69.4991 43.3681C70.4767 43.5776 71.2309 44.1084 71.7337 44.9883C72.1806 45.7426 72.4041 46.6503 72.4041 47.7397C72.4041 49.1782 72.0409 50.4911 71.3147 51.6922C70.4767 53.0889 69.3873 53.7872 68.0326 53.7872C67.7952 53.7872 67.5438 53.7593 67.2784 53.7034C66.2868 53.4939 65.5466 52.9631 65.0438 52.0832C64.5969 51.315 64.3734 50.3933 64.3734 49.3178C64.3734 47.8794 64.7366 46.5665 65.4628 45.3793C66.3148 43.9827 67.4041 43.2843 68.7449 43.2843C68.9823 43.2843 69.2337 43.3123 69.4991 43.3681ZM68.8985 50.9241C69.4153 50.4631 69.7644 49.7788 69.96 48.857L69.96 48.8571C70.0298 48.5358 70.0717 48.1867 70.0578 47.8235C70.0578 47.4185 69.974 46.9855 69.8064 46.5526C69.5969 46.0079 69.3176 45.7146 68.9824 45.6448C68.4795 45.547 67.9907 45.8263 67.5298 46.5107C67.1527 47.0414 66.9153 47.6001 66.7896 48.1727C66.7198 48.4939 66.6918 48.8431 66.6918 49.1923C66.6918 49.5973 66.7756 50.0303 66.9432 50.4632C67.1527 51.0079 67.432 51.3012 67.7672 51.371C68.1164 51.4409 68.4935 51.2872 68.8985 50.9241Z" fill="#7F54B3"/>
<defs>
<filter id="filter0_d_3319_7197" x="0.444714" y="-0.00388336" width="129.868" height="129.868" filterUnits="userSpaceOnUse" color-interpolation-filters="sRGB">
<feFlood flood-opacity="0" result="BackgroundImageFix"/>
<feColorMatrix in="SourceAlpha" type="matrix" values="0 0 0 0 0 0 0 0 0 0 0 0 0 0 0 0 0 0 127 0" result="hardAlpha"/>
<feOffset dy="14.3161"/>
<feGaussianBlur stdDeviation="19.429"/>
<feColorMatrix type="matrix" values="0 0 0 0 0 0 0 0 0 0 0 0 0 0 0 0 0 0 0.1 0"/>
<feBlend mode="normal" in2="BackgroundImageFix" result="effect1_dropShadow_3319_7197"/>
<feBlend mode="normal" in="SourceGraphic" in2="effect1_dropShadow_3319_7197" result="shape"/>
</filter>
</defs>
</svg>
