<svg width="30" height="27" viewBox="0 0 30 27" fill="none" xmlns="http://www.w3.org/2000/svg">
<path d="M29.3215 13.059C29.3215 11.1166 26.889 9.27579 23.1596 8.13424C24.0202 4.33308 23.6377 1.30889 21.9523 0.34067C21.5638 0.113556 21.1096 0.00597658 20.6135 0.00597658V1.33877C20.8884 1.33877 21.1096 1.39256 21.2949 1.49417C22.1077 1.96035 22.4603 3.73542 22.1854 6.0185C22.1196 6.58031 22.0121 7.172 21.8806 7.77564C20.7091 7.48876 19.4301 7.26763 18.0854 7.12419C17.2785 6.0185 16.4418 5.01442 15.5991 4.13585C17.5475 2.32492 19.3764 1.3328 20.6195 1.3328V0C18.9759 0 16.8243 1.17143 14.6488 3.20349C12.4733 1.18338 10.3217 0.0239068 8.67812 0.0239068V1.3567C9.91529 1.3567 11.7501 2.34285 13.6985 4.14183C12.8618 5.0204 12.0251 6.0185 11.2302 7.12419C9.87943 7.26763 8.60042 7.48876 7.429 7.78162C7.29153 7.18395 7.18993 6.60422 7.11821 6.04839C6.83731 3.7653 7.18395 1.99023 7.9908 1.51807C8.1701 1.41049 8.40319 1.36268 8.67812 1.36268V0.0298833C8.17608 0.0298833 7.72185 0.137463 7.32739 0.364577C5.64795 1.3328 5.27142 4.35101 6.13804 8.14022C2.42055 9.28774 0 11.1226 0 13.059C0 15.0014 2.4325 16.8422 6.16194 17.9838C5.3013 21.785 5.68381 24.8091 7.36923 25.7774C7.75771 26.0045 8.21194 26.1121 8.71398 26.1121C10.3576 26.1121 12.5092 24.9406 14.6847 22.9086C16.8602 24.9287 19.0118 26.0882 20.6554 26.0882C21.1574 26.0882 21.6116 25.9806 22.0061 25.7535C23.6855 24.7852 24.0621 21.767 23.1954 17.9778C26.901 16.8363 29.3215 14.9955 29.3215 13.059ZM21.5399 9.07258C21.3188 9.84357 21.0438 10.6385 20.7331 11.4334C20.488 10.9552 20.231 10.4771 19.9501 9.99896C19.6752 9.52083 19.3823 9.05465 19.0895 8.60042C19.9382 8.72593 20.757 8.88133 21.5399 9.07258ZM18.8026 15.4377C18.3364 16.2446 17.8583 17.0096 17.3622 17.7208C16.4717 17.7985 15.5692 17.8404 14.6608 17.8404C13.7583 17.8404 12.8558 17.7985 11.9713 17.7268C11.4752 17.0156 10.9911 16.2565 10.5249 15.4557C10.0707 14.6727 9.65829 13.8778 9.28176 13.0769C9.65232 12.2761 10.0707 11.4752 10.5189 10.6923C10.9851 9.88541 11.4632 9.12039 11.9593 8.40917C12.8498 8.33147 13.7523 8.28964 14.6608 8.28964C15.5632 8.28964 16.4657 8.33147 17.3503 8.40319C17.8463 9.11442 18.3304 9.87345 18.7966 10.6743C19.2508 11.4573 19.6632 12.2522 20.0398 13.053C19.6632 13.8539 19.2508 14.6548 18.8026 15.4377ZM20.7331 14.6608C21.0558 15.4616 21.3307 16.2625 21.5578 17.0395C20.7749 17.2307 19.9501 17.3921 19.0955 17.5176C19.3883 17.0574 19.6812 16.5853 19.9561 16.1011C20.231 15.623 20.488 15.1389 20.7331 14.6608ZM14.6727 21.0379C14.1169 20.4641 13.5611 19.8246 13.0112 19.1253C13.5491 19.1492 14.099 19.1672 14.6548 19.1672C15.2166 19.1672 15.7724 19.1552 16.3163 19.1253C15.7784 19.8246 15.2226 20.4641 14.6727 21.0379ZM10.2261 17.5176C9.37739 17.3921 8.55859 17.2367 7.77564 17.0455C7.99678 16.2745 8.27171 15.4796 8.58249 14.6847C8.82754 15.1628 9.08453 15.6409 9.36544 16.1191C9.64634 16.5972 9.93322 17.0634 10.2261 17.5176ZM14.6428 5.08017C15.1987 5.65393 15.7545 6.29343 16.3043 6.9927C15.7664 6.96879 15.2166 6.95086 14.6608 6.95086C14.099 6.95086 13.5431 6.96282 12.9993 6.9927C13.5372 6.29343 14.093 5.65393 14.6428 5.08017ZM10.2201 8.60042C9.92724 9.06063 9.63439 9.53278 9.35946 10.0169C9.08453 10.495 8.82754 10.9732 8.58249 11.4513C8.25975 10.6504 7.98483 9.84955 7.75771 9.07258C8.54066 8.8873 9.36544 8.72593 10.2201 8.60042ZM4.81122 16.0832C2.69548 15.1807 1.32682 13.9974 1.32682 13.059C1.32682 12.1207 2.69548 10.9313 4.81122 10.0348C5.32521 9.81369 5.88702 9.61646 6.46675 9.43118C6.80742 10.6026 7.25567 11.8218 7.8115 13.071C7.26165 14.3141 6.81938 15.5274 6.48468 16.6928C5.89299 16.5076 5.33119 16.3043 4.81122 16.0832ZM8.02666 24.6239C7.21384 24.1577 6.86121 22.3826 7.13614 20.0995C7.20188 19.5377 7.30946 18.946 7.44095 18.3424C8.61238 18.6293 9.89138 18.8504 11.2361 18.9938C12.043 20.0995 12.8797 21.1036 13.7224 21.9822C11.774 23.7931 9.94517 24.7852 8.70203 24.7852C8.43308 24.7793 8.20596 24.7255 8.02666 24.6239ZM22.2033 20.0696C22.4842 22.3527 22.1376 24.1278 21.3307 24.6C21.1514 24.7075 20.9183 24.7554 20.6434 24.7554C19.4062 24.7554 17.5714 23.7692 15.623 21.9702C16.4597 21.0917 17.2965 20.0936 18.0914 18.9879C19.4421 18.8444 20.7211 18.6233 21.8925 18.3304C22.03 18.9341 22.1376 19.5138 22.2033 20.0696ZM24.5043 16.0832C23.9903 16.3043 23.4285 16.5016 22.8488 16.6869C22.5081 15.5154 22.0599 14.2962 21.504 13.0471C22.0539 11.8039 22.4962 10.5907 22.8309 9.4252C23.4226 9.61048 23.9844 9.81369 24.5103 10.0348C26.626 10.9373 27.9947 12.1207 27.9947 13.059C27.9887 13.9974 26.6201 15.1867 24.5043 16.0832Z" fill="#61DAFB"/>
<path d="M14.6552 15.7901C16.1636 15.7901 17.3865 14.5672 17.3865 13.0587C17.3865 11.5503 16.1636 10.3274 14.6552 10.3274C13.1467 10.3274 11.9238 11.5503 11.9238 13.0587C11.9238 14.5672 13.1467 15.7901 14.6552 15.7901Z" fill="#61DAFB"/>
</svg>
