<svg width="97" height="17" viewBox="0 0 97 17" fill="none" xmlns="http://www.w3.org/2000/svg">
<path d="M8.5 0L10.4084 5.87336L16.584 5.87336L11.5878 9.50329L13.4962 15.3766L8.5 11.7467L3.50383 15.3766L5.41219 9.50329L0.416019 5.87336L6.59163 5.87336L8.5 0Z" fill="#EDBA2B"/>
<path d="M28.5 0L30.4084 5.87336L36.584 5.87336L31.5878 9.50329L33.4962 15.3766L28.5 11.7467L23.5038 15.3766L25.4122 9.50329L20.416 5.87336L26.5916 5.87336L28.5 0Z" fill="#EDBA2B"/>
<path d="M48.5 0L50.4084 5.87336L56.584 5.87336L51.5878 9.50329L53.4962 15.3766L48.5 11.7467L43.5038 15.3766L45.4122 9.50329L40.416 5.87336L46.5916 5.87336L48.5 0Z" fill="#EDBA2B"/>
<path d="M68.5 0L70.4084 5.87336L76.584 5.87336L71.5878 9.50329L73.4962 15.3766L68.5 11.7467L63.5038 15.3766L65.4122 9.50329L60.416 5.87336L66.5916 5.87336L68.5 0Z" fill="#EDBA2B"/>
<path d="M88.5 0L90.4084 5.87336L96.584 5.87336L91.5878 9.50329L93.4962 15.3766L88.5 11.7467L83.5038 15.3766L85.4122 9.50329L80.416 5.87336L86.5916 5.87336L88.5 0Z" fill="#EDBA2B"/>
</svg>
