<svg width="38" height="38" viewBox="0 0 38 38" fill="none" xmlns="http://www.w3.org/2000/svg">
<path d="M0.125518 13.3062C0.271655 6.39669 5.96154 0.850093 12.9772 0.778107L19.0001 0.716309L25.0229 0.778107C32.0386 0.850093 37.7286 6.39669 37.8747 13.3062L38 19.2409L37.8718 25.3041C37.7268 32.162 32.1176 37.6872 25.1554 37.8301L19.0001 37.9565L12.8447 37.8301C5.88255 37.6872 0.273282 32.162 0.128237 25.3041L0 19.2409L0.125518 13.3062Z" fill="#EF5D62"/>
<path fill-rule="evenodd" clip-rule="evenodd" d="M16.0828 9.94238H11.0723V28.7887H16.0828V9.94238ZM26.8173 20.646H18.7621C18.7621 25.0958 22.3808 28.7255 26.8173 28.7255V20.646ZM18.7795 13.9909C18.7795 16.207 20.5715 18.0218 22.7984 18.0218C25.0079 18.0218 26.8173 16.1896 26.8173 13.9734C26.8173 11.7572 25.0253 9.94238 22.7984 9.94238C20.5715 9.94238 18.7795 11.7747 18.7795 13.9909Z" fill="white"/>
</svg>
