<svg width="502" height="257" viewBox="0 0 502 257" fill="none" xmlns="http://www.w3.org/2000/svg">
<g opacity="0.2">
<path d="M0 52.4559H32.5538V256.149" stroke="#EF5D62" stroke-width="0.930107"/>
<path d="M500.399 256.149V52.4559H374.834V256.149" stroke="#EF5D62" stroke-width="0.930107"/>
<path d="M358.091 256.149V52.4559H49.2949V256.149" stroke="#EF5D62" stroke-width="0.930107"/>
<line x1="4.06563e-08" y1="132.91" x2="32.5538" y2="132.91" stroke="#EF5D62" stroke-width="0.930107"/>
<path d="M271.591 256.15V98.9615H126.494V256.15" stroke="#EF5D62" stroke-width="0.930107"/>
<path d="M0 1.29956H500.636V37.5115H0" stroke="#EF5D62" stroke-width="0.930107"/>
<path d="M474.938 16.6069C474.938 15.6137 475.989 14.9949 476.827 15.4953L482.491 18.8791C483.322 19.3756 483.322 20.6056 482.491 21.1022L476.827 24.4859C475.989 24.9863 474.938 24.3675 474.938 23.3744V16.6069ZM481.858 19.9906L476.194 16.6069V23.3744L481.858 19.9906Z" fill="#EF5D62"/>
<circle cx="414.78" cy="19.406" r="5.95965" stroke="#EF5D62" stroke-width="0.930107"/>
<rect x="432.182" y="11.1107" width="31.7775" height="16.5918" stroke="#EF5D62" stroke-width="0.930107"/>
</g>
</svg>
