<svg width="131" height="131" viewBox="0 0 131 131" fill="none" xmlns="http://www.w3.org/2000/svg">
<g filter="url(#filter0_d_3319_7193)">
<circle cx="65.775" cy="51.4081" r="26.0758" fill="white"/>
</g>
<path fill-rule="evenodd" clip-rule="evenodd" d="M66.287 35.2123C70.645 35.2123 74.6131 36.8823 77.5876 39.6166C76.1297 39.5775 74.6748 40.4441 74.6146 42.4286C74.492 46.4405 79.4119 47.2951 76.7609 55.3648L74.568 62.0397L68.5957 44.447C68.5032 44.1747 68.6107 44.0197 68.9455 44.0197H70.634C70.7217 44.0197 70.7935 43.9448 70.7935 43.853V42.8529C70.7935 42.7612 70.7215 42.6825 70.634 42.6863C67.4364 42.8261 64.2577 42.8271 61.0981 42.6863C61.0101 42.6825 60.9387 42.7615 60.9387 42.8533V43.8534C60.9387 43.945 61.0104 44.0201 61.0981 44.0201H62.7959C63.1735 44.0201 63.2793 44.1459 63.3683 44.3893L65.8222 51.1004L62.1308 62.2468L56.063 44.3743C55.9877 44.1501 56.0787 44.02 56.2946 44.02H58.2291C58.3168 44.02 58.3886 43.945 58.3886 43.8533V42.8532C58.3886 42.7615 58.3166 42.6819 58.2291 42.6865C56.1995 42.7943 54.1621 42.816 52.2643 42.8355C55.2424 38.2478 60.4099 35.212 66.2859 35.212L66.2859 35.2119L66.287 35.2123ZM80.9804 43.9635C82.2641 46.3287 82.9931 49.0387 82.9931 51.9181C82.9931 58.2375 79.4819 63.7378 74.3051 66.5769L79.5153 51.8195C80.3225 49.5356 81.0718 46.449 80.98 43.9635H80.98H80.9804ZM71.8801 67.6632C70.1311 68.2853 68.2489 68.6246 66.287 68.6246C64.5966 68.6246 62.9657 68.3726 61.428 67.9062L66.5747 53.1571L71.88 67.6639V67.6639L71.8801 67.6632ZM59.1381 67.0207C53.4884 64.3414 49.5804 58.5855 49.5804 51.9188C49.5804 49.4474 50.118 47.1014 51.0816 44.9907L59.1385 67.021L59.1385 67.021L59.1381 67.0207ZM66.2864 33.6445C76.3767 33.6445 84.5599 41.8278 84.5599 51.9181C84.5599 62.0083 76.3767 70.1916 66.2864 70.1916C56.1962 70.1916 48.0129 62.0083 48.0129 51.9181C48.0129 41.8278 56.1962 33.6445 66.2864 33.6445V33.6445ZM66.2864 32.4895C77.0146 32.4895 85.7154 41.1903 85.7154 51.9185C85.7154 62.6467 77.0146 71.3475 66.2864 71.3475C55.5582 71.3475 46.8574 62.6467 46.8574 51.9185C46.8574 41.1903 55.5582 32.4895 66.2864 32.4895V32.4895Z" fill="#0073AA"/>
<defs>
<filter id="filter0_d_3319_7193" x="0.841198" y="0.790367" width="129.868" height="129.868" filterUnits="userSpaceOnUse" color-interpolation-filters="sRGB">
<feFlood flood-opacity="0" result="BackgroundImageFix"/>
<feColorMatrix in="SourceAlpha" type="matrix" values="0 0 0 0 0 0 0 0 0 0 0 0 0 0 0 0 0 0 127 0" result="hardAlpha"/>
<feOffset dy="14.3161"/>
<feGaussianBlur stdDeviation="19.429"/>
<feColorMatrix type="matrix" values="0 0 0 0 0 0 0 0 0 0 0 0 0 0 0 0 0 0 0.1 0"/>
<feBlend mode="normal" in2="BackgroundImageFix" result="effect1_dropShadow_3319_7193"/>
<feBlend mode="normal" in="SourceGraphic" in2="effect1_dropShadow_3319_7193" result="shape"/>
</filter>
</defs>
</svg>
