<svg width="7" height="7" viewBox="0 0 7 7" fill="none" xmlns="http://www.w3.org/2000/svg">
<path d="M3.24547 0.586304C3.45726 0.586304 3.62894 0.757988 3.62894 0.969771V3.27058H5.92974C6.14153 3.27058 6.31321 3.44226 6.31321 3.65404C6.31321 3.86583 6.14153 4.03751 5.92974 4.03751H3.62894V6.33831C3.62894 6.5501 3.45726 6.72178 3.24547 6.72178C3.03369 6.72178 2.86201 6.5501 2.86201 6.33831V4.03751H0.561202C0.349419 4.03751 0.177734 3.86583 0.177734 3.65404C0.177734 3.44226 0.349419 3.27058 0.561202 3.27058H2.86201V0.969771C2.86201 0.757988 3.03369 0.586304 3.24547 0.586304Z" fill="#AFC2D0"/>
</svg>
