<svg width="7" height="7" viewBox="0 0 7 7" fill="none" xmlns="http://www.w3.org/2000/svg">
<path d="M3.65446 0.676156C3.77426 0.556353 3.9685 0.556353 4.0883 0.676156L5.00863 1.59648C5.12843 1.71628 5.12843 1.91052 5.00863 2.03032L4.0883 2.95064C3.9685 3.07044 3.77426 3.07044 3.65446 2.95064C3.53466 2.83084 3.53466 2.6366 3.65446 2.5168L4.05109 2.12017H3.56461C2.47626 2.12017 1.57058 3.02586 1.57058 4.1142C1.57058 5.20255 2.47626 6.10823 3.56461 6.10823C4.65296 6.10823 5.55864 5.20255 5.55864 4.1142C5.55864 3.94478 5.69599 3.80743 5.86541 3.80743C6.03484 3.80743 6.17219 3.94478 6.17219 4.1142C6.17219 5.5414 4.99181 6.72178 3.56461 6.72178C2.13741 6.72178 0.957031 5.5414 0.957031 4.1142C0.957031 2.687 2.13741 1.50663 3.56461 1.50663H4.05109L3.65446 1.11C3.53466 0.990197 3.53466 0.795958 3.65446 0.676156Z" fill="#AFC2D0"/>
</svg>
