<svg width="7" height="7" viewBox="0 0 7 7" fill="none" xmlns="http://www.w3.org/2000/svg">
<path d="M3.35416 0.66787C3.4704 0.559115 3.64555 0.559115 3.76178 0.66787L6.52274 3.25123C6.64937 3.36971 6.66078 3.57382 6.54822 3.70712C6.43566 3.84041 6.24176 3.85242 6.11512 3.73393L6.01216 3.63759V6.07594C6.01216 6.43263 5.73747 6.72178 5.39861 6.72178H1.71733C1.37848 6.72178 1.10378 6.43263 1.10378 6.07594V3.63759L1.00082 3.73393C0.87419 3.85242 0.680287 3.84041 0.567726 3.70712C0.455165 3.57382 0.466571 3.36971 0.593202 3.25123L3.35416 0.66787ZM1.71733 3.06351V6.07594H2.63765V4.46134C2.63765 4.283 2.775 4.13842 2.94443 4.13842H4.17152C4.34095 4.13842 4.47829 4.283 4.47829 4.46134V6.07594H5.39861V3.06351L3.55797 1.34128L1.71733 3.06351ZM3.86475 6.07594V4.78426H3.2512V6.07594H3.86475Z" fill="#AFC2D0"/>
</svg>
