<svg width="83" height="29" viewBox="0 0 83 29" fill="none" xmlns="http://www.w3.org/2000/svg">
<g clip-path="url(#clip0_3319_6928)">
<path d="M1.33033 0.947266H0.958984V1.30558H1.33033V0.947266Z" fill="#B0AEAE"/>
<path d="M0.960938 7.20284H4.55419V21.8222H0.960938V27.6127H20.1867V21.8222H16.5564V7.20284H20.1867V0.947632H0.960938V7.20284Z" fill="#B0AEAE"/>
<path d="M49.7854 21.8228V14.1379C49.7854 9.24093 46.081 7.45372 41.4875 7.45372C38.2277 7.45372 35.7457 8.31158 33.5972 10.7064C33.449 10.8852 33.2638 11.0996 33.0415 11.2783V7.23926H21.1875V13.0655H23.8917V21.8228H21.1875V27.6491H36.2273V21.8228H33.3749V16.7829C33.3749 14.6383 35.0419 13.0655 37.2645 13.0655C39.0056 13.0655 40.3762 13.8877 40.3762 15.7106V21.7871H37.5979V27.6134H52.3043V21.8943C52.3043 21.8586 52.2673 21.8228 52.2673 21.7871H49.7854V21.8228Z" fill="#B0AEAE"/>
<path d="M76.2333 20.108H68.4171H68.1577C68.1577 22.2527 66.5278 23.2535 64.7127 23.2535C61.2306 23.2535 60.9342 20.4297 60.9342 17.7489V17.6774C60.9342 14.9966 61.1935 12.1728 64.7127 12.1728C67.4539 12.1728 67.9355 14.4605 68.0096 16.6408L76.1222 15.783C75.2702 7.81206 67.1205 7.31165 65.0831 7.31165C64.7868 7.31165 64.6386 7.31165 64.6386 7.31165C57.9336 7.31165 51.3398 10.4929 51.3398 17.7132C51.3398 19.2502 51.6362 20.6084 52.1919 21.788H52.2289V21.8952C54.2293 26.1845 59.4154 28.1147 64.6386 28.1147C68.8986 28.1147 74.8627 27.1139 76.1963 20.7872L76.2333 20.108Z" fill="#B0AEAE"/>
<path d="M79.0115 27.7206C80.8938 27.7206 82.4196 26.2483 82.4196 24.4321C82.4196 22.616 80.8938 21.1437 79.0115 21.1437C77.1293 21.1437 75.6035 22.616 75.6035 24.4321C75.6035 26.2483 77.1293 27.7206 79.0115 27.7206Z" fill="#B0AEAE"/>
</g>
<defs>
<clipPath id="clip0_3319_6928">
<rect width="81.4965" height="27.1655" fill="white" transform="translate(0.958984 0.946899)"/>
</clipPath>
</defs>
</svg>
