<svg width="109" height="25" viewBox="0 0 109 25" fill="none" xmlns="http://www.w3.org/2000/svg">
<path d="M10.1917 8.60131C9.74833 8.53797 9.4 8.47464 8.79833 8.47464C6.93 8.47464 5.25167 9.20297 4.33333 10.343V8.79131H0.375V24.1496H4.49167V14.4913C4.99833 13.573 6.42333 12.2746 8.22833 12.2746C8.83 12.2746 9.43167 12.338 9.71667 12.433L10.1917 8.60131Z" fill="black"/>
<path d="M23.6344 19.368C22.9061 20.1596 21.5127 21.1413 19.7711 21.1413C17.5861 21.1413 15.8444 19.653 15.6227 17.4996H26.2627C26.3261 17.1513 26.3577 16.7396 26.3577 16.328C26.3577 12.053 23.3494 8.47464 19.1061 8.47464C14.5461 8.47464 11.6327 12.2113 11.6327 16.4863C11.6327 21.2996 15.0844 24.4663 19.6761 24.4663C22.0511 24.4663 24.4894 23.4846 25.9777 21.7113L23.6344 19.368ZM15.8127 14.4913C16.0027 13.098 17.3961 11.7996 19.1061 11.7996C20.7844 11.7996 22.0194 13.1296 22.1461 14.4913H15.8127Z" fill="black"/>
<path d="M33.9627 1.66631H29.846V24.1496H33.9627V1.66631Z" fill="black"/>
<path d="M42.838 8.79131H38.7214V24.1496H42.838V8.79131ZM38.088 3.34464C38.088 4.83298 39.2914 5.97298 40.7797 5.97298C42.268 5.97298 43.4714 4.83298 43.4714 3.34464C43.4714 1.85631 42.268 0.716309 40.7797 0.716309C39.2914 0.716309 38.088 1.85631 38.088 3.34464Z" fill="black"/>
<path d="M58.205 18.7663C57.4133 19.9063 56.0517 20.6663 54.5 20.6663C52.1883 20.6663 50.4467 18.893 50.4467 16.4863C50.4467 14.2696 51.9983 12.2746 54.405 12.2746C55.9883 12.2746 57.35 13.0346 58.205 14.1746V18.7663ZM62.3217 8.79131H58.3633V10.0263C57.16 9.04464 55.6083 8.47464 53.8667 8.47464C49.6867 8.47464 46.33 11.958 46.33 16.4863C46.33 18.5763 47.09 20.4763 48.2933 21.8696C49.655 23.453 51.8083 24.4663 54.0883 24.4663C55.64 24.4663 57.0967 23.9913 58.3633 22.9146V24.1496H62.3217V8.79131Z" fill="black"/>
<path d="M71.1958 14.1746C72.0508 13.0346 73.4124 12.2746 74.9958 12.2746C77.4024 12.2746 78.9541 14.2696 78.9541 16.4863C78.9541 18.893 77.2124 20.6663 74.9008 20.6663C73.3491 20.6663 71.9874 19.9063 71.1958 18.7663V14.1746ZM71.0374 24.1496V22.9146C72.3041 23.9913 73.7608 24.4663 75.3124 24.4663C77.5924 24.4663 79.7458 23.453 81.1074 21.8696C82.3108 20.4763 83.0708 18.5763 83.0708 16.4863C83.0708 11.958 79.7141 8.47464 75.5341 8.47464C73.8558 8.47464 72.3991 8.94964 71.1958 9.89964V1.66631H67.0791V24.1496H71.0374Z" fill="black"/>
<path d="M90.6782 1.66631H86.5615V24.1496H90.6782V1.66631Z" fill="black"/>
<path d="M106.172 19.368C105.444 20.1596 104.05 21.1413 102.309 21.1413C100.124 21.1413 98.3818 19.653 98.1602 17.4996H108.8C108.864 17.1513 108.895 16.7396 108.895 16.328C108.895 12.053 105.887 8.47464 101.644 8.47464C97.0835 8.47464 94.1702 12.2113 94.1702 16.4863C94.1702 21.2996 97.6218 24.4663 102.214 24.4663C104.589 24.4663 107.027 23.4846 108.515 21.7113L106.172 19.368ZM98.3502 14.4913C98.5402 13.098 99.9335 11.7996 101.644 11.7996C103.322 11.7996 104.557 13.1296 104.684 14.4913H98.3502Z" fill="black"/>
</svg>
