<svg width="34" height="20" viewBox="0 0 34 20" fill="none" xmlns="http://www.w3.org/2000/svg">
<path fill-rule="evenodd" clip-rule="evenodd" d="M30.4671 0H3.11824C1.3875 0 -0.0136361 1.41483 0.000100142 3.13192V13.5715C0.000100142 15.3024 1.40128 16.7034 3.13202 16.7034H16.0853L22.0057 20L20.6595 16.7034H30.4671C32.198 16.7034 33.599 15.3022 33.599 13.5715V3.13192C33.599 1.40105 32.1979 0 30.4671 0ZM2.77359 2.43109C2.39116 2.45841 2.10434 2.59499 1.91313 2.85449L1.91329 2.85447C1.72208 3.10032 1.64013 3.41445 1.69476 3.76957C2.50061 8.8913 3.25182 12.3467 3.94838 14.136C4.22155 14.7916 4.53568 15.1057 4.90446 15.0784C5.47813 15.0375 6.16103 14.2453 6.96685 12.702C7.39025 11.8279 8.0458 10.5166 8.93357 8.76839C9.67104 11.3499 10.6818 13.2893 11.952 14.5868C12.3071 14.9556 12.6758 15.1194 13.031 15.0921C13.3451 15.0648 13.5909 14.9009 13.7548 14.6004C13.8914 14.3409 13.946 14.0405 13.9187 13.699C13.8368 12.4561 13.9597 10.7216 14.3011 8.49524C14.6562 6.2008 15.0933 4.54812 15.6259 3.56473C15.7352 3.35985 15.7762 3.15499 15.7625 2.90914C15.7352 2.59501 15.5986 2.33551 15.3391 2.13063C15.0796 1.92576 14.7928 1.83015 14.4787 1.85747C14.0826 1.8848 13.7821 2.07601 13.5772 2.45843C12.7304 4.00188 12.1294 6.5012 11.7743 9.97042C11.2553 8.65927 10.8182 7.11595 10.4768 5.29938C10.3266 4.49354 9.95779 4.11112 9.35683 4.15209C8.94708 4.17941 8.60563 4.45257 8.33247 4.97158L5.34137 10.667C4.84962 8.68649 4.38525 6.26908 3.96185 3.41448C3.86624 2.70426 3.47015 2.37646 2.77359 2.43109ZM29.0797 3.41439C30.0494 3.61926 30.7733 4.13833 31.265 4.99879C31.702 5.73639 31.9342 6.62412 31.9205 7.68946C31.9205 9.09615 31.5654 10.3801 30.8552 11.5547C30.0357 12.9205 28.9704 13.6034 27.6456 13.6034C27.4134 13.6034 27.1675 13.5761 26.9081 13.5215C25.9384 13.3166 25.2145 12.7975 24.7228 11.937C24.2857 11.1858 24.0672 10.2844 24.0672 9.23273C24.0672 7.82604 24.4223 6.54212 25.1326 5.38119C25.9657 4.01535 27.031 3.33244 28.3422 3.33244C28.5744 3.33244 28.8202 3.35976 29.0797 3.41439ZM28.506 10.8035C29.0114 10.3527 29.3528 9.68352 29.5441 8.78208L29.5441 8.78211C29.6124 8.46797 29.6397 8.12652 29.6397 7.77141C29.6397 7.37532 29.5577 6.95192 29.3938 6.52852C29.189 5.99586 28.9158 5.70904 28.588 5.64075C28.0963 5.54514 27.6183 5.8183 27.1675 6.48755C26.7988 7.00659 26.5666 7.55291 26.4437 8.1129C26.3754 8.42702 26.3481 8.76848 26.3481 9.10993C26.3481 9.50602 26.43 9.92942 26.5939 10.3528C26.7988 10.8855 27.0719 11.1723 27.3997 11.2406C27.7412 11.3089 28.11 11.1586 28.506 10.8035ZM20.5297 3.41439C21.4857 3.61926 22.2233 4.13833 22.7149 4.99879C23.152 5.73639 23.3705 6.62412 23.3705 7.68946C23.3705 9.09615 23.0154 10.3801 22.3052 11.5547C21.4857 12.9205 20.4204 13.6034 19.0956 13.6034C18.8634 13.6034 18.6175 13.5761 18.358 13.5215C17.3884 13.3166 16.6645 12.7975 16.1728 11.937C15.7357 11.1858 15.5172 10.2844 15.5172 9.23273C15.5172 7.82604 15.8723 6.54212 16.5825 5.38119C17.4157 4.01535 18.481 3.33244 19.7922 3.33244C20.0243 3.33244 20.2702 3.35976 20.5297 3.41439ZM19.9424 10.8035C20.4477 10.3527 20.7892 9.68352 20.9804 8.78208L20.9804 8.78211C21.0487 8.46797 21.0897 8.12652 21.076 7.77141C21.076 7.37532 20.9941 6.95192 20.8302 6.52852C20.6253 5.99586 20.3522 5.70904 20.0244 5.64075C19.5326 5.54514 19.0546 5.8183 18.6039 6.48755C18.2351 7.00659 18.0029 7.55291 17.88 8.1129C17.8117 8.42702 17.7844 8.76848 17.7844 9.10993C17.7844 9.50602 17.8664 9.92942 18.0303 10.3528C18.2351 10.8855 18.5083 11.1723 18.8361 11.2406C19.1775 11.3089 19.5463 11.1586 19.9424 10.8035Z" fill="white"/>
</svg>
