<svg width="13" height="12" viewBox="0 0 13 12" fill="none" xmlns="http://www.w3.org/2000/svg">
<path fill-rule="evenodd" clip-rule="evenodd" d="M7.06613 0H5.93241C5.83164 0 5.78125 0.043296 5.78125 0.129888V5.228H0.151163C0.0503876 5.228 0 5.2713 0 5.35789V6.33205C0 6.41864 0.0503876 6.46194 0.151163 6.46194H5.78125V11.56C5.78125 11.6466 5.83164 11.6899 5.93241 11.6899H7.06613C7.16691 11.6899 7.2173 11.6466 7.2173 11.56V6.46194H12.8488C12.9496 6.46194 13 6.41864 13 6.33205V5.35789C13 5.2713 12.9496 5.228 12.8488 5.228H7.2173V0.129888C7.2173 0.043296 7.16691 0 7.06613 0Z" fill="#EF5D62"/>
</svg>
