<svg width="18" height="22" viewBox="0 0 18 22" fill="none" xmlns="http://www.w3.org/2000/svg">
<path d="M0 0H10.5685C12.5178 0 14.0832 0.44986 15.2589 1.35574C16.4345 2.26162 17.0254 3.62353 17.0254 5.45378C17.0254 6.56303 16.7574 7.51205 16.2213 8.30084C15.6853 9.08964 14.9178 9.70588 13.9188 10.1373V10.1989C15.2589 10.4885 16.2761 11.1294 16.9645 12.1216C17.6528 13.1199 18 14.3647 18 15.8683C18 16.7311 17.8477 17.5384 17.5431 18.284C17.2386 19.0359 16.7635 19.6829 16.1117 20.2252C15.4599 20.7675 14.6315 21.1989 13.6142 21.5193C12.597 21.8398 11.3909 22 9.98985 22H0V0ZM3.80711 9.21289H10.0203C10.934 9.21289 11.6954 8.95406 12.3046 8.42409C12.9137 7.89412 13.2183 7.1423 13.2183 6.1563C13.2183 5.04706 12.9442 4.26443 12.3959 3.81457C11.8477 3.36471 11.0558 3.13669 10.0203 3.13669H3.80711V9.21289ZM3.80711 18.8571H10.5381C11.6954 18.8571 12.597 18.5552 13.2305 17.9451C13.8701 17.3412 14.1929 16.4784 14.1929 15.3692C14.1929 14.2784 13.8761 13.4465 13.2305 12.8549C12.5848 12.2633 11.6954 11.9798 10.5381 11.9798H3.80711V18.8571Z" fill="white"/>
</svg>
