<svg width="28" height="27" viewBox="0 0 28 27" fill="none" xmlns="http://www.w3.org/2000/svg">
<path d="M1.77788 6.33642C-0.699701 9.90093 -0.393287 14.5374 1.50123 18.3349C1.54501 18.426 1.59316 18.5153 1.63956 18.6046L1.7271 18.7754C1.74461 18.8087 1.76387 18.8411 1.78226 18.8735C1.81465 18.9348 1.84792 18.9909 1.88119 19.0504L2.06241 19.3605L2.16572 19.5304L2.37583 19.8588L2.46513 19.9972C2.56406 20.1443 2.66473 20.2914 2.76892 20.4351L2.82845 20.5156C2.91869 20.6397 3.01092 20.7624 3.1051 20.8835L3.21015 21.0166L3.46579 21.3319L3.56384 21.4492C3.68028 21.5867 3.80022 21.7234 3.92016 21.8565C3.93242 21.8696 3.93767 21.874 3.94117 21.8793C4.06011 22.0083 4.18094 22.1356 4.30362 22.2611L4.42005 22.3785L4.70896 22.6622L4.82715 22.7761C4.95717 22.8987 5.08938 23.019 5.22374 23.1369L5.65797 23.5048L5.8068 23.6239L6.10709 23.8586L6.2673 23.9812L6.60436 24.2229L6.76194 24.3341C6.86962 24.4086 6.97906 24.4795 7.08937 24.5505L7.23119 24.645C7.40018 24.7524 7.57092 24.8569 7.74334 24.9586L7.88517 25.0462L8.27038 25.2616C8.34042 25.2993 8.4122 25.3352 8.48312 25.3711L8.75801 25.5138L8.82192 25.5445L8.93573 25.5988L9.37172 25.8002L9.46364 25.8414C9.63194 25.9147 9.80152 25.9851 9.97229 26.0525L10.0949 26.1015L10.5746 26.2793L10.6359 26.3003C10.813 26.3613 10.9911 26.4197 11.1699 26.4755L11.2995 26.514C11.4746 26.5692 11.6637 26.6366 11.8511 26.6699C23.8398 28.8568 27.3206 19.4621 27.3206 19.4621C24.3966 23.2735 19.205 24.279 14.2761 23.1597C14.0896 23.1176 13.9084 23.0598 13.7272 23.0055L13.5906 22.9644C13.4134 22.9099 13.2371 22.8524 13.0618 22.7918L12.9892 22.7656C12.8331 22.7102 12.6779 22.6527 12.5234 22.593L12.3921 22.5405C12.2229 22.4739 12.055 22.4038 11.8887 22.3303L11.788 22.2865L11.3634 22.0886L11.2409 22.0299C11.1305 21.9774 11.022 21.9187 10.9125 21.8547L10.6937 21.7409C10.5606 21.6708 10.431 21.5955 10.2997 21.5202L10.1666 21.4457C9.99429 21.3439 9.82356 21.2394 9.6545 21.1322C9.6081 21.1024 9.56257 21.0709 9.51617 21.0402L9.15198 20.7976C9.11171 20.7714 9.06443 20.7416 9.03466 20.7153L8.68973 20.4657L8.53652 20.3501L8.22573 20.1066L8.0874 19.9954L7.70045 19.6687C7.68637 19.6564 7.67177 19.6447 7.65667 19.6337L7.24958 19.2632L7.13577 19.1529L6.84511 18.8639L6.7313 18.75C6.60873 18.6248 6.48967 18.4987 6.38111 18.3699C6.37498 18.3638 6.36885 18.3577 6.3636 18.3507C6.23964 18.2146 6.11822 18.0762 5.9994 17.9355L5.91186 17.8217L5.64922 17.4976L5.56167 17.3776L5.25876 16.9748C2.51153 13.2509 1.52925 8.10291 3.71267 3.88155L1.77788 6.33642ZM9.47327 3.33417C7.68031 5.91516 7.77749 9.3772 9.17561 12.0992C9.40989 12.558 9.67489 13.0004 9.96879 13.4234C10.2376 13.8088 10.5352 14.2668 10.8915 14.576C11.0211 14.7187 11.1559 14.8562 11.2943 14.9937L11.3993 15.0988C11.5331 15.2293 11.67 15.3567 11.8099 15.4807C11.816 15.485 11.8204 15.4912 11.8274 15.4956C11.9868 15.6357 12.1478 15.7583 12.3116 15.8967L12.4201 15.9816C12.5844 16.1083 12.7519 16.2307 12.9226 16.3486L12.9375 16.3591C13.0128 16.4116 13.0898 16.4598 13.1669 16.5106C13.2037 16.5343 13.2387 16.5596 13.2754 16.5824C13.3978 16.661 13.5219 16.7369 13.6475 16.8101L13.7001 16.8408L14.0292 17.0159C14.0677 17.0378 14.1168 17.0562 14.1465 17.0772L14.3768 17.1964C14.3882 17.2025 14.4004 17.2069 14.4118 17.2121C14.5697 17.2908 14.7297 17.3653 14.8916 17.4355L14.9966 17.4792C15.127 17.5346 15.2584 17.5878 15.3906 17.6386L15.5587 17.6999C15.6786 17.7435 15.7991 17.7853 15.9202 17.8252L16.084 17.8777C16.2564 17.9303 16.4341 18.0003 16.6066 18.0292C25.863 19.5636 28 12.4241 28 12.4241C26.074 15.2004 22.3445 16.5229 18.3628 15.4894C18.1868 15.4431 18.012 15.3926 17.8384 15.3379C17.7859 15.3221 17.7333 15.3046 17.6808 15.2871L17.3131 15.161L17.138 15.0997C17.0059 15.0487 16.8745 14.9955 16.7441 14.9403L16.6373 14.8965C16.4744 14.8257 16.3133 14.7509 16.154 14.6723L15.9115 14.5497L15.7714 14.4779C15.6684 14.4219 15.5663 14.3644 15.465 14.3053L15.3915 14.2642C15.2662 14.1908 15.1425 14.1149 15.0203 14.0365C14.9826 14.0128 14.9458 13.9865 14.9082 13.962L14.6674 13.8026C14.4979 13.6851 14.3315 13.563 14.1684 13.4365L14.0546 13.349C12.3037 11.9722 10.9309 10.091 10.2743 7.95928C9.58621 5.74788 9.73416 3.26499 10.9266 1.25064L9.47327 3.33417ZM15.9448 1.09037C14.8889 2.65368 14.7839 4.57869 15.5175 6.29701C16.2906 8.1213 17.8752 9.55149 19.725 10.2381L19.9544 10.3257L20.056 10.3572L20.386 10.4448C25.497 11.4327 26.882 7.8209 27.2523 7.28929C26.0381 9.03827 23.9973 9.45778 21.4935 8.84997C21.2956 8.8018 21.0785 8.72999 20.8877 8.66255C20.6427 8.5757 20.4025 8.47601 20.168 8.3639C19.723 8.1498 19.3004 7.89192 18.9065 7.59407C16.6661 5.89414 15.2741 2.64142 16.7362 0" fill="#0868AC"/>
</svg>
