<svg width="90" height="97" viewBox="0 0 90 97" fill="none" xmlns="http://www.w3.org/2000/svg">
<g filter="url(#filter0_d_3319_7356)">
<path d="M51.2208 37.4993H46.5796L49.0222 43.0771C49.1923 43.4638 48.9979 43.8974 48.609 44.0615L46.4581 44.9403C46.0571 45.1044 45.6074 44.9169 45.4373 44.5419L43.1162 39.2453L39.3247 42.9013C38.8194 43.3885 38 43.0129 38 42.374V24.7505C38 24.0779 38.8715 23.75 39.3246 24.2232L51.7676 36.222C52.2695 36.6805 51.8992 37.4993 51.2208 37.4993V37.4993Z" fill="white"/>
<path d="M46.5796 36.9993H45.8148L46.1216 37.6999L48.5642 43.2777L48.5645 43.2785C48.6121 43.3866 48.5701 43.5341 48.4167 43.5999L46.2689 44.4774L46.2687 44.4775C46.1182 44.5391 45.9539 44.4671 45.8936 44.3375L43.5742 39.0446L43.286 38.387L42.7691 38.8854L38.9776 42.5414C38.9776 42.5414 38.9776 42.5414 38.9776 42.5414C38.8846 42.631 38.7716 42.6432 38.6669 42.5991C38.5549 42.552 38.5 42.4622 38.5 42.374V24.7505C38.5 24.6559 38.556 24.569 38.6738 24.5231C38.7951 24.4759 38.9013 24.504 38.9634 24.569L38.9704 24.5762L38.9775 24.5832L51.4206 36.5819L51.4204 36.5821L51.4304 36.5912C51.5043 36.6587 51.5184 36.7417 51.4788 36.8322C51.4365 36.9287 51.3439 36.9993 51.2208 36.9993H46.5796Z" stroke="#161613"/>
</g>
<defs>
<filter id="filter0_d_3319_7356" x="0" y="0" width="90" height="97" filterUnits="userSpaceOnUse" color-interpolation-filters="sRGB">
<feFlood flood-opacity="0" result="BackgroundImageFix"/>
<feColorMatrix in="SourceAlpha" type="matrix" values="0 0 0 0 0 0 0 0 0 0 0 0 0 0 0 0 0 0 127 0" result="hardAlpha"/>
<feOffset dy="14"/>
<feGaussianBlur stdDeviation="19"/>
<feColorMatrix type="matrix" values="0 0 0 0 0 0 0 0 0 0 0 0 0 0 0 0 0 0 0.1 0"/>
<feBlend mode="normal" in2="BackgroundImageFix" result="effect1_dropShadow_3319_7356"/>
<feBlend mode="normal" in="SourceGraphic" in2="effect1_dropShadow_3319_7356" result="shape"/>
</filter>
</defs>
</svg>
