<svg width="60" height="55" viewBox="0 0 60 55" fill="none" xmlns="http://www.w3.org/2000/svg">
<g clip-path="url(#clip0_3766_10438)">
<path d="M47.3685 12.1951L47.3242 12.2516C47.337 12.2488 47.3484 12.2417 47.3565 12.2313C47.3645 12.221 47.3688 12.2082 47.3685 12.1951Z" fill="#1D1D1D"/>
<path d="M45.6934 11.8731C45.7319 12.5201 45.5217 12.7288 45.7231 13.3639C45.773 13.6849 45.8462 14.0018 45.9421 14.3121C46.1494 14.4284 46.0102 14.7176 46.1908 14.8667L46.0991 14.9502C46.1612 15.0008 46.2086 15.0635 46.1612 15.135H46.1287C46.2234 15.2125 46.1908 15.3199 46.2382 15.3557H46.2086L46.2382 15.46H46.1908C46.2402 15.5224 46.2767 15.5941 46.298 15.671C46.3194 15.7478 46.3252 15.8281 46.3152 15.9073L46.4425 15.8745C46.3477 16.1995 46.629 16.2681 46.5047 16.5662H46.481C46.8718 16.8644 46.3389 17.1447 46.7149 17.4607C46.6675 17.422 46.6527 17.4905 46.6201 17.4935C46.6823 17.6486 46.7297 17.8215 46.9813 17.7917C46.9961 17.911 46.9162 17.902 46.8244 17.9318C46.9339 17.9139 46.9932 18.0094 47.0168 18.1018L46.9665 18.066L47.0465 18.3254L47.2448 18.2419C47.2093 18.391 46.9991 18.3165 47.0701 18.4447L47.2419 18.4149C47.2419 18.6146 46.9991 18.7727 46.9014 18.9814C46.9547 19.7805 47.5261 20.5527 47.3395 21.3339L47.2182 21.3876C47.0316 21.4323 47.5142 21.5426 47.3573 21.5993L47.458 21.6709C47.4284 21.7007 47.3988 21.7573 47.3514 21.7215C47.3514 21.8021 47.3869 21.7991 47.4521 21.8438L47.3484 21.9482C47.3099 22.2732 47.5764 22.4998 47.5823 22.8427C47.4076 23.275 47.7452 23.9787 47.9406 24.3812C48.3166 24.9358 47.68 25.7528 48.0975 26.3133C48.0738 26.3372 48.1419 26.3789 48.1626 26.373L48.2277 26.9395C48.2277 26.9395 48.5889 29.6677 49.8176 27.351H49.859C49.9094 27.0259 49.9005 26.8292 49.6607 26.6532C49.9094 26.5787 49.6459 26.3968 49.7169 26.3103H49.7377C49.5126 26.1553 49.8354 25.8989 49.634 25.7468C49.6548 25.7468 49.7258 25.7468 49.7347 25.7856C49.6814 25.6574 49.5985 25.4874 49.7347 25.4546C49.6459 25.1564 49.6429 24.6973 49.3765 24.5333H49.4209C49.2432 24.4438 49.3735 24.3872 49.2728 24.2739C49.2906 24.2739 49.2995 24.253 49.3054 24.253C49.1307 24.1516 49.2225 23.8922 49.1396 23.8028L49.2373 23.7789L49.1751 23.5344V23.6298C48.8998 23.6298 49.3143 23.4151 49.11 23.2631C49.11 23.0901 48.4972 23.0126 48.6008 22.8158C48.4616 22.7532 48.8169 22.8546 48.7014 22.7472C48.8406 22.7204 48.7991 22.792 48.9057 22.7472C48.8169 22.6339 49.0153 22.5236 48.9057 22.3865L49.0123 22.3626C48.7814 22.1986 49.0982 21.966 48.885 21.8676C48.7636 21.6768 49.1811 21.6768 48.9412 21.5009L49.0745 21.3936C49.0745 21.2981 48.885 21.3578 48.9383 21.2445C49.033 21.2445 48.9945 21.1073 49.0922 21.152C49.1988 20.9016 48.811 20.7227 49.0093 20.3828C48.8169 20.347 48.8998 20.18 48.7577 20.1532C48.8347 20.1323 48.7222 19.855 48.9205 19.9892C48.9353 19.9892 48.9383 20.028 48.9205 20.0309H49.033C49.2077 19.8282 48.8702 19.7328 48.8761 19.5658C48.8465 19.6195 48.8761 19.6851 48.7873 19.6523V19.4942L48.885 19.5121V19.2706L48.7784 19.3183C48.8169 19.1961 49.0005 19.1245 48.8228 19.0201C48.7251 18.9754 48.6896 19.1543 48.6333 19.038C48.7056 18.8404 48.7505 18.6338 48.7666 18.4238C48.6422 18.4626 48.6393 18.4089 48.6037 18.3582L48.7133 18.3344C48.5297 18.1525 48.9412 18.2211 48.7873 18.0362H48.8672L48.6304 18.0183C48.3846 17.8692 48.8406 17.8841 48.512 17.7201C48.5445 17.8006 48.2781 17.7977 48.3077 17.6903H48.4172C48.3876 17.6366 48.3402 17.6277 48.355 17.586C48.4172 17.6098 48.512 17.586 48.4824 17.4995L48.6215 17.5323L48.4024 17.41C48.4972 17.2729 48.3254 17.1119 48.4646 17.0344C48.4646 17.0344 48.4972 16.766 48.3254 16.7362C48.435 16.772 48.4498 16.6229 48.5771 16.6438C48.4498 16.596 48.3254 16.4142 48.435 16.3158C48.5149 16.0176 48.1863 15.8476 48.2958 15.5614C48.1715 15.5942 48.2189 15.4451 48.0619 15.5048C47.8577 15.2632 48.3136 14.9591 47.7955 14.9442C47.7511 14.8249 47.8902 14.7802 47.905 14.7116L47.9376 14.7355C47.8774 14.5881 47.8404 14.4322 47.8281 14.2733C47.7659 14.1958 47.532 14.2226 47.5616 14.0586C47.6623 14.0944 47.6356 14.0348 47.6267 13.9781C47.6475 14.0109 47.683 14.0169 47.7333 13.9304C47.7088 13.9253 47.6856 13.9152 47.6652 13.9006C47.673 13.8989 47.6811 13.8989 47.6889 13.9006C47.6386 13.8082 47.6149 13.832 47.609 13.8768C47.5881 13.8782 47.5683 13.8866 47.5527 13.9006C47.6563 13.7843 47.4994 13.6263 47.6563 13.6024C47.5501 13.3622 47.4233 13.1317 47.2774 12.9137C47.3133 12.8969 47.3542 12.8946 47.3917 12.9074C47.4292 12.9201 47.4603 12.947 47.4787 12.9823L47.4224 12.8153C47.5409 12.7974 47.5053 12.9017 47.5379 12.9524C47.6948 12.7199 47.2833 12.5648 47.4195 12.3024L47.3188 12.2667C47.291 12.2672 47.2635 12.2613 47.2383 12.2495C47.2132 12.2376 47.1911 12.22 47.1738 12.1981C47.2715 12.1504 47.4106 12.1623 47.384 12.046C47.4698 11.9387 47.2922 11.7926 47.2182 11.6793C47.2182 11.7478 47.1501 11.7359 47.1116 11.715C47.0731 11.6942 47.1945 11.6047 47.1442 11.5689L47.2803 11.5391C47.156 11.5838 47.1175 11.4109 47.0553 11.396C47.153 11.3483 47.159 11.4735 47.2389 11.4765C47.1886 11.2439 47.2122 11.3602 47.1619 11.1277C47.0376 11.0173 47.0346 11.1694 46.9043 11.1277C46.8599 11.0203 46.7474 10.9279 46.8096 10.7877L46.6941 10.8474C46.6345 10.784 46.5987 10.7018 46.5928 10.6147C46.5868 10.5277 46.6111 10.4413 46.6616 10.3703C45.4151 8.98382 45.2464 10.263 45.2464 10.263C45.0747 10.907 45.4803 11.1634 45.6934 11.8731Z" fill="#1D1D1D"/>
<path d="M14.1276 12.4008L14.0684 12.4395C14.0813 12.4422 14.0948 12.4396 14.1058 12.4324C14.1169 12.4251 14.1247 12.4138 14.1276 12.4008Z" fill="#1D1D1D"/>
<path d="M12.6414 11.5659C12.4756 12.195 12.2121 12.3262 12.2032 13.0031C12.1486 13.3233 12.1189 13.6473 12.1144 13.9721C12.2743 14.148 12.0523 14.3776 12.1796 14.5684L12.0641 14.6191C12.1085 14.6877 12.1322 14.7623 12.0641 14.8129H12.0315C12.0996 14.9143 12.0315 15.0068 12.0671 15.0574H12.0374V15.1678L11.996 15.1409C12.0493 15.2928 12.0419 15.4596 11.9753 15.6061H12.1026C11.9131 15.8863 12.1588 16.0384 11.9457 16.2829H11.9161C12.2121 16.6825 11.6022 16.7898 11.8628 17.1983C11.8302 17.1476 11.7947 17.1983 11.7651 17.1983C11.7651 17.3653 11.7651 17.5442 12.0167 17.5859C11.993 17.7052 11.922 17.6724 11.8213 17.6724C11.9338 17.6724 11.9605 17.7976 11.9546 17.893L11.919 17.8423V18.1166L12.1322 18.0958C12.0523 18.227 11.8746 18.0958 11.9042 18.2359L12.0759 18.2598C12.0108 18.4506 11.7325 18.5221 11.5756 18.6921C11.3772 19.4673 11.6792 20.3827 11.2618 21.0774H11.1285C10.9361 21.0625 11.3743 21.3249 11.1937 21.3249L11.2677 21.4233C11.2292 21.4412 11.1848 21.4859 11.1493 21.4233C11.1315 21.5008 11.1493 21.5068 11.2085 21.5724L11.0782 21.638C10.9391 21.9362 11.1226 22.2343 11.0249 22.5534C10.7289 22.9082 10.8236 23.6804 10.8828 24.1277C11.0693 24.7717 10.2078 25.3442 10.4328 26.0091C10.4032 26.024 10.4535 26.0867 10.4772 26.0896L10.3617 26.6502C10.3617 26.6502 9.85843 29.3546 11.7443 27.5447L11.7828 27.5656C11.9309 27.2674 11.9842 27.0855 11.8124 26.841C12.07 26.841 11.8776 26.5935 11.9723 26.5429H11.9901C11.8272 26.3222 12.2151 26.1821 12.07 25.9734C12.0878 25.9734 12.1559 26.0002 12.1529 26.0419C12.1529 25.9048 12.1144 25.7169 12.2654 25.7438C12.2654 25.4247 12.4134 24.9984 12.2121 24.7598L12.2506 24.7777C12.1085 24.6376 12.2506 24.6256 12.1884 24.4795C12.2092 24.4795 12.221 24.4795 12.2299 24.4795C12.0937 24.3305 12.2625 24.1128 12.2121 23.9995H12.3098L12.3276 23.749L12.2921 23.8385C12.0286 23.761 12.4904 23.6775 12.3454 23.4688C12.4075 23.3048 11.842 23.0364 12.0019 22.8724C11.8894 22.7681 12.1944 22.9798 12.1174 22.8396C12.2565 22.8575 12.1973 22.9112 12.3128 22.8963C12.2654 22.7651 12.4875 22.7203 12.4164 22.5534H12.5289C12.3602 22.3238 12.7302 22.2045 12.5615 22.0405C12.5052 21.8229 12.9079 21.957 12.7273 21.7096L12.8871 21.6529C12.9256 21.5664 12.7184 21.5575 12.8043 21.468C12.896 21.4919 12.899 21.3547 12.9789 21.4263C13.1595 21.2235 12.8457 20.9313 13.1388 20.6719C12.97 20.5765 13.1003 20.4453 12.973 20.3738C13.0529 20.3738 13.0322 20.0756 13.1773 20.2694C13.1773 20.2873 13.1773 20.3112 13.1506 20.3052L13.2572 20.344C13.4852 20.2068 13.1951 20.016 13.2572 19.852C13.2158 19.8937 13.2128 19.9623 13.1477 19.9056L13.1862 19.7536L13.272 19.7983L13.3608 19.5747H13.2454C13.3194 19.4703 13.5178 19.4614 13.3786 19.3063C13.2987 19.2348 13.2128 19.3898 13.1951 19.2646C13.3244 19.0989 13.431 18.9163 13.5118 18.7219C13.3845 18.7219 13.3964 18.6683 13.3786 18.6086H13.4911C13.3727 18.376 13.7428 18.5728 13.6539 18.3462L13.728 18.376L13.5089 18.2866C13.3224 18.066 13.7517 18.221 13.4882 17.9676C13.4882 18.054 13.2424 17.9676 13.3046 17.8751L13.4053 17.9169C13.4053 17.8572 13.352 17.8334 13.3786 17.7976C13.4319 17.8423 13.5296 17.8423 13.5237 17.7559L13.648 17.8334L13.4793 17.6455C13.6095 17.5471 13.5 17.3474 13.6569 17.3086C13.6569 17.3086 13.7694 17.0641 13.6155 16.9776C13.7102 17.0462 13.7694 16.912 13.8819 16.9776C13.7783 16.8912 13.7161 16.6795 13.8494 16.6228C14.0211 16.3545 13.7605 16.098 13.953 15.8625C13.8227 15.8625 13.9145 15.7283 13.7457 15.7343C13.6303 15.4361 14.1543 15.296 13.6688 15.1171C13.6688 14.9918 13.8109 14.9918 13.8464 14.9322L13.8671 14.965C13.8634 14.8204 13.8794 14.6759 13.9145 14.5356C13.879 14.4432 13.648 14.3925 13.7309 14.2375C13.8138 14.3001 13.8079 14.2375 13.8168 14.1778C13.8168 14.2166 13.8582 14.2345 13.9322 14.1778C13.9091 14.1666 13.8896 14.1491 13.876 14.1272H13.8997C13.8819 14.0258 13.8523 14.0377 13.8316 14.0824C13.8222 14.0783 13.8122 14.0762 13.802 14.0762C13.7918 14.0762 13.7817 14.0783 13.7724 14.0824C13.9056 14.0019 13.8079 13.8051 13.9678 13.8171C13.9393 13.5563 13.8908 13.2981 13.8227 13.0448C13.8616 13.0412 13.9005 13.0523 13.9317 13.076C13.963 13.0997 13.9843 13.1343 13.9915 13.173V12.9971C14.1099 13.018 14.0448 13.1074 14.0596 13.1611C14.2816 12.9911 13.9352 12.7168 14.1484 12.5081L14.0625 12.4425H14.0803C14.0539 12.4345 14.0296 12.4208 14.0091 12.4022C13.9886 12.3837 13.9725 12.3608 13.9619 12.3352C14.0714 12.3173 14.1987 12.3769 14.2105 12.2576C14.326 12.1801 14.2105 11.9863 14.1691 11.8551C14.1395 11.9177 14.0862 11.8879 14.0566 11.8551C14.027 11.8223 14.1691 11.7776 14.1306 11.7269H14.2727C14.1365 11.7269 14.1543 11.551 14.101 11.5212C14.2105 11.5033 14.175 11.6255 14.252 11.6524L14.2875 11.2975C14.2046 11.1574 14.1543 11.2975 14.0418 11.22C14.0418 11.1067 13.953 10.9815 14.0418 10.8682L13.9145 10.8891C13.8772 10.8098 13.8686 10.7199 13.8903 10.6349C13.9119 10.55 13.9624 10.4753 14.0329 10.4239C13.2839 8.72436 12.7302 9.88722 12.7302 9.88722C12.3542 10.4537 12.6592 10.8264 12.6414 11.5659Z" fill="#1D1D1D"/>
<path d="M48.0476 22.0465C48.0476 22.0465 40.4714 24.6167 30.0204 24.6167C20.9283 24.6167 11.9961 22.0465 11.9961 22.0465L14.2106 7.77019C14.3326 6.58493 14.7301 5.44529 15.371 4.44361C16.0118 3.44193 16.878 2.6064 17.8993 2.00472C18.9206 1.40304 20.0682 1.05215 21.2493 0.980469C22.4303 0.908791 23.6115 1.11835 24.6972 1.59216L26.6157 2.43299C27.5362 2.83756 28.5278 3.05232 29.5321 3.06461C30.5363 3.0769 31.5329 2.88647 32.4629 2.50455L35.4857 1.26417C36.5694 0.820366 37.7409 0.637015 38.9073 0.728664C40.0736 0.820313 41.2027 1.18444 42.205 1.79216C43.2072 2.39988 44.0551 3.23446 44.6813 4.2297C45.3074 5.22494 45.6947 6.35345 45.8123 7.52569L48.0476 22.0465Z" fill="white"/>
<path d="M33.9453 45.4437L44.4999 35.0258L47.8336 38.5769L38.1168 48.5089L33.9453 45.4437Z" fill="#C0E3E4"/>
<path d="M11.9961 45.557L22.5507 35.139L25.8844 38.6902L16.1676 48.6252L11.9961 45.557Z" fill="#C0E3E4"/>
<path d="M59.446 23.1706C59.446 22.625 58.6792 22.3089 58.1286 22.625C49.3536 27.6601 39.4239 30.2966 29.3247 30.273C19.7686 30.2946 10.3556 27.9357 1.92408 23.4062C1.35564 23.108 0.594757 23.4271 0.594757 23.9757H0.591797C0.597268 24.0941 0.634224 24.2089 0.698804 24.308C0.763384 24.4072 0.853217 24.487 0.958914 24.5392C9.6281 29.4134 19.3961 31.9608 29.3247 31.9368C39.8103 31.9631 50.106 29.1197 59.1115 23.7103C59.2091 23.6575 59.2913 23.5799 59.3499 23.4852C59.4086 23.3906 59.4417 23.2821 59.446 23.1706Z" fill="#51A7AB"/>
<path d="M43.3803 29.0027L43.0605 29.0475C43.0605 29.0475 43.1523 29.0534 43.3803 29.0027Z" fill="#1D1D1D"/>
<path d="M46.8184 26.9156L46.0931 27.1392L45.424 27.3181C44.9947 27.4314 44.6009 27.5417 44.2397 27.6163C43.4907 27.7773 42.8364 27.9383 42.1673 28.0635C41.4982 28.1887 40.838 28.3348 40.0623 28.4601L38.8129 28.6837L37.3326 28.9222C35.2602 29.1936 33.0515 29.4142 31.0146 29.4947C30.4024 29.5643 29.7862 29.5932 29.1702 29.5812C28.4774 29.5633 27.7639 29.5633 27.1895 29.5812L26.7395 29.5186C26.3207 29.5464 25.9002 29.5325 25.4842 29.4768L25.5108 29.4559C24.9187 29.4559 24.2555 29.3814 23.9624 29.3844L23.9891 29.3665C23.7493 29.3665 23.5124 29.3218 23.2726 29.3009H23.3999C22.8848 29.2681 22.3637 29.2353 21.8574 29.1727C21.3512 29.1101 20.8567 29.0296 20.3949 28.952L20.46 29.0475C18.503 28.6241 17.7481 28.6658 16.0191 28.153H16.0457C15.0685 28.0145 14.1081 27.7747 13.1798 27.4373C12.7506 27.2853 12.3183 27.1392 11.8505 26.9871C11.3827 26.8351 10.8854 26.6889 10.308 26.5428C10.6041 26.6114 10.2044 26.4594 10.234 26.4474C9.20669 26.1016 8.12014 25.702 8.04316 25.8511C7.31189 25.5529 7.46584 25.5529 7.39478 25.4575C7.3711 25.5291 6.71976 25.3025 6.15724 25.049L6.42666 25.1385C5.88783 24.8999 5.33715 24.6853 4.80424 24.4288L5.05885 24.7061C4.22692 24.2619 4.91378 24.4467 4.08777 24.0889L4.04928 24.1963C3.54837 23.9421 3.06561 23.6532 2.6045 23.3316L2.27883 23.0573L2.19889 23.0036C2.16558 22.9807 2.13098 22.9598 2.09527 22.941C2.00703 22.8897 1.91377 22.8477 1.81697 22.8158C1.59933 22.7449 1.3686 22.7244 1.14201 22.7559C0.915419 22.7874 0.698818 22.87 0.508375 22.9976C0.248606 23.1883 0.0715834 23.4723 0.0139508 23.7908C-0.0137994 23.9596 -0.00515959 24.1324 0.0392837 24.2976C0.0837271 24.4627 0.162933 24.6163 0.271525 24.7479C0.36566 24.8643 0.477588 24.965 0.603115 25.046L0.739304 25.1236L0.848847 25.1832L1.2959 25.4217L2.18409 25.9018L3.09892 26.352C3.39498 26.5011 3.71177 26.6502 4.02264 26.7963L4.95819 27.2107C5.57696 27.5089 6.2135 27.7415 6.83819 28.0009C9.35768 29.0057 11.892 29.8287 14.2575 30.5592L14.447 30.6963C14.5092 30.8424 15.8178 30.8424 15.9717 30.9945C16.1642 31.0213 16.3566 31.0392 16.5461 31.0601C16.7356 31.081 17.0287 31.2122 16.7415 31.1823C17.0439 31.2554 17.3519 31.3023 17.6622 31.3225C17.8428 31.3911 18.0234 31.4507 18.207 31.5103C18.7221 31.6177 19.2195 31.7101 19.708 31.8085C20.1965 31.9069 20.688 31.9337 21.1883 31.9934C21.6887 32.053 22.1742 32.0888 22.6686 32.1424C23.1631 32.1961 23.7019 32.2468 24.2496 32.2945C25.9645 32.5161 27.6933 32.6088 29.4218 32.5718C30.3929 32.536 31.3699 32.5151 32.2788 32.4317C32.7348 32.3929 33.167 32.3661 33.5904 32.3213L34.7509 32.1872C36.7523 31.889 38.9225 31.6922 41.0926 31.3165C43.2317 30.9732 45.3334 30.4251 47.3691 29.6796C47.5253 29.6387 47.6749 29.5754 47.8132 29.4917C48.4053 29.292 49.0152 29.0981 49.6044 28.8715C50.1936 28.6449 50.7886 28.4422 51.3808 28.1947L52.0854 27.8965C52.5295 27.7236 53.1275 27.4373 53.8114 27.1213C54.4953 26.8052 55.2414 26.4117 55.9845 26.036C56.7277 25.6603 57.4293 25.2339 58.0303 24.8433C58.3264 24.6525 58.6225 24.4736 58.8475 24.3096L59.1791 24.083C59.3 24.0075 59.4088 23.914 59.5018 23.8057C59.5727 23.7251 59.6257 23.6303 59.6574 23.5274C59.689 23.4246 59.6986 23.3162 59.6853 23.2093L59.4366 23.1557H59.5847V23.1736L59.5669 23.2123C59.5669 23.2421 59.5373 23.2779 59.5195 23.3137C59.4691 23.4035 59.4029 23.4833 59.3241 23.5492C59.2131 23.6314 59.0889 23.6939 58.957 23.7341L58.4478 23.9458C57.6869 24.2798 56.5648 24.7866 54.969 25.4366L55.0401 25.371L53.7641 25.9674C53.3703 26.1373 53.0091 26.2954 52.6686 26.4534C51.9907 26.7784 51.3719 27.0497 50.7502 27.3837C50.4867 27.324 49.1751 27.9621 48.7103 28.0814L48.7488 28.0516C48.1688 28.308 47.5687 28.5154 46.9546 28.6718C46.3518 28.8138 45.7585 28.9941 45.1783 29.2114C45.2667 29.1288 45.3765 29.0729 45.495 29.0504C45.0806 29.1936 44.5861 29.3486 44.1835 29.441C43.9435 29.5329 43.6882 29.5774 43.4315 29.5722C42.9311 29.7213 42.3686 29.8287 41.8002 29.9658C41.2318 30.103 40.6396 30.2163 40.0741 30.3296L39.2481 30.4995L38.4813 30.6427C37.9958 30.7351 37.5724 30.8305 37.2497 30.917L37.3356 30.8782C36.5925 31.078 36.3586 31.0124 35.5207 31.1764C35.4704 31.1764 35.4112 31.1764 35.42 31.1764C34.6029 31.3612 33.0071 31.4089 32.338 31.4745L32.2936 31.4119C31.743 31.4477 31.1923 31.4805 30.6416 31.4865H31.2604C31.0502 31.6624 30.008 31.4089 28.809 31.5133C28.2363 31.5178 27.6645 31.5616 27.0977 31.6445C26.5187 31.724 25.9325 31.735 25.351 31.6773C24.7884 31.7161 25.8513 31.5759 25.0135 31.5759C24.9927 31.4775 25.4072 31.5461 25.197 31.4537C24.3799 31.4239 23.8707 31.2658 22.864 31.2062L22.8315 31.1287C22.5028 31.1287 22.1831 31.0988 21.8782 31.0631C21.5732 31.0273 21.286 30.9647 21.0048 30.911C20.5119 30.8034 20.0124 30.7297 19.5097 30.6904C18.1655 30.5025 18.654 30.3355 17.2507 30.1775L16.7356 29.9658C16.1434 29.8257 16.2885 29.9926 15.649 29.7869C15.7023 29.7362 14.8437 29.5365 15.2375 29.5722C13.8016 29.1101 12.2354 28.9073 10.4087 28.0814C10.1056 28.0355 9.80803 27.9586 9.52051 27.8518C9.26001 27.7495 8.99168 27.6688 8.71818 27.6103C8.68562 27.5447 6.85003 26.8678 7.93954 27.172C8.03428 27.1988 8.19119 27.2614 8.17343 27.2793L8.32442 27.2584C7.8514 27.0164 7.36162 26.8091 6.85891 26.6383L6.12468 26.3818C5.87895 26.2894 5.63321 26.1821 5.3786 26.0598C5.67466 26.2208 6.07731 26.4027 5.78717 26.3222L4.84569 25.875L5.06774 25.9107C4.59996 25.6871 4.14106 25.4456 3.68512 25.2011L3.845 25.3651C3.18182 24.9864 2.99826 24.7688 2.19889 24.4437C1.82881 24.3096 2.79102 24.8761 2.06566 24.5153L1.33143 24.0859L1.23965 24.0293L1.213 24.0054C1.20574 24.0013 1.19937 23.9958 1.19429 23.9891C1.1892 23.9824 1.1855 23.9748 1.1834 23.9667C1.1834 23.9667 1.15971 23.9667 1.14195 23.9667C1.14195 23.9667 1.20412 24.0025 1.1982 23.9935C1.19228 23.9846 1.22189 23.9935 1.24261 23.9697C1.29954 23.9492 1.35987 23.9401 1.42025 23.9428C1.48143 23.9462 1.54065 23.9658 1.59196 23.9995L2.03606 24.244C1.96796 24.1098 2.28179 24.2768 2.62818 24.4318V24.5183C3.9279 25.0669 3.01602 24.897 4.30982 25.4366H4.17659L4.57627 25.4545C5.78125 25.8422 5.13287 25.8779 6.49179 26.2596C5.97961 26.0509 6.31416 26.0121 6.93293 26.2954H6.74641C7.09872 26.4236 7.22603 26.4445 7.454 26.5518C7.23195 26.5041 7.30597 26.6055 7.82111 26.8023L7.44512 26.7456C7.78559 26.838 8.1231 26.9275 8.46653 27.005C8.83365 27.1809 9.32215 27.3628 9.76032 27.5179C10.0922 27.6104 10.4136 27.7373 10.7196 27.8965L10.9831 27.9919C11.1429 28.0486 11.3591 28.1261 11.59 28.1917C11.9748 28.3274 12.3713 28.4272 12.7742 28.4899C12.419 28.4571 13.3308 28.7582 13.0466 28.7553C13.8125 28.8671 14.5674 29.0457 15.3026 29.289H15.2019C15.6905 29.3993 16.1405 29.5186 16.5786 29.605C17.0168 29.6915 17.4165 29.7571 17.8191 29.8257C18.2218 29.8943 18.6185 29.9569 19.0241 30.0225C19.4297 30.0881 19.8412 30.1745 20.2735 30.264C20.2084 30.1686 21.1232 30.3445 20.91 30.2043C22.7279 30.3624 24.1993 30.8007 24.8832 30.5204C25.7092 30.5711 25.8572 30.6665 26.2836 30.7053H26.0852C27.6395 30.7619 28.0925 30.747 29.2471 30.7738C29.8215 30.7381 29.9103 30.5741 30.9406 30.5979C30.609 30.6635 31.0294 30.6486 31.4173 30.6367C31.1716 30.6546 31.0946 30.6844 31.6038 30.7023C31.7008 30.676 31.7998 30.658 31.8999 30.6486C31.8999 30.6486 31.9265 30.6486 31.8999 30.6635C32.5423 30.6069 32.4298 30.5949 32.1308 30.6009C32.1456 30.6009 32.1308 30.58 32.0272 30.5651C32.422 30.5793 32.8172 30.5733 33.2114 30.5472C33.4602 30.5033 33.7147 30.5033 33.9634 30.5472C34.446 30.4995 34.8931 30.4578 35.3164 30.4011L36.5303 30.2073C37.3119 30.094 38.0432 29.9092 38.8366 29.7869C39.0231 29.8137 38.659 29.9181 38.2001 30.0105C38.5761 29.942 38.9521 29.8913 39.3251 29.8108C39.3251 29.8972 38.6856 29.9658 38.3392 30.0314C39.71 29.9569 41.0808 29.4351 42.6617 29.1906L42.9578 29.0504H43.0525C43.2225 28.9436 43.4084 28.8651 43.6032 28.8179C43.8401 28.8179 43.6269 28.9789 44.3937 28.7791C44.7971 28.7042 45.1933 28.5944 45.5779 28.4511C46.022 28.302 46.4869 28.1351 46.8688 27.986C46.4454 28.1112 46.5727 28.0307 46.7415 27.9472C47.1175 27.825 47.3543 27.822 47.6297 27.6997L47.6948 27.7773C47.6089 27.7594 47.8458 27.655 48.1211 27.5477C48.3965 27.4403 48.7132 27.3091 48.7665 27.2674C49.0004 27.2674 48.2099 27.5328 48.133 27.6133C49.6133 27.0676 48.882 27.3539 50.3623 26.7844C51.1232 26.4057 50.1876 26.7575 50.534 26.5339L51.5614 26.0807C51.9078 25.9197 52.269 25.7587 52.6716 25.6155L52.4022 25.6424L53.9861 24.8821C54.4391 24.6704 54.8743 24.5153 55.2918 24.3304C55.8513 23.9905 56.3517 23.7043 56.7721 23.4359L57.8971 22.6607C58.0469 22.5425 58.2149 22.4498 58.3945 22.3864C58.5643 22.3395 58.7423 22.3314 58.9156 22.3625C59.0575 22.3805 59.1943 22.4279 59.3171 22.5018C59.4399 22.5757 59.5461 22.6745 59.6291 22.7919C59.6916 22.8882 59.7358 22.9954 59.7593 23.108C59.7593 23.1497 59.7771 23.1855 59.783 23.2183C59.7889 23.2511 59.783 23.269 59.8037 23.2928C59.8304 23.3793 59.857 23.427 59.8807 23.4389C59.9044 23.4508 59.9695 23.3614 60.0051 23.1706C60.0238 22.9424 59.971 22.714 59.8541 22.5176C59.723 22.2974 59.5333 22.1187 59.3064 22.0018C59.0735 21.8804 58.8151 21.8171 58.5529 21.8171C58.2907 21.8171 58.0323 21.8804 57.7994 22.0018L57.0948 22.3476L56.7987 22.4967C54.9868 23.3912 53.619 24.0591 52.1476 24.7479C50.4174 25.5807 48.6376 26.3046 46.8184 26.9156Z" fill="#1D1D1D"/>
<path d="M24.1612 48.1093L24.0254 48.145C24.0402 48.1628 24.0815 48.1599 24.1612 48.1093Z" fill="#1D1D1D"/>
<path d="M24.0658 45.9625L23.7224 46.2965C23.6185 46.386 23.5098 46.4696 23.3967 46.5469C23.209 46.6836 23.0111 46.8052 22.8046 46.9107C22.4167 47.1254 22.0289 47.3222 21.4012 47.6352C20.7684 47.8882 20.1038 48.0517 19.4265 48.1213C19.3438 48.1733 19.2509 48.2069 19.1541 48.2197C19.0448 48.2301 18.9348 48.2301 18.8255 48.2197C18.7123 48.2089 18.5987 48.2039 18.485 48.2047C18.379 48.1964 18.2723 48.2035 18.1682 48.2256L18.0587 48.0944C17.9883 48.114 17.9155 48.123 17.8426 48.1213C17.7727 48.1133 17.7062 48.0866 17.6501 48.0437V48.0169C17.4786 48.0145 17.3079 47.9935 17.1409 47.9543L17.1587 47.9275L16.9337 47.8589L16.984 47.8291C16.6507 47.794 16.3317 47.6739 16.0573 47.4802L16.0188 47.6054C15.8205 47.431 15.5981 47.2864 15.3586 47.1761C15.2559 47.1213 15.1569 47.0595 15.0625 46.9912C14.9529 46.912 14.8611 46.8104 14.7931 46.693L14.8198 46.6751C14.6598 46.6191 14.5129 46.5307 14.3882 46.4153C14.2634 46.2999 14.1634 46.16 14.0944 46.0043C14.025 45.8624 13.9469 45.725 13.8605 45.5928C13.7516 45.4457 13.6242 45.3134 13.4816 45.1992C13.5645 45.2648 13.5141 45.1306 13.5467 45.1217L13.3809 44.904C13.3378 44.8354 13.2904 44.7697 13.2388 44.7072C13.1381 44.5969 13.0345 44.5343 12.9161 44.582C12.7977 44.3345 12.9161 44.3465 12.9753 44.2838C12.8746 44.3286 12.7503 44.1199 12.6792 43.9201L12.7533 44.0006C12.6719 43.8125 12.6027 43.6192 12.546 43.4221L12.3743 43.5951C12.3476 43.2552 12.5993 43.449 12.472 43.1568L12.3032 43.1955C12.2919 42.9881 12.3211 42.7804 12.3891 42.5843C12.4424 42.3994 12.549 42.2175 12.5993 42.0058C12.577 41.1068 12.6878 40.2094 12.9279 39.3432C13.1629 38.4849 13.6665 37.7257 14.3638 37.1785L14.5059 37.2173C14.651 37.3276 14.6392 36.7104 14.802 36.7939L14.8879 36.5971C14.953 36.5971 15.0655 36.5524 15.0152 36.6418C15.1602 36.5434 15.1454 36.5166 15.2135 36.3943L15.4297 36.3764C15.7239 36.2186 16.0086 36.0433 16.2823 35.8517C16.5612 35.6539 16.8716 35.5057 17.2001 35.4134C17.659 35.4134 18.2511 35.2643 18.8877 35.2225L19.1245 35.1897H19.3614L19.8291 35.1659H20.2673H20.4746L20.6611 35.1897C21.3657 35.1897 22.0378 35.6101 22.5944 36.0842C23.151 36.5583 23.6099 37.1129 24.1694 37.5274C24.1694 37.5751 24.2908 37.6347 24.3086 37.6198C24.427 37.7927 24.5632 37.9537 24.6668 38.1386C24.7704 38.3235 24.8829 38.4964 24.9629 38.6872L25.0724 38.9168L25.1968 39.1673C25.2352 39.2657 25.2797 39.373 25.3241 39.4893C25.5204 39.9911 25.6914 40.5026 25.8362 41.0219C25.9547 41.493 26.1086 41.8448 26.3188 41.7584C26.4254 41.7166 26.5438 41.5616 26.6771 41.2336C26.7096 41.1501 26.7452 41.0577 26.7777 40.9533C26.8103 40.849 26.8281 40.7327 26.8517 40.6015C26.8754 40.4703 26.8991 40.3301 26.9198 40.1721C26.9406 40.0141 26.9376 39.8471 26.9406 39.6622L26.9909 39.6891C26.9512 39.3252 26.8605 38.9688 26.7215 38.6306C26.5992 38.3544 26.4242 38.1052 26.2063 37.8971C26.378 37.6943 25.8777 37.2799 25.8274 37.0801H25.857C25.6467 36.9142 25.4783 36.7007 25.3655 36.4569C25.248 36.2201 25.0663 36.0216 24.8415 35.8845C24.8697 35.8715 24.9013 35.8679 24.9317 35.8744C24.9621 35.8808 24.9896 35.8969 25.0102 35.9202C24.7142 35.6847 24.3175 35.3955 24.3855 35.2643L23.8082 34.8468C23.598 34.7127 23.376 34.5845 23.1628 34.4652C22.8013 34.2559 22.3951 34.1373 21.9786 34.1193L22.0289 34.0955C21.6766 34.1432 21.644 33.9583 21.2769 33.9553C21.2769 33.9315 21.2414 33.9166 21.2502 33.9076C21.0278 33.9197 20.8048 33.8955 20.59 33.8361C20.3958 33.7894 20.1974 33.7625 19.9979 33.7555V33.6542C19.7699 33.6542 19.542 33.6542 19.317 33.6542L19.5686 33.687C19.5183 33.8211 19.3969 33.7734 19.2193 33.7078C19.0097 33.6265 18.7775 33.6265 18.5679 33.7078C18.3181 33.7376 18.0865 33.8548 17.9136 34.0388C17.8217 34.1185 17.7226 34.1894 17.6176 34.2505C17.5212 34.3157 17.408 34.351 17.2919 34.3519C17.1143 34.5278 17.4281 34.1014 17.135 34.2773C17.0876 34.1432 17.2623 34.1521 17.1527 34.0627C17.0137 34.1199 16.8647 34.1483 16.7146 34.1461C16.5444 34.1613 16.3801 34.2165 16.2349 34.3072L16.1787 34.2117C15.9787 34.3708 15.7477 34.4856 15.5007 34.5487C15.2887 34.5813 15.0982 34.697 14.9708 34.8707C14.5504 35.2315 14.4675 34.7962 14.124 35.3209C14.0322 35.3209 13.9375 35.3209 13.8457 35.3448C13.6414 35.4998 13.8457 35.6072 13.5793 35.7413C13.526 35.6579 13.2654 35.9262 13.3247 35.7413C13.0529 35.9404 12.8275 36.1968 12.6644 36.4927C12.4732 36.8321 12.235 37.1423 11.9568 37.4141C11.9703 37.5542 11.937 37.6948 11.8621 37.8136C11.8021 37.9226 11.7763 38.0474 11.7881 38.1714C11.7496 38.1714 11.6549 38.3533 11.5779 38.4845C11.5009 38.6157 11.4476 38.6872 11.4595 38.4308C11.4595 38.3891 11.4979 38.3235 11.5246 38.3414L11.4506 38.243C11.3619 38.3238 11.2901 38.4216 11.2393 38.5306C11.1885 38.6396 11.1596 38.7577 11.1545 38.8781C11.1545 38.9914 11.1279 39.1047 11.1131 39.218C11.1046 39.3354 11.0827 39.4515 11.0479 39.5639C11.119 39.4356 11.1575 39.2508 11.1989 39.3939L11.0716 39.8203L11.0065 39.707L10.8999 40.026C10.8673 40.1334 10.8437 40.2437 10.817 40.354L10.9443 40.2824C10.8437 40.5806 10.6127 40.685 10.7489 41.0726C10.8288 41.2425 10.9177 40.7744 10.9354 41.1233C10.891 41.332 10.814 41.6003 10.7785 41.8866C10.7428 42.1773 10.7289 42.4704 10.7371 42.7632C10.8555 42.6976 10.8733 42.8467 10.9236 42.9958L10.817 43.0286C11.0627 43.5861 10.589 43.2939 10.8555 43.8515L10.7667 43.8187L11.0302 43.9141C11.3706 44.3614 10.8762 44.266 11.3588 44.7222C11.2611 44.5105 11.5512 44.5373 11.5986 44.8146L11.4772 44.7877C11.5512 44.9249 11.6075 44.9577 11.6341 45.0591C11.5394 44.9965 11.4683 45.0591 11.5838 45.2767L11.3973 45.1903L11.7644 45.4884C11.777 45.5829 11.805 45.6746 11.8473 45.7598C11.8917 45.8492 11.948 45.9357 11.9983 46.0192C12.1019 46.1832 12.1848 46.3173 12.1611 46.4277C12.1772 46.4629 12.1961 46.4968 12.2174 46.529C12.2559 46.5887 12.3121 46.6692 12.3713 46.7497C12.4957 46.9107 12.6467 47.0807 12.7651 47.0896C12.5875 47.0449 12.8273 47.3699 12.6585 47.3639C12.9672 47.4974 13.2277 47.7233 13.4046 48.0109L13.3631 47.9931C13.486 48.148 13.6284 48.2863 13.7865 48.4045C13.9375 48.5119 14.0826 48.6013 14.2395 48.7027C14.3964 48.8041 14.5355 48.8667 14.6925 48.9502C14.8483 49.041 14.995 49.1469 15.1306 49.2662C15.1602 49.138 15.48 49.3706 15.4652 49.1798C15.6391 49.225 15.8056 49.2953 15.9596 49.3885C16.1106 49.463 16.2557 49.5465 16.3741 49.6121C16.6228 49.7582 16.8508 49.8089 17.0432 49.5942C17.3748 49.6479 17.4014 49.8178 17.5702 49.8715H17.4843L18.1949 49.9431C18.3784 49.9669 18.5442 49.9639 18.787 49.9848C19.0268 49.946 19.0623 49.7254 19.4739 49.7552C19.3436 49.8566 19.5124 49.8298 19.6663 49.8238C19.5686 49.8417 19.539 49.8805 19.7492 49.9311C19.7817 49.9008 19.82 49.8775 19.8617 49.8626C19.8617 49.8626 19.8617 49.8626 19.8617 49.8864C20.1193 49.8298 20.069 49.797 19.9476 49.8059C19.9476 49.8059 19.9476 49.7731 19.9032 49.7493C20.1815 49.8387 20.6404 49.63 20.6996 49.785C21.3339 49.5878 21.9334 49.2909 22.4759 48.9054C22.5766 48.9472 22.4759 49.0814 22.3131 49.2036L22.7158 48.977C22.7661 49.0843 22.5085 49.1529 22.3901 49.2394C22.5316 49.2191 22.6681 49.1726 22.7927 49.1022C22.9246 49.0333 23.0462 48.9459 23.1539 48.8428C23.3838 48.623 23.6465 48.4408 23.9326 48.3031L23.9829 48.1481H24.0243C23.9918 48.1093 24.0658 47.9692 24.128 47.9006C24.2612 47.9215 24.276 48.0914 24.5099 47.8708C24.6608 47.7925 24.7893 47.6765 24.8829 47.5339C24.9866 47.3699 25.0843 47.185 25.179 47.0449C25.0458 47.1671 25.0428 47.0836 25.0665 47.0031C25.1671 46.8868 25.3093 46.8868 25.3448 46.7557L25.4662 46.8332C25.3241 46.8004 25.6024 46.4098 25.5876 46.3323C25.7267 46.3323 25.5135 46.5797 25.552 46.6602C25.7419 46.403 25.9093 46.1296 26.0524 45.8433C26.1353 45.4974 25.9043 45.8284 25.8836 45.6286C25.9657 45.334 26.0894 45.0529 26.2507 44.7937L26.0938 44.8384C26.1607 44.4307 26.3077 44.0404 26.5261 43.6905C26.5261 43.5623 26.5261 43.44 26.5261 43.3237C26.5261 43.2075 26.5024 43.1001 26.4876 42.9987C26.4665 42.823 26.4349 42.6488 26.3928 42.477C26.3333 42.261 26.2447 42.0544 26.1294 41.8627C25.9636 41.6123 25.8155 41.6242 25.7089 41.7673C25.5843 41.9291 25.4936 42.1147 25.4425 42.313C25.4158 42.4084 25.3833 42.4948 25.3596 42.5575C25.3359 42.6201 25.3241 42.6588 25.3241 42.6588C25.137 43.1801 24.9759 43.7105 24.8415 44.2481C24.6874 44.8619 24.4247 45.4427 24.0658 45.9625Z" fill="#1D1D1D"/>
<path d="M46.2921 48.1093L46.1562 48.145C46.1858 48.1628 46.2124 48.1599 46.2921 48.1093Z" fill="#1D1D1D"/>
<path d="M41.5547 48.1243C41.5635 48.1259 41.5726 48.1259 41.5815 48.1243H41.5547Z" fill="#1D1D1D"/>
<path d="M46.2 45.9626L45.8536 46.2965C45.7471 46.3979 45.6286 46.4694 45.5309 46.547C45.3432 46.6835 45.1452 46.8051 44.9388 46.9107C44.5539 47.1254 44.1661 47.3222 43.5384 47.6353C42.9047 47.8885 42.2391 48.0521 41.5607 48.1213C41.4785 48.1743 41.3854 48.208 41.2884 48.2197C41.1791 48.2301 41.069 48.2301 40.9597 48.2197C40.8466 48.2088 40.7329 48.2038 40.6193 48.2048C40.5132 48.1966 40.4066 48.2036 40.3025 48.2257L40.1752 48.0974C40.1058 48.1168 40.034 48.1258 39.962 48.1243C39.891 48.117 39.8234 48.0902 39.7666 48.0467L39.7814 48.0199C39.6099 48.0175 39.4392 47.9965 39.2722 47.9573L39.2899 47.9305L39.0649 47.8619L39.1182 47.8321C38.784 47.797 38.4641 47.6769 38.1886 47.4832L38.1501 47.6084C37.9532 47.4335 37.7317 47.2888 37.4928 47.1791C37.3897 47.1249 37.2908 47.0632 37.1968 46.9942C37.0874 46.9157 36.9964 46.8139 36.9303 46.696L36.957 46.6782C36.7964 46.6226 36.6488 46.5344 36.5235 46.419C36.3982 46.3036 36.2979 46.1634 36.2287 46.0073C36.1592 45.8654 36.0811 45.728 35.9948 45.5958C35.8859 45.4487 35.7585 45.3164 35.6158 45.2022C35.7017 45.2678 35.6513 45.1337 35.6809 45.1247C35.6277 45.0502 35.5714 44.9786 35.5181 44.907C35.475 44.8377 35.4265 44.7718 35.373 44.7103C35.2753 44.5999 35.1688 44.5373 35.0533 44.585C34.9319 44.3375 35.0385 44.3495 35.1125 44.2869C35.0118 44.3316 34.8875 44.1229 34.8164 43.9231L34.8905 44.0036C34.8068 43.8161 34.7366 43.6228 34.6803 43.4252L34.5085 43.5981C34.4849 43.2582 34.7365 43.452 34.6092 43.1598L34.4404 43.1985C34.4264 42.991 34.4557 42.7828 34.5263 42.5873C34.5796 42.4024 34.6862 42.2206 34.7335 42.0089C34.7127 41.1099 34.8234 40.2127 35.0622 39.3462C35.2981 38.4876 35.8027 37.7284 36.501 37.1815L36.6431 37.2203C36.7853 37.3306 36.7764 36.7134 36.9392 36.7969L37.0221 36.6001C37.0872 36.6001 37.1997 36.5554 37.1524 36.6448C37.2974 36.5464 37.2797 36.5196 37.3478 36.3973L37.5669 36.3795C37.854 36.2225 38.1327 36.0503 38.4018 35.8636C38.6803 35.6654 38.9908 35.5171 39.3195 35.4253C39.7755 35.4253 40.3676 35.2762 41.0041 35.2345L41.241 35.2017H41.4778L41.9456 35.1778H42.3868H42.591L42.7776 35.2017C43.4822 35.2017 44.1572 35.6221 44.7108 36.0962C45.2645 36.5703 45.7293 37.1249 46.2859 37.5393C46.2859 37.587 46.4102 37.6467 46.428 37.6318C46.5435 37.8047 46.6797 37.9657 46.7833 38.1506C46.8869 38.3354 47.0024 38.5084 47.0793 38.6992L47.1889 38.9288L47.3132 39.1792C47.3517 39.2776 47.3932 39.385 47.4405 39.5013C47.6448 39.9604 47.7958 40.5627 47.9498 41.0338C48.1037 41.505 48.2221 41.8568 48.4353 41.7703C48.5389 41.7286 48.6603 41.5735 48.7906 41.2455C48.8232 41.1621 48.8616 41.0696 48.8912 40.9653C48.9209 40.8609 48.9416 40.7446 48.9653 40.6134C48.9889 40.4822 49.0126 40.3421 49.0363 40.1841C49.06 40.026 49.0511 39.8591 49.057 39.6742L49.1044 39.701C49.0641 39.3376 48.9745 38.9814 48.838 38.6425C48.7135 38.3669 48.5377 38.1178 48.3198 37.9091C48.4945 37.7063 47.9912 37.2918 47.9438 37.0921H47.9705C47.7611 36.9261 47.5937 36.7126 47.482 36.4689C47.3643 36.2313 47.1814 36.0326 46.955 35.8964C46.9837 35.8832 47.0158 35.8795 47.0467 35.8859C47.0776 35.8924 47.1056 35.9086 47.1267 35.9322C46.8307 35.6966 46.431 35.4074 46.502 35.2762L45.9099 34.8588C45.7027 34.7246 45.4806 34.5964 45.2674 34.4771C44.91 34.2709 44.5094 34.1524 44.098 34.1313L44.1483 34.1074C43.796 34.1551 43.7605 33.9703 43.3963 33.9673C43.3963 33.9434 43.3608 33.9285 43.3667 33.9196C43.1452 33.9318 42.9232 33.9076 42.7095 33.848C42.5152 33.8016 42.3169 33.7746 42.1173 33.7675V33.6661C41.8923 33.6661 41.6644 33.6661 41.4394 33.6661L41.691 33.6989C41.6377 33.8331 41.5163 33.7854 41.3387 33.7198C41.1303 33.6375 40.8987 33.6375 40.6903 33.7198C40.4403 33.7491 40.2086 33.8663 40.036 34.0508C39.9436 34.1298 39.8445 34.2006 39.74 34.2625C39.6445 34.3271 39.5323 34.3623 39.4173 34.3638C39.2396 34.5398 39.5505 34.1134 39.2603 34.2893C39.213 34.1551 39.3876 34.1641 39.2603 34.0746C39.1215 34.1324 38.9724 34.1608 38.8222 34.1581C38.6521 34.1737 38.4879 34.2288 38.3425 34.3191L38.2863 34.2237C38.087 34.3821 37.8571 34.4969 37.6113 34.5606C37.5062 34.5765 37.4053 34.613 37.3143 34.6683C37.2234 34.7236 37.1442 34.7964 37.0813 34.8826C36.6609 35.2434 36.578 34.8081 36.2316 35.3329C36.1398 35.3329 36.0481 35.3329 35.9563 35.3567C35.752 35.5118 35.9563 35.6191 35.6869 35.7533C35.6365 35.6698 35.373 35.9382 35.4323 35.7533C35.1612 35.9532 34.936 36.2094 34.772 36.5047C34.581 36.8434 34.3438 37.1535 34.0674 37.426C34.0795 37.566 34.0463 37.7062 33.9727 37.8256C33.9114 37.9341 33.8855 38.0592 33.8986 38.1834C33.8572 38.1834 33.7625 38.3652 33.6855 38.4964C33.6085 38.6276 33.5552 38.6992 33.5671 38.4428C33.5671 38.401 33.6055 38.3354 33.6322 38.3533L33.5582 38.2549C33.3856 38.4215 33.2847 38.6494 33.2769 38.89C33.2769 39.0033 33.2503 39.1166 33.2355 39.2299C33.228 39.3472 33.2071 39.4633 33.1733 39.5758C33.2444 39.4476 33.2828 39.2627 33.3213 39.4059L33.197 39.8322L33.1318 39.7189L33.0223 40.038C32.9897 40.1453 32.969 40.2556 32.9424 40.366L33.0667 40.2944C32.9661 40.5926 32.7381 40.6969 32.8743 41.0845C32.9542 41.2545 33.0401 40.7864 33.0578 41.1352C33.0134 41.3439 32.9364 41.6123 32.9009 41.8985C32.8647 42.1892 32.8518 42.4824 32.8624 42.7751C32.9809 42.7096 32.9986 42.8586 33.046 43.0077L32.9394 43.0405C33.1881 43.5981 32.7144 43.3059 32.9779 43.8635L32.8891 43.8307L33.1526 43.9261C33.493 44.3733 33.0016 44.2779 33.4812 44.7341C33.3865 44.5224 33.6736 44.5492 33.724 44.8265L33.5996 44.7997C33.6766 44.9369 33.7299 44.9697 33.7565 45.071C33.6648 45.0084 33.5937 45.071 33.7092 45.2887L33.5197 45.2022L33.8868 45.5004C33.8994 45.5948 33.9274 45.6865 33.9697 45.7717C34.0171 45.8612 34.0704 45.9477 34.1237 46.0311C34.2243 46.1951 34.3102 46.3293 34.2835 46.4396C34.3001 46.4752 34.3199 46.5091 34.3427 46.541C34.3812 46.6006 34.4345 46.6811 34.4967 46.7616C34.621 46.9227 34.7691 47.0926 34.8875 47.1016C34.7099 47.0568 34.9497 47.3818 34.7839 47.3759C35.0916 47.511 35.3516 47.7365 35.53 48.0229L35.4885 48.005C35.6104 48.1599 35.7517 48.2982 35.9089 48.4165C36.0629 48.5238 36.205 48.6133 36.3648 48.7146C36.5247 48.816 36.6609 48.8786 36.8178 48.9621C36.9732 49.0537 37.1199 49.1595 37.256 49.2782C37.2856 49.15 37.6024 49.3825 37.5905 49.1917C37.7643 49.2375 37.9307 49.3078 38.085 49.4004C38.236 49.475 38.381 49.5585 38.4965 49.6241C38.7481 49.7702 38.9732 49.8208 39.1686 49.6062C39.5001 49.6598 39.5238 49.8298 39.6956 49.8835H39.6097L40.3173 49.955C40.5008 49.9789 40.6666 49.9759 40.9094 49.9968C41.1463 49.958 41.1847 49.7374 41.5933 49.7672C41.463 49.8686 41.6318 49.8417 41.7887 49.8358C41.691 49.8536 41.6584 49.8924 41.8716 49.9431C41.903 49.9128 41.9403 49.8895 41.9812 49.8745C41.9812 49.8745 41.9812 49.8745 41.9812 49.8984C42.2387 49.8417 42.1854 49.8089 42.067 49.8179C42.067 49.8179 42.067 49.7851 42.0196 49.7612C42.3009 49.8507 42.7568 49.6419 42.819 49.797C43.4535 49.6 44.0531 49.3032 44.5954 48.9174C44.696 48.9591 44.5954 49.0933 44.4355 49.2156L44.8382 48.989C44.8885 49.0963 44.6279 49.1649 44.5095 49.2513C44.652 49.2315 44.7896 49.185 44.9151 49.1142C45.0456 49.0444 45.1661 48.9572 45.2734 48.8548C45.5016 48.6401 45.7612 48.4621 46.0431 48.327L46.0935 48.172H46.1319C46.1023 48.1332 46.1734 47.9931 46.2385 47.9245C46.3718 47.9454 46.3866 48.1153 46.6204 47.8947C46.7704 47.8162 46.8979 47.7002 46.9905 47.5578C47.0971 47.3938 47.1918 47.2089 47.2866 47.0688C47.1563 47.191 47.1504 47.1075 47.1741 47.027C47.2777 46.9107 47.4198 46.9107 47.4553 46.7795L47.5738 46.8571C47.4346 46.8243 47.71 46.4337 47.6981 46.3561C47.8343 46.3561 47.6241 46.6036 47.6626 46.6841C47.8565 46.4277 48.0288 46.1554 48.1777 45.8701C48.2636 45.5242 48.0327 45.8552 48.009 45.6554C48.0909 45.3603 48.2156 45.079 48.3791 44.8206L48.2192 44.8653C48.2857 44.4569 48.4337 44.0664 48.6544 43.7174C48.6544 43.5891 48.6544 43.4669 48.6544 43.3506C48.6544 43.2343 48.6278 43.127 48.6159 43.0256C48.5926 42.8501 48.5599 42.6759 48.5182 42.5038C48.4594 42.2881 48.3717 42.0815 48.2577 41.8896C48.0889 41.6391 47.9409 41.6511 47.8343 41.7942C47.7107 41.9566 47.6202 42.1421 47.5678 42.3398C47.5453 42.423 47.5176 42.5046 47.485 42.5843L47.4524 42.6857C47.264 43.2066 47.1029 43.737 46.9698 44.2749C46.8133 44.8785 46.5527 45.4497 46.2 45.9626Z" fill="#1D1D1D"/>
<path d="M32.7172 42.4391L32.6959 42.3845C32.6945 42.3947 32.6957 42.405 32.6995 42.4145C32.7032 42.4241 32.7093 42.4325 32.7172 42.4391Z" fill="#1D1D1D"/>
<path d="M32.963 40.8251C32.6936 40.7625 32.6226 40.527 32.3443 40.6194C32.2062 40.6161 32.0687 40.6384 31.9386 40.685C31.8765 40.8728 31.7669 40.685 31.6959 40.846L31.6663 40.7387C31.6396 40.7923 31.61 40.8281 31.5863 40.7715V40.7387C31.5478 40.8221 31.5064 40.7715 31.4857 40.8132V40.7804H31.4383V40.7357C31.3732 40.8221 31.3051 40.8281 31.2459 40.7893V40.9175C31.1186 40.7744 31.0712 41.0428 30.9498 40.8698V40.849C30.8047 41.1889 30.7189 40.6134 30.5708 40.9384C30.5886 40.8997 30.5708 40.8728 30.5708 40.84C30.5027 40.8788 30.4287 40.8967 30.4287 41.1382C30.3784 41.1382 30.3873 41.0577 30.3814 40.9593C30.3814 41.0726 30.3369 41.1173 30.2985 41.1233L30.3162 41.0815L30.2037 41.1203L30.2274 41.329C30.1682 41.2694 30.2274 41.0726 30.1534 41.1233V41.2992C30.0705 41.2634 30.0202 41.001 29.9402 40.8698C29.6116 40.7953 29.2534 41.2426 28.9455 40.9354V40.8013C28.9455 40.6104 28.8626 41.0994 28.8507 40.9086L28.8152 40.9981C28.8002 40.9608 28.8002 40.9191 28.8152 40.8818C28.7826 40.8818 28.7826 40.9056 28.7589 40.9653L28.7234 40.846C28.5902 40.7536 28.4806 40.9831 28.3415 40.9354C28.1757 40.6939 27.8648 40.9176 27.6872 41.0458C27.4326 41.3439 27.1395 40.5687 26.8819 40.8967C26.8819 40.8698 26.8523 40.9325 26.8523 40.9533L26.6154 40.9265C26.6154 40.9265 25.4697 40.852 26.3401 42.4412V42.4829C26.4704 42.5843 26.5503 42.6082 26.6362 42.3965C26.6362 42.6559 26.7398 42.4233 26.7724 42.5068V42.5277C26.8493 42.3309 26.9352 42.6917 27.0092 42.5277C27.0092 42.5485 27.0092 42.6171 26.9885 42.6231C27.0447 42.5903 27.1188 42.5336 27.1247 42.6827C27.2549 42.6439 27.4415 42.7125 27.5244 42.474V42.5157C27.5747 42.3547 27.5865 42.4919 27.6428 42.4084C27.6428 42.4293 27.6428 42.4382 27.6428 42.4472C27.6961 42.2861 27.7967 42.4233 27.8382 42.3547V42.4531L27.9418 42.4293L27.9033 42.4084C27.9033 42.1341 27.9833 42.5813 28.0602 42.4084C28.1313 42.4442 28.2023 41.8389 28.2764 41.9731C28.3119 41.8449 28.2467 42.1818 28.3 42.0834C28.3 42.2265 28.2734 42.1728 28.3 42.2861C28.3504 42.2205 28.3829 42.4322 28.4481 42.3368V42.4472C28.531 42.2444 28.605 42.5933 28.6612 42.3994C28.7471 42.31 28.7175 42.7304 28.8063 42.5127L28.8418 42.6648C28.8803 42.6887 28.8685 42.48 28.9129 42.5515C28.9129 42.6469 28.9662 42.629 28.9395 42.7185C29.0372 42.8646 29.1349 42.5068 29.2622 42.7572C29.2889 42.5724 29.354 42.6827 29.3718 42.5455C29.3718 42.6261 29.5021 42.5455 29.428 42.7334C29.428 42.7334 29.428 42.7334 29.428 42.7125V42.8228C29.4991 43.0286 29.5583 42.7066 29.6294 42.7394C29.6086 42.7036 29.582 42.7125 29.5998 42.638L29.6649 42.6529V42.7453L29.7626 42.799V42.6857C29.81 42.7423 29.8277 42.9361 29.881 42.7751C29.9047 42.6857 29.8366 42.6231 29.881 42.5873C29.9459 42.6785 30.0285 42.7556 30.1238 42.8139C30.1238 42.6857 30.1238 42.6916 30.1623 42.6648V42.7751C30.2481 42.6231 30.1919 43.0226 30.2807 42.8974V42.9749L30.3044 42.7423C30.3814 42.5217 30.3458 42.9749 30.4347 42.6738C30.3991 42.6916 30.4169 42.4263 30.4583 42.477V42.5843C30.482 42.5605 30.4879 42.5157 30.5057 42.5366C30.5235 42.5575 30.5057 42.6946 30.5324 42.6767L30.5087 42.8109L30.5738 42.6141C30.6241 42.7274 30.7041 42.5843 30.7248 42.7364C30.7248 42.7364 30.8314 42.8079 30.858 42.6439C30.8373 42.7453 30.8965 42.7871 30.8787 42.9063C30.9054 42.79 30.9883 42.6946 31.0238 42.8199C31.1482 42.9481 31.234 42.6469 31.3436 42.802C31.3436 42.6708 31.3969 42.7423 31.385 42.5783C31.4975 42.4144 31.5923 42.9123 31.6307 42.4024C31.684 42.3756 31.6929 42.5217 31.7196 42.5485V42.5754C31.7795 42.5404 31.8497 42.5278 31.9179 42.5396C31.9534 42.4919 31.9594 42.2414 32.0245 42.31C32.0038 42.4054 32.0245 42.3875 32.0541 42.3875C32.0837 42.3875 32.0334 42.4382 32.0541 42.5008C32.058 42.4794 32.064 42.4585 32.0719 42.4382C32.0736 42.4461 32.0736 42.4542 32.0719 42.4621C32.1104 42.4293 32.1044 42.3994 32.0719 42.3845C32.0739 42.3657 32.0739 42.3467 32.0719 42.3279C32.1163 42.4501 32.1903 42.3279 32.1962 42.48C32.3146 42.4442 32.4035 42.2772 32.4923 42.2116C32.5031 42.2782 32.4882 42.3464 32.4508 42.4024L32.5219 42.3726C32.5219 42.4919 32.4804 42.4412 32.4568 42.465C32.5426 42.6588 32.6344 42.2712 32.7321 42.4501L32.7528 42.3547V42.3696C32.7535 42.3222 32.7668 42.2759 32.7913 42.2355C32.8061 42.3398 32.7913 42.477 32.8387 42.471C32.8772 42.5694 32.9512 42.4203 33.0015 42.3637C32.9749 42.3458 32.9837 42.2891 33.0015 42.2504C33.0193 42.2116 33.04 42.3517 33.0578 42.307V42.4472C33.0578 42.316 33.1229 42.304 33.1318 42.2474C33.1466 42.3517 33.0933 42.3368 33.0874 42.4144L33.2354 42.3965C33.2887 42.2891 33.2354 42.2623 33.2354 42.14C33.2828 42.1102 33.3272 42.0118 33.3834 42.0983L33.3657 41.9731C33.4515 41.8747 33.5048 41.8896 33.564 42.0178C34.2183 40.9981 33.7002 40.6253 33.7002 40.6253C33.4012 40.363 33.268 40.7267 32.963 40.8251Z" fill="#1D1D1D"/>
<path d="M26.2656 51.9796V52.0392C26.2729 52.031 26.2769 52.0204 26.2769 52.0094C26.2769 51.9984 26.2729 51.9878 26.2656 51.9796Z" fill="#1D1D1D"/>
<path d="M24.9181 52.9486C25.0497 53.1056 25.1685 53.2731 25.2733 53.4495C25.3868 53.6278 25.5523 53.7663 25.747 53.8461C25.9679 54.001 26.209 54.1245 26.4635 54.2128C26.6559 54.1085 26.7596 54.3708 26.9638 54.2903V54.4126C27.0319 54.3858 27.1 54.3798 27.1208 54.4513L27.106 54.4782C27.2096 54.4335 27.2658 54.511 27.3162 54.4782V54.508L27.405 54.5289L27.3724 54.5647C27.4383 54.5515 27.5061 54.5527 27.5715 54.5681C27.6369 54.5835 27.6982 54.6128 27.7514 54.6541L27.7839 54.5289C27.9734 54.7555 28.1451 54.5289 28.3139 54.7465V54.7764C28.3407 54.7532 28.372 54.7357 28.4057 54.725C28.4394 54.7144 28.475 54.7108 28.5102 54.7144C28.5453 54.718 28.5794 54.7288 28.6103 54.7461C28.6412 54.7635 28.6683 54.7869 28.6899 54.8151C28.7111 54.8445 28.7383 54.869 28.7697 54.8868C28.8011 54.9047 28.836 54.9155 28.8719 54.9187C28.9079 54.9218 28.9441 54.9171 28.978 54.9049C29.012 54.8927 29.043 54.8732 29.0688 54.8479C29.0244 54.8807 29.0688 54.9165 29.0688 54.9463C29.211 54.9463 29.3649 54.9314 29.3886 54.678C29.4833 54.678 29.4596 54.7644 29.4626 54.8628C29.4641 54.8414 29.4698 54.8205 29.4795 54.8013C29.4891 54.7821 29.5025 54.7651 29.5187 54.7512C29.535 54.7373 29.5539 54.7268 29.5743 54.7204C29.5946 54.714 29.616 54.7117 29.6373 54.7137L29.5988 54.7555C29.6699 54.7555 29.7439 54.7555 29.8179 54.7316L29.7853 54.5199C29.8949 54.5855 29.7853 54.7793 29.9126 54.7316V54.5557C30.0636 54.5945 30.1524 54.8539 30.3153 54.9881C30.6558 54.9922 30.9928 54.9189 31.3012 54.7734C31.4532 54.7141 31.6084 54.6634 31.766 54.6213C31.9232 54.5844 32.0858 54.5773 32.2456 54.6004L32.3107 54.7167C32.3818 54.8956 32.3847 54.4007 32.4588 54.5587L32.4972 54.4513C32.5269 54.4782 32.5772 54.4961 32.5594 54.5497C32.6216 54.5497 32.6127 54.502 32.6364 54.4335L32.743 54.5199C33.039 54.5199 33.1279 54.2218 33.3854 54.1353C33.7881 54.2098 34.2085 53.697 34.4039 53.3958C34.5134 53.1424 34.7888 53.0977 35.0582 53.0142C35.3276 52.9307 35.6 52.8412 35.671 52.558C35.7006 52.558 35.6918 52.4954 35.671 52.4775L36.0056 52.1793C36.2199 51.975 36.3798 51.7197 36.4704 51.4369C36.5533 51.0612 36.3165 50.766 35.2477 50.7839L35.224 50.7481C35.0049 50.8316 34.9042 50.9151 34.9457 51.1655C34.7503 50.9986 34.8036 51.2699 34.7118 51.246V51.2252C34.7562 51.4637 34.4157 51.2878 34.4365 51.4995C34.4365 51.4816 34.3832 51.4279 34.4009 51.4041C34.3565 51.4876 34.3003 51.6158 34.1996 51.5055C34.0634 51.6694 33.797 51.8036 33.8266 52.069L33.8088 52.0302C33.8443 52.2061 33.7437 52.1107 33.72 52.23C33.72 52.23 33.6963 52.2121 33.6904 52.2032C33.7111 52.385 33.5009 52.3642 33.4802 52.4596L33.4239 52.3761C33.3795 52.4149 33.3381 52.4536 33.2937 52.4864H33.3588C33.4831 52.7309 33.1604 52.4029 33.1486 52.6176C33.0361 52.6474 33.2167 53.2318 33.039 53.1722C33.039 53.3153 32.9917 52.9635 32.9591 53.0917C32.891 52.9665 32.9591 52.9933 32.8821 52.9039C32.8377 53.0023 32.6986 52.8412 32.6453 52.9665L32.595 52.8681C32.5565 53.1066 32.2989 52.8383 32.2989 53.05C32.2041 53.1841 32.0976 52.7727 32.0443 53.0261L31.9436 52.9039C31.8814 52.9039 31.9643 53.0947 31.8785 53.044C31.8548 52.9545 31.7778 52.9963 31.7867 52.9009C31.612 52.7995 31.5617 53.199 31.3189 52.9903C31.3189 53.1782 31.2035 53.0947 31.2005 53.2348C31.1768 53.1573 31.0081 53.2557 31.0821 53.0649C31.0821 53.05 31.1028 53.05 31.1087 53.0649V52.9546C30.9725 52.7697 30.9429 53.1006 30.8304 53.0857C30.8689 53.1185 30.9074 53.0857 30.8896 53.1812H30.789V53.0887L30.6409 53.05L30.6735 53.1603C30.5936 53.1096 30.558 52.9218 30.4899 53.0887C30.4574 53.1812 30.5669 53.2378 30.4899 53.2766C30.38 53.1861 30.2573 53.1128 30.1258 53.0589C30.1258 53.1871 30.1021 53.1812 30.0695 53.205V53.0947C29.9363 53.2468 30.0311 52.8472 29.9037 52.9665V52.8919L29.8593 53.1215C29.7261 53.3362 29.8149 52.886 29.6639 53.1752C29.7143 53.1752 29.6639 53.4227 29.6047 53.369L29.6314 53.2617C29.5929 53.2825 29.5781 53.3243 29.5544 53.3004C29.584 53.2438 29.584 53.1454 29.5307 53.1603L29.581 53.0291C29.5425 53.0917 29.5011 53.1573 29.4597 53.214C29.4034 53.0887 29.2642 53.214 29.2583 53.0589C29.234 53.0436 29.2068 53.0334 29.1784 53.0291C29.134 53.0291 29.0837 53.0291 29.0481 53.1096C29.0985 53.0172 29.0215 52.9575 29.0718 52.8442C29.0096 52.9486 28.8646 53.0172 28.8498 52.883C28.7165 52.7101 28.5034 52.9665 28.3997 52.7607C28.3642 52.886 28.305 52.7906 28.2695 52.9516C28.0386 53.047 28.1037 52.5222 27.8432 52.9695C27.7573 52.9695 27.8047 52.8204 27.778 52.7786L27.8076 52.7637C27.7017 52.7527 27.6001 52.7159 27.5116 52.6564C27.4405 52.6773 27.3221 52.88 27.2569 52.7786C27.331 52.713 27.2866 52.7071 27.2569 52.6862C27.2866 52.6862 27.3102 52.6594 27.2984 52.5789C27.2829 52.5968 27.2637 52.611 27.2421 52.6206C27.2415 52.6137 27.2415 52.6067 27.2421 52.5997C27.1711 52.5997 27.1652 52.6266 27.1859 52.6534C27.1752 52.6707 27.1682 52.6899 27.1652 52.7101C27.1652 52.5729 26.9994 52.6236 27.0763 52.4775C26.8928 52.4089 26.6826 52.4775 26.5138 52.4268C26.5257 52.3934 26.5474 52.3645 26.5759 52.3438C26.6044 52.323 26.6385 52.3114 26.6737 52.3105L26.5642 52.2688C26.6323 52.1704 26.6559 52.2509 26.7003 52.2509C26.7003 52.0153 26.354 52.2509 26.3332 52.0004L26.2474 52.0541V52.0362C26.2141 52.0748 26.1676 52.0993 26.1171 52.1048C26.1645 52.0094 26.2651 51.9169 26.2 51.8722C26.2 51.7559 26.0312 51.7977 25.9306 51.7857C25.9543 51.8275 25.9039 51.8633 25.8655 51.8782C25.827 51.8931 25.8832 51.7589 25.8299 51.7738L25.9187 51.6635C25.8447 51.7738 25.7441 51.7052 25.6937 51.735C25.747 51.6426 25.8003 51.7112 25.8595 51.6575L25.6671 51.5084C25.5309 51.5263 25.5901 51.6158 25.4747 51.6784C25.4006 51.6456 25.2733 51.6784 25.2674 51.5383L25.2023 51.6486C25.0306 51.6128 24.9743 51.5383 24.9921 51.3772C24.243 51.3206 23.9351 51.4876 23.8285 51.7022C23.7707 51.8487 23.7707 52.012 23.8285 52.1584C23.9795 52.713 24.4207 52.6445 24.9181 52.9486Z" fill="#1D1D1D"/>
<path d="M47.8346 21.2086C47.8346 21.2086 41.3715 24.6167 32.161 24.6167C24.1496 24.6167 16.2832 22.3238 16.2832 22.3238L18.2283 9.58604C18.3247 8.53476 18.6672 7.52147 19.2277 6.62927C19.7881 5.73708 20.5506 4.99141 21.4526 4.45342C22.3546 3.91542 23.3703 3.60044 24.4166 3.5343C25.4628 3.46816 26.5097 3.65274 27.4714 4.07292L29.1619 4.8243C29.972 5.18394 30.846 5.37488 31.7313 5.38564C32.6166 5.3964 33.4949 5.22676 34.3134 4.88691L36.978 3.78071C37.9372 3.38807 38.9744 3.22709 40.0066 3.31068C41.0387 3.39426 42.037 3.72008 42.9217 4.26206C43.8063 4.80403 44.5526 5.54708 45.1009 6.43173C45.6491 7.31637 45.9841 8.31801 46.0789 9.35645L47.8346 21.2086Z" fill="#51A7AB"/>
<path d="M33.3564 25.1803L33.084 25.1385C33.0869 25.1624 33.158 25.1803 33.3564 25.1803Z" fill="#1D1D1D"/>
<path d="M36.4923 23.3257C34.7159 23.4718 33.5909 23.4479 32.454 23.4419C31.3171 23.436 30.1595 23.4151 28.3358 23.4211C26.5919 23.3376 24.7238 23.2392 23.0066 23.0603C22.1747 23.1527 20.7684 22.7621 19.7914 22.7621L19.4391 22.5951C19.0837 22.6045 18.7293 22.5531 18.391 22.4431L18.4177 22.4162C17.9114 22.4162 17.3696 22.2522 17.1179 22.2433L17.1446 22.2165L16.5525 22.1121L16.662 22.0912C15.8162 21.9962 14.9802 21.8276 14.1632 21.5873L14.1958 21.7275C13.9945 21.6619 13.808 21.6052 13.6363 21.5545L13.3816 21.486L13.2395 21.4472C13.1566 21.4293 13.0737 21.4233 12.979 21.4114C12.9464 21.4114 12.9553 21.3905 12.9523 21.3727V21.313C12.9482 21.2694 12.9482 21.2255 12.9523 21.1818C12.9701 21.0983 12.9879 21.0149 13.0056 20.9224C13.0412 20.7584 13.0826 20.5825 13.1359 20.3947L13.1626 20.4185C13.127 18.4268 13.8642 17.3862 13.8553 15.3497C13.8553 15.6031 13.9382 15.2513 13.9649 15.2751C14.0715 14.3508 14.2047 13.3639 13.9649 13.3132C14.0715 12.6423 14.1277 12.7795 14.2373 12.7168C14.1277 12.7168 14.1721 12.1205 14.2373 11.5898V11.8373L14.4327 10.3315L14.178 10.5969C14.3616 9.80971 14.4741 10.4299 14.5304 9.66063H14.3586C14.5629 8.57828 14.9182 7.90741 15.2143 7.00396C15.4563 6.02774 15.8991 5.11353 16.514 4.32045C17.1399 3.50987 17.9381 2.8507 18.8499 2.3913C19.7559 1.93317 20.7584 1.70201 21.772 1.71745C22.019 1.71893 22.2655 1.73987 22.5092 1.78006C22.7504 1.80772 22.9883 1.85864 23.2198 1.93213L23.5691 2.02754L23.8978 2.17066C24.1198 2.26906 24.3182 2.34658 24.558 2.46883L24.6705 2.66264C24.6705 2.87135 25.8311 2.86241 25.9051 3.08902L26.3906 3.20232C26.515 3.29177 26.7962 3.44682 26.5357 3.3842C26.8019 3.5035 27.0883 3.5703 27.3795 3.58099C27.5364 3.66746 27.6992 3.74499 27.868 3.82549C28.7843 4.05248 29.7381 4.07992 30.6658 3.906C31.1244 3.82342 31.5766 3.70783 32.0188 3.56012C32.2438 3.4826 32.4688 3.39911 32.6967 3.30668L33.3303 3.05324C33.8662 2.89819 34.5146 2.67158 35.1955 2.40025L35.7225 2.18855C35.9001 2.11699 36.0511 2.07525 36.2199 2.01263C37.8191 1.43479 39.5717 1.45808 41.1552 2.07823C41.9044 2.3666 42.5801 2.81992 43.1329 3.40507C43.698 4.01334 44.135 4.73039 44.4179 5.51312C44.48 5.70991 44.56 5.90074 44.6103 6.10945L44.7435 6.70579C44.7817 6.91095 44.8094 7.11795 44.8264 7.32598L44.9064 7.97598C45.0163 8.86918 45.1774 9.75523 45.3889 10.6297C45.3975 10.7684 45.4381 10.9031 45.5074 11.0233L45.9663 14.1838C45.9663 14.1838 46.5377 18.0183 47.0795 20.3648C47.6213 22.7114 48.1334 23.5672 48.0209 17.6456L48.0742 17.7171C47.9084 15.9788 47.7634 14.8905 47.3726 13.7306C47.5976 13.507 47.1801 12.3084 47.2008 11.8939L47.2275 11.9297C46.8722 10.904 47.0558 9.74114 46.7271 8.75122C46.7538 8.787 46.8248 8.79893 46.8663 9.0315C46.7183 8.28906 46.511 7.31405 46.6442 7.20075C46.5998 6.96221 46.5554 6.70877 46.5081 6.44937C46.4607 6.18996 46.3571 5.92459 46.2801 5.65624L46.2179 5.45349L46.135 5.25669L45.9692 4.8661C45.91 4.73788 45.8626 4.60371 45.7916 4.48146C45.7205 4.35921 45.6524 4.23994 45.5814 4.12068C45.4552 3.88314 45.3065 3.65847 45.1373 3.4498C45.0041 3.2423 44.8598 3.04223 44.705 2.85048C44.4289 2.55462 44.1142 2.29784 43.7695 2.08717L43.8613 2.11103C43.2247 1.78901 43.1389 1.55047 42.4283 1.19267C42.4017 1.15391 42.3573 1.11813 42.3691 1.11515C42.155 1.04733 41.9462 0.963613 41.7444 0.864686L41.0043 0.566518C40.7615 0.480832 40.5145 0.408176 40.2641 0.348856C40.1486 0.319039 40.0421 0.289223 39.9444 0.271333C39.8467 0.253442 39.7549 0.250461 39.6779 0.247479L39.6542 0.14312C39.4023 0.101562 39.1483 0.074682 38.8933 0.0626152H38.1265L38.6979 0.101377C38.6605 0.135946 38.6156 0.161229 38.5668 0.175207C38.5179 0.189184 38.4665 0.191471 38.4167 0.181882C38.2834 0.181882 38.1206 0.140139 37.9134 0.137157C37.7061 0.134175 37.4811 0.116285 37.2295 0.137157C36.9655 0.165293 36.7065 0.229491 36.4597 0.327984C36.2022 0.379964 35.957 0.48118 35.7373 0.626152C35.5106 0.753531 35.2939 0.898061 35.0889 1.0585C34.7082 1.38579 34.2663 1.63314 33.7892 1.78602C33.3984 2.08419 34.0853 1.43419 33.4932 1.78602C33.4191 1.66378 33.7655 1.57731 33.5553 1.54153C33.2723 1.68234 32.9743 1.79037 32.6671 1.86355C32.5191 1.90529 32.3711 1.95598 32.2082 2.00965C32.0454 2.06332 31.9122 2.12892 31.7138 2.20942L31.6398 2.08717C31.2071 2.30253 30.7276 2.40505 30.2454 2.38534C29.8506 2.35839 29.4542 2.36737 29.0611 2.41218C28.7583 2.43541 28.4567 2.35446 28.2055 2.18259C27.9416 2.02374 27.6423 1.93451 27.3351 1.92318C27.2166 1.83373 27.1101 1.72937 27.0005 1.62501C26.5505 1.40437 26.5949 1.64887 26.1123 1.35666C26.1804 1.28212 25.4847 0.99588 25.8163 1.0585C25.6741 0.975008 25.5202 0.900466 25.384 0.831888C25.231 0.75495 25.0727 0.689184 24.9103 0.635097C24.7327 0.572482 24.555 0.51583 24.3715 0.459178L24.0961 0.375691C24.0014 0.351838 23.9037 0.336929 23.8001 0.319039C23.3996 0.230923 22.9943 0.167199 22.5862 0.128212C22.3849 0.116285 22.1688 0.0655969 21.9438 0.0596335C21.7188 0.0536702 21.4849 0.0268351 21.2451 0C20.9667 0.105001 20.6778 0.17899 20.3835 0.220644L20.1496 0.262388C20.0726 0.283259 20.0016 0.304131 19.9365 0.327984C19.8314 0.361009 19.7317 0.409219 19.6404 0.471105C19.5575 0.348856 17.864 1.08831 18.7877 0.545647C18.8706 0.49794 19.0246 0.44427 19.0246 0.477068L19.1104 0.327984C18.8482 0.372976 18.5913 0.444912 18.3436 0.542665C18.1113 0.646516 17.8892 0.772308 17.6805 0.918356C17.5768 0.986935 17.4703 1.05253 17.3844 1.12707L17.0883 1.36859C16.8929 1.53258 16.6739 1.66676 16.4696 1.84268C16.5925 1.75386 16.7211 1.67319 16.8545 1.60116C16.9522 1.54749 16.9906 1.54153 16.8959 1.65185L16.6679 1.78901L16.4755 1.94703L16.0906 2.26011L16.1883 2.05736L15.8922 2.28993C15.7975 2.37043 15.7117 2.46286 15.6199 2.54933C15.4452 2.72823 15.2587 2.89521 15.0958 3.08603C15.1667 3.05285 15.24 3.02494 15.3149 3.00255C14.8235 3.5303 14.48 3.63466 14.2165 4.44866C14.11 4.81243 14.6902 3.92687 14.3409 4.60669L14.2402 4.77068L14.1455 4.94362L13.9501 5.31931C13.8849 5.4505 13.808 5.58468 13.7488 5.7278C13.6895 5.87092 13.6392 6.02597 13.5859 6.17505C13.5326 6.32413 13.4764 6.47322 13.4201 6.63721L13.3224 7.09639C13.2899 7.25442 13.2573 7.41245 13.2218 7.56749C13.1862 7.72254 13.1685 7.86566 13.1418 7.99089C13.2839 7.90442 13.2336 8.19961 13.2099 8.5097L13.0974 8.53058C13.0678 9.72325 12.8014 8.92416 12.7303 10.096L12.6711 9.98563L12.8517 10.3226C12.9079 11.396 12.5379 10.8533 12.6563 12.0549C12.7066 11.5928 12.9287 11.8701 12.7954 12.4306L12.7125 12.2726C12.7131 12.4835 12.6953 12.694 12.6592 12.9017C12.6296 12.7079 12.5201 12.7824 12.4668 13.2446L12.3839 12.9196L12.4431 13.8141C12.227 14.4701 12.2033 15.5524 12.0109 15.8059C12.0109 15.8059 11.7148 17.2371 11.8273 17.5949C11.7711 17.2967 11.6112 18.0779 11.5313 17.8334C11.5845 18.4851 11.5131 19.1409 11.321 19.7655V19.6791C11.2737 19.8818 11.2352 20.0786 11.1997 20.2754L11.1553 20.5736L11.1108 20.8717C11.0102 21.5605 10.9391 22.1956 10.877 22.7979C10.877 22.8247 10.877 22.8247 10.9095 22.8307H10.9658L11.0842 22.8575L11.3122 22.9142L11.7681 23.0275L12.6563 23.2541L12.9879 23.3376L13.2455 23.4091C13.4172 23.4568 13.5918 23.5105 13.7695 23.5731C13.731 23.433 14.486 23.6835 14.332 23.4777C15.8656 23.6656 17.0202 24.3931 17.6597 23.9965C18.3555 24.0949 18.4561 24.2619 18.8085 24.3543H18.6397C19.9424 24.5332 20.3184 24.5869 21.2835 24.736C21.775 24.7598 21.8757 24.5302 22.7372 24.6942C22.4412 24.7539 22.8023 24.7807 23.1251 24.8225C22.9178 24.8225 22.8497 24.8225 23.2672 24.9536C23.3471 24.9304 23.4297 24.9174 23.5129 24.9149C23.5129 24.9149 23.5336 24.9328 23.5129 24.9417C24.0576 24.9626 23.9659 24.9238 23.7172 24.8851C23.7172 24.8851 23.7172 24.8523 23.6372 24.8165C24.185 24.9984 25.2034 24.9715 25.2597 25.1147C25.9911 25.1589 26.7244 25.1648 27.4564 25.1325C28.1255 25.1325 28.7591 25.0729 29.443 25.052C29.594 25.1355 29.2743 25.2041 28.8775 25.2309L29.8457 25.216C29.8457 25.3353 29.2891 25.2757 28.99 25.2936C29.5849 25.3816 30.1893 25.3816 30.7842 25.2936C31.4265 25.2157 32.0743 25.1937 32.7204 25.228L32.9958 25.1206H33.0787C33.0787 25.0699 33.3747 24.9894 33.5701 24.9656C33.7655 25.058 33.5701 25.2131 34.2363 25.1594C34.7721 25.222 35.7343 25.0073 36.4153 24.8612C36.0423 24.8821 36.1577 24.8105 36.3146 24.7598C36.5763 24.7704 36.8384 24.7634 37.0992 24.739L37.1466 24.8761C37.0015 24.7628 37.9963 24.6316 38.1117 24.5601C38.3131 24.6406 37.6084 24.7121 37.5196 24.7986C38.8489 24.6167 38.1857 24.727 39.5121 24.5213C40.2049 24.3126 39.3641 24.408 39.6838 24.2231C40.3193 24.0607 40.9653 23.9432 41.6171 23.8713L41.3714 23.7848C42.2316 23.534 43.1159 23.3761 44.0093 23.3137C46.1025 22.5892 47.2008 22.0316 47.6953 21.6887C48.1897 21.3458 48.1009 21.2146 47.7634 21.2146C47.3009 21.2313 46.8406 21.2852 46.3867 21.3756C45.8893 21.4561 45.4748 21.5396 45.4748 21.5396C43.808 21.8139 42.5586 22.0853 41.2293 22.3954C39.6677 22.7895 38.0865 23.1001 36.4923 23.3257Z" fill="#1D1D1D"/>
</g>
<defs>
<clipPath id="clip0_3766_10438">
<rect width="60" height="55" fill="white"/>
</clipPath>
</defs>
</svg>
